G75*
%MOIN*%
%OFA0B0*%
%FSLAX25Y25*%
%IPPOS*%
%LPD*%
%AMOC8*
5,1,8,0,0,1.08239X$1,22.5*
%
%ADD10C,0.00787*%
%ADD11C,0.00500*%
%ADD12C,0.00400*%
%ADD13C,0.00600*%
%ADD14R,0.01500X0.02000*%
%ADD15C,0.01000*%
%ADD16C,0.00000*%
%ADD17C,0.00300*%
%ADD18C,0.00800*%
%ADD19R,0.02000X0.01500*%
D10*
X0033854Y0080000D02*
X0033856Y0080039D01*
X0033862Y0080078D01*
X0033872Y0080116D01*
X0033885Y0080153D01*
X0033902Y0080188D01*
X0033922Y0080222D01*
X0033946Y0080253D01*
X0033973Y0080282D01*
X0034002Y0080308D01*
X0034034Y0080331D01*
X0034068Y0080351D01*
X0034104Y0080367D01*
X0034141Y0080379D01*
X0034180Y0080388D01*
X0034219Y0080393D01*
X0034258Y0080394D01*
X0034297Y0080391D01*
X0034336Y0080384D01*
X0034373Y0080373D01*
X0034410Y0080359D01*
X0034445Y0080341D01*
X0034478Y0080320D01*
X0034509Y0080295D01*
X0034537Y0080268D01*
X0034562Y0080238D01*
X0034584Y0080205D01*
X0034603Y0080171D01*
X0034618Y0080135D01*
X0034630Y0080097D01*
X0034638Y0080059D01*
X0034642Y0080020D01*
X0034642Y0079980D01*
X0034638Y0079941D01*
X0034630Y0079903D01*
X0034618Y0079865D01*
X0034603Y0079829D01*
X0034584Y0079795D01*
X0034562Y0079762D01*
X0034537Y0079732D01*
X0034509Y0079705D01*
X0034478Y0079680D01*
X0034445Y0079659D01*
X0034410Y0079641D01*
X0034373Y0079627D01*
X0034336Y0079616D01*
X0034297Y0079609D01*
X0034258Y0079606D01*
X0034219Y0079607D01*
X0034180Y0079612D01*
X0034141Y0079621D01*
X0034104Y0079633D01*
X0034068Y0079649D01*
X0034034Y0079669D01*
X0034002Y0079692D01*
X0033973Y0079718D01*
X0033946Y0079747D01*
X0033922Y0079778D01*
X0033902Y0079812D01*
X0033885Y0079847D01*
X0033872Y0079884D01*
X0033862Y0079922D01*
X0033856Y0079961D01*
X0033854Y0080000D01*
X0081854Y0080000D02*
X0081856Y0080039D01*
X0081862Y0080078D01*
X0081872Y0080116D01*
X0081885Y0080153D01*
X0081902Y0080188D01*
X0081922Y0080222D01*
X0081946Y0080253D01*
X0081973Y0080282D01*
X0082002Y0080308D01*
X0082034Y0080331D01*
X0082068Y0080351D01*
X0082104Y0080367D01*
X0082141Y0080379D01*
X0082180Y0080388D01*
X0082219Y0080393D01*
X0082258Y0080394D01*
X0082297Y0080391D01*
X0082336Y0080384D01*
X0082373Y0080373D01*
X0082410Y0080359D01*
X0082445Y0080341D01*
X0082478Y0080320D01*
X0082509Y0080295D01*
X0082537Y0080268D01*
X0082562Y0080238D01*
X0082584Y0080205D01*
X0082603Y0080171D01*
X0082618Y0080135D01*
X0082630Y0080097D01*
X0082638Y0080059D01*
X0082642Y0080020D01*
X0082642Y0079980D01*
X0082638Y0079941D01*
X0082630Y0079903D01*
X0082618Y0079865D01*
X0082603Y0079829D01*
X0082584Y0079795D01*
X0082562Y0079762D01*
X0082537Y0079732D01*
X0082509Y0079705D01*
X0082478Y0079680D01*
X0082445Y0079659D01*
X0082410Y0079641D01*
X0082373Y0079627D01*
X0082336Y0079616D01*
X0082297Y0079609D01*
X0082258Y0079606D01*
X0082219Y0079607D01*
X0082180Y0079612D01*
X0082141Y0079621D01*
X0082104Y0079633D01*
X0082068Y0079649D01*
X0082034Y0079669D01*
X0082002Y0079692D01*
X0081973Y0079718D01*
X0081946Y0079747D01*
X0081922Y0079778D01*
X0081902Y0079812D01*
X0081885Y0079847D01*
X0081872Y0079884D01*
X0081862Y0079922D01*
X0081856Y0079961D01*
X0081854Y0080000D01*
X0129854Y0080000D02*
X0129856Y0080039D01*
X0129862Y0080078D01*
X0129872Y0080116D01*
X0129885Y0080153D01*
X0129902Y0080188D01*
X0129922Y0080222D01*
X0129946Y0080253D01*
X0129973Y0080282D01*
X0130002Y0080308D01*
X0130034Y0080331D01*
X0130068Y0080351D01*
X0130104Y0080367D01*
X0130141Y0080379D01*
X0130180Y0080388D01*
X0130219Y0080393D01*
X0130258Y0080394D01*
X0130297Y0080391D01*
X0130336Y0080384D01*
X0130373Y0080373D01*
X0130410Y0080359D01*
X0130445Y0080341D01*
X0130478Y0080320D01*
X0130509Y0080295D01*
X0130537Y0080268D01*
X0130562Y0080238D01*
X0130584Y0080205D01*
X0130603Y0080171D01*
X0130618Y0080135D01*
X0130630Y0080097D01*
X0130638Y0080059D01*
X0130642Y0080020D01*
X0130642Y0079980D01*
X0130638Y0079941D01*
X0130630Y0079903D01*
X0130618Y0079865D01*
X0130603Y0079829D01*
X0130584Y0079795D01*
X0130562Y0079762D01*
X0130537Y0079732D01*
X0130509Y0079705D01*
X0130478Y0079680D01*
X0130445Y0079659D01*
X0130410Y0079641D01*
X0130373Y0079627D01*
X0130336Y0079616D01*
X0130297Y0079609D01*
X0130258Y0079606D01*
X0130219Y0079607D01*
X0130180Y0079612D01*
X0130141Y0079621D01*
X0130104Y0079633D01*
X0130068Y0079649D01*
X0130034Y0079669D01*
X0130002Y0079692D01*
X0129973Y0079718D01*
X0129946Y0079747D01*
X0129922Y0079778D01*
X0129902Y0079812D01*
X0129885Y0079847D01*
X0129872Y0079884D01*
X0129862Y0079922D01*
X0129856Y0079961D01*
X0129854Y0080000D01*
D11*
X0138024Y0084370D02*
X0165976Y0084370D01*
X0201551Y0030886D02*
X0220449Y0030886D01*
X0224996Y0020000D02*
X0224996Y0004902D01*
X0197004Y0004902D01*
X0197004Y0020000D01*
X0204091Y0004823D02*
X0204091Y0002697D01*
X0217909Y0002697D01*
X0217909Y0004823D01*
X0165976Y0005630D02*
X0138024Y0005630D01*
X0117976Y0005630D02*
X0090024Y0005630D01*
X0069976Y0005630D02*
X0042024Y0005630D01*
X0042024Y0084370D02*
X0069976Y0084370D01*
X0090024Y0084370D02*
X0117976Y0084370D01*
X0038832Y0192750D02*
X0036332Y0192750D01*
X0038457Y0195250D01*
X0037707Y0197250D02*
X0037634Y0197248D01*
X0037562Y0197243D01*
X0037490Y0197234D01*
X0037418Y0197221D01*
X0037347Y0197205D01*
X0037277Y0197185D01*
X0037209Y0197161D01*
X0037141Y0197135D01*
X0037075Y0197104D01*
X0037010Y0197071D01*
X0036948Y0197034D01*
X0036887Y0196995D01*
X0036828Y0196952D01*
X0036771Y0196906D01*
X0036717Y0196858D01*
X0036666Y0196807D01*
X0036616Y0196753D01*
X0036570Y0196697D01*
X0036527Y0196639D01*
X0036486Y0196578D01*
X0036449Y0196516D01*
X0036415Y0196452D01*
X0036384Y0196386D01*
X0036356Y0196319D01*
X0036332Y0196250D01*
X0038457Y0195250D02*
X0038503Y0195296D01*
X0038547Y0195345D01*
X0038587Y0195396D01*
X0038625Y0195449D01*
X0038660Y0195504D01*
X0038692Y0195561D01*
X0038721Y0195619D01*
X0038747Y0195679D01*
X0038769Y0195741D01*
X0038788Y0195803D01*
X0038804Y0195866D01*
X0038816Y0195930D01*
X0038825Y0195995D01*
X0038830Y0196060D01*
X0038832Y0196125D01*
X0038830Y0196190D01*
X0038824Y0196256D01*
X0038815Y0196320D01*
X0038802Y0196384D01*
X0038785Y0196448D01*
X0038764Y0196510D01*
X0038740Y0196571D01*
X0038712Y0196630D01*
X0038681Y0196688D01*
X0038647Y0196743D01*
X0038609Y0196797D01*
X0038569Y0196848D01*
X0038525Y0196897D01*
X0038479Y0196943D01*
X0038430Y0196987D01*
X0038379Y0197027D01*
X0038325Y0197065D01*
X0038270Y0197099D01*
X0038212Y0197130D01*
X0038153Y0197158D01*
X0038092Y0197182D01*
X0038030Y0197203D01*
X0037966Y0197220D01*
X0037902Y0197233D01*
X0037838Y0197242D01*
X0037772Y0197248D01*
X0037707Y0197250D01*
X0033307Y0197250D02*
X0032057Y0197250D01*
X0032057Y0192750D01*
X0032057Y0194750D02*
X0033307Y0194750D01*
X0033376Y0194752D01*
X0033445Y0194758D01*
X0033513Y0194767D01*
X0033580Y0194780D01*
X0033647Y0194797D01*
X0033713Y0194818D01*
X0033777Y0194842D01*
X0033840Y0194870D01*
X0033902Y0194901D01*
X0033962Y0194935D01*
X0034019Y0194973D01*
X0034075Y0195014D01*
X0034128Y0195057D01*
X0034179Y0195104D01*
X0034227Y0195153D01*
X0034272Y0195205D01*
X0034314Y0195260D01*
X0034353Y0195316D01*
X0034390Y0195375D01*
X0034422Y0195436D01*
X0034452Y0195498D01*
X0034478Y0195562D01*
X0034500Y0195627D01*
X0034519Y0195693D01*
X0034534Y0195760D01*
X0034545Y0195828D01*
X0034553Y0195897D01*
X0034557Y0195966D01*
X0034557Y0196034D01*
X0034553Y0196103D01*
X0034545Y0196172D01*
X0034534Y0196240D01*
X0034519Y0196307D01*
X0034500Y0196373D01*
X0034478Y0196438D01*
X0034452Y0196502D01*
X0034422Y0196564D01*
X0034390Y0196625D01*
X0034353Y0196684D01*
X0034314Y0196740D01*
X0034272Y0196795D01*
X0034227Y0196847D01*
X0034179Y0196896D01*
X0034128Y0196943D01*
X0034075Y0196986D01*
X0034019Y0197027D01*
X0033962Y0197065D01*
X0033902Y0197099D01*
X0033840Y0197130D01*
X0033777Y0197158D01*
X0033713Y0197182D01*
X0033647Y0197203D01*
X0033580Y0197220D01*
X0033513Y0197233D01*
X0033445Y0197242D01*
X0033376Y0197248D01*
X0033307Y0197250D01*
X0029703Y0197250D02*
X0029703Y0193750D01*
X0029701Y0193690D01*
X0029696Y0193629D01*
X0029687Y0193570D01*
X0029674Y0193511D01*
X0029658Y0193452D01*
X0029638Y0193395D01*
X0029615Y0193340D01*
X0029588Y0193285D01*
X0029559Y0193233D01*
X0029526Y0193182D01*
X0029490Y0193133D01*
X0029452Y0193087D01*
X0029410Y0193043D01*
X0029366Y0193001D01*
X0029320Y0192963D01*
X0029271Y0192927D01*
X0029220Y0192894D01*
X0029168Y0192865D01*
X0029113Y0192838D01*
X0029058Y0192815D01*
X0029001Y0192795D01*
X0028942Y0192779D01*
X0028883Y0192766D01*
X0028824Y0192757D01*
X0028763Y0192752D01*
X0028703Y0192750D01*
X0028203Y0192750D01*
X0028203Y0219443D02*
X0028703Y0219443D01*
X0028763Y0219445D01*
X0028824Y0219450D01*
X0028883Y0219459D01*
X0028942Y0219472D01*
X0029001Y0219488D01*
X0029058Y0219508D01*
X0029113Y0219531D01*
X0029168Y0219558D01*
X0029220Y0219587D01*
X0029271Y0219620D01*
X0029320Y0219656D01*
X0029366Y0219694D01*
X0029410Y0219736D01*
X0029452Y0219780D01*
X0029490Y0219826D01*
X0029526Y0219875D01*
X0029559Y0219926D01*
X0029588Y0219978D01*
X0029615Y0220033D01*
X0029638Y0220088D01*
X0029658Y0220145D01*
X0029674Y0220204D01*
X0029687Y0220263D01*
X0029696Y0220322D01*
X0029701Y0220383D01*
X0029703Y0220443D01*
X0029703Y0223943D01*
X0032057Y0223943D02*
X0032057Y0219443D01*
X0032057Y0221443D02*
X0033307Y0221443D01*
X0033376Y0221445D01*
X0033445Y0221451D01*
X0033513Y0221460D01*
X0033580Y0221473D01*
X0033647Y0221490D01*
X0033713Y0221511D01*
X0033777Y0221535D01*
X0033840Y0221563D01*
X0033902Y0221594D01*
X0033962Y0221628D01*
X0034019Y0221666D01*
X0034075Y0221707D01*
X0034128Y0221750D01*
X0034179Y0221797D01*
X0034227Y0221846D01*
X0034272Y0221898D01*
X0034314Y0221953D01*
X0034353Y0222009D01*
X0034390Y0222068D01*
X0034422Y0222129D01*
X0034452Y0222191D01*
X0034478Y0222255D01*
X0034500Y0222320D01*
X0034519Y0222386D01*
X0034534Y0222453D01*
X0034545Y0222521D01*
X0034553Y0222590D01*
X0034557Y0222659D01*
X0034557Y0222727D01*
X0034553Y0222796D01*
X0034545Y0222865D01*
X0034534Y0222933D01*
X0034519Y0223000D01*
X0034500Y0223066D01*
X0034478Y0223131D01*
X0034452Y0223195D01*
X0034422Y0223257D01*
X0034390Y0223318D01*
X0034353Y0223377D01*
X0034314Y0223433D01*
X0034272Y0223488D01*
X0034227Y0223540D01*
X0034179Y0223589D01*
X0034128Y0223636D01*
X0034075Y0223679D01*
X0034019Y0223720D01*
X0033962Y0223758D01*
X0033902Y0223792D01*
X0033840Y0223823D01*
X0033777Y0223851D01*
X0033713Y0223875D01*
X0033647Y0223896D01*
X0033580Y0223913D01*
X0033513Y0223926D01*
X0033445Y0223935D01*
X0033376Y0223941D01*
X0033307Y0223943D01*
X0032057Y0223943D01*
X0036332Y0222943D02*
X0037582Y0223943D01*
X0037582Y0219443D01*
X0036332Y0219443D02*
X0038832Y0219443D01*
X0169950Y0237450D02*
X0170450Y0237450D01*
X0170510Y0237452D01*
X0170571Y0237457D01*
X0170630Y0237466D01*
X0170689Y0237479D01*
X0170748Y0237495D01*
X0170805Y0237515D01*
X0170860Y0237538D01*
X0170915Y0237565D01*
X0170967Y0237594D01*
X0171018Y0237627D01*
X0171067Y0237663D01*
X0171113Y0237701D01*
X0171157Y0237743D01*
X0171199Y0237787D01*
X0171237Y0237833D01*
X0171273Y0237882D01*
X0171306Y0237933D01*
X0171335Y0237985D01*
X0171362Y0238040D01*
X0171385Y0238095D01*
X0171405Y0238152D01*
X0171421Y0238211D01*
X0171434Y0238270D01*
X0171443Y0238329D01*
X0171448Y0238390D01*
X0171450Y0238450D01*
X0171450Y0241950D01*
X0173804Y0241950D02*
X0173804Y0237450D01*
X0173804Y0239450D02*
X0175054Y0239450D01*
X0175123Y0239452D01*
X0175192Y0239458D01*
X0175260Y0239467D01*
X0175327Y0239480D01*
X0175394Y0239497D01*
X0175460Y0239518D01*
X0175524Y0239542D01*
X0175587Y0239570D01*
X0175649Y0239601D01*
X0175709Y0239635D01*
X0175766Y0239673D01*
X0175822Y0239714D01*
X0175875Y0239757D01*
X0175926Y0239804D01*
X0175974Y0239853D01*
X0176019Y0239905D01*
X0176061Y0239960D01*
X0176100Y0240016D01*
X0176137Y0240075D01*
X0176169Y0240136D01*
X0176199Y0240198D01*
X0176225Y0240262D01*
X0176247Y0240327D01*
X0176266Y0240393D01*
X0176281Y0240460D01*
X0176292Y0240528D01*
X0176300Y0240597D01*
X0176304Y0240666D01*
X0176304Y0240734D01*
X0176300Y0240803D01*
X0176292Y0240872D01*
X0176281Y0240940D01*
X0176266Y0241007D01*
X0176247Y0241073D01*
X0176225Y0241138D01*
X0176199Y0241202D01*
X0176169Y0241264D01*
X0176137Y0241325D01*
X0176100Y0241384D01*
X0176061Y0241440D01*
X0176019Y0241495D01*
X0175974Y0241547D01*
X0175926Y0241596D01*
X0175875Y0241643D01*
X0175822Y0241686D01*
X0175766Y0241727D01*
X0175709Y0241765D01*
X0175649Y0241799D01*
X0175587Y0241830D01*
X0175524Y0241858D01*
X0175460Y0241882D01*
X0175394Y0241903D01*
X0175327Y0241920D01*
X0175260Y0241933D01*
X0175192Y0241942D01*
X0175123Y0241948D01*
X0175054Y0241950D01*
X0173804Y0241950D01*
X0179079Y0241950D02*
X0178079Y0238450D01*
X0180579Y0238450D01*
X0179829Y0239450D02*
X0179829Y0237450D01*
X0179950Y0307450D02*
X0180450Y0307450D01*
X0180510Y0307452D01*
X0180571Y0307457D01*
X0180630Y0307466D01*
X0180689Y0307479D01*
X0180748Y0307495D01*
X0180805Y0307515D01*
X0180860Y0307538D01*
X0180915Y0307565D01*
X0180967Y0307594D01*
X0181018Y0307627D01*
X0181067Y0307663D01*
X0181113Y0307701D01*
X0181157Y0307743D01*
X0181199Y0307787D01*
X0181237Y0307833D01*
X0181273Y0307882D01*
X0181306Y0307933D01*
X0181335Y0307985D01*
X0181362Y0308040D01*
X0181385Y0308095D01*
X0181405Y0308152D01*
X0181421Y0308211D01*
X0181434Y0308270D01*
X0181443Y0308329D01*
X0181448Y0308390D01*
X0181450Y0308450D01*
X0181450Y0311950D01*
X0183804Y0311950D02*
X0183804Y0307450D01*
X0183804Y0309450D02*
X0185054Y0309450D01*
X0185123Y0309452D01*
X0185192Y0309458D01*
X0185260Y0309467D01*
X0185327Y0309480D01*
X0185394Y0309497D01*
X0185460Y0309518D01*
X0185524Y0309542D01*
X0185587Y0309570D01*
X0185649Y0309601D01*
X0185709Y0309635D01*
X0185766Y0309673D01*
X0185822Y0309714D01*
X0185875Y0309757D01*
X0185926Y0309804D01*
X0185974Y0309853D01*
X0186019Y0309905D01*
X0186061Y0309960D01*
X0186100Y0310016D01*
X0186137Y0310075D01*
X0186169Y0310136D01*
X0186199Y0310198D01*
X0186225Y0310262D01*
X0186247Y0310327D01*
X0186266Y0310393D01*
X0186281Y0310460D01*
X0186292Y0310528D01*
X0186300Y0310597D01*
X0186304Y0310666D01*
X0186304Y0310734D01*
X0186300Y0310803D01*
X0186292Y0310872D01*
X0186281Y0310940D01*
X0186266Y0311007D01*
X0186247Y0311073D01*
X0186225Y0311138D01*
X0186199Y0311202D01*
X0186169Y0311264D01*
X0186137Y0311325D01*
X0186100Y0311384D01*
X0186061Y0311440D01*
X0186019Y0311495D01*
X0185974Y0311547D01*
X0185926Y0311596D01*
X0185875Y0311643D01*
X0185822Y0311686D01*
X0185766Y0311727D01*
X0185709Y0311765D01*
X0185649Y0311799D01*
X0185587Y0311830D01*
X0185524Y0311858D01*
X0185460Y0311882D01*
X0185394Y0311903D01*
X0185327Y0311920D01*
X0185260Y0311933D01*
X0185192Y0311942D01*
X0185123Y0311948D01*
X0185054Y0311950D01*
X0183804Y0311950D01*
X0188079Y0311950D02*
X0189579Y0311950D01*
X0189641Y0311948D01*
X0189702Y0311942D01*
X0189763Y0311933D01*
X0189823Y0311920D01*
X0189882Y0311903D01*
X0189940Y0311882D01*
X0189997Y0311858D01*
X0190052Y0311831D01*
X0190105Y0311800D01*
X0190157Y0311766D01*
X0190206Y0311729D01*
X0190253Y0311689D01*
X0190297Y0311646D01*
X0190338Y0311601D01*
X0190377Y0311553D01*
X0190413Y0311502D01*
X0190445Y0311450D01*
X0190474Y0311396D01*
X0190500Y0311340D01*
X0190522Y0311282D01*
X0190541Y0311224D01*
X0190556Y0311164D01*
X0190567Y0311103D01*
X0190575Y0311042D01*
X0190579Y0310981D01*
X0190579Y0310919D01*
X0190575Y0310858D01*
X0190567Y0310797D01*
X0190556Y0310736D01*
X0190541Y0310676D01*
X0190522Y0310618D01*
X0190500Y0310560D01*
X0190474Y0310504D01*
X0190445Y0310450D01*
X0190413Y0310398D01*
X0190377Y0310347D01*
X0190338Y0310299D01*
X0190297Y0310254D01*
X0190253Y0310211D01*
X0190206Y0310171D01*
X0190157Y0310134D01*
X0190105Y0310100D01*
X0190052Y0310069D01*
X0189997Y0310042D01*
X0189940Y0310018D01*
X0189882Y0309997D01*
X0189823Y0309980D01*
X0189763Y0309967D01*
X0189702Y0309958D01*
X0189641Y0309952D01*
X0189579Y0309950D01*
X0188579Y0309950D01*
X0189329Y0309950D02*
X0189398Y0309948D01*
X0189467Y0309942D01*
X0189535Y0309933D01*
X0189602Y0309920D01*
X0189669Y0309903D01*
X0189735Y0309882D01*
X0189799Y0309858D01*
X0189862Y0309830D01*
X0189924Y0309799D01*
X0189984Y0309765D01*
X0190041Y0309727D01*
X0190097Y0309686D01*
X0190150Y0309643D01*
X0190201Y0309596D01*
X0190249Y0309547D01*
X0190294Y0309495D01*
X0190336Y0309440D01*
X0190375Y0309384D01*
X0190412Y0309325D01*
X0190444Y0309264D01*
X0190474Y0309202D01*
X0190500Y0309138D01*
X0190522Y0309073D01*
X0190541Y0309007D01*
X0190556Y0308940D01*
X0190567Y0308872D01*
X0190575Y0308803D01*
X0190579Y0308734D01*
X0190579Y0308666D01*
X0190575Y0308597D01*
X0190567Y0308528D01*
X0190556Y0308460D01*
X0190541Y0308393D01*
X0190522Y0308327D01*
X0190500Y0308262D01*
X0190474Y0308198D01*
X0190444Y0308136D01*
X0190412Y0308075D01*
X0190375Y0308016D01*
X0190336Y0307960D01*
X0190294Y0307905D01*
X0190249Y0307853D01*
X0190201Y0307804D01*
X0190150Y0307757D01*
X0190097Y0307714D01*
X0190041Y0307673D01*
X0189984Y0307635D01*
X0189924Y0307601D01*
X0189862Y0307570D01*
X0189799Y0307542D01*
X0189735Y0307518D01*
X0189669Y0307497D01*
X0189602Y0307480D01*
X0189535Y0307467D01*
X0189467Y0307458D01*
X0189398Y0307452D01*
X0189329Y0307450D01*
X0188079Y0307450D01*
D12*
X0113600Y0315200D02*
X0112600Y0315200D01*
X0113600Y0315200D02*
X0113662Y0315202D01*
X0113723Y0315208D01*
X0113784Y0315217D01*
X0113844Y0315230D01*
X0113903Y0315247D01*
X0113961Y0315268D01*
X0114018Y0315292D01*
X0114073Y0315319D01*
X0114126Y0315350D01*
X0114178Y0315384D01*
X0114227Y0315421D01*
X0114274Y0315461D01*
X0114318Y0315504D01*
X0114359Y0315549D01*
X0114398Y0315597D01*
X0114434Y0315648D01*
X0114466Y0315700D01*
X0114495Y0315754D01*
X0114521Y0315810D01*
X0114543Y0315868D01*
X0114562Y0315926D01*
X0114577Y0315986D01*
X0114588Y0316047D01*
X0114596Y0316108D01*
X0114600Y0316169D01*
X0114600Y0316231D01*
X0114596Y0316292D01*
X0114588Y0316353D01*
X0114577Y0316414D01*
X0114562Y0316474D01*
X0114543Y0316532D01*
X0114521Y0316590D01*
X0114495Y0316646D01*
X0114466Y0316700D01*
X0114434Y0316752D01*
X0114398Y0316803D01*
X0114359Y0316851D01*
X0114318Y0316896D01*
X0114274Y0316939D01*
X0114227Y0316979D01*
X0114178Y0317016D01*
X0114126Y0317050D01*
X0114073Y0317081D01*
X0114018Y0317108D01*
X0113961Y0317132D01*
X0113903Y0317153D01*
X0113844Y0317170D01*
X0113784Y0317183D01*
X0113723Y0317192D01*
X0113662Y0317198D01*
X0113600Y0317200D01*
X0113800Y0317200D02*
X0113000Y0317200D01*
X0113800Y0317200D02*
X0113856Y0317202D01*
X0113911Y0317208D01*
X0113966Y0317217D01*
X0114021Y0317231D01*
X0114074Y0317248D01*
X0114125Y0317269D01*
X0114176Y0317294D01*
X0114224Y0317322D01*
X0114270Y0317353D01*
X0114314Y0317387D01*
X0114356Y0317425D01*
X0114395Y0317465D01*
X0114430Y0317507D01*
X0114463Y0317553D01*
X0114493Y0317600D01*
X0114519Y0317649D01*
X0114542Y0317700D01*
X0114561Y0317753D01*
X0114576Y0317806D01*
X0114588Y0317861D01*
X0114596Y0317916D01*
X0114600Y0317972D01*
X0114600Y0318028D01*
X0114596Y0318084D01*
X0114588Y0318139D01*
X0114576Y0318194D01*
X0114561Y0318247D01*
X0114542Y0318300D01*
X0114519Y0318351D01*
X0114493Y0318400D01*
X0114463Y0318447D01*
X0114430Y0318493D01*
X0114395Y0318535D01*
X0114356Y0318575D01*
X0114314Y0318613D01*
X0114270Y0318647D01*
X0114224Y0318678D01*
X0114176Y0318706D01*
X0114125Y0318731D01*
X0114074Y0318752D01*
X0114021Y0318769D01*
X0113966Y0318783D01*
X0113911Y0318792D01*
X0113856Y0318798D01*
X0113800Y0318800D01*
X0112600Y0318800D01*
X0110000Y0318800D02*
X0110000Y0315200D01*
X0109000Y0315200D02*
X0111000Y0315200D01*
X0107600Y0315200D02*
X0105200Y0318800D01*
X0107600Y0318800D02*
X0105200Y0315200D01*
X0109000Y0318000D02*
X0110000Y0318800D01*
X0074600Y0315200D02*
X0072600Y0315200D01*
X0074300Y0317200D01*
X0073700Y0318800D02*
X0073634Y0318798D01*
X0073568Y0318792D01*
X0073503Y0318783D01*
X0073438Y0318770D01*
X0073374Y0318753D01*
X0073311Y0318733D01*
X0073250Y0318709D01*
X0073190Y0318681D01*
X0073131Y0318650D01*
X0073075Y0318616D01*
X0073020Y0318579D01*
X0072968Y0318539D01*
X0072918Y0318495D01*
X0072871Y0318449D01*
X0072826Y0318400D01*
X0072784Y0318349D01*
X0072745Y0318296D01*
X0072710Y0318240D01*
X0072677Y0318183D01*
X0072648Y0318123D01*
X0072622Y0318062D01*
X0072600Y0318000D01*
X0074300Y0317200D02*
X0074342Y0317243D01*
X0074382Y0317288D01*
X0074418Y0317336D01*
X0074452Y0317386D01*
X0074482Y0317438D01*
X0074510Y0317492D01*
X0074533Y0317547D01*
X0074553Y0317604D01*
X0074570Y0317662D01*
X0074583Y0317720D01*
X0074593Y0317780D01*
X0074598Y0317840D01*
X0074600Y0317900D01*
X0074598Y0317959D01*
X0074592Y0318017D01*
X0074583Y0318076D01*
X0074569Y0318133D01*
X0074552Y0318189D01*
X0074531Y0318244D01*
X0074507Y0318298D01*
X0074479Y0318350D01*
X0074448Y0318400D01*
X0074414Y0318448D01*
X0074377Y0318493D01*
X0074336Y0318536D01*
X0074293Y0318577D01*
X0074248Y0318614D01*
X0074200Y0318648D01*
X0074150Y0318679D01*
X0074098Y0318707D01*
X0074044Y0318731D01*
X0073989Y0318752D01*
X0073933Y0318769D01*
X0073876Y0318783D01*
X0073817Y0318792D01*
X0073759Y0318798D01*
X0073700Y0318800D01*
X0071000Y0315200D02*
X0069000Y0315200D01*
X0070000Y0315200D02*
X0070000Y0318800D01*
X0069000Y0318000D01*
X0067600Y0318800D02*
X0065200Y0315200D01*
X0067600Y0315200D02*
X0065200Y0318800D01*
X0065200Y0268800D02*
X0067600Y0265200D01*
X0069000Y0266200D02*
X0069000Y0267200D01*
X0070200Y0267200D01*
X0069000Y0267200D02*
X0069002Y0267279D01*
X0069008Y0267357D01*
X0069017Y0267435D01*
X0069031Y0267512D01*
X0069048Y0267589D01*
X0069069Y0267664D01*
X0069094Y0267739D01*
X0069122Y0267812D01*
X0069154Y0267884D01*
X0069189Y0267954D01*
X0069228Y0268023D01*
X0069270Y0268089D01*
X0069315Y0268153D01*
X0069363Y0268215D01*
X0069414Y0268274D01*
X0069469Y0268331D01*
X0069526Y0268386D01*
X0069585Y0268437D01*
X0069647Y0268485D01*
X0069711Y0268530D01*
X0069777Y0268572D01*
X0069846Y0268611D01*
X0069916Y0268646D01*
X0069988Y0268678D01*
X0070061Y0268706D01*
X0070136Y0268731D01*
X0070211Y0268752D01*
X0070288Y0268769D01*
X0070365Y0268783D01*
X0070443Y0268792D01*
X0070521Y0268798D01*
X0070600Y0268800D01*
X0071000Y0266400D02*
X0071000Y0266200D01*
X0071000Y0266400D02*
X0070998Y0266455D01*
X0070993Y0266509D01*
X0070983Y0266563D01*
X0070970Y0266616D01*
X0070954Y0266668D01*
X0070934Y0266719D01*
X0070910Y0266768D01*
X0070884Y0266816D01*
X0070854Y0266861D01*
X0070821Y0266905D01*
X0070785Y0266946D01*
X0070746Y0266985D01*
X0070705Y0267021D01*
X0070661Y0267054D01*
X0070616Y0267084D01*
X0070568Y0267110D01*
X0070519Y0267134D01*
X0070468Y0267154D01*
X0070416Y0267170D01*
X0070363Y0267183D01*
X0070309Y0267193D01*
X0070255Y0267198D01*
X0070200Y0267200D01*
X0071000Y0266200D02*
X0070998Y0266138D01*
X0070992Y0266077D01*
X0070983Y0266016D01*
X0070970Y0265956D01*
X0070953Y0265897D01*
X0070932Y0265839D01*
X0070908Y0265782D01*
X0070881Y0265727D01*
X0070850Y0265674D01*
X0070816Y0265622D01*
X0070779Y0265573D01*
X0070739Y0265526D01*
X0070696Y0265482D01*
X0070651Y0265441D01*
X0070603Y0265402D01*
X0070552Y0265366D01*
X0070500Y0265334D01*
X0070446Y0265305D01*
X0070390Y0265279D01*
X0070332Y0265257D01*
X0070274Y0265238D01*
X0070214Y0265223D01*
X0070153Y0265212D01*
X0070092Y0265204D01*
X0070031Y0265200D01*
X0069969Y0265200D01*
X0069908Y0265204D01*
X0069847Y0265212D01*
X0069786Y0265223D01*
X0069726Y0265238D01*
X0069668Y0265257D01*
X0069610Y0265279D01*
X0069554Y0265305D01*
X0069500Y0265334D01*
X0069448Y0265366D01*
X0069397Y0265402D01*
X0069349Y0265441D01*
X0069304Y0265482D01*
X0069261Y0265526D01*
X0069221Y0265573D01*
X0069184Y0265622D01*
X0069150Y0265674D01*
X0069119Y0265727D01*
X0069092Y0265782D01*
X0069068Y0265839D01*
X0069047Y0265897D01*
X0069030Y0265956D01*
X0069017Y0266016D01*
X0069008Y0266077D01*
X0069002Y0266138D01*
X0069000Y0266200D01*
X0067600Y0268800D02*
X0065200Y0265200D01*
X0040425Y0219950D02*
X0040482Y0219948D01*
X0040539Y0219943D01*
X0040596Y0219933D01*
X0040651Y0219920D01*
X0040706Y0219904D01*
X0040760Y0219883D01*
X0040812Y0219860D01*
X0040863Y0219833D01*
X0040911Y0219803D01*
X0040958Y0219769D01*
X0041002Y0219733D01*
X0041044Y0219694D01*
X0041083Y0219652D01*
X0041119Y0219608D01*
X0041153Y0219561D01*
X0041183Y0219513D01*
X0041210Y0219462D01*
X0041233Y0219410D01*
X0041254Y0219356D01*
X0041270Y0219301D01*
X0041283Y0219246D01*
X0041293Y0219189D01*
X0041298Y0219132D01*
X0041300Y0219075D01*
X0041008Y0218394D02*
X0039356Y0216450D01*
X0041300Y0216450D01*
X0039356Y0219172D02*
X0039377Y0219233D01*
X0039402Y0219292D01*
X0039430Y0219350D01*
X0039462Y0219406D01*
X0039497Y0219460D01*
X0039534Y0219512D01*
X0039575Y0219562D01*
X0039618Y0219609D01*
X0039665Y0219654D01*
X0039713Y0219696D01*
X0039764Y0219735D01*
X0039817Y0219771D01*
X0039872Y0219805D01*
X0039929Y0219835D01*
X0039987Y0219861D01*
X0040047Y0219885D01*
X0040108Y0219904D01*
X0040170Y0219921D01*
X0040233Y0219934D01*
X0040297Y0219943D01*
X0040361Y0219948D01*
X0040425Y0219950D01*
X0041300Y0219075D02*
X0041298Y0219016D01*
X0041293Y0218958D01*
X0041284Y0218900D01*
X0041271Y0218843D01*
X0041255Y0218787D01*
X0041235Y0218732D01*
X0041212Y0218678D01*
X0041186Y0218626D01*
X0041156Y0218575D01*
X0041123Y0218527D01*
X0041088Y0218480D01*
X0041049Y0218436D01*
X0041008Y0218394D01*
X0037816Y0216450D02*
X0037038Y0218006D01*
X0036844Y0218006D02*
X0035871Y0218006D01*
X0036844Y0218006D02*
X0036905Y0218008D01*
X0036966Y0218014D01*
X0037026Y0218023D01*
X0037086Y0218037D01*
X0037144Y0218054D01*
X0037202Y0218074D01*
X0037258Y0218099D01*
X0037312Y0218126D01*
X0037365Y0218157D01*
X0037415Y0218192D01*
X0037464Y0218229D01*
X0037509Y0218269D01*
X0037553Y0218313D01*
X0037593Y0218358D01*
X0037630Y0218407D01*
X0037665Y0218457D01*
X0037696Y0218510D01*
X0037723Y0218564D01*
X0037748Y0218620D01*
X0037768Y0218678D01*
X0037785Y0218736D01*
X0037799Y0218796D01*
X0037808Y0218856D01*
X0037814Y0218917D01*
X0037816Y0218978D01*
X0037814Y0219039D01*
X0037808Y0219100D01*
X0037799Y0219160D01*
X0037785Y0219220D01*
X0037768Y0219278D01*
X0037748Y0219336D01*
X0037723Y0219392D01*
X0037696Y0219446D01*
X0037665Y0219499D01*
X0037630Y0219549D01*
X0037593Y0219598D01*
X0037553Y0219643D01*
X0037509Y0219687D01*
X0037464Y0219727D01*
X0037415Y0219764D01*
X0037365Y0219799D01*
X0037312Y0219830D01*
X0037258Y0219857D01*
X0037202Y0219882D01*
X0037144Y0219902D01*
X0037086Y0219919D01*
X0037026Y0219933D01*
X0036966Y0219942D01*
X0036905Y0219948D01*
X0036844Y0219950D01*
X0035871Y0219950D01*
X0035871Y0216450D01*
X0026101Y0240550D02*
X0024934Y0240550D01*
X0026101Y0240550D02*
X0026157Y0240552D01*
X0026212Y0240558D01*
X0026266Y0240568D01*
X0026320Y0240582D01*
X0026373Y0240599D01*
X0026424Y0240620D01*
X0026474Y0240645D01*
X0026522Y0240674D01*
X0026567Y0240705D01*
X0026610Y0240740D01*
X0026651Y0240778D01*
X0026689Y0240819D01*
X0026724Y0240862D01*
X0026755Y0240907D01*
X0026784Y0240955D01*
X0026809Y0241005D01*
X0026830Y0241056D01*
X0026847Y0241109D01*
X0026861Y0241163D01*
X0026871Y0241217D01*
X0026877Y0241272D01*
X0026879Y0241328D01*
X0026879Y0241717D01*
X0026877Y0241773D01*
X0026871Y0241828D01*
X0026861Y0241882D01*
X0026847Y0241936D01*
X0026830Y0241989D01*
X0026809Y0242040D01*
X0026784Y0242090D01*
X0026755Y0242138D01*
X0026724Y0242183D01*
X0026689Y0242226D01*
X0026651Y0242267D01*
X0026610Y0242305D01*
X0026567Y0242340D01*
X0026522Y0242371D01*
X0026474Y0242400D01*
X0026424Y0242425D01*
X0026373Y0242446D01*
X0026320Y0242463D01*
X0026266Y0242477D01*
X0026212Y0242487D01*
X0026157Y0242493D01*
X0026101Y0242495D01*
X0026101Y0242494D02*
X0024934Y0242494D01*
X0024934Y0244050D01*
X0026879Y0244050D01*
X0022617Y0242106D02*
X0023394Y0240550D01*
X0022422Y0242106D02*
X0021450Y0242106D01*
X0022422Y0242106D02*
X0022483Y0242108D01*
X0022544Y0242114D01*
X0022604Y0242123D01*
X0022664Y0242137D01*
X0022722Y0242154D01*
X0022780Y0242174D01*
X0022836Y0242199D01*
X0022890Y0242226D01*
X0022943Y0242257D01*
X0022993Y0242292D01*
X0023042Y0242329D01*
X0023087Y0242369D01*
X0023131Y0242413D01*
X0023171Y0242458D01*
X0023208Y0242507D01*
X0023243Y0242557D01*
X0023274Y0242610D01*
X0023301Y0242664D01*
X0023326Y0242720D01*
X0023346Y0242778D01*
X0023363Y0242836D01*
X0023377Y0242896D01*
X0023386Y0242956D01*
X0023392Y0243017D01*
X0023394Y0243078D01*
X0023392Y0243139D01*
X0023386Y0243200D01*
X0023377Y0243260D01*
X0023363Y0243320D01*
X0023346Y0243378D01*
X0023326Y0243436D01*
X0023301Y0243492D01*
X0023274Y0243546D01*
X0023243Y0243599D01*
X0023208Y0243649D01*
X0023171Y0243698D01*
X0023131Y0243743D01*
X0023087Y0243787D01*
X0023042Y0243827D01*
X0022993Y0243864D01*
X0022943Y0243899D01*
X0022890Y0243930D01*
X0022836Y0243957D01*
X0022780Y0243982D01*
X0022722Y0244002D01*
X0022664Y0244019D01*
X0022604Y0244033D01*
X0022544Y0244042D01*
X0022483Y0244048D01*
X0022422Y0244050D01*
X0021450Y0244050D01*
X0021450Y0240550D01*
X0022600Y0170800D02*
X0020200Y0167200D01*
X0022600Y0167200D02*
X0020200Y0170800D01*
X0024200Y0170000D02*
X0024202Y0169944D01*
X0024208Y0169889D01*
X0024217Y0169834D01*
X0024231Y0169779D01*
X0024248Y0169726D01*
X0024269Y0169675D01*
X0024294Y0169624D01*
X0024322Y0169576D01*
X0024353Y0169530D01*
X0024387Y0169486D01*
X0024425Y0169444D01*
X0024465Y0169405D01*
X0024507Y0169370D01*
X0024553Y0169337D01*
X0024600Y0169307D01*
X0024649Y0169281D01*
X0024700Y0169258D01*
X0024753Y0169239D01*
X0024806Y0169224D01*
X0024861Y0169212D01*
X0024916Y0169204D01*
X0024972Y0169200D01*
X0025028Y0169200D01*
X0025084Y0169204D01*
X0025139Y0169212D01*
X0025194Y0169224D01*
X0025247Y0169239D01*
X0025300Y0169258D01*
X0025351Y0169281D01*
X0025400Y0169307D01*
X0025447Y0169337D01*
X0025493Y0169370D01*
X0025535Y0169405D01*
X0025575Y0169444D01*
X0025613Y0169486D01*
X0025647Y0169530D01*
X0025678Y0169576D01*
X0025706Y0169624D01*
X0025731Y0169675D01*
X0025752Y0169726D01*
X0025769Y0169779D01*
X0025783Y0169834D01*
X0025792Y0169889D01*
X0025798Y0169944D01*
X0025800Y0170000D01*
X0025798Y0170056D01*
X0025792Y0170111D01*
X0025783Y0170166D01*
X0025769Y0170221D01*
X0025752Y0170274D01*
X0025731Y0170325D01*
X0025706Y0170376D01*
X0025678Y0170424D01*
X0025647Y0170470D01*
X0025613Y0170514D01*
X0025575Y0170556D01*
X0025535Y0170595D01*
X0025493Y0170630D01*
X0025447Y0170663D01*
X0025400Y0170693D01*
X0025351Y0170719D01*
X0025300Y0170742D01*
X0025247Y0170761D01*
X0025194Y0170776D01*
X0025139Y0170788D01*
X0025084Y0170796D01*
X0025028Y0170800D01*
X0024972Y0170800D01*
X0024916Y0170796D01*
X0024861Y0170788D01*
X0024806Y0170776D01*
X0024753Y0170761D01*
X0024700Y0170742D01*
X0024649Y0170719D01*
X0024600Y0170693D01*
X0024553Y0170663D01*
X0024507Y0170630D01*
X0024465Y0170595D01*
X0024425Y0170556D01*
X0024387Y0170514D01*
X0024353Y0170470D01*
X0024322Y0170424D01*
X0024294Y0170376D01*
X0024269Y0170325D01*
X0024248Y0170274D01*
X0024231Y0170221D01*
X0024217Y0170166D01*
X0024208Y0170111D01*
X0024202Y0170056D01*
X0024200Y0170000D01*
X0024000Y0168200D02*
X0024002Y0168138D01*
X0024008Y0168077D01*
X0024017Y0168016D01*
X0024030Y0167956D01*
X0024047Y0167897D01*
X0024068Y0167839D01*
X0024092Y0167782D01*
X0024119Y0167727D01*
X0024150Y0167674D01*
X0024184Y0167622D01*
X0024221Y0167573D01*
X0024261Y0167526D01*
X0024304Y0167482D01*
X0024349Y0167441D01*
X0024397Y0167402D01*
X0024448Y0167366D01*
X0024500Y0167334D01*
X0024554Y0167305D01*
X0024610Y0167279D01*
X0024668Y0167257D01*
X0024726Y0167238D01*
X0024786Y0167223D01*
X0024847Y0167212D01*
X0024908Y0167204D01*
X0024969Y0167200D01*
X0025031Y0167200D01*
X0025092Y0167204D01*
X0025153Y0167212D01*
X0025214Y0167223D01*
X0025274Y0167238D01*
X0025332Y0167257D01*
X0025390Y0167279D01*
X0025446Y0167305D01*
X0025500Y0167334D01*
X0025552Y0167366D01*
X0025603Y0167402D01*
X0025651Y0167441D01*
X0025696Y0167482D01*
X0025739Y0167526D01*
X0025779Y0167573D01*
X0025816Y0167622D01*
X0025850Y0167674D01*
X0025881Y0167727D01*
X0025908Y0167782D01*
X0025932Y0167839D01*
X0025953Y0167897D01*
X0025970Y0167956D01*
X0025983Y0168016D01*
X0025992Y0168077D01*
X0025998Y0168138D01*
X0026000Y0168200D01*
X0025998Y0168262D01*
X0025992Y0168323D01*
X0025983Y0168384D01*
X0025970Y0168444D01*
X0025953Y0168503D01*
X0025932Y0168561D01*
X0025908Y0168618D01*
X0025881Y0168673D01*
X0025850Y0168726D01*
X0025816Y0168778D01*
X0025779Y0168827D01*
X0025739Y0168874D01*
X0025696Y0168918D01*
X0025651Y0168959D01*
X0025603Y0168998D01*
X0025552Y0169034D01*
X0025500Y0169066D01*
X0025446Y0169095D01*
X0025390Y0169121D01*
X0025332Y0169143D01*
X0025274Y0169162D01*
X0025214Y0169177D01*
X0025153Y0169188D01*
X0025092Y0169196D01*
X0025031Y0169200D01*
X0024969Y0169200D01*
X0024908Y0169196D01*
X0024847Y0169188D01*
X0024786Y0169177D01*
X0024726Y0169162D01*
X0024668Y0169143D01*
X0024610Y0169121D01*
X0024554Y0169095D01*
X0024500Y0169066D01*
X0024448Y0169034D01*
X0024397Y0168998D01*
X0024349Y0168959D01*
X0024304Y0168918D01*
X0024261Y0168874D01*
X0024221Y0168827D01*
X0024184Y0168778D01*
X0024150Y0168726D01*
X0024119Y0168673D01*
X0024092Y0168618D01*
X0024068Y0168561D01*
X0024047Y0168503D01*
X0024030Y0168444D01*
X0024017Y0168384D01*
X0024008Y0168323D01*
X0024002Y0168262D01*
X0024000Y0168200D01*
X0024000Y0131800D02*
X0026000Y0131800D01*
X0025000Y0128200D01*
X0022600Y0128200D02*
X0020200Y0131800D01*
X0022600Y0131800D02*
X0020200Y0128200D01*
X0024000Y0131400D02*
X0024000Y0131800D01*
X0039763Y0089867D02*
X0039763Y0086545D01*
X0039765Y0086475D01*
X0039771Y0086404D01*
X0039780Y0086335D01*
X0039794Y0086266D01*
X0039811Y0086197D01*
X0039832Y0086130D01*
X0039857Y0086064D01*
X0039885Y0086000D01*
X0039917Y0085937D01*
X0039952Y0085876D01*
X0039991Y0085817D01*
X0040032Y0085760D01*
X0040077Y0085706D01*
X0040125Y0085654D01*
X0040175Y0085605D01*
X0040229Y0085558D01*
X0040284Y0085515D01*
X0040342Y0085475D01*
X0040402Y0085438D01*
X0040464Y0085405D01*
X0040528Y0085375D01*
X0040593Y0085348D01*
X0040659Y0085325D01*
X0040727Y0085306D01*
X0040796Y0085291D01*
X0040865Y0085279D01*
X0040935Y0085271D01*
X0041006Y0085267D01*
X0041076Y0085267D01*
X0041147Y0085271D01*
X0041217Y0085279D01*
X0041286Y0085291D01*
X0041355Y0085306D01*
X0041423Y0085325D01*
X0041489Y0085348D01*
X0041554Y0085375D01*
X0041618Y0085405D01*
X0041680Y0085438D01*
X0041740Y0085475D01*
X0041798Y0085515D01*
X0041853Y0085558D01*
X0041907Y0085605D01*
X0041957Y0085654D01*
X0042005Y0085706D01*
X0042050Y0085760D01*
X0042091Y0085817D01*
X0042130Y0085876D01*
X0042165Y0085937D01*
X0042197Y0086000D01*
X0042225Y0086064D01*
X0042250Y0086130D01*
X0042271Y0086197D01*
X0042288Y0086266D01*
X0042302Y0086335D01*
X0042311Y0086404D01*
X0042317Y0086475D01*
X0042319Y0086545D01*
X0042319Y0089867D01*
X0044413Y0089867D02*
X0045946Y0089867D01*
X0046009Y0089865D01*
X0046072Y0089859D01*
X0046134Y0089850D01*
X0046195Y0089836D01*
X0046256Y0089819D01*
X0046315Y0089798D01*
X0046373Y0089773D01*
X0046430Y0089745D01*
X0046484Y0089714D01*
X0046536Y0089679D01*
X0046587Y0089641D01*
X0046635Y0089600D01*
X0046680Y0089556D01*
X0046722Y0089510D01*
X0046762Y0089461D01*
X0046798Y0089410D01*
X0046831Y0089356D01*
X0046861Y0089301D01*
X0046887Y0089243D01*
X0046910Y0089185D01*
X0046929Y0089125D01*
X0046944Y0089064D01*
X0046956Y0089002D01*
X0046964Y0088939D01*
X0046968Y0088876D01*
X0046968Y0088814D01*
X0046964Y0088751D01*
X0046956Y0088688D01*
X0046944Y0088626D01*
X0046929Y0088565D01*
X0046910Y0088505D01*
X0046887Y0088447D01*
X0046861Y0088389D01*
X0046831Y0088334D01*
X0046798Y0088280D01*
X0046762Y0088229D01*
X0046722Y0088180D01*
X0046680Y0088134D01*
X0046635Y0088090D01*
X0046587Y0088049D01*
X0046536Y0088011D01*
X0046484Y0087976D01*
X0046430Y0087945D01*
X0046373Y0087917D01*
X0046315Y0087892D01*
X0046256Y0087871D01*
X0046195Y0087854D01*
X0046134Y0087840D01*
X0046072Y0087831D01*
X0046009Y0087825D01*
X0045946Y0087823D01*
X0045946Y0087822D02*
X0044924Y0087822D01*
X0045691Y0087823D02*
X0045761Y0087821D01*
X0045832Y0087815D01*
X0045901Y0087806D01*
X0045970Y0087792D01*
X0046039Y0087775D01*
X0046106Y0087754D01*
X0046172Y0087729D01*
X0046236Y0087701D01*
X0046299Y0087669D01*
X0046360Y0087634D01*
X0046419Y0087595D01*
X0046476Y0087554D01*
X0046530Y0087509D01*
X0046582Y0087461D01*
X0046631Y0087411D01*
X0046678Y0087357D01*
X0046721Y0087302D01*
X0046761Y0087244D01*
X0046798Y0087184D01*
X0046831Y0087122D01*
X0046861Y0087058D01*
X0046888Y0086993D01*
X0046911Y0086927D01*
X0046930Y0086859D01*
X0046945Y0086790D01*
X0046957Y0086721D01*
X0046965Y0086651D01*
X0046969Y0086580D01*
X0046969Y0086510D01*
X0046965Y0086439D01*
X0046957Y0086369D01*
X0046945Y0086300D01*
X0046930Y0086231D01*
X0046911Y0086163D01*
X0046888Y0086097D01*
X0046861Y0086032D01*
X0046831Y0085968D01*
X0046798Y0085906D01*
X0046761Y0085846D01*
X0046721Y0085788D01*
X0046678Y0085733D01*
X0046631Y0085679D01*
X0046582Y0085629D01*
X0046530Y0085581D01*
X0046476Y0085536D01*
X0046419Y0085495D01*
X0046360Y0085456D01*
X0046299Y0085421D01*
X0046236Y0085389D01*
X0046172Y0085361D01*
X0046106Y0085336D01*
X0046039Y0085315D01*
X0045970Y0085298D01*
X0045901Y0085284D01*
X0045832Y0085275D01*
X0045761Y0085269D01*
X0045691Y0085267D01*
X0044413Y0085267D01*
X0082861Y0131200D02*
X0082861Y0134700D01*
X0083834Y0134700D01*
X0083895Y0134698D01*
X0083956Y0134692D01*
X0084016Y0134683D01*
X0084076Y0134669D01*
X0084134Y0134652D01*
X0084192Y0134632D01*
X0084248Y0134607D01*
X0084302Y0134580D01*
X0084355Y0134549D01*
X0084405Y0134514D01*
X0084454Y0134477D01*
X0084499Y0134437D01*
X0084543Y0134393D01*
X0084583Y0134348D01*
X0084620Y0134299D01*
X0084655Y0134249D01*
X0084686Y0134196D01*
X0084713Y0134142D01*
X0084738Y0134086D01*
X0084758Y0134028D01*
X0084775Y0133970D01*
X0084789Y0133910D01*
X0084798Y0133850D01*
X0084804Y0133789D01*
X0084806Y0133728D01*
X0084804Y0133667D01*
X0084798Y0133606D01*
X0084789Y0133546D01*
X0084775Y0133486D01*
X0084758Y0133428D01*
X0084738Y0133370D01*
X0084713Y0133314D01*
X0084686Y0133260D01*
X0084655Y0133207D01*
X0084620Y0133157D01*
X0084583Y0133108D01*
X0084543Y0133063D01*
X0084499Y0133019D01*
X0084454Y0132979D01*
X0084405Y0132942D01*
X0084355Y0132907D01*
X0084302Y0132876D01*
X0084248Y0132849D01*
X0084192Y0132824D01*
X0084134Y0132804D01*
X0084076Y0132787D01*
X0084016Y0132773D01*
X0083956Y0132764D01*
X0083895Y0132758D01*
X0083834Y0132756D01*
X0082861Y0132756D01*
X0084028Y0132756D02*
X0084806Y0131200D01*
X0086346Y0131200D02*
X0088290Y0131200D01*
X0087318Y0131200D02*
X0087318Y0134700D01*
X0086346Y0133922D01*
X0089856Y0131200D02*
X0091800Y0131200D01*
X0089856Y0131200D02*
X0091508Y0133144D01*
X0090925Y0134700D02*
X0090861Y0134698D01*
X0090797Y0134693D01*
X0090733Y0134684D01*
X0090670Y0134671D01*
X0090608Y0134654D01*
X0090547Y0134635D01*
X0090487Y0134611D01*
X0090429Y0134585D01*
X0090372Y0134555D01*
X0090317Y0134521D01*
X0090264Y0134485D01*
X0090213Y0134446D01*
X0090165Y0134404D01*
X0090118Y0134359D01*
X0090075Y0134312D01*
X0090034Y0134262D01*
X0089997Y0134210D01*
X0089962Y0134156D01*
X0089930Y0134100D01*
X0089902Y0134042D01*
X0089877Y0133983D01*
X0089856Y0133922D01*
X0091508Y0133144D02*
X0091549Y0133186D01*
X0091588Y0133230D01*
X0091623Y0133277D01*
X0091656Y0133325D01*
X0091686Y0133376D01*
X0091712Y0133428D01*
X0091735Y0133482D01*
X0091755Y0133537D01*
X0091771Y0133593D01*
X0091784Y0133650D01*
X0091793Y0133708D01*
X0091798Y0133766D01*
X0091800Y0133825D01*
X0091798Y0133882D01*
X0091793Y0133939D01*
X0091783Y0133996D01*
X0091770Y0134051D01*
X0091754Y0134106D01*
X0091733Y0134160D01*
X0091710Y0134212D01*
X0091683Y0134263D01*
X0091653Y0134311D01*
X0091619Y0134358D01*
X0091583Y0134402D01*
X0091544Y0134444D01*
X0091502Y0134483D01*
X0091458Y0134519D01*
X0091411Y0134553D01*
X0091363Y0134583D01*
X0091312Y0134610D01*
X0091260Y0134633D01*
X0091206Y0134654D01*
X0091151Y0134670D01*
X0091096Y0134683D01*
X0091039Y0134693D01*
X0090982Y0134698D01*
X0090925Y0134700D01*
X0074144Y0155300D02*
X0073367Y0156856D01*
X0073172Y0156856D02*
X0072200Y0156856D01*
X0073172Y0156856D02*
X0073233Y0156858D01*
X0073294Y0156864D01*
X0073354Y0156873D01*
X0073414Y0156887D01*
X0073472Y0156904D01*
X0073530Y0156924D01*
X0073586Y0156949D01*
X0073640Y0156976D01*
X0073693Y0157007D01*
X0073743Y0157042D01*
X0073792Y0157079D01*
X0073837Y0157119D01*
X0073881Y0157163D01*
X0073921Y0157208D01*
X0073958Y0157257D01*
X0073993Y0157307D01*
X0074024Y0157360D01*
X0074051Y0157414D01*
X0074076Y0157470D01*
X0074096Y0157528D01*
X0074113Y0157586D01*
X0074127Y0157646D01*
X0074136Y0157706D01*
X0074142Y0157767D01*
X0074144Y0157828D01*
X0074142Y0157889D01*
X0074136Y0157950D01*
X0074127Y0158010D01*
X0074113Y0158070D01*
X0074096Y0158128D01*
X0074076Y0158186D01*
X0074051Y0158242D01*
X0074024Y0158296D01*
X0073993Y0158349D01*
X0073958Y0158399D01*
X0073921Y0158448D01*
X0073881Y0158493D01*
X0073837Y0158537D01*
X0073792Y0158577D01*
X0073743Y0158614D01*
X0073693Y0158649D01*
X0073640Y0158680D01*
X0073586Y0158707D01*
X0073530Y0158732D01*
X0073472Y0158752D01*
X0073414Y0158769D01*
X0073354Y0158783D01*
X0073294Y0158792D01*
X0073233Y0158798D01*
X0073172Y0158800D01*
X0072200Y0158800D01*
X0072200Y0155300D01*
X0075684Y0157633D02*
X0075684Y0157828D01*
X0075684Y0157633D02*
X0075686Y0157577D01*
X0075692Y0157522D01*
X0075702Y0157468D01*
X0075716Y0157414D01*
X0075733Y0157361D01*
X0075754Y0157310D01*
X0075779Y0157260D01*
X0075808Y0157212D01*
X0075839Y0157167D01*
X0075874Y0157124D01*
X0075912Y0157083D01*
X0075953Y0157045D01*
X0075996Y0157010D01*
X0076041Y0156979D01*
X0076089Y0156950D01*
X0076139Y0156925D01*
X0076190Y0156904D01*
X0076243Y0156887D01*
X0076297Y0156873D01*
X0076351Y0156863D01*
X0076406Y0156857D01*
X0076462Y0156855D01*
X0076462Y0156856D02*
X0077629Y0156856D01*
X0077629Y0157828D01*
X0077628Y0157828D02*
X0077626Y0157889D01*
X0077620Y0157950D01*
X0077611Y0158010D01*
X0077597Y0158070D01*
X0077580Y0158128D01*
X0077560Y0158186D01*
X0077535Y0158242D01*
X0077508Y0158296D01*
X0077477Y0158349D01*
X0077442Y0158399D01*
X0077405Y0158448D01*
X0077365Y0158493D01*
X0077321Y0158537D01*
X0077276Y0158577D01*
X0077227Y0158614D01*
X0077177Y0158649D01*
X0077124Y0158680D01*
X0077070Y0158707D01*
X0077014Y0158732D01*
X0076956Y0158752D01*
X0076898Y0158769D01*
X0076838Y0158783D01*
X0076778Y0158792D01*
X0076717Y0158798D01*
X0076656Y0158800D01*
X0076595Y0158798D01*
X0076534Y0158792D01*
X0076474Y0158783D01*
X0076414Y0158769D01*
X0076356Y0158752D01*
X0076298Y0158732D01*
X0076242Y0158707D01*
X0076188Y0158680D01*
X0076135Y0158649D01*
X0076085Y0158614D01*
X0076036Y0158577D01*
X0075991Y0158537D01*
X0075947Y0158493D01*
X0075907Y0158448D01*
X0075870Y0158399D01*
X0075835Y0158349D01*
X0075804Y0158296D01*
X0075777Y0158242D01*
X0075752Y0158186D01*
X0075732Y0158128D01*
X0075715Y0158070D01*
X0075701Y0158010D01*
X0075692Y0157950D01*
X0075686Y0157889D01*
X0075684Y0157828D01*
X0077629Y0156856D02*
X0077627Y0156780D01*
X0077622Y0156703D01*
X0077612Y0156628D01*
X0077599Y0156552D01*
X0077582Y0156478D01*
X0077562Y0156404D01*
X0077538Y0156332D01*
X0077511Y0156261D01*
X0077480Y0156191D01*
X0077445Y0156123D01*
X0077408Y0156056D01*
X0077367Y0155992D01*
X0077323Y0155929D01*
X0077276Y0155869D01*
X0077226Y0155811D01*
X0077173Y0155756D01*
X0077118Y0155703D01*
X0077060Y0155653D01*
X0077000Y0155606D01*
X0076937Y0155562D01*
X0076873Y0155521D01*
X0076806Y0155484D01*
X0076738Y0155449D01*
X0076668Y0155418D01*
X0076597Y0155391D01*
X0076525Y0155367D01*
X0076451Y0155347D01*
X0076377Y0155330D01*
X0076301Y0155317D01*
X0076226Y0155307D01*
X0076149Y0155302D01*
X0076073Y0155300D01*
X0110200Y0155300D02*
X0110200Y0158800D01*
X0111172Y0158800D01*
X0111233Y0158798D01*
X0111294Y0158792D01*
X0111354Y0158783D01*
X0111414Y0158769D01*
X0111472Y0158752D01*
X0111530Y0158732D01*
X0111586Y0158707D01*
X0111640Y0158680D01*
X0111693Y0158649D01*
X0111743Y0158614D01*
X0111792Y0158577D01*
X0111837Y0158537D01*
X0111881Y0158493D01*
X0111921Y0158448D01*
X0111958Y0158399D01*
X0111993Y0158349D01*
X0112024Y0158296D01*
X0112051Y0158242D01*
X0112076Y0158186D01*
X0112096Y0158128D01*
X0112113Y0158070D01*
X0112127Y0158010D01*
X0112136Y0157950D01*
X0112142Y0157889D01*
X0112144Y0157828D01*
X0112142Y0157767D01*
X0112136Y0157706D01*
X0112127Y0157646D01*
X0112113Y0157586D01*
X0112096Y0157528D01*
X0112076Y0157470D01*
X0112051Y0157414D01*
X0112024Y0157360D01*
X0111993Y0157307D01*
X0111958Y0157257D01*
X0111921Y0157208D01*
X0111881Y0157163D01*
X0111837Y0157119D01*
X0111792Y0157079D01*
X0111743Y0157042D01*
X0111693Y0157007D01*
X0111640Y0156976D01*
X0111586Y0156949D01*
X0111530Y0156924D01*
X0111472Y0156904D01*
X0111414Y0156887D01*
X0111354Y0156873D01*
X0111294Y0156864D01*
X0111233Y0156858D01*
X0111172Y0156856D01*
X0110200Y0156856D01*
X0111367Y0156856D02*
X0112144Y0155300D01*
X0114656Y0155300D02*
X0115629Y0158800D01*
X0113684Y0158800D01*
X0113684Y0158411D01*
X0144200Y0167200D02*
X0146600Y0170800D01*
X0148000Y0169800D02*
X0148000Y0169600D01*
X0148002Y0169545D01*
X0148007Y0169491D01*
X0148017Y0169437D01*
X0148030Y0169384D01*
X0148046Y0169332D01*
X0148066Y0169281D01*
X0148090Y0169232D01*
X0148116Y0169184D01*
X0148146Y0169139D01*
X0148179Y0169095D01*
X0148215Y0169054D01*
X0148254Y0169015D01*
X0148295Y0168979D01*
X0148339Y0168946D01*
X0148384Y0168916D01*
X0148432Y0168890D01*
X0148481Y0168866D01*
X0148532Y0168846D01*
X0148584Y0168830D01*
X0148637Y0168817D01*
X0148691Y0168807D01*
X0148745Y0168802D01*
X0148800Y0168800D01*
X0150000Y0168800D01*
X0150000Y0169800D01*
X0149998Y0169862D01*
X0149992Y0169923D01*
X0149983Y0169984D01*
X0149970Y0170044D01*
X0149953Y0170103D01*
X0149932Y0170161D01*
X0149908Y0170218D01*
X0149881Y0170273D01*
X0149850Y0170326D01*
X0149816Y0170378D01*
X0149779Y0170427D01*
X0149739Y0170474D01*
X0149696Y0170518D01*
X0149651Y0170559D01*
X0149603Y0170598D01*
X0149552Y0170634D01*
X0149500Y0170666D01*
X0149446Y0170695D01*
X0149390Y0170721D01*
X0149332Y0170743D01*
X0149274Y0170762D01*
X0149214Y0170777D01*
X0149153Y0170788D01*
X0149092Y0170796D01*
X0149031Y0170800D01*
X0148969Y0170800D01*
X0148908Y0170796D01*
X0148847Y0170788D01*
X0148786Y0170777D01*
X0148726Y0170762D01*
X0148668Y0170743D01*
X0148610Y0170721D01*
X0148554Y0170695D01*
X0148500Y0170666D01*
X0148448Y0170634D01*
X0148397Y0170598D01*
X0148349Y0170559D01*
X0148304Y0170518D01*
X0148261Y0170474D01*
X0148221Y0170427D01*
X0148184Y0170378D01*
X0148150Y0170326D01*
X0148119Y0170273D01*
X0148092Y0170218D01*
X0148068Y0170161D01*
X0148047Y0170103D01*
X0148030Y0170044D01*
X0148017Y0169984D01*
X0148008Y0169923D01*
X0148002Y0169862D01*
X0148000Y0169800D01*
X0150000Y0168800D02*
X0149998Y0168721D01*
X0149992Y0168643D01*
X0149983Y0168565D01*
X0149969Y0168488D01*
X0149952Y0168411D01*
X0149931Y0168336D01*
X0149906Y0168261D01*
X0149878Y0168188D01*
X0149846Y0168116D01*
X0149811Y0168046D01*
X0149772Y0167977D01*
X0149730Y0167911D01*
X0149685Y0167847D01*
X0149637Y0167785D01*
X0149586Y0167726D01*
X0149531Y0167669D01*
X0149474Y0167614D01*
X0149415Y0167563D01*
X0149353Y0167515D01*
X0149289Y0167470D01*
X0149223Y0167428D01*
X0149154Y0167389D01*
X0149084Y0167354D01*
X0149012Y0167322D01*
X0148939Y0167294D01*
X0148864Y0167269D01*
X0148789Y0167248D01*
X0148712Y0167231D01*
X0148635Y0167217D01*
X0148557Y0167208D01*
X0148479Y0167202D01*
X0148400Y0167200D01*
X0146600Y0167200D02*
X0144200Y0170800D01*
X0144200Y0131800D02*
X0146600Y0128200D01*
X0148000Y0128200D02*
X0150000Y0128200D01*
X0149000Y0128200D02*
X0149000Y0131800D01*
X0148000Y0131000D01*
X0146600Y0131800D02*
X0144200Y0128200D01*
X0153300Y0128700D02*
X0153344Y0128794D01*
X0153384Y0128889D01*
X0153421Y0128986D01*
X0153455Y0129084D01*
X0153485Y0129183D01*
X0153512Y0129283D01*
X0153535Y0129383D01*
X0153555Y0129485D01*
X0153571Y0129587D01*
X0153584Y0129690D01*
X0153593Y0129793D01*
X0153598Y0129896D01*
X0153600Y0130000D01*
X0151600Y0130000D02*
X0151602Y0129896D01*
X0151607Y0129793D01*
X0151616Y0129690D01*
X0151629Y0129587D01*
X0151645Y0129485D01*
X0151665Y0129383D01*
X0151688Y0129283D01*
X0151715Y0129183D01*
X0151745Y0129084D01*
X0151779Y0128986D01*
X0151816Y0128889D01*
X0151856Y0128794D01*
X0151900Y0128700D01*
X0151800Y0129000D02*
X0153400Y0131000D01*
X0153300Y0131300D02*
X0153281Y0131350D01*
X0153258Y0131399D01*
X0153231Y0131446D01*
X0153201Y0131491D01*
X0153168Y0131534D01*
X0153132Y0131574D01*
X0153093Y0131612D01*
X0153052Y0131646D01*
X0153008Y0131677D01*
X0152962Y0131706D01*
X0152914Y0131730D01*
X0152864Y0131751D01*
X0152813Y0131769D01*
X0152761Y0131782D01*
X0152708Y0131792D01*
X0152654Y0131798D01*
X0152600Y0131800D01*
X0152546Y0131798D01*
X0152492Y0131792D01*
X0152439Y0131782D01*
X0152387Y0131769D01*
X0152336Y0131751D01*
X0152286Y0131730D01*
X0152238Y0131706D01*
X0152192Y0131677D01*
X0152148Y0131646D01*
X0152107Y0131612D01*
X0152068Y0131574D01*
X0152032Y0131534D01*
X0151999Y0131491D01*
X0151969Y0131446D01*
X0151942Y0131399D01*
X0151919Y0131350D01*
X0151900Y0131300D01*
X0153300Y0131300D02*
X0153344Y0131206D01*
X0153384Y0131111D01*
X0153421Y0131014D01*
X0153455Y0130916D01*
X0153485Y0130817D01*
X0153512Y0130717D01*
X0153535Y0130617D01*
X0153555Y0130515D01*
X0153571Y0130413D01*
X0153584Y0130310D01*
X0153593Y0130207D01*
X0153598Y0130104D01*
X0153600Y0130000D01*
X0151600Y0130000D02*
X0151602Y0130104D01*
X0151607Y0130207D01*
X0151616Y0130310D01*
X0151629Y0130413D01*
X0151645Y0130515D01*
X0151665Y0130617D01*
X0151688Y0130717D01*
X0151715Y0130817D01*
X0151745Y0130916D01*
X0151779Y0131014D01*
X0151816Y0131111D01*
X0151856Y0131206D01*
X0151900Y0131300D01*
X0153300Y0128700D02*
X0153281Y0128650D01*
X0153258Y0128601D01*
X0153231Y0128554D01*
X0153201Y0128509D01*
X0153168Y0128466D01*
X0153132Y0128426D01*
X0153093Y0128388D01*
X0153052Y0128354D01*
X0153008Y0128323D01*
X0152962Y0128294D01*
X0152914Y0128270D01*
X0152864Y0128249D01*
X0152813Y0128231D01*
X0152761Y0128218D01*
X0152708Y0128208D01*
X0152654Y0128202D01*
X0152600Y0128200D01*
X0152546Y0128202D01*
X0152492Y0128208D01*
X0152439Y0128218D01*
X0152387Y0128231D01*
X0152336Y0128249D01*
X0152286Y0128270D01*
X0152238Y0128294D01*
X0152192Y0128323D01*
X0152148Y0128354D01*
X0152107Y0128388D01*
X0152068Y0128426D01*
X0152032Y0128466D01*
X0151999Y0128509D01*
X0151969Y0128554D01*
X0151942Y0128601D01*
X0151919Y0128650D01*
X0151900Y0128700D01*
X0141691Y0089867D02*
X0141691Y0085267D01*
X0140413Y0085267D02*
X0142969Y0085267D01*
X0140413Y0088845D02*
X0141691Y0089867D01*
X0138319Y0089867D02*
X0138319Y0086545D01*
X0138317Y0086475D01*
X0138311Y0086404D01*
X0138302Y0086335D01*
X0138288Y0086266D01*
X0138271Y0086197D01*
X0138250Y0086130D01*
X0138225Y0086064D01*
X0138197Y0086000D01*
X0138165Y0085937D01*
X0138130Y0085876D01*
X0138091Y0085817D01*
X0138050Y0085760D01*
X0138005Y0085706D01*
X0137957Y0085654D01*
X0137907Y0085605D01*
X0137853Y0085558D01*
X0137798Y0085515D01*
X0137740Y0085475D01*
X0137680Y0085438D01*
X0137618Y0085405D01*
X0137554Y0085375D01*
X0137489Y0085348D01*
X0137423Y0085325D01*
X0137355Y0085306D01*
X0137286Y0085291D01*
X0137217Y0085279D01*
X0137147Y0085271D01*
X0137076Y0085267D01*
X0137006Y0085267D01*
X0136935Y0085271D01*
X0136865Y0085279D01*
X0136796Y0085291D01*
X0136727Y0085306D01*
X0136659Y0085325D01*
X0136593Y0085348D01*
X0136528Y0085375D01*
X0136464Y0085405D01*
X0136402Y0085438D01*
X0136342Y0085475D01*
X0136284Y0085515D01*
X0136229Y0085558D01*
X0136175Y0085605D01*
X0136125Y0085654D01*
X0136077Y0085706D01*
X0136032Y0085760D01*
X0135991Y0085817D01*
X0135952Y0085876D01*
X0135917Y0085937D01*
X0135885Y0086000D01*
X0135857Y0086064D01*
X0135832Y0086130D01*
X0135811Y0086197D01*
X0135794Y0086266D01*
X0135780Y0086335D01*
X0135771Y0086404D01*
X0135765Y0086475D01*
X0135763Y0086545D01*
X0135763Y0089867D01*
X0094969Y0085267D02*
X0092413Y0085267D01*
X0094585Y0087822D01*
X0093819Y0089866D02*
X0093745Y0089864D01*
X0093671Y0089859D01*
X0093597Y0089849D01*
X0093524Y0089836D01*
X0093451Y0089820D01*
X0093380Y0089799D01*
X0093310Y0089775D01*
X0093241Y0089748D01*
X0093173Y0089717D01*
X0093107Y0089683D01*
X0093043Y0089646D01*
X0092981Y0089605D01*
X0092921Y0089561D01*
X0092863Y0089515D01*
X0092807Y0089465D01*
X0092754Y0089413D01*
X0092704Y0089358D01*
X0092657Y0089301D01*
X0092613Y0089241D01*
X0092571Y0089179D01*
X0092533Y0089116D01*
X0092498Y0089050D01*
X0092467Y0088983D01*
X0092439Y0088914D01*
X0092414Y0088844D01*
X0094585Y0087823D02*
X0094632Y0087870D01*
X0094676Y0087920D01*
X0094718Y0087972D01*
X0094757Y0088026D01*
X0094792Y0088082D01*
X0094825Y0088140D01*
X0094855Y0088200D01*
X0094881Y0088261D01*
X0094904Y0088324D01*
X0094923Y0088388D01*
X0094939Y0088452D01*
X0094952Y0088518D01*
X0094961Y0088584D01*
X0094966Y0088650D01*
X0094968Y0088717D01*
X0094969Y0088717D02*
X0094967Y0088784D01*
X0094961Y0088851D01*
X0094952Y0088917D01*
X0094938Y0088982D01*
X0094921Y0089047D01*
X0094900Y0089110D01*
X0094875Y0089172D01*
X0094847Y0089233D01*
X0094815Y0089292D01*
X0094780Y0089349D01*
X0094741Y0089404D01*
X0094700Y0089456D01*
X0094655Y0089506D01*
X0094608Y0089553D01*
X0094558Y0089598D01*
X0094506Y0089639D01*
X0094451Y0089678D01*
X0094394Y0089713D01*
X0094335Y0089745D01*
X0094274Y0089773D01*
X0094212Y0089798D01*
X0094149Y0089819D01*
X0094084Y0089836D01*
X0094019Y0089850D01*
X0093953Y0089859D01*
X0093886Y0089865D01*
X0093819Y0089867D01*
X0090319Y0089867D02*
X0090319Y0086545D01*
X0090317Y0086475D01*
X0090311Y0086404D01*
X0090302Y0086335D01*
X0090288Y0086266D01*
X0090271Y0086197D01*
X0090250Y0086130D01*
X0090225Y0086064D01*
X0090197Y0086000D01*
X0090165Y0085937D01*
X0090130Y0085876D01*
X0090091Y0085817D01*
X0090050Y0085760D01*
X0090005Y0085706D01*
X0089957Y0085654D01*
X0089907Y0085605D01*
X0089853Y0085558D01*
X0089798Y0085515D01*
X0089740Y0085475D01*
X0089680Y0085438D01*
X0089618Y0085405D01*
X0089554Y0085375D01*
X0089489Y0085348D01*
X0089423Y0085325D01*
X0089355Y0085306D01*
X0089286Y0085291D01*
X0089217Y0085279D01*
X0089147Y0085271D01*
X0089076Y0085267D01*
X0089006Y0085267D01*
X0088935Y0085271D01*
X0088865Y0085279D01*
X0088796Y0085291D01*
X0088727Y0085306D01*
X0088659Y0085325D01*
X0088593Y0085348D01*
X0088528Y0085375D01*
X0088464Y0085405D01*
X0088402Y0085438D01*
X0088342Y0085475D01*
X0088284Y0085515D01*
X0088229Y0085558D01*
X0088175Y0085605D01*
X0088125Y0085654D01*
X0088077Y0085706D01*
X0088032Y0085760D01*
X0087991Y0085817D01*
X0087952Y0085876D01*
X0087917Y0085937D01*
X0087885Y0086000D01*
X0087857Y0086064D01*
X0087832Y0086130D01*
X0087811Y0086197D01*
X0087794Y0086266D01*
X0087780Y0086335D01*
X0087771Y0086404D01*
X0087765Y0086475D01*
X0087763Y0086545D01*
X0087763Y0089867D01*
X0088316Y0101200D02*
X0087538Y0102756D01*
X0087344Y0102756D02*
X0086371Y0102756D01*
X0087344Y0102756D02*
X0087405Y0102758D01*
X0087466Y0102764D01*
X0087526Y0102773D01*
X0087586Y0102787D01*
X0087644Y0102804D01*
X0087702Y0102824D01*
X0087758Y0102849D01*
X0087812Y0102876D01*
X0087865Y0102907D01*
X0087915Y0102942D01*
X0087964Y0102979D01*
X0088009Y0103019D01*
X0088053Y0103063D01*
X0088093Y0103108D01*
X0088130Y0103157D01*
X0088165Y0103207D01*
X0088196Y0103260D01*
X0088223Y0103314D01*
X0088248Y0103370D01*
X0088268Y0103428D01*
X0088285Y0103486D01*
X0088299Y0103546D01*
X0088308Y0103606D01*
X0088314Y0103667D01*
X0088316Y0103728D01*
X0088314Y0103789D01*
X0088308Y0103850D01*
X0088299Y0103910D01*
X0088285Y0103970D01*
X0088268Y0104028D01*
X0088248Y0104086D01*
X0088223Y0104142D01*
X0088196Y0104196D01*
X0088165Y0104249D01*
X0088130Y0104299D01*
X0088093Y0104348D01*
X0088053Y0104393D01*
X0088009Y0104437D01*
X0087964Y0104477D01*
X0087915Y0104514D01*
X0087865Y0104549D01*
X0087812Y0104580D01*
X0087758Y0104607D01*
X0087702Y0104632D01*
X0087644Y0104652D01*
X0087586Y0104669D01*
X0087526Y0104683D01*
X0087466Y0104692D01*
X0087405Y0104698D01*
X0087344Y0104700D01*
X0086371Y0104700D01*
X0086371Y0101200D01*
X0089856Y0101200D02*
X0090828Y0101200D01*
X0090889Y0101202D01*
X0090950Y0101208D01*
X0091010Y0101217D01*
X0091070Y0101231D01*
X0091128Y0101248D01*
X0091186Y0101268D01*
X0091242Y0101293D01*
X0091296Y0101320D01*
X0091349Y0101351D01*
X0091399Y0101386D01*
X0091448Y0101423D01*
X0091493Y0101463D01*
X0091537Y0101507D01*
X0091577Y0101552D01*
X0091614Y0101601D01*
X0091649Y0101651D01*
X0091680Y0101704D01*
X0091707Y0101758D01*
X0091732Y0101814D01*
X0091752Y0101872D01*
X0091769Y0101930D01*
X0091783Y0101990D01*
X0091792Y0102050D01*
X0091798Y0102111D01*
X0091800Y0102172D01*
X0091798Y0102233D01*
X0091792Y0102294D01*
X0091783Y0102354D01*
X0091769Y0102414D01*
X0091752Y0102472D01*
X0091732Y0102530D01*
X0091707Y0102586D01*
X0091680Y0102640D01*
X0091649Y0102693D01*
X0091614Y0102743D01*
X0091577Y0102792D01*
X0091537Y0102837D01*
X0091493Y0102881D01*
X0091448Y0102921D01*
X0091399Y0102958D01*
X0091349Y0102993D01*
X0091296Y0103024D01*
X0091242Y0103051D01*
X0091186Y0103076D01*
X0091128Y0103096D01*
X0091070Y0103113D01*
X0091010Y0103127D01*
X0090950Y0103136D01*
X0090889Y0103142D01*
X0090828Y0103144D01*
X0091022Y0103144D02*
X0090244Y0103144D01*
X0091022Y0103144D02*
X0091078Y0103146D01*
X0091133Y0103152D01*
X0091187Y0103162D01*
X0091241Y0103176D01*
X0091294Y0103193D01*
X0091345Y0103214D01*
X0091395Y0103239D01*
X0091443Y0103268D01*
X0091488Y0103299D01*
X0091531Y0103334D01*
X0091572Y0103372D01*
X0091610Y0103413D01*
X0091645Y0103456D01*
X0091676Y0103501D01*
X0091705Y0103549D01*
X0091730Y0103599D01*
X0091751Y0103650D01*
X0091768Y0103703D01*
X0091782Y0103757D01*
X0091792Y0103811D01*
X0091798Y0103866D01*
X0091800Y0103922D01*
X0091798Y0103978D01*
X0091792Y0104033D01*
X0091782Y0104087D01*
X0091768Y0104141D01*
X0091751Y0104194D01*
X0091730Y0104245D01*
X0091705Y0104295D01*
X0091676Y0104343D01*
X0091645Y0104388D01*
X0091610Y0104431D01*
X0091572Y0104472D01*
X0091531Y0104510D01*
X0091488Y0104545D01*
X0091443Y0104576D01*
X0091395Y0104605D01*
X0091345Y0104630D01*
X0091294Y0104651D01*
X0091241Y0104668D01*
X0091187Y0104682D01*
X0091133Y0104692D01*
X0091078Y0104698D01*
X0091022Y0104700D01*
X0089856Y0104700D01*
X0000800Y0041000D02*
X0000800Y0039000D01*
X0000800Y0040000D02*
X-0002800Y0040000D01*
X-0002000Y0039000D01*
X-0002800Y0037600D02*
X0000800Y0035200D01*
X0000800Y0037600D02*
X-0002800Y0035200D01*
X0105200Y0265200D02*
X0107600Y0268800D01*
X0109000Y0268000D02*
X0110000Y0268800D01*
X0110000Y0265200D01*
X0109000Y0265200D02*
X0111000Y0265200D01*
X0112600Y0265200D02*
X0114600Y0265200D01*
X0113600Y0265200D02*
X0113600Y0268800D01*
X0112600Y0268000D01*
X0107600Y0265200D02*
X0105200Y0268800D01*
X0186700Y0142406D02*
X0190200Y0142406D01*
X0190200Y0141434D02*
X0190200Y0143379D01*
X0187478Y0141434D02*
X0186700Y0142406D01*
X0186700Y0138922D02*
X0186700Y0137950D01*
X0190200Y0137950D01*
X0188644Y0137950D02*
X0188644Y0138922D01*
X0188644Y0139117D02*
X0190200Y0139894D01*
X0188644Y0138922D02*
X0188642Y0138983D01*
X0188636Y0139044D01*
X0188627Y0139104D01*
X0188613Y0139164D01*
X0188596Y0139222D01*
X0188576Y0139280D01*
X0188551Y0139336D01*
X0188524Y0139390D01*
X0188493Y0139443D01*
X0188458Y0139493D01*
X0188421Y0139542D01*
X0188381Y0139587D01*
X0188337Y0139631D01*
X0188292Y0139671D01*
X0188243Y0139708D01*
X0188193Y0139743D01*
X0188140Y0139774D01*
X0188086Y0139801D01*
X0188030Y0139826D01*
X0187972Y0139846D01*
X0187914Y0139863D01*
X0187854Y0139877D01*
X0187794Y0139886D01*
X0187733Y0139892D01*
X0187672Y0139894D01*
X0187611Y0139892D01*
X0187550Y0139886D01*
X0187490Y0139877D01*
X0187430Y0139863D01*
X0187372Y0139846D01*
X0187314Y0139826D01*
X0187258Y0139801D01*
X0187204Y0139774D01*
X0187151Y0139743D01*
X0187101Y0139708D01*
X0187052Y0139671D01*
X0187007Y0139631D01*
X0186963Y0139587D01*
X0186923Y0139542D01*
X0186886Y0139493D01*
X0186851Y0139443D01*
X0186820Y0139390D01*
X0186793Y0139336D01*
X0186768Y0139280D01*
X0186748Y0139222D01*
X0186731Y0139164D01*
X0186717Y0139104D01*
X0186708Y0139044D01*
X0186702Y0138983D01*
X0186700Y0138922D01*
X0220200Y0136800D02*
X0222600Y0133200D01*
X0224000Y0133200D02*
X0225000Y0133200D01*
X0225062Y0133202D01*
X0225123Y0133208D01*
X0225184Y0133217D01*
X0225244Y0133230D01*
X0225303Y0133247D01*
X0225361Y0133268D01*
X0225418Y0133292D01*
X0225473Y0133319D01*
X0225526Y0133350D01*
X0225578Y0133384D01*
X0225627Y0133421D01*
X0225674Y0133461D01*
X0225718Y0133504D01*
X0225759Y0133549D01*
X0225798Y0133597D01*
X0225834Y0133648D01*
X0225866Y0133700D01*
X0225895Y0133754D01*
X0225921Y0133810D01*
X0225943Y0133868D01*
X0225962Y0133926D01*
X0225977Y0133986D01*
X0225988Y0134047D01*
X0225996Y0134108D01*
X0226000Y0134169D01*
X0226000Y0134231D01*
X0225996Y0134292D01*
X0225988Y0134353D01*
X0225977Y0134414D01*
X0225962Y0134474D01*
X0225943Y0134532D01*
X0225921Y0134590D01*
X0225895Y0134646D01*
X0225866Y0134700D01*
X0225834Y0134752D01*
X0225798Y0134803D01*
X0225759Y0134851D01*
X0225718Y0134896D01*
X0225674Y0134939D01*
X0225627Y0134979D01*
X0225578Y0135016D01*
X0225526Y0135050D01*
X0225473Y0135081D01*
X0225418Y0135108D01*
X0225361Y0135132D01*
X0225303Y0135153D01*
X0225244Y0135170D01*
X0225184Y0135183D01*
X0225123Y0135192D01*
X0225062Y0135198D01*
X0225000Y0135200D01*
X0225200Y0135200D02*
X0224400Y0135200D01*
X0225200Y0135200D02*
X0225256Y0135202D01*
X0225311Y0135208D01*
X0225366Y0135217D01*
X0225421Y0135231D01*
X0225474Y0135248D01*
X0225525Y0135269D01*
X0225576Y0135294D01*
X0225624Y0135322D01*
X0225670Y0135353D01*
X0225714Y0135387D01*
X0225756Y0135425D01*
X0225795Y0135465D01*
X0225830Y0135507D01*
X0225863Y0135553D01*
X0225893Y0135600D01*
X0225919Y0135649D01*
X0225942Y0135700D01*
X0225961Y0135753D01*
X0225976Y0135806D01*
X0225988Y0135861D01*
X0225996Y0135916D01*
X0226000Y0135972D01*
X0226000Y0136028D01*
X0225996Y0136084D01*
X0225988Y0136139D01*
X0225976Y0136194D01*
X0225961Y0136247D01*
X0225942Y0136300D01*
X0225919Y0136351D01*
X0225893Y0136400D01*
X0225863Y0136447D01*
X0225830Y0136493D01*
X0225795Y0136535D01*
X0225756Y0136575D01*
X0225714Y0136613D01*
X0225670Y0136647D01*
X0225624Y0136678D01*
X0225576Y0136706D01*
X0225525Y0136731D01*
X0225474Y0136752D01*
X0225421Y0136769D01*
X0225366Y0136783D01*
X0225311Y0136792D01*
X0225256Y0136798D01*
X0225200Y0136800D01*
X0224000Y0136800D01*
X0222600Y0136800D02*
X0220200Y0133200D01*
X0220200Y0105800D02*
X0222600Y0102200D01*
X0224000Y0103000D02*
X0226000Y0103000D01*
X0225400Y0103800D02*
X0225400Y0102200D01*
X0224000Y0103000D02*
X0224800Y0105800D01*
X0222600Y0105800D02*
X0220200Y0102200D01*
X0220200Y0075800D02*
X0222600Y0072200D01*
X0224000Y0072200D02*
X0225200Y0072200D01*
X0225255Y0072202D01*
X0225309Y0072207D01*
X0225363Y0072217D01*
X0225416Y0072230D01*
X0225468Y0072246D01*
X0225519Y0072266D01*
X0225568Y0072290D01*
X0225616Y0072316D01*
X0225661Y0072346D01*
X0225705Y0072379D01*
X0225746Y0072415D01*
X0225785Y0072454D01*
X0225821Y0072495D01*
X0225854Y0072539D01*
X0225884Y0072584D01*
X0225910Y0072632D01*
X0225934Y0072681D01*
X0225954Y0072732D01*
X0225970Y0072784D01*
X0225983Y0072837D01*
X0225993Y0072891D01*
X0225998Y0072945D01*
X0226000Y0073000D01*
X0226000Y0073400D01*
X0225998Y0073455D01*
X0225993Y0073509D01*
X0225983Y0073563D01*
X0225970Y0073616D01*
X0225954Y0073668D01*
X0225934Y0073719D01*
X0225910Y0073768D01*
X0225884Y0073816D01*
X0225854Y0073861D01*
X0225821Y0073905D01*
X0225785Y0073946D01*
X0225746Y0073985D01*
X0225705Y0074021D01*
X0225661Y0074054D01*
X0225616Y0074084D01*
X0225568Y0074110D01*
X0225519Y0074134D01*
X0225468Y0074154D01*
X0225416Y0074170D01*
X0225363Y0074183D01*
X0225309Y0074193D01*
X0225255Y0074198D01*
X0225200Y0074200D01*
X0224000Y0074200D01*
X0224000Y0075800D01*
X0226000Y0075800D01*
X0222600Y0075800D02*
X0220200Y0072200D01*
X0208551Y0037168D02*
X0208551Y0032566D01*
X0209829Y0032566D02*
X0207272Y0032566D01*
X0204472Y0032566D02*
X0205494Y0037168D01*
X0207272Y0036145D02*
X0208551Y0037168D01*
X0203449Y0035634D02*
X0204472Y0032566D01*
X0202426Y0032566D02*
X0203449Y0035634D01*
X0201404Y0037168D02*
X0202426Y0032566D01*
X0199264Y0034483D02*
X0197858Y0035250D01*
X0198370Y0037167D02*
X0198452Y0037165D01*
X0198534Y0037160D01*
X0198616Y0037151D01*
X0198697Y0037139D01*
X0198778Y0037123D01*
X0198858Y0037104D01*
X0198937Y0037081D01*
X0199015Y0037055D01*
X0199092Y0037026D01*
X0199167Y0036993D01*
X0199241Y0036957D01*
X0199314Y0036919D01*
X0199385Y0036877D01*
X0199453Y0036832D01*
X0199520Y0036784D01*
X0197859Y0035250D02*
X0197805Y0035284D01*
X0197753Y0035321D01*
X0197704Y0035361D01*
X0197658Y0035404D01*
X0197614Y0035450D01*
X0197573Y0035498D01*
X0197535Y0035549D01*
X0197500Y0035602D01*
X0197469Y0035657D01*
X0197441Y0035714D01*
X0197416Y0035773D01*
X0197395Y0035833D01*
X0197378Y0035894D01*
X0197364Y0035956D01*
X0197355Y0036018D01*
X0197349Y0036082D01*
X0197347Y0036145D01*
X0197349Y0036207D01*
X0197354Y0036268D01*
X0197364Y0036329D01*
X0197377Y0036390D01*
X0197393Y0036449D01*
X0197413Y0036508D01*
X0197437Y0036565D01*
X0197464Y0036620D01*
X0197495Y0036674D01*
X0197528Y0036726D01*
X0197565Y0036776D01*
X0197604Y0036823D01*
X0197647Y0036868D01*
X0197692Y0036911D01*
X0197739Y0036950D01*
X0197789Y0036987D01*
X0197841Y0037020D01*
X0197895Y0037051D01*
X0197950Y0037078D01*
X0198007Y0037102D01*
X0198066Y0037122D01*
X0198125Y0037138D01*
X0198186Y0037151D01*
X0198247Y0037161D01*
X0198308Y0037166D01*
X0198370Y0037168D01*
X0197219Y0033205D02*
X0197284Y0033143D01*
X0197351Y0033083D01*
X0197420Y0033026D01*
X0197492Y0032972D01*
X0197566Y0032921D01*
X0197642Y0032874D01*
X0197720Y0032829D01*
X0197800Y0032788D01*
X0197881Y0032750D01*
X0197964Y0032715D01*
X0198048Y0032684D01*
X0198133Y0032657D01*
X0198220Y0032633D01*
X0198307Y0032612D01*
X0198396Y0032596D01*
X0198484Y0032583D01*
X0198574Y0032573D01*
X0198663Y0032568D01*
X0198753Y0032566D01*
X0198815Y0032568D01*
X0198876Y0032573D01*
X0198937Y0032583D01*
X0198998Y0032596D01*
X0199057Y0032612D01*
X0199116Y0032632D01*
X0199173Y0032656D01*
X0199228Y0032683D01*
X0199282Y0032714D01*
X0199334Y0032747D01*
X0199384Y0032784D01*
X0199431Y0032823D01*
X0199476Y0032866D01*
X0199519Y0032911D01*
X0199558Y0032958D01*
X0199595Y0033008D01*
X0199628Y0033060D01*
X0199659Y0033114D01*
X0199686Y0033169D01*
X0199710Y0033226D01*
X0199730Y0033285D01*
X0199746Y0033344D01*
X0199759Y0033405D01*
X0199769Y0033466D01*
X0199774Y0033527D01*
X0199776Y0033589D01*
X0199774Y0033652D01*
X0199768Y0033716D01*
X0199759Y0033778D01*
X0199745Y0033840D01*
X0199728Y0033901D01*
X0199707Y0033961D01*
X0199682Y0034020D01*
X0199654Y0034077D01*
X0199623Y0034132D01*
X0199588Y0034185D01*
X0199550Y0034236D01*
X0199509Y0034284D01*
X0199465Y0034330D01*
X0199419Y0034373D01*
X0199370Y0034413D01*
X0199318Y0034450D01*
X0199264Y0034484D01*
X0220200Y0165200D02*
X0222600Y0168800D01*
X0220200Y0168800D02*
X0222600Y0165200D01*
X0224000Y0165200D02*
X0226000Y0165200D01*
X0224000Y0165200D02*
X0225700Y0167200D01*
X0225100Y0168800D02*
X0225034Y0168798D01*
X0224968Y0168792D01*
X0224903Y0168783D01*
X0224838Y0168770D01*
X0224774Y0168753D01*
X0224711Y0168733D01*
X0224650Y0168709D01*
X0224590Y0168681D01*
X0224531Y0168650D01*
X0224475Y0168616D01*
X0224420Y0168579D01*
X0224368Y0168539D01*
X0224318Y0168495D01*
X0224271Y0168449D01*
X0224226Y0168400D01*
X0224184Y0168349D01*
X0224145Y0168296D01*
X0224110Y0168240D01*
X0224077Y0168183D01*
X0224048Y0168123D01*
X0224022Y0168062D01*
X0224000Y0168000D01*
X0225700Y0167200D02*
X0225742Y0167243D01*
X0225782Y0167288D01*
X0225818Y0167336D01*
X0225852Y0167386D01*
X0225882Y0167438D01*
X0225910Y0167492D01*
X0225933Y0167547D01*
X0225953Y0167604D01*
X0225970Y0167662D01*
X0225983Y0167720D01*
X0225993Y0167780D01*
X0225998Y0167840D01*
X0226000Y0167900D01*
X0225998Y0167959D01*
X0225992Y0168017D01*
X0225983Y0168076D01*
X0225969Y0168133D01*
X0225952Y0168189D01*
X0225931Y0168244D01*
X0225907Y0168298D01*
X0225879Y0168350D01*
X0225848Y0168400D01*
X0225814Y0168448D01*
X0225777Y0168493D01*
X0225736Y0168536D01*
X0225693Y0168577D01*
X0225648Y0168614D01*
X0225600Y0168648D01*
X0225550Y0168679D01*
X0225498Y0168707D01*
X0225444Y0168731D01*
X0225389Y0168752D01*
X0225333Y0168769D01*
X0225276Y0168783D01*
X0225217Y0168792D01*
X0225159Y0168798D01*
X0225100Y0168800D01*
D13*
X0225453Y0170000D02*
X0220453Y0170000D01*
X0217953Y0172500D01*
X0217953Y0187500D01*
X0220453Y0190000D01*
X0225453Y0190000D01*
X0227953Y0187500D01*
X0227953Y0172500D01*
X0225453Y0170000D01*
X0217953Y0172500D02*
X0215453Y0170000D01*
X0210453Y0170000D01*
X0207953Y0172500D01*
X0207953Y0187500D01*
X0210453Y0190000D01*
X0215453Y0190000D01*
X0217953Y0187500D01*
X0220453Y0196693D02*
X0217953Y0199193D01*
X0217953Y0214193D01*
X0220453Y0216693D01*
X0225453Y0216693D01*
X0227953Y0214193D01*
X0227953Y0199193D01*
X0225453Y0196693D01*
X0220453Y0196693D01*
X0217953Y0199193D02*
X0215453Y0196693D01*
X0210453Y0196693D01*
X0207953Y0199193D01*
X0207953Y0214193D01*
X0210453Y0216693D01*
X0215453Y0216693D01*
X0217953Y0214193D01*
X0217500Y0225000D02*
X0212500Y0225000D01*
X0210000Y0227500D01*
X0207500Y0225000D01*
X0202500Y0225000D01*
X0200000Y0227500D01*
X0197500Y0225000D01*
X0192500Y0225000D01*
X0190000Y0227500D01*
X0187500Y0225000D01*
X0182500Y0225000D01*
X0180000Y0227500D01*
X0177500Y0225000D01*
X0172500Y0225000D01*
X0170000Y0227500D01*
X0170000Y0232500D01*
X0172500Y0235000D01*
X0177500Y0235000D01*
X0180000Y0232500D01*
X0182500Y0235000D01*
X0187500Y0235000D01*
X0190000Y0232500D01*
X0190000Y0227500D01*
X0190000Y0232500D02*
X0192500Y0235000D01*
X0197500Y0235000D01*
X0200000Y0232500D01*
X0202500Y0235000D01*
X0207500Y0235000D01*
X0210000Y0232500D01*
X0212500Y0235000D01*
X0217500Y0235000D01*
X0220000Y0232500D01*
X0222500Y0235000D01*
X0227500Y0235000D01*
X0230000Y0232500D01*
X0230000Y0227500D01*
X0227500Y0225000D01*
X0222500Y0225000D01*
X0220000Y0227500D01*
X0217500Y0225000D01*
X0220000Y0227500D02*
X0220000Y0232500D01*
X0210000Y0232500D02*
X0210000Y0227500D01*
X0205453Y0216693D02*
X0207953Y0214193D01*
X0205453Y0216693D02*
X0200453Y0216693D01*
X0197953Y0214193D01*
X0197953Y0199193D01*
X0195453Y0196693D01*
X0190453Y0196693D01*
X0187953Y0199193D01*
X0187953Y0214193D01*
X0190453Y0216693D01*
X0195453Y0216693D01*
X0197953Y0214193D01*
X0187953Y0214193D02*
X0185453Y0216693D01*
X0180453Y0216693D01*
X0177953Y0214193D01*
X0177953Y0199193D01*
X0175453Y0196693D01*
X0170453Y0196693D01*
X0167953Y0199193D01*
X0167953Y0214193D01*
X0170453Y0216693D01*
X0175453Y0216693D01*
X0177953Y0214193D01*
X0167953Y0214193D02*
X0165453Y0216693D01*
X0160453Y0216693D01*
X0157953Y0214193D01*
X0157953Y0199193D01*
X0155453Y0196693D01*
X0150453Y0196693D01*
X0147953Y0199193D01*
X0147953Y0214193D01*
X0150453Y0216693D01*
X0155453Y0216693D01*
X0157953Y0214193D01*
X0147953Y0214193D02*
X0145453Y0216693D01*
X0140453Y0216693D01*
X0137953Y0214193D01*
X0137953Y0199193D01*
X0135453Y0196693D01*
X0130453Y0196693D01*
X0127953Y0199193D01*
X0127953Y0214193D01*
X0130453Y0216693D01*
X0135453Y0216693D01*
X0137953Y0214193D01*
X0127953Y0214193D02*
X0125453Y0216693D01*
X0120453Y0216693D01*
X0117953Y0214193D01*
X0117953Y0199193D01*
X0115453Y0196693D01*
X0110453Y0196693D01*
X0107953Y0199193D01*
X0107953Y0214193D01*
X0110453Y0216693D01*
X0115453Y0216693D01*
X0117953Y0214193D01*
X0107953Y0214193D02*
X0105453Y0216693D01*
X0100453Y0216693D01*
X0097953Y0214193D01*
X0097953Y0199193D01*
X0095453Y0196693D01*
X0090453Y0196693D01*
X0087953Y0199193D01*
X0087953Y0214193D01*
X0090453Y0216693D01*
X0095453Y0216693D01*
X0097953Y0214193D01*
X0087953Y0214193D02*
X0085453Y0216693D01*
X0080453Y0216693D01*
X0077953Y0214193D01*
X0077953Y0199193D01*
X0080453Y0196693D01*
X0085453Y0196693D01*
X0087953Y0199193D01*
X0090453Y0190000D02*
X0095453Y0190000D01*
X0097953Y0187500D01*
X0097953Y0172500D01*
X0095453Y0170000D01*
X0090453Y0170000D01*
X0087953Y0172500D01*
X0087953Y0187500D01*
X0090453Y0190000D01*
X0087953Y0187500D02*
X0085453Y0190000D01*
X0080453Y0190000D01*
X0077953Y0187500D01*
X0077953Y0172500D01*
X0080453Y0170000D01*
X0085453Y0170000D01*
X0087953Y0172500D01*
X0097953Y0172500D02*
X0100453Y0170000D01*
X0105453Y0170000D01*
X0107953Y0172500D01*
X0107953Y0187500D01*
X0110453Y0190000D01*
X0115453Y0190000D01*
X0117953Y0187500D01*
X0117953Y0172500D01*
X0115453Y0170000D01*
X0110453Y0170000D01*
X0107953Y0172500D01*
X0117953Y0172500D02*
X0120453Y0170000D01*
X0125453Y0170000D01*
X0127953Y0172500D01*
X0127953Y0187500D01*
X0130453Y0190000D01*
X0135453Y0190000D01*
X0137953Y0187500D01*
X0137953Y0172500D01*
X0135453Y0170000D01*
X0130453Y0170000D01*
X0127953Y0172500D01*
X0137953Y0172500D02*
X0140453Y0170000D01*
X0145453Y0170000D01*
X0147953Y0172500D01*
X0147953Y0187500D01*
X0150453Y0190000D01*
X0155453Y0190000D01*
X0157953Y0187500D01*
X0157953Y0172500D01*
X0155453Y0170000D01*
X0150453Y0170000D01*
X0147953Y0172500D01*
X0157953Y0172500D02*
X0160453Y0170000D01*
X0165453Y0170000D01*
X0167953Y0172500D01*
X0167953Y0187500D01*
X0170453Y0190000D01*
X0175453Y0190000D01*
X0177953Y0187500D01*
X0177953Y0172500D01*
X0175453Y0170000D01*
X0170453Y0170000D01*
X0167953Y0172500D01*
X0177953Y0172500D02*
X0180453Y0170000D01*
X0185453Y0170000D01*
X0187953Y0172500D01*
X0187953Y0187500D01*
X0190453Y0190000D01*
X0195453Y0190000D01*
X0197953Y0187500D01*
X0197953Y0172500D01*
X0195453Y0170000D01*
X0190453Y0170000D01*
X0187953Y0172500D01*
X0197953Y0172500D02*
X0200453Y0170000D01*
X0205453Y0170000D01*
X0207953Y0172500D01*
X0207953Y0187500D02*
X0205453Y0190000D01*
X0200453Y0190000D01*
X0197953Y0187500D01*
X0200453Y0196693D02*
X0197953Y0199193D01*
X0200453Y0196693D02*
X0205453Y0196693D01*
X0207953Y0199193D01*
X0187953Y0199193D02*
X0185453Y0196693D01*
X0180453Y0196693D01*
X0177953Y0199193D01*
X0180453Y0190000D02*
X0185453Y0190000D01*
X0187953Y0187500D01*
X0180453Y0190000D02*
X0177953Y0187500D01*
X0167953Y0187500D02*
X0165453Y0190000D01*
X0160453Y0190000D01*
X0157953Y0187500D01*
X0160453Y0196693D02*
X0157953Y0199193D01*
X0160453Y0196693D02*
X0165453Y0196693D01*
X0167953Y0199193D01*
X0147953Y0199193D02*
X0145453Y0196693D01*
X0140453Y0196693D01*
X0137953Y0199193D01*
X0140453Y0190000D02*
X0145453Y0190000D01*
X0147953Y0187500D01*
X0140453Y0190000D02*
X0137953Y0187500D01*
X0127953Y0187500D02*
X0125453Y0190000D01*
X0120453Y0190000D01*
X0117953Y0187500D01*
X0120453Y0196693D02*
X0117953Y0199193D01*
X0120453Y0196693D02*
X0125453Y0196693D01*
X0127953Y0199193D01*
X0107953Y0199193D02*
X0105453Y0196693D01*
X0100453Y0196693D01*
X0097953Y0199193D01*
X0100453Y0190000D02*
X0105453Y0190000D01*
X0107953Y0187500D01*
X0100453Y0190000D02*
X0097953Y0187500D01*
X0077953Y0187500D02*
X0075453Y0190000D01*
X0070453Y0190000D01*
X0067953Y0187500D01*
X0067953Y0172500D01*
X0070453Y0170000D01*
X0075453Y0170000D01*
X0077953Y0172500D01*
X0067953Y0172500D02*
X0065453Y0170000D01*
X0060453Y0170000D01*
X0057953Y0172500D01*
X0057953Y0187500D01*
X0060453Y0190000D01*
X0065453Y0190000D01*
X0067953Y0187500D01*
X0070453Y0196693D02*
X0075453Y0196693D01*
X0077953Y0199193D01*
X0070453Y0196693D02*
X0067953Y0199193D01*
X0067953Y0214193D01*
X0070453Y0216693D01*
X0075453Y0216693D01*
X0077953Y0214193D01*
X0067953Y0214193D02*
X0065453Y0216693D01*
X0060453Y0216693D01*
X0057953Y0214193D01*
X0057953Y0199193D01*
X0060453Y0196693D01*
X0065453Y0196693D01*
X0067953Y0199193D01*
X0057953Y0199193D02*
X0055453Y0196693D01*
X0050453Y0196693D01*
X0047953Y0199193D01*
X0047953Y0214193D01*
X0050453Y0216693D01*
X0055453Y0216693D01*
X0057953Y0214193D01*
X0047953Y0214193D02*
X0045453Y0216693D01*
X0040453Y0216693D01*
X0037953Y0214193D01*
X0037953Y0199193D01*
X0040453Y0196693D01*
X0045453Y0196693D01*
X0047953Y0199193D01*
X0050453Y0190000D02*
X0055453Y0190000D01*
X0057953Y0187500D01*
X0050453Y0190000D02*
X0047953Y0187500D01*
X0047953Y0172500D01*
X0050453Y0170000D01*
X0055453Y0170000D01*
X0057953Y0172500D01*
X0047953Y0172500D02*
X0045453Y0170000D01*
X0040453Y0170000D01*
X0037953Y0172500D01*
X0037953Y0187500D01*
X0040453Y0190000D01*
X0045453Y0190000D01*
X0047953Y0187500D01*
X0037953Y0187500D02*
X0035453Y0190000D01*
X0030453Y0190000D01*
X0027953Y0187500D01*
X0027953Y0172500D01*
X0030453Y0170000D01*
X0035453Y0170000D01*
X0037953Y0172500D01*
X0035453Y0196693D02*
X0030453Y0196693D01*
X0027953Y0199193D01*
X0027953Y0214193D01*
X0030453Y0216693D01*
X0035453Y0216693D01*
X0037953Y0214193D01*
X0039000Y0221250D02*
X0038500Y0221750D01*
X0024500Y0221750D01*
X0024000Y0221250D01*
X0022500Y0221250D01*
X0022440Y0221252D01*
X0022379Y0221257D01*
X0022320Y0221266D01*
X0022261Y0221279D01*
X0022202Y0221295D01*
X0022145Y0221315D01*
X0022090Y0221338D01*
X0022035Y0221365D01*
X0021983Y0221394D01*
X0021932Y0221427D01*
X0021883Y0221463D01*
X0021837Y0221501D01*
X0021793Y0221543D01*
X0021751Y0221587D01*
X0021713Y0221633D01*
X0021677Y0221682D01*
X0021644Y0221733D01*
X0021615Y0221785D01*
X0021588Y0221840D01*
X0021565Y0221895D01*
X0021545Y0221952D01*
X0021529Y0222011D01*
X0021516Y0222070D01*
X0021507Y0222129D01*
X0021502Y0222190D01*
X0021500Y0222250D01*
X0021500Y0228250D01*
X0021502Y0228310D01*
X0021507Y0228371D01*
X0021516Y0228430D01*
X0021529Y0228489D01*
X0021545Y0228548D01*
X0021565Y0228605D01*
X0021588Y0228660D01*
X0021615Y0228715D01*
X0021644Y0228767D01*
X0021677Y0228818D01*
X0021713Y0228867D01*
X0021751Y0228913D01*
X0021793Y0228957D01*
X0021837Y0228999D01*
X0021883Y0229037D01*
X0021932Y0229073D01*
X0021983Y0229106D01*
X0022035Y0229135D01*
X0022090Y0229162D01*
X0022145Y0229185D01*
X0022202Y0229205D01*
X0022261Y0229221D01*
X0022320Y0229234D01*
X0022379Y0229243D01*
X0022440Y0229248D01*
X0022500Y0229250D01*
X0024000Y0229250D01*
X0024500Y0228750D01*
X0038500Y0228750D01*
X0039000Y0229250D01*
X0040500Y0229250D01*
X0040560Y0229248D01*
X0040621Y0229243D01*
X0040680Y0229234D01*
X0040739Y0229221D01*
X0040798Y0229205D01*
X0040855Y0229185D01*
X0040910Y0229162D01*
X0040965Y0229135D01*
X0041017Y0229106D01*
X0041068Y0229073D01*
X0041117Y0229037D01*
X0041163Y0228999D01*
X0041207Y0228957D01*
X0041249Y0228913D01*
X0041287Y0228867D01*
X0041323Y0228818D01*
X0041356Y0228767D01*
X0041385Y0228715D01*
X0041412Y0228660D01*
X0041435Y0228605D01*
X0041455Y0228548D01*
X0041471Y0228489D01*
X0041484Y0228430D01*
X0041493Y0228371D01*
X0041498Y0228310D01*
X0041500Y0228250D01*
X0041500Y0222250D01*
X0041498Y0222190D01*
X0041493Y0222129D01*
X0041484Y0222070D01*
X0041471Y0222011D01*
X0041455Y0221952D01*
X0041435Y0221895D01*
X0041412Y0221840D01*
X0041385Y0221785D01*
X0041356Y0221733D01*
X0041323Y0221682D01*
X0041287Y0221633D01*
X0041249Y0221587D01*
X0041207Y0221543D01*
X0041163Y0221501D01*
X0041117Y0221463D01*
X0041068Y0221427D01*
X0041017Y0221394D01*
X0040965Y0221365D01*
X0040910Y0221338D01*
X0040855Y0221315D01*
X0040798Y0221295D01*
X0040739Y0221279D01*
X0040680Y0221266D01*
X0040621Y0221257D01*
X0040560Y0221252D01*
X0040500Y0221250D01*
X0039000Y0221250D01*
X0038750Y0231250D02*
X0040250Y0231250D01*
X0040310Y0231252D01*
X0040371Y0231257D01*
X0040430Y0231266D01*
X0040489Y0231279D01*
X0040548Y0231295D01*
X0040605Y0231315D01*
X0040660Y0231338D01*
X0040715Y0231365D01*
X0040767Y0231394D01*
X0040818Y0231427D01*
X0040867Y0231463D01*
X0040913Y0231501D01*
X0040957Y0231543D01*
X0040999Y0231587D01*
X0041037Y0231633D01*
X0041073Y0231682D01*
X0041106Y0231733D01*
X0041135Y0231785D01*
X0041162Y0231840D01*
X0041185Y0231895D01*
X0041205Y0231952D01*
X0041221Y0232011D01*
X0041234Y0232070D01*
X0041243Y0232129D01*
X0041248Y0232190D01*
X0041250Y0232250D01*
X0041250Y0238250D01*
X0041248Y0238310D01*
X0041243Y0238371D01*
X0041234Y0238430D01*
X0041221Y0238489D01*
X0041205Y0238548D01*
X0041185Y0238605D01*
X0041162Y0238660D01*
X0041135Y0238715D01*
X0041106Y0238767D01*
X0041073Y0238818D01*
X0041037Y0238867D01*
X0040999Y0238913D01*
X0040957Y0238957D01*
X0040913Y0238999D01*
X0040867Y0239037D01*
X0040818Y0239073D01*
X0040767Y0239106D01*
X0040715Y0239135D01*
X0040660Y0239162D01*
X0040605Y0239185D01*
X0040548Y0239205D01*
X0040489Y0239221D01*
X0040430Y0239234D01*
X0040371Y0239243D01*
X0040310Y0239248D01*
X0040250Y0239250D01*
X0038750Y0239250D01*
X0038250Y0238750D01*
X0024250Y0238750D01*
X0023750Y0239250D01*
X0022250Y0239250D01*
X0022190Y0239248D01*
X0022129Y0239243D01*
X0022070Y0239234D01*
X0022011Y0239221D01*
X0021952Y0239205D01*
X0021895Y0239185D01*
X0021840Y0239162D01*
X0021785Y0239135D01*
X0021733Y0239106D01*
X0021682Y0239073D01*
X0021633Y0239037D01*
X0021587Y0238999D01*
X0021543Y0238957D01*
X0021501Y0238913D01*
X0021463Y0238867D01*
X0021427Y0238818D01*
X0021394Y0238767D01*
X0021365Y0238715D01*
X0021338Y0238660D01*
X0021315Y0238605D01*
X0021295Y0238548D01*
X0021279Y0238489D01*
X0021266Y0238430D01*
X0021257Y0238371D01*
X0021252Y0238310D01*
X0021250Y0238250D01*
X0021250Y0232250D01*
X0021252Y0232190D01*
X0021257Y0232129D01*
X0021266Y0232070D01*
X0021279Y0232011D01*
X0021295Y0231952D01*
X0021315Y0231895D01*
X0021338Y0231840D01*
X0021365Y0231785D01*
X0021394Y0231733D01*
X0021427Y0231682D01*
X0021463Y0231633D01*
X0021501Y0231587D01*
X0021543Y0231543D01*
X0021587Y0231501D01*
X0021633Y0231463D01*
X0021682Y0231427D01*
X0021733Y0231394D01*
X0021785Y0231365D01*
X0021840Y0231338D01*
X0021895Y0231315D01*
X0021952Y0231295D01*
X0022011Y0231279D01*
X0022070Y0231266D01*
X0022129Y0231257D01*
X0022190Y0231252D01*
X0022250Y0231250D01*
X0023750Y0231250D01*
X0024250Y0231750D01*
X0038250Y0231750D01*
X0038750Y0231250D01*
X0049000Y0241200D02*
X0049000Y0245900D01*
X0049000Y0241200D02*
X0021000Y0241200D01*
X0021000Y0245900D01*
X0021000Y0254100D02*
X0021000Y0255900D01*
X0021000Y0264100D02*
X0021000Y0265900D01*
X0021000Y0274100D02*
X0021000Y0275900D01*
X0021000Y0284100D02*
X0021000Y0285900D01*
X0021000Y0294100D02*
X0021000Y0295900D01*
X0021000Y0304100D02*
X0021000Y0305700D01*
X0021000Y0314300D02*
X0021000Y0318800D01*
X0033800Y0318800D01*
X0036200Y0318800D01*
X0049000Y0318800D01*
X0049000Y0314100D01*
X0049000Y0305900D02*
X0049000Y0304100D01*
X0049000Y0295900D02*
X0049000Y0294100D01*
X0049000Y0285900D02*
X0049000Y0284100D01*
X0049000Y0275900D02*
X0049000Y0274100D01*
X0049000Y0265900D02*
X0049000Y0264100D01*
X0049000Y0255900D02*
X0049000Y0254100D01*
X0037953Y0199193D02*
X0035453Y0196693D01*
X0073000Y0154000D02*
X0074500Y0154000D01*
X0075000Y0153500D01*
X0089000Y0153500D01*
X0089500Y0154000D01*
X0091000Y0154000D01*
X0091060Y0153998D01*
X0091121Y0153993D01*
X0091180Y0153984D01*
X0091239Y0153971D01*
X0091298Y0153955D01*
X0091355Y0153935D01*
X0091410Y0153912D01*
X0091465Y0153885D01*
X0091517Y0153856D01*
X0091568Y0153823D01*
X0091617Y0153787D01*
X0091663Y0153749D01*
X0091707Y0153707D01*
X0091749Y0153663D01*
X0091787Y0153617D01*
X0091823Y0153568D01*
X0091856Y0153517D01*
X0091885Y0153465D01*
X0091912Y0153410D01*
X0091935Y0153355D01*
X0091955Y0153298D01*
X0091971Y0153239D01*
X0091984Y0153180D01*
X0091993Y0153121D01*
X0091998Y0153060D01*
X0092000Y0153000D01*
X0092000Y0147000D01*
X0091998Y0146940D01*
X0091993Y0146879D01*
X0091984Y0146820D01*
X0091971Y0146761D01*
X0091955Y0146702D01*
X0091935Y0146645D01*
X0091912Y0146590D01*
X0091885Y0146535D01*
X0091856Y0146483D01*
X0091823Y0146432D01*
X0091787Y0146383D01*
X0091749Y0146337D01*
X0091707Y0146293D01*
X0091663Y0146251D01*
X0091617Y0146213D01*
X0091568Y0146177D01*
X0091517Y0146144D01*
X0091465Y0146115D01*
X0091410Y0146088D01*
X0091355Y0146065D01*
X0091298Y0146045D01*
X0091239Y0146029D01*
X0091180Y0146016D01*
X0091121Y0146007D01*
X0091060Y0146002D01*
X0091000Y0146000D01*
X0089500Y0146000D01*
X0089000Y0146500D01*
X0075000Y0146500D01*
X0074500Y0146000D01*
X0073000Y0146000D01*
X0072940Y0146002D01*
X0072879Y0146007D01*
X0072820Y0146016D01*
X0072761Y0146029D01*
X0072702Y0146045D01*
X0072645Y0146065D01*
X0072590Y0146088D01*
X0072535Y0146115D01*
X0072483Y0146144D01*
X0072432Y0146177D01*
X0072383Y0146213D01*
X0072337Y0146251D01*
X0072293Y0146293D01*
X0072251Y0146337D01*
X0072213Y0146383D01*
X0072177Y0146432D01*
X0072144Y0146483D01*
X0072115Y0146535D01*
X0072088Y0146590D01*
X0072065Y0146645D01*
X0072045Y0146702D01*
X0072029Y0146761D01*
X0072016Y0146820D01*
X0072007Y0146879D01*
X0072002Y0146940D01*
X0072000Y0147000D01*
X0072000Y0153000D01*
X0072002Y0153060D01*
X0072007Y0153121D01*
X0072016Y0153180D01*
X0072029Y0153239D01*
X0072045Y0153298D01*
X0072065Y0153355D01*
X0072088Y0153410D01*
X0072115Y0153465D01*
X0072144Y0153517D01*
X0072177Y0153568D01*
X0072213Y0153617D01*
X0072251Y0153663D01*
X0072293Y0153707D01*
X0072337Y0153749D01*
X0072383Y0153787D01*
X0072432Y0153823D01*
X0072483Y0153856D01*
X0072535Y0153885D01*
X0072590Y0153912D01*
X0072645Y0153935D01*
X0072702Y0153955D01*
X0072761Y0153971D01*
X0072820Y0153984D01*
X0072879Y0153993D01*
X0072940Y0153998D01*
X0073000Y0154000D01*
X0073000Y0144000D02*
X0074500Y0144000D01*
X0075000Y0143500D01*
X0089000Y0143500D01*
X0089500Y0144000D01*
X0091000Y0144000D01*
X0091060Y0143998D01*
X0091121Y0143993D01*
X0091180Y0143984D01*
X0091239Y0143971D01*
X0091298Y0143955D01*
X0091355Y0143935D01*
X0091410Y0143912D01*
X0091465Y0143885D01*
X0091517Y0143856D01*
X0091568Y0143823D01*
X0091617Y0143787D01*
X0091663Y0143749D01*
X0091707Y0143707D01*
X0091749Y0143663D01*
X0091787Y0143617D01*
X0091823Y0143568D01*
X0091856Y0143517D01*
X0091885Y0143465D01*
X0091912Y0143410D01*
X0091935Y0143355D01*
X0091955Y0143298D01*
X0091971Y0143239D01*
X0091984Y0143180D01*
X0091993Y0143121D01*
X0091998Y0143060D01*
X0092000Y0143000D01*
X0092000Y0137000D01*
X0091998Y0136940D01*
X0091993Y0136879D01*
X0091984Y0136820D01*
X0091971Y0136761D01*
X0091955Y0136702D01*
X0091935Y0136645D01*
X0091912Y0136590D01*
X0091885Y0136535D01*
X0091856Y0136483D01*
X0091823Y0136432D01*
X0091787Y0136383D01*
X0091749Y0136337D01*
X0091707Y0136293D01*
X0091663Y0136251D01*
X0091617Y0136213D01*
X0091568Y0136177D01*
X0091517Y0136144D01*
X0091465Y0136115D01*
X0091410Y0136088D01*
X0091355Y0136065D01*
X0091298Y0136045D01*
X0091239Y0136029D01*
X0091180Y0136016D01*
X0091121Y0136007D01*
X0091060Y0136002D01*
X0091000Y0136000D01*
X0089500Y0136000D01*
X0089000Y0136500D01*
X0075000Y0136500D01*
X0074500Y0136000D01*
X0073000Y0136000D01*
X0072940Y0136002D01*
X0072879Y0136007D01*
X0072820Y0136016D01*
X0072761Y0136029D01*
X0072702Y0136045D01*
X0072645Y0136065D01*
X0072590Y0136088D01*
X0072535Y0136115D01*
X0072483Y0136144D01*
X0072432Y0136177D01*
X0072383Y0136213D01*
X0072337Y0136251D01*
X0072293Y0136293D01*
X0072251Y0136337D01*
X0072213Y0136383D01*
X0072177Y0136432D01*
X0072144Y0136483D01*
X0072115Y0136535D01*
X0072088Y0136590D01*
X0072065Y0136645D01*
X0072045Y0136702D01*
X0072029Y0136761D01*
X0072016Y0136820D01*
X0072007Y0136879D01*
X0072002Y0136940D01*
X0072000Y0137000D01*
X0072000Y0143000D01*
X0072002Y0143060D01*
X0072007Y0143121D01*
X0072016Y0143180D01*
X0072029Y0143239D01*
X0072045Y0143298D01*
X0072065Y0143355D01*
X0072088Y0143410D01*
X0072115Y0143465D01*
X0072144Y0143517D01*
X0072177Y0143568D01*
X0072213Y0143617D01*
X0072251Y0143663D01*
X0072293Y0143707D01*
X0072337Y0143749D01*
X0072383Y0143787D01*
X0072432Y0143823D01*
X0072483Y0143856D01*
X0072535Y0143885D01*
X0072590Y0143912D01*
X0072645Y0143935D01*
X0072702Y0143955D01*
X0072761Y0143971D01*
X0072820Y0143984D01*
X0072879Y0143993D01*
X0072940Y0143998D01*
X0073000Y0144000D01*
X0073000Y0114000D02*
X0074500Y0114000D01*
X0075000Y0113500D01*
X0089000Y0113500D01*
X0089500Y0114000D01*
X0091000Y0114000D01*
X0091060Y0113998D01*
X0091121Y0113993D01*
X0091180Y0113984D01*
X0091239Y0113971D01*
X0091298Y0113955D01*
X0091355Y0113935D01*
X0091410Y0113912D01*
X0091465Y0113885D01*
X0091517Y0113856D01*
X0091568Y0113823D01*
X0091617Y0113787D01*
X0091663Y0113749D01*
X0091707Y0113707D01*
X0091749Y0113663D01*
X0091787Y0113617D01*
X0091823Y0113568D01*
X0091856Y0113517D01*
X0091885Y0113465D01*
X0091912Y0113410D01*
X0091935Y0113355D01*
X0091955Y0113298D01*
X0091971Y0113239D01*
X0091984Y0113180D01*
X0091993Y0113121D01*
X0091998Y0113060D01*
X0092000Y0113000D01*
X0092000Y0107000D01*
X0091998Y0106940D01*
X0091993Y0106879D01*
X0091984Y0106820D01*
X0091971Y0106761D01*
X0091955Y0106702D01*
X0091935Y0106645D01*
X0091912Y0106590D01*
X0091885Y0106535D01*
X0091856Y0106483D01*
X0091823Y0106432D01*
X0091787Y0106383D01*
X0091749Y0106337D01*
X0091707Y0106293D01*
X0091663Y0106251D01*
X0091617Y0106213D01*
X0091568Y0106177D01*
X0091517Y0106144D01*
X0091465Y0106115D01*
X0091410Y0106088D01*
X0091355Y0106065D01*
X0091298Y0106045D01*
X0091239Y0106029D01*
X0091180Y0106016D01*
X0091121Y0106007D01*
X0091060Y0106002D01*
X0091000Y0106000D01*
X0089500Y0106000D01*
X0089000Y0106500D01*
X0075000Y0106500D01*
X0074500Y0106000D01*
X0073000Y0106000D01*
X0072940Y0106002D01*
X0072879Y0106007D01*
X0072820Y0106016D01*
X0072761Y0106029D01*
X0072702Y0106045D01*
X0072645Y0106065D01*
X0072590Y0106088D01*
X0072535Y0106115D01*
X0072483Y0106144D01*
X0072432Y0106177D01*
X0072383Y0106213D01*
X0072337Y0106251D01*
X0072293Y0106293D01*
X0072251Y0106337D01*
X0072213Y0106383D01*
X0072177Y0106432D01*
X0072144Y0106483D01*
X0072115Y0106535D01*
X0072088Y0106590D01*
X0072065Y0106645D01*
X0072045Y0106702D01*
X0072029Y0106761D01*
X0072016Y0106820D01*
X0072007Y0106879D01*
X0072002Y0106940D01*
X0072000Y0107000D01*
X0072000Y0113000D01*
X0072002Y0113060D01*
X0072007Y0113121D01*
X0072016Y0113180D01*
X0072029Y0113239D01*
X0072045Y0113298D01*
X0072065Y0113355D01*
X0072088Y0113410D01*
X0072115Y0113465D01*
X0072144Y0113517D01*
X0072177Y0113568D01*
X0072213Y0113617D01*
X0072251Y0113663D01*
X0072293Y0113707D01*
X0072337Y0113749D01*
X0072383Y0113787D01*
X0072432Y0113823D01*
X0072483Y0113856D01*
X0072535Y0113885D01*
X0072590Y0113912D01*
X0072645Y0113935D01*
X0072702Y0113955D01*
X0072761Y0113971D01*
X0072820Y0113984D01*
X0072879Y0113993D01*
X0072940Y0113998D01*
X0073000Y0114000D01*
X0110000Y0147000D02*
X0110000Y0153000D01*
X0110002Y0153060D01*
X0110007Y0153121D01*
X0110016Y0153180D01*
X0110029Y0153239D01*
X0110045Y0153298D01*
X0110065Y0153355D01*
X0110088Y0153410D01*
X0110115Y0153465D01*
X0110144Y0153517D01*
X0110177Y0153568D01*
X0110213Y0153617D01*
X0110251Y0153663D01*
X0110293Y0153707D01*
X0110337Y0153749D01*
X0110383Y0153787D01*
X0110432Y0153823D01*
X0110483Y0153856D01*
X0110535Y0153885D01*
X0110590Y0153912D01*
X0110645Y0153935D01*
X0110702Y0153955D01*
X0110761Y0153971D01*
X0110820Y0153984D01*
X0110879Y0153993D01*
X0110940Y0153998D01*
X0111000Y0154000D01*
X0112500Y0154000D01*
X0113000Y0153500D01*
X0127000Y0153500D01*
X0127500Y0154000D01*
X0129000Y0154000D01*
X0129060Y0153998D01*
X0129121Y0153993D01*
X0129180Y0153984D01*
X0129239Y0153971D01*
X0129298Y0153955D01*
X0129355Y0153935D01*
X0129410Y0153912D01*
X0129465Y0153885D01*
X0129517Y0153856D01*
X0129568Y0153823D01*
X0129617Y0153787D01*
X0129663Y0153749D01*
X0129707Y0153707D01*
X0129749Y0153663D01*
X0129787Y0153617D01*
X0129823Y0153568D01*
X0129856Y0153517D01*
X0129885Y0153465D01*
X0129912Y0153410D01*
X0129935Y0153355D01*
X0129955Y0153298D01*
X0129971Y0153239D01*
X0129984Y0153180D01*
X0129993Y0153121D01*
X0129998Y0153060D01*
X0130000Y0153000D01*
X0130000Y0147000D01*
X0129998Y0146940D01*
X0129993Y0146879D01*
X0129984Y0146820D01*
X0129971Y0146761D01*
X0129955Y0146702D01*
X0129935Y0146645D01*
X0129912Y0146590D01*
X0129885Y0146535D01*
X0129856Y0146483D01*
X0129823Y0146432D01*
X0129787Y0146383D01*
X0129749Y0146337D01*
X0129707Y0146293D01*
X0129663Y0146251D01*
X0129617Y0146213D01*
X0129568Y0146177D01*
X0129517Y0146144D01*
X0129465Y0146115D01*
X0129410Y0146088D01*
X0129355Y0146065D01*
X0129298Y0146045D01*
X0129239Y0146029D01*
X0129180Y0146016D01*
X0129121Y0146007D01*
X0129060Y0146002D01*
X0129000Y0146000D01*
X0127500Y0146000D01*
X0127000Y0146500D01*
X0113000Y0146500D01*
X0112500Y0146000D01*
X0111000Y0146000D01*
X0110940Y0146002D01*
X0110879Y0146007D01*
X0110820Y0146016D01*
X0110761Y0146029D01*
X0110702Y0146045D01*
X0110645Y0146065D01*
X0110590Y0146088D01*
X0110535Y0146115D01*
X0110483Y0146144D01*
X0110432Y0146177D01*
X0110383Y0146213D01*
X0110337Y0146251D01*
X0110293Y0146293D01*
X0110251Y0146337D01*
X0110213Y0146383D01*
X0110177Y0146432D01*
X0110144Y0146483D01*
X0110115Y0146535D01*
X0110088Y0146590D01*
X0110065Y0146645D01*
X0110045Y0146702D01*
X0110029Y0146761D01*
X0110016Y0146820D01*
X0110007Y0146879D01*
X0110002Y0146940D01*
X0110000Y0147000D01*
X0180000Y0227500D02*
X0180000Y0232500D01*
X0200000Y0232500D02*
X0200000Y0227500D01*
X0197500Y0295000D02*
X0192500Y0295000D01*
X0190000Y0297500D01*
X0187500Y0295000D01*
X0182500Y0295000D01*
X0180000Y0297500D01*
X0180000Y0302500D01*
X0182500Y0305000D01*
X0187500Y0305000D01*
X0190000Y0302500D01*
X0192500Y0305000D01*
X0197500Y0305000D01*
X0200000Y0302500D01*
X0200000Y0297500D01*
X0197500Y0295000D01*
X0200000Y0297500D02*
X0202500Y0295000D01*
X0207500Y0295000D01*
X0210000Y0297500D01*
X0212500Y0295000D01*
X0217500Y0295000D01*
X0220000Y0297500D01*
X0220000Y0302500D01*
X0217500Y0305000D01*
X0212500Y0305000D01*
X0210000Y0302500D01*
X0210000Y0297500D01*
X0210000Y0302500D02*
X0207500Y0305000D01*
X0202500Y0305000D01*
X0200000Y0302500D01*
X0190000Y0302500D02*
X0190000Y0297500D01*
X0192500Y0157750D02*
X0198500Y0157750D01*
X0198560Y0157748D01*
X0198621Y0157743D01*
X0198680Y0157734D01*
X0198739Y0157721D01*
X0198798Y0157705D01*
X0198855Y0157685D01*
X0198910Y0157662D01*
X0198965Y0157635D01*
X0199017Y0157606D01*
X0199068Y0157573D01*
X0199117Y0157537D01*
X0199163Y0157499D01*
X0199207Y0157457D01*
X0199249Y0157413D01*
X0199287Y0157367D01*
X0199323Y0157318D01*
X0199356Y0157267D01*
X0199385Y0157215D01*
X0199412Y0157160D01*
X0199435Y0157105D01*
X0199455Y0157048D01*
X0199471Y0156989D01*
X0199484Y0156930D01*
X0199493Y0156871D01*
X0199498Y0156810D01*
X0199500Y0156750D01*
X0199500Y0155250D01*
X0199000Y0154750D01*
X0199000Y0140750D01*
X0199500Y0140250D01*
X0199500Y0138750D01*
X0199498Y0138690D01*
X0199493Y0138629D01*
X0199484Y0138570D01*
X0199471Y0138511D01*
X0199455Y0138452D01*
X0199435Y0138395D01*
X0199412Y0138340D01*
X0199385Y0138285D01*
X0199356Y0138233D01*
X0199323Y0138182D01*
X0199287Y0138133D01*
X0199249Y0138087D01*
X0199207Y0138043D01*
X0199163Y0138001D01*
X0199117Y0137963D01*
X0199068Y0137927D01*
X0199017Y0137894D01*
X0198965Y0137865D01*
X0198910Y0137838D01*
X0198855Y0137815D01*
X0198798Y0137795D01*
X0198739Y0137779D01*
X0198680Y0137766D01*
X0198621Y0137757D01*
X0198560Y0137752D01*
X0198500Y0137750D01*
X0192500Y0137750D01*
X0192440Y0137752D01*
X0192379Y0137757D01*
X0192320Y0137766D01*
X0192261Y0137779D01*
X0192202Y0137795D01*
X0192145Y0137815D01*
X0192090Y0137838D01*
X0192035Y0137865D01*
X0191983Y0137894D01*
X0191932Y0137927D01*
X0191883Y0137963D01*
X0191837Y0138001D01*
X0191793Y0138043D01*
X0191751Y0138087D01*
X0191713Y0138133D01*
X0191677Y0138182D01*
X0191644Y0138233D01*
X0191615Y0138285D01*
X0191588Y0138340D01*
X0191565Y0138395D01*
X0191545Y0138452D01*
X0191529Y0138511D01*
X0191516Y0138570D01*
X0191507Y0138629D01*
X0191502Y0138690D01*
X0191500Y0138750D01*
X0191500Y0140250D01*
X0192000Y0140750D01*
X0192000Y0154750D01*
X0191500Y0155250D01*
X0191500Y0156750D01*
X0191502Y0156810D01*
X0191507Y0156871D01*
X0191516Y0156930D01*
X0191529Y0156989D01*
X0191545Y0157048D01*
X0191565Y0157105D01*
X0191588Y0157160D01*
X0191615Y0157215D01*
X0191644Y0157267D01*
X0191677Y0157318D01*
X0191713Y0157367D01*
X0191751Y0157413D01*
X0191793Y0157457D01*
X0191837Y0157499D01*
X0191883Y0157537D01*
X0191932Y0157573D01*
X0191983Y0157606D01*
X0192035Y0157635D01*
X0192090Y0157662D01*
X0192145Y0157685D01*
X0192202Y0157705D01*
X0192261Y0157721D01*
X0192320Y0157734D01*
X0192379Y0157743D01*
X0192440Y0157748D01*
X0192500Y0157750D01*
D14*
X0130750Y0150000D03*
X0109250Y0150000D03*
X0092750Y0150000D03*
X0092750Y0140000D03*
X0071250Y0140000D03*
X0071250Y0150000D03*
X0071250Y0110000D03*
X0092750Y0110000D03*
X0042250Y0225250D03*
X0042000Y0235250D03*
X0020750Y0225250D03*
X0020500Y0235250D03*
D15*
X0011000Y0035000D02*
X0003500Y0035000D01*
X0003500Y0085000D01*
X0011000Y0085000D01*
X0011000Y0035000D01*
X0028500Y0035000D01*
X0028500Y0085000D01*
X0011000Y0085000D01*
X0020000Y0100500D02*
X0020000Y0118000D01*
X0060000Y0118000D01*
X0060000Y0100500D01*
X0020000Y0100500D01*
X0020000Y0118000D02*
X0020000Y0125500D01*
X0060000Y0125500D01*
X0060000Y0118000D01*
X0060000Y0139500D02*
X0020000Y0139500D01*
X0020000Y0157000D01*
X0060000Y0157000D01*
X0060000Y0139500D01*
X0060000Y0157000D02*
X0060000Y0164500D01*
X0020000Y0164500D01*
X0020000Y0157000D01*
X0065000Y0237500D02*
X0065000Y0255000D01*
X0095000Y0255000D01*
X0095000Y0237500D01*
X0065000Y0237500D01*
X0065000Y0255000D02*
X0065000Y0262500D01*
X0095000Y0262500D01*
X0095000Y0255000D01*
X0105000Y0255000D02*
X0135000Y0255000D01*
X0135000Y0237500D01*
X0105000Y0237500D01*
X0105000Y0255000D01*
X0105000Y0262500D01*
X0135000Y0262500D01*
X0135000Y0255000D01*
X0135000Y0287500D02*
X0105000Y0287500D01*
X0105000Y0305000D01*
X0135000Y0305000D01*
X0135000Y0287500D01*
X0135000Y0305000D02*
X0135000Y0312500D01*
X0105000Y0312500D01*
X0105000Y0305000D01*
X0095000Y0305000D02*
X0065000Y0305000D01*
X0065000Y0312500D01*
X0095000Y0312500D01*
X0095000Y0305000D01*
X0095000Y0287500D01*
X0065000Y0287500D01*
X0065000Y0305000D01*
X0144000Y0164500D02*
X0144000Y0157000D01*
X0184000Y0157000D01*
X0184000Y0139500D01*
X0144000Y0139500D01*
X0144000Y0157000D01*
X0144000Y0164500D02*
X0184000Y0164500D01*
X0184000Y0157000D01*
X0184000Y0125500D02*
X0184000Y0118000D01*
X0144000Y0118000D01*
X0144000Y0125500D01*
X0184000Y0125500D01*
X0184000Y0118000D02*
X0184000Y0100500D01*
X0144000Y0100500D01*
X0144000Y0118000D01*
X0220000Y0123000D02*
X0220000Y0105500D01*
X0240000Y0105500D01*
X0240000Y0123000D01*
X0220000Y0123000D01*
X0220000Y0130500D01*
X0240000Y0130500D01*
X0240000Y0123000D01*
X0240000Y0137500D02*
X0220000Y0137500D01*
X0220000Y0155000D01*
X0240000Y0155000D01*
X0240000Y0137500D01*
X0240000Y0155000D02*
X0240000Y0162500D01*
X0220000Y0162500D01*
X0220000Y0155000D01*
X0220000Y0099500D02*
X0220000Y0092000D01*
X0240000Y0092000D01*
X0240000Y0074500D01*
X0220000Y0074500D01*
X0220000Y0092000D01*
X0220000Y0099500D02*
X0240000Y0099500D01*
X0240000Y0092000D01*
X0240000Y0069500D02*
X0240000Y0062000D01*
X0220000Y0062000D01*
X0220000Y0069500D01*
X0240000Y0069500D01*
X0240000Y0062000D02*
X0240000Y0044500D01*
X0220000Y0044500D01*
X0220000Y0062000D01*
D16*
X0036200Y0318800D02*
X0036198Y0318731D01*
X0036192Y0318663D01*
X0036182Y0318595D01*
X0036169Y0318528D01*
X0036151Y0318462D01*
X0036130Y0318397D01*
X0036105Y0318333D01*
X0036077Y0318271D01*
X0036045Y0318210D01*
X0036010Y0318151D01*
X0035971Y0318095D01*
X0035929Y0318040D01*
X0035884Y0317989D01*
X0035836Y0317939D01*
X0035786Y0317893D01*
X0035733Y0317850D01*
X0035677Y0317809D01*
X0035620Y0317772D01*
X0035560Y0317739D01*
X0035498Y0317708D01*
X0035435Y0317682D01*
X0035371Y0317659D01*
X0035305Y0317639D01*
X0035238Y0317624D01*
X0035171Y0317612D01*
X0035103Y0317604D01*
X0035034Y0317600D01*
X0034966Y0317600D01*
X0034897Y0317604D01*
X0034829Y0317612D01*
X0034762Y0317624D01*
X0034695Y0317639D01*
X0034629Y0317659D01*
X0034565Y0317682D01*
X0034502Y0317708D01*
X0034440Y0317739D01*
X0034380Y0317772D01*
X0034323Y0317809D01*
X0034267Y0317850D01*
X0034214Y0317893D01*
X0034164Y0317939D01*
X0034116Y0317989D01*
X0034071Y0318040D01*
X0034029Y0318095D01*
X0033990Y0318151D01*
X0033955Y0318210D01*
X0033923Y0318271D01*
X0033895Y0318333D01*
X0033870Y0318397D01*
X0033849Y0318462D01*
X0033831Y0318528D01*
X0033818Y0318595D01*
X0033808Y0318663D01*
X0033802Y0318731D01*
X0033800Y0318800D01*
D17*
X0020722Y0315900D02*
X0019286Y0315378D01*
X0017850Y0315900D01*
X0019286Y0315378D02*
X0018372Y0314203D01*
X0019286Y0315378D02*
X0020200Y0314203D01*
X0019286Y0315378D02*
X0019286Y0316944D01*
D18*
X0031456Y0284517D02*
X0031456Y0280406D01*
X0025700Y0282050D01*
X0025700Y0277261D02*
X0031044Y0277261D01*
X0031044Y0277262D02*
X0031134Y0277260D01*
X0031223Y0277254D01*
X0031312Y0277244D01*
X0031401Y0277231D01*
X0031489Y0277213D01*
X0031576Y0277192D01*
X0031662Y0277167D01*
X0031747Y0277138D01*
X0031831Y0277105D01*
X0031913Y0277069D01*
X0031993Y0277030D01*
X0032072Y0276987D01*
X0032149Y0276940D01*
X0032223Y0276890D01*
X0032296Y0276837D01*
X0032366Y0276781D01*
X0032433Y0276722D01*
X0032498Y0276660D01*
X0032560Y0276595D01*
X0032619Y0276528D01*
X0032675Y0276458D01*
X0032728Y0276385D01*
X0032778Y0276311D01*
X0032825Y0276234D01*
X0032868Y0276155D01*
X0032907Y0276075D01*
X0032943Y0275993D01*
X0032976Y0275909D01*
X0033005Y0275824D01*
X0033030Y0275738D01*
X0033051Y0275651D01*
X0033069Y0275563D01*
X0033082Y0275474D01*
X0033092Y0275385D01*
X0033098Y0275296D01*
X0033100Y0275206D01*
X0033098Y0275116D01*
X0033092Y0275027D01*
X0033082Y0274938D01*
X0033069Y0274849D01*
X0033051Y0274761D01*
X0033030Y0274674D01*
X0033005Y0274588D01*
X0032976Y0274503D01*
X0032943Y0274419D01*
X0032907Y0274337D01*
X0032868Y0274257D01*
X0032825Y0274178D01*
X0032778Y0274101D01*
X0032728Y0274027D01*
X0032675Y0273954D01*
X0032619Y0273884D01*
X0032560Y0273817D01*
X0032498Y0273752D01*
X0032433Y0273690D01*
X0032366Y0273631D01*
X0032296Y0273575D01*
X0032223Y0273522D01*
X0032149Y0273472D01*
X0032072Y0273425D01*
X0031993Y0273382D01*
X0031913Y0273343D01*
X0031831Y0273307D01*
X0031747Y0273274D01*
X0031662Y0273245D01*
X0031576Y0273220D01*
X0031489Y0273199D01*
X0031401Y0273181D01*
X0031312Y0273168D01*
X0031223Y0273158D01*
X0031134Y0273152D01*
X0031044Y0273150D01*
X0025700Y0273150D01*
X0029811Y0283283D02*
X0033100Y0283283D01*
D19*
X0195500Y0158500D03*
X0195500Y0137000D03*
M02*
