G75*
%MOIN*%
%OFA0B0*%
%FSLAX25Y25*%
%IPPOS*%
%LPD*%
%AMOC8*
5,1,8,0,0,1.08239X$1,22.5*
%
%ADD10R,0.05543X0.05543*%
%ADD11C,0.05543*%
%ADD12OC8,0.05200*%
%ADD13OC8,0.06000*%
%ADD14C,0.05898*%
%ADD15C,0.07677*%
%ADD16C,0.05937*%
%ADD17R,0.05900X0.05900*%
%ADD18C,0.05900*%
%ADD19C,0.06000*%
%ADD20C,0.00600*%
%ADD21OC8,0.04356*%
%ADD22C,0.01000*%
%ADD23C,0.00787*%
D10*
X0038677Y0080000D03*
X0086677Y0080000D03*
X0134677Y0080000D03*
D11*
X0134677Y0070000D03*
X0134677Y0060000D03*
X0134677Y0050000D03*
X0134677Y0040000D03*
X0134677Y0030000D03*
X0134677Y0020000D03*
X0134677Y0010000D03*
X0121323Y0010000D03*
X0121323Y0020000D03*
X0121323Y0030000D03*
X0121323Y0040000D03*
X0121323Y0050000D03*
X0121323Y0060000D03*
X0121323Y0070000D03*
X0121323Y0080000D03*
X0086677Y0070000D03*
X0086677Y0060000D03*
X0086677Y0050000D03*
X0086677Y0040000D03*
X0086677Y0030000D03*
X0086677Y0020000D03*
X0086677Y0010000D03*
X0073323Y0010000D03*
X0073323Y0020000D03*
X0073323Y0030000D03*
X0073323Y0040000D03*
X0073323Y0050000D03*
X0073323Y0060000D03*
X0073323Y0070000D03*
X0073323Y0080000D03*
X0038677Y0070000D03*
X0038677Y0060000D03*
X0038677Y0050000D03*
X0038677Y0040000D03*
X0038677Y0030000D03*
X0038677Y0020000D03*
X0038677Y0010000D03*
X0169323Y0010000D03*
X0169323Y0020000D03*
X0169323Y0030000D03*
X0169323Y0040000D03*
X0169323Y0050000D03*
X0169323Y0060000D03*
X0169323Y0070000D03*
X0169323Y0080000D03*
D12*
X0135000Y0110000D03*
X0135000Y0119000D03*
X0135000Y0140000D03*
X0135000Y0150000D03*
X0105000Y0150000D03*
X0097000Y0150000D03*
X0097000Y0140000D03*
X0105000Y0140000D03*
X0105000Y0119000D03*
X0097000Y0119000D03*
X0097000Y0110000D03*
X0105000Y0110000D03*
X0067000Y0110000D03*
X0067000Y0119000D03*
X0067000Y0140000D03*
X0067000Y0150000D03*
X0046500Y0225250D03*
X0046250Y0235250D03*
X0016250Y0235250D03*
X0016500Y0225250D03*
X0195500Y0162750D03*
X0195500Y0132750D03*
D13*
X0192953Y0175000D03*
X0192953Y0185000D03*
X0202953Y0185000D03*
X0202953Y0175000D03*
X0212953Y0175000D03*
X0222953Y0175000D03*
X0222953Y0185000D03*
X0212953Y0185000D03*
X0212953Y0201693D03*
X0222953Y0201693D03*
X0222953Y0211693D03*
X0212953Y0211693D03*
X0202953Y0211693D03*
X0202953Y0201693D03*
X0192953Y0201693D03*
X0192953Y0211693D03*
X0182953Y0211693D03*
X0182953Y0201693D03*
X0172953Y0201693D03*
X0172953Y0211693D03*
X0162953Y0211693D03*
X0162953Y0201693D03*
X0152953Y0201693D03*
X0152953Y0211693D03*
X0142953Y0211693D03*
X0142953Y0201693D03*
X0132953Y0201693D03*
X0132953Y0211693D03*
X0122953Y0211693D03*
X0122953Y0201693D03*
X0112953Y0201693D03*
X0112953Y0211693D03*
X0102953Y0211693D03*
X0102953Y0201693D03*
X0092953Y0201693D03*
X0092953Y0211693D03*
X0082953Y0211693D03*
X0082953Y0201693D03*
X0072953Y0201693D03*
X0072953Y0211693D03*
X0062953Y0211693D03*
X0062953Y0201693D03*
X0052953Y0201693D03*
X0052953Y0211693D03*
X0042953Y0211693D03*
X0042953Y0201693D03*
X0032953Y0201693D03*
X0032953Y0211693D03*
X0032953Y0185000D03*
X0032953Y0175000D03*
X0042953Y0175000D03*
X0042953Y0185000D03*
X0052953Y0185000D03*
X0052953Y0175000D03*
X0062953Y0175000D03*
X0072953Y0175000D03*
X0072953Y0185000D03*
X0062953Y0185000D03*
X0082953Y0185000D03*
X0082953Y0175000D03*
X0092953Y0175000D03*
X0092953Y0185000D03*
X0102953Y0185000D03*
X0102953Y0175000D03*
X0112953Y0175000D03*
X0122953Y0175000D03*
X0122953Y0185000D03*
X0112953Y0185000D03*
X0132953Y0185000D03*
X0132953Y0175000D03*
X0142953Y0175000D03*
X0142953Y0185000D03*
X0152953Y0185000D03*
X0152953Y0175000D03*
X0162953Y0175000D03*
X0172953Y0175000D03*
X0172953Y0185000D03*
X0162953Y0185000D03*
X0182953Y0185000D03*
X0182953Y0175000D03*
D14*
X0202142Y0015098D03*
X0219858Y0015098D03*
D15*
X0224799Y0024902D03*
X0197201Y0024902D03*
D16*
X0225000Y0054031D02*
X0225000Y0059969D01*
X0235000Y0059969D02*
X0235000Y0054031D01*
X0235000Y0084031D02*
X0235000Y0089969D01*
X0225000Y0089969D02*
X0225000Y0084031D01*
X0225000Y0115031D02*
X0225000Y0120969D01*
X0235000Y0120969D02*
X0235000Y0115031D01*
X0235000Y0147031D02*
X0235000Y0152969D01*
X0225000Y0152969D02*
X0225000Y0147031D01*
X0179000Y0149031D02*
X0179000Y0154969D01*
X0169000Y0154969D02*
X0169000Y0149031D01*
X0159000Y0149031D02*
X0159000Y0154969D01*
X0149000Y0154969D02*
X0149000Y0149031D01*
X0149000Y0115969D02*
X0149000Y0110031D01*
X0159000Y0110031D02*
X0159000Y0115969D01*
X0169000Y0115969D02*
X0169000Y0110031D01*
X0179000Y0110031D02*
X0179000Y0115969D01*
X0130000Y0247031D02*
X0130000Y0252969D01*
X0120000Y0252969D02*
X0120000Y0247031D01*
X0110000Y0247031D02*
X0110000Y0252969D01*
X0090000Y0252969D02*
X0090000Y0247031D01*
X0080000Y0247031D02*
X0080000Y0252969D01*
X0070000Y0252969D02*
X0070000Y0247031D01*
X0070000Y0297031D02*
X0070000Y0302969D01*
X0080000Y0302969D02*
X0080000Y0297031D01*
X0090000Y0297031D02*
X0090000Y0302969D01*
X0110000Y0302969D02*
X0110000Y0297031D01*
X0120000Y0297031D02*
X0120000Y0302969D01*
X0130000Y0302969D02*
X0130000Y0297031D01*
X0055000Y0154969D02*
X0055000Y0149031D01*
X0045000Y0149031D02*
X0045000Y0154969D01*
X0035000Y0154969D02*
X0035000Y0149031D01*
X0025000Y0149031D02*
X0025000Y0154969D01*
X0025000Y0115969D02*
X0025000Y0110031D01*
X0035000Y0110031D02*
X0035000Y0115969D01*
X0045000Y0115969D02*
X0045000Y0110031D01*
X0055000Y0110031D02*
X0055000Y0115969D01*
X0018969Y0080000D02*
X0013031Y0080000D01*
X0013031Y0070000D02*
X0018969Y0070000D01*
X0018969Y0060000D02*
X0013031Y0060000D01*
X0013031Y0050000D02*
X0018969Y0050000D01*
X0018969Y0040000D02*
X0013031Y0040000D01*
D17*
X0020000Y0310000D03*
D18*
X0020000Y0300000D03*
X0020000Y0290000D03*
X0020000Y0280000D03*
X0020000Y0270000D03*
X0020000Y0260000D03*
X0020000Y0250000D03*
X0050000Y0250000D03*
X0050000Y0260000D03*
X0050000Y0270000D03*
X0050000Y0280000D03*
X0050000Y0290000D03*
X0050000Y0300000D03*
X0050000Y0310000D03*
D19*
X0175000Y0233000D02*
X0175000Y0227000D01*
X0185000Y0227000D02*
X0185000Y0233000D01*
X0195000Y0233000D02*
X0195000Y0227000D01*
X0205000Y0227000D02*
X0205000Y0233000D01*
X0215000Y0233000D02*
X0215000Y0227000D01*
X0225000Y0227000D02*
X0225000Y0233000D01*
X0215000Y0297000D02*
X0215000Y0303000D01*
X0205000Y0303000D02*
X0205000Y0297000D01*
X0195000Y0297000D02*
X0195000Y0303000D01*
X0185000Y0303000D02*
X0185000Y0297000D01*
D20*
X0181267Y0292672D02*
X0133657Y0292672D01*
X0133211Y0292226D02*
X0134806Y0293821D01*
X0135668Y0295904D01*
X0135668Y0304096D01*
X0134806Y0306179D01*
X0133211Y0307774D01*
X0131128Y0308637D01*
X0128872Y0308637D01*
X0126789Y0307774D01*
X0125194Y0306179D01*
X0124331Y0304096D01*
X0124331Y0298857D01*
X0124268Y0298794D01*
X0124268Y0299700D01*
X0120300Y0299700D01*
X0120300Y0300300D01*
X0124268Y0300300D01*
X0124268Y0303304D01*
X0124163Y0303968D01*
X0123956Y0304607D01*
X0123651Y0305206D01*
X0123256Y0305749D01*
X0122781Y0306224D01*
X0122237Y0306619D01*
X0121639Y0306924D01*
X0121000Y0307132D01*
X0120336Y0307237D01*
X0120300Y0307237D01*
X0120300Y0300300D01*
X0119700Y0300300D01*
X0119700Y0307237D01*
X0119664Y0307237D01*
X0119000Y0307132D01*
X0118361Y0306924D01*
X0117763Y0306619D01*
X0117219Y0306224D01*
X0116744Y0305749D01*
X0116349Y0305206D01*
X0116044Y0304607D01*
X0115837Y0303968D01*
X0115731Y0303304D01*
X0115731Y0300300D01*
X0119700Y0300300D01*
X0119700Y0299700D01*
X0115731Y0299700D01*
X0115731Y0296696D01*
X0115837Y0296032D01*
X0116044Y0295393D01*
X0116349Y0294794D01*
X0116744Y0294251D01*
X0117219Y0293776D01*
X0117763Y0293381D01*
X0118361Y0293076D01*
X0118504Y0293029D01*
X0098675Y0273200D01*
X0054790Y0273200D01*
X0054790Y0273200D01*
X0053200Y0274790D01*
X0051124Y0275650D01*
X0048876Y0275650D01*
X0046800Y0274790D01*
X0045210Y0273200D01*
X0044350Y0271124D01*
X0044350Y0270025D01*
X0025606Y0288769D01*
X0025650Y0288876D01*
X0025650Y0291124D01*
X0024790Y0293200D01*
X0023200Y0294790D01*
X0022693Y0295000D01*
X0023200Y0295210D01*
X0024790Y0296800D01*
X0024834Y0296906D01*
X0045166Y0296906D01*
X0045210Y0296800D01*
X0046800Y0295210D01*
X0047307Y0295000D01*
X0046800Y0294790D01*
X0045210Y0293200D01*
X0044350Y0291124D01*
X0044350Y0288876D01*
X0045210Y0286800D01*
X0046800Y0285210D01*
X0048876Y0284350D01*
X0051124Y0284350D01*
X0053200Y0285210D01*
X0054790Y0286800D01*
X0080637Y0286800D01*
X0081813Y0287287D01*
X0082713Y0288187D01*
X0086770Y0292245D01*
X0086789Y0292226D01*
X0088872Y0291363D01*
X0091128Y0291363D01*
X0093211Y0292226D01*
X0094806Y0293821D01*
X0095668Y0295904D01*
X0095668Y0304096D01*
X0094806Y0306179D01*
X0093211Y0307774D01*
X0091128Y0308637D01*
X0088872Y0308637D01*
X0086789Y0307774D01*
X0085194Y0306179D01*
X0084331Y0304096D01*
X0084331Y0298857D01*
X0084268Y0298794D01*
X0084268Y0299700D01*
X0080300Y0299700D01*
X0080300Y0300300D01*
X0079700Y0300300D01*
X0079700Y0307237D01*
X0079664Y0307237D01*
X0079000Y0307132D01*
X0078361Y0306924D01*
X0077763Y0306619D01*
X0077219Y0306224D01*
X0076744Y0305749D01*
X0076349Y0305206D01*
X0076044Y0304607D01*
X0075837Y0303968D01*
X0075731Y0303304D01*
X0075731Y0300300D01*
X0079700Y0300300D01*
X0079700Y0299700D01*
X0075731Y0299700D01*
X0075731Y0296696D01*
X0075837Y0296032D01*
X0076044Y0295393D01*
X0076349Y0294794D01*
X0076744Y0294251D01*
X0077219Y0293776D01*
X0077763Y0293381D01*
X0078118Y0293200D01*
X0074185Y0293200D01*
X0074806Y0293821D01*
X0075668Y0295904D01*
X0075668Y0304096D01*
X0074806Y0306179D01*
X0073211Y0307774D01*
X0073200Y0307779D01*
X0073200Y0309637D01*
X0072713Y0310813D01*
X0071475Y0312050D01*
X0093425Y0312050D01*
X0104331Y0301143D01*
X0104331Y0295904D01*
X0105194Y0293821D01*
X0106789Y0292226D01*
X0108872Y0291363D01*
X0111128Y0291363D01*
X0113211Y0292226D01*
X0114806Y0293821D01*
X0115668Y0295904D01*
X0115668Y0304096D01*
X0114806Y0306179D01*
X0113211Y0307774D01*
X0111128Y0308637D01*
X0108872Y0308637D01*
X0106789Y0307774D01*
X0106770Y0307755D01*
X0097463Y0317063D01*
X0096563Y0317963D01*
X0095387Y0318450D01*
X0016613Y0318450D01*
X0015437Y0317963D01*
X0014537Y0317063D01*
X0008187Y0310713D01*
X0007287Y0309813D01*
X0006800Y0308637D01*
X0006800Y0231113D01*
X0007287Y0229937D01*
X0011200Y0226025D01*
X0011200Y0223055D01*
X0014305Y0219950D01*
X0014872Y0219950D01*
X0014872Y0217479D01*
X0016292Y0216059D01*
X0015692Y0216308D01*
X0011867Y0216308D01*
X0008333Y0214844D01*
X0005628Y0212139D01*
X0004600Y0209657D01*
X0004600Y0319809D01*
X0251306Y0319809D01*
X0251306Y0209657D01*
X0250277Y0212139D01*
X0247572Y0214844D01*
X0244039Y0216308D01*
X0240213Y0216308D01*
X0236680Y0214844D01*
X0233975Y0212139D01*
X0232511Y0208605D01*
X0232511Y0204780D01*
X0233975Y0201246D01*
X0236680Y0198542D01*
X0240213Y0197078D01*
X0244039Y0197078D01*
X0247572Y0198542D01*
X0250277Y0201246D01*
X0251306Y0203729D01*
X0251306Y0016743D01*
X0250277Y0019226D01*
X0247572Y0021931D01*
X0244039Y0023394D01*
X0240213Y0023394D01*
X0236680Y0021931D01*
X0233975Y0019226D01*
X0232511Y0015692D01*
X0232511Y0011867D01*
X0233975Y0008333D01*
X0236680Y0005628D01*
X0239162Y0004600D01*
X0193576Y0004600D01*
X0193576Y0019326D01*
X0195900Y0018363D01*
X0197418Y0018363D01*
X0197353Y0018298D01*
X0196493Y0016222D01*
X0196493Y0013975D01*
X0197353Y0011899D01*
X0198942Y0010310D01*
X0201018Y0009450D01*
X0203265Y0009450D01*
X0205342Y0010310D01*
X0206931Y0011899D01*
X0207791Y0013975D01*
X0207791Y0016222D01*
X0207747Y0016328D01*
X0218713Y0027295D01*
X0218261Y0026202D01*
X0218261Y0023601D01*
X0219256Y0021198D01*
X0221095Y0019358D01*
X0223499Y0018363D01*
X0226100Y0018363D01*
X0228503Y0019358D01*
X0230342Y0021198D01*
X0231338Y0023601D01*
X0231338Y0026202D01*
X0230342Y0028605D01*
X0228503Y0030445D01*
X0226100Y0031440D01*
X0223499Y0031440D01*
X0222406Y0030988D01*
X0225325Y0033906D01*
X0240615Y0033906D01*
X0241752Y0034377D01*
X0243252Y0035877D01*
X0244123Y0036748D01*
X0244623Y0037248D01*
X0245094Y0038385D01*
X0245094Y0039615D01*
X0244623Y0040752D01*
X0244594Y0040781D01*
X0244594Y0127115D01*
X0244123Y0128252D01*
X0232752Y0139623D01*
X0231615Y0140094D01*
X0224281Y0140094D01*
X0222404Y0141971D01*
X0223872Y0141363D01*
X0226128Y0141363D01*
X0228211Y0142226D01*
X0229806Y0143821D01*
X0230000Y0144290D01*
X0230194Y0143821D01*
X0231789Y0142226D01*
X0233872Y0141363D01*
X0236128Y0141363D01*
X0238211Y0142226D01*
X0239806Y0143821D01*
X0240668Y0145904D01*
X0240668Y0154096D01*
X0239806Y0156179D01*
X0238211Y0157774D01*
X0236128Y0158637D01*
X0233872Y0158637D01*
X0231789Y0157774D01*
X0230194Y0156179D01*
X0230000Y0155710D01*
X0229806Y0156179D01*
X0228211Y0157774D01*
X0226128Y0158637D01*
X0223872Y0158637D01*
X0221789Y0157774D01*
X0221594Y0157579D01*
X0221594Y0170700D01*
X0222653Y0170700D01*
X0222653Y0174700D01*
X0223253Y0174700D01*
X0223253Y0175300D01*
X0227253Y0175300D01*
X0227253Y0176781D01*
X0224734Y0179300D01*
X0224675Y0179300D01*
X0224675Y0179300D01*
X0225314Y0179300D01*
X0228653Y0182639D01*
X0228653Y0187361D01*
X0226456Y0189558D01*
X0227878Y0190979D01*
X0227878Y0195020D01*
X0225120Y0197779D01*
X0227253Y0199912D01*
X0227253Y0201393D01*
X0223253Y0201393D01*
X0223253Y0201993D01*
X0227253Y0201993D01*
X0227253Y0203474D01*
X0224734Y0205993D01*
X0223253Y0205993D01*
X0223253Y0201993D01*
X0222653Y0201993D01*
X0222653Y0205993D01*
X0221172Y0205993D01*
X0218653Y0203474D01*
X0218653Y0201993D01*
X0222653Y0201993D01*
X0222653Y0201393D01*
X0218653Y0201393D01*
X0218653Y0199912D01*
X0220833Y0197732D01*
X0220000Y0196898D01*
X0219020Y0197878D01*
X0217199Y0197878D01*
X0218653Y0199332D01*
X0218653Y0204054D01*
X0216014Y0206693D01*
X0217953Y0208632D01*
X0220592Y0205993D01*
X0225314Y0205993D01*
X0228653Y0209332D01*
X0228653Y0214054D01*
X0225314Y0217393D01*
X0220592Y0217393D01*
X0217953Y0214754D01*
X0215314Y0217393D01*
X0212018Y0217393D01*
X0215925Y0221300D01*
X0216134Y0221300D01*
X0218229Y0222168D01*
X0219832Y0223771D01*
X0220000Y0224176D01*
X0220168Y0223771D01*
X0221771Y0222168D01*
X0223866Y0221300D01*
X0226134Y0221300D01*
X0228229Y0222168D01*
X0229832Y0223771D01*
X0230700Y0225866D01*
X0230700Y0234134D01*
X0229832Y0236229D01*
X0228229Y0237832D01*
X0226134Y0238700D01*
X0223866Y0238700D01*
X0221771Y0237832D01*
X0220168Y0236229D01*
X0220000Y0235824D01*
X0219832Y0236229D01*
X0218229Y0237832D01*
X0216134Y0238700D01*
X0213866Y0238700D01*
X0211771Y0237832D01*
X0210168Y0236229D01*
X0210000Y0235824D01*
X0209832Y0236229D01*
X0208229Y0237832D01*
X0206134Y0238700D01*
X0203866Y0238700D01*
X0201771Y0237832D01*
X0200168Y0236229D01*
X0199300Y0234134D01*
X0199300Y0228675D01*
X0199300Y0229700D01*
X0195300Y0229700D01*
X0195300Y0230300D01*
X0194700Y0230300D01*
X0194700Y0237300D01*
X0194662Y0237300D01*
X0193993Y0237194D01*
X0193349Y0236985D01*
X0192746Y0236678D01*
X0192199Y0236280D01*
X0191720Y0235801D01*
X0191322Y0235254D01*
X0191015Y0234651D01*
X0190806Y0234007D01*
X0190700Y0233338D01*
X0190700Y0230300D01*
X0194700Y0230300D01*
X0194700Y0229700D01*
X0190700Y0229700D01*
X0190700Y0226662D01*
X0190806Y0225993D01*
X0191015Y0225349D01*
X0191322Y0224746D01*
X0191720Y0224199D01*
X0192199Y0223720D01*
X0192746Y0223322D01*
X0193195Y0223094D01*
X0189155Y0223094D01*
X0189832Y0223771D01*
X0190700Y0225866D01*
X0190700Y0234134D01*
X0189832Y0236229D01*
X0188229Y0237832D01*
X0186134Y0238700D01*
X0183866Y0238700D01*
X0181771Y0237832D01*
X0180168Y0236229D01*
X0180000Y0235824D01*
X0179832Y0236229D01*
X0178229Y0237832D01*
X0176134Y0238700D01*
X0173866Y0238700D01*
X0171771Y0237832D01*
X0170168Y0236229D01*
X0169300Y0234134D01*
X0169300Y0233200D01*
X0107725Y0233200D01*
X0112713Y0238187D01*
X0113200Y0239363D01*
X0113200Y0242221D01*
X0113211Y0242226D01*
X0114806Y0243821D01*
X0115668Y0245904D01*
X0115668Y0254096D01*
X0114806Y0256179D01*
X0113211Y0257774D01*
X0111128Y0258637D01*
X0108872Y0258637D01*
X0106789Y0257774D01*
X0105194Y0256179D01*
X0104331Y0254096D01*
X0104331Y0245904D01*
X0105194Y0243821D01*
X0106789Y0242226D01*
X0106800Y0242221D01*
X0106800Y0241325D01*
X0098675Y0233200D01*
X0067725Y0233200D01*
X0071813Y0237287D01*
X0072713Y0238187D01*
X0073200Y0239363D01*
X0073200Y0242221D01*
X0073211Y0242226D01*
X0074806Y0243821D01*
X0075668Y0245904D01*
X0075668Y0254096D01*
X0074806Y0256179D01*
X0073211Y0257774D01*
X0071128Y0258637D01*
X0068872Y0258637D01*
X0066789Y0257774D01*
X0065194Y0256179D01*
X0064331Y0254096D01*
X0064331Y0245904D01*
X0065194Y0243821D01*
X0066789Y0242226D01*
X0066800Y0242221D01*
X0066800Y0241325D01*
X0058675Y0233200D01*
X0057348Y0233200D01*
X0057378Y0233229D01*
X0057378Y0237270D01*
X0055594Y0239055D01*
X0055594Y0248115D01*
X0055464Y0248428D01*
X0055650Y0248876D01*
X0055650Y0251124D01*
X0054790Y0253200D01*
X0053200Y0254790D01*
X0052693Y0255000D01*
X0053200Y0255210D01*
X0054790Y0256800D01*
X0055650Y0258876D01*
X0055650Y0260906D01*
X0074719Y0260906D01*
X0078617Y0257007D01*
X0078361Y0256924D01*
X0077763Y0256619D01*
X0077219Y0256224D01*
X0076744Y0255749D01*
X0076349Y0255206D01*
X0076044Y0254607D01*
X0075837Y0253968D01*
X0075731Y0253304D01*
X0075731Y0250300D01*
X0079700Y0250300D01*
X0079700Y0249700D01*
X0080300Y0249700D01*
X0080300Y0250300D01*
X0084268Y0250300D01*
X0084268Y0251356D01*
X0084331Y0251293D01*
X0084331Y0245904D01*
X0085194Y0243821D01*
X0086789Y0242226D01*
X0088872Y0241363D01*
X0091128Y0241363D01*
X0093211Y0242226D01*
X0094806Y0243821D01*
X0095668Y0245904D01*
X0095668Y0254096D01*
X0094806Y0256179D01*
X0093211Y0257774D01*
X0091128Y0258637D01*
X0088872Y0258637D01*
X0086789Y0257774D01*
X0086695Y0257680D01*
X0081469Y0262906D01*
X0112719Y0262906D01*
X0118617Y0257007D01*
X0118361Y0256924D01*
X0117763Y0256619D01*
X0117219Y0256224D01*
X0116744Y0255749D01*
X0116349Y0255206D01*
X0116044Y0254607D01*
X0115837Y0253968D01*
X0115731Y0253304D01*
X0115731Y0250300D01*
X0119700Y0250300D01*
X0119700Y0249700D01*
X0120300Y0249700D01*
X0120300Y0250300D01*
X0124268Y0250300D01*
X0124268Y0251356D01*
X0124331Y0251293D01*
X0124331Y0245904D01*
X0125194Y0243821D01*
X0126789Y0242226D01*
X0128872Y0241363D01*
X0131128Y0241363D01*
X0133211Y0242226D01*
X0134806Y0243821D01*
X0135668Y0245904D01*
X0135668Y0254096D01*
X0134806Y0256179D01*
X0133211Y0257774D01*
X0131128Y0258637D01*
X0128872Y0258637D01*
X0126789Y0257774D01*
X0126695Y0257680D01*
X0116623Y0267752D01*
X0115752Y0268623D01*
X0114615Y0269094D01*
X0103619Y0269094D01*
X0126770Y0292245D01*
X0126789Y0292226D01*
X0128872Y0291363D01*
X0131128Y0291363D01*
X0133211Y0292226D01*
X0132843Y0292074D02*
X0181999Y0292074D01*
X0181771Y0292168D02*
X0183866Y0291300D01*
X0186134Y0291300D01*
X0188229Y0292168D01*
X0189832Y0293771D01*
X0190000Y0294176D01*
X0190168Y0293771D01*
X0191771Y0292168D01*
X0193866Y0291300D01*
X0196134Y0291300D01*
X0198229Y0292168D01*
X0199832Y0293771D01*
X0200000Y0294176D01*
X0200168Y0293771D01*
X0201771Y0292168D01*
X0203866Y0291300D01*
X0206134Y0291300D01*
X0208229Y0292168D01*
X0209832Y0293771D01*
X0210700Y0295866D01*
X0210700Y0304134D01*
X0209832Y0306229D01*
X0208229Y0307832D01*
X0206134Y0308700D01*
X0203866Y0308700D01*
X0201771Y0307832D01*
X0200168Y0306229D01*
X0200000Y0305824D01*
X0199832Y0306229D01*
X0198229Y0307832D01*
X0196134Y0308700D01*
X0193866Y0308700D01*
X0191771Y0307832D01*
X0190168Y0306229D01*
X0190000Y0305824D01*
X0189832Y0306229D01*
X0188229Y0307832D01*
X0186134Y0308700D01*
X0183866Y0308700D01*
X0181771Y0307832D01*
X0180168Y0306229D01*
X0179300Y0304134D01*
X0179300Y0295866D01*
X0180168Y0293771D01*
X0181771Y0292168D01*
X0180668Y0293271D02*
X0134256Y0293271D01*
X0134826Y0293869D02*
X0180127Y0293869D01*
X0179879Y0294468D02*
X0135074Y0294468D01*
X0135321Y0295066D02*
X0179631Y0295066D01*
X0179384Y0295665D02*
X0135569Y0295665D01*
X0135668Y0296263D02*
X0179300Y0296263D01*
X0179300Y0296862D02*
X0135668Y0296862D01*
X0135668Y0297460D02*
X0179300Y0297460D01*
X0179300Y0298059D02*
X0135668Y0298059D01*
X0135668Y0298657D02*
X0179300Y0298657D01*
X0179300Y0299256D02*
X0135668Y0299256D01*
X0135668Y0299854D02*
X0179300Y0299854D01*
X0179300Y0300453D02*
X0135668Y0300453D01*
X0135668Y0301051D02*
X0179300Y0301051D01*
X0179300Y0301650D02*
X0135668Y0301650D01*
X0135668Y0302248D02*
X0179300Y0302248D01*
X0179300Y0302847D02*
X0135668Y0302847D01*
X0135668Y0303445D02*
X0179300Y0303445D01*
X0179300Y0304044D02*
X0135668Y0304044D01*
X0135442Y0304642D02*
X0179511Y0304642D01*
X0179759Y0305241D02*
X0135194Y0305241D01*
X0134946Y0305839D02*
X0180006Y0305839D01*
X0180377Y0306438D02*
X0134547Y0306438D01*
X0133949Y0307036D02*
X0180975Y0307036D01*
X0181574Y0307635D02*
X0133350Y0307635D01*
X0132102Y0308233D02*
X0182740Y0308233D01*
X0187260Y0308233D02*
X0192740Y0308233D01*
X0191574Y0307635D02*
X0188426Y0307635D01*
X0189025Y0307036D02*
X0190975Y0307036D01*
X0190377Y0306438D02*
X0189623Y0306438D01*
X0189994Y0305839D02*
X0190006Y0305839D01*
X0197260Y0308233D02*
X0202740Y0308233D01*
X0201574Y0307635D02*
X0198426Y0307635D01*
X0199025Y0307036D02*
X0200975Y0307036D01*
X0200377Y0306438D02*
X0199623Y0306438D01*
X0199994Y0305839D02*
X0200006Y0305839D01*
X0207260Y0308233D02*
X0251306Y0308233D01*
X0251306Y0307635D02*
X0208426Y0307635D01*
X0209025Y0307036D02*
X0213507Y0307036D01*
X0213349Y0306985D02*
X0212746Y0306678D01*
X0212199Y0306280D01*
X0211720Y0305801D01*
X0211322Y0305254D01*
X0211015Y0304651D01*
X0210806Y0304007D01*
X0210700Y0303338D01*
X0210700Y0300300D01*
X0214700Y0300300D01*
X0214700Y0307300D01*
X0214662Y0307300D01*
X0213993Y0307194D01*
X0213349Y0306985D01*
X0212416Y0306438D02*
X0209623Y0306438D01*
X0209994Y0305839D02*
X0211758Y0305839D01*
X0211316Y0305241D02*
X0210241Y0305241D01*
X0210489Y0304642D02*
X0211012Y0304642D01*
X0210818Y0304044D02*
X0210700Y0304044D01*
X0210700Y0303445D02*
X0210717Y0303445D01*
X0210700Y0302847D02*
X0210700Y0302847D01*
X0210700Y0302248D02*
X0210700Y0302248D01*
X0210700Y0301650D02*
X0210700Y0301650D01*
X0210700Y0301051D02*
X0210700Y0301051D01*
X0210700Y0300453D02*
X0210700Y0300453D01*
X0210700Y0299854D02*
X0214700Y0299854D01*
X0214700Y0299700D02*
X0210700Y0299700D01*
X0210700Y0296662D01*
X0210806Y0295993D01*
X0211015Y0295349D01*
X0211322Y0294746D01*
X0211720Y0294199D01*
X0212199Y0293720D01*
X0212746Y0293322D01*
X0213349Y0293015D01*
X0213993Y0292806D01*
X0214662Y0292700D01*
X0214700Y0292700D01*
X0214700Y0299700D01*
X0215300Y0299700D01*
X0215300Y0300300D01*
X0219300Y0300300D01*
X0219300Y0303338D01*
X0219194Y0304007D01*
X0218985Y0304651D01*
X0218678Y0305254D01*
X0218280Y0305801D01*
X0217801Y0306280D01*
X0217254Y0306678D01*
X0216651Y0306985D01*
X0216007Y0307194D01*
X0215338Y0307300D01*
X0215300Y0307300D01*
X0215300Y0300300D01*
X0214700Y0300300D01*
X0214700Y0299700D01*
X0214700Y0299256D02*
X0215300Y0299256D01*
X0215300Y0299700D02*
X0215300Y0292700D01*
X0215338Y0292700D01*
X0216007Y0292806D01*
X0216651Y0293015D01*
X0217254Y0293322D01*
X0217801Y0293720D01*
X0218280Y0294199D01*
X0218678Y0294746D01*
X0218985Y0295349D01*
X0219194Y0295993D01*
X0219300Y0296662D01*
X0219300Y0299700D01*
X0215300Y0299700D01*
X0215300Y0299854D02*
X0251306Y0299854D01*
X0251306Y0299256D02*
X0219300Y0299256D01*
X0219300Y0298657D02*
X0251306Y0298657D01*
X0251306Y0298059D02*
X0219300Y0298059D01*
X0219300Y0297460D02*
X0251306Y0297460D01*
X0251306Y0296862D02*
X0219300Y0296862D01*
X0219237Y0296263D02*
X0251306Y0296263D01*
X0251306Y0295665D02*
X0219087Y0295665D01*
X0218841Y0295066D02*
X0251306Y0295066D01*
X0251306Y0294468D02*
X0218475Y0294468D01*
X0217950Y0293869D02*
X0251306Y0293869D01*
X0251306Y0293271D02*
X0217152Y0293271D01*
X0215300Y0293271D02*
X0214700Y0293271D01*
X0214700Y0293869D02*
X0215300Y0293869D01*
X0215300Y0294468D02*
X0214700Y0294468D01*
X0214700Y0295066D02*
X0215300Y0295066D01*
X0215300Y0295665D02*
X0214700Y0295665D01*
X0214700Y0296263D02*
X0215300Y0296263D01*
X0215300Y0296862D02*
X0214700Y0296862D01*
X0214700Y0297460D02*
X0215300Y0297460D01*
X0215300Y0298059D02*
X0214700Y0298059D01*
X0214700Y0298657D02*
X0215300Y0298657D01*
X0215300Y0300453D02*
X0214700Y0300453D01*
X0214700Y0301051D02*
X0215300Y0301051D01*
X0215300Y0301650D02*
X0214700Y0301650D01*
X0214700Y0302248D02*
X0215300Y0302248D01*
X0215300Y0302847D02*
X0214700Y0302847D01*
X0214700Y0303445D02*
X0215300Y0303445D01*
X0215300Y0304044D02*
X0214700Y0304044D01*
X0214700Y0304642D02*
X0215300Y0304642D01*
X0215300Y0305241D02*
X0214700Y0305241D01*
X0214700Y0305839D02*
X0215300Y0305839D01*
X0215300Y0306438D02*
X0214700Y0306438D01*
X0214700Y0307036D02*
X0215300Y0307036D01*
X0216493Y0307036D02*
X0251306Y0307036D01*
X0251306Y0306438D02*
X0217584Y0306438D01*
X0218242Y0305839D02*
X0251306Y0305839D01*
X0251306Y0305241D02*
X0218684Y0305241D01*
X0218988Y0304642D02*
X0251306Y0304642D01*
X0251306Y0304044D02*
X0219182Y0304044D01*
X0219283Y0303445D02*
X0251306Y0303445D01*
X0251306Y0302847D02*
X0219300Y0302847D01*
X0219300Y0302248D02*
X0251306Y0302248D01*
X0251306Y0301650D02*
X0219300Y0301650D01*
X0219300Y0301051D02*
X0251306Y0301051D01*
X0251306Y0300453D02*
X0219300Y0300453D01*
X0212848Y0293271D02*
X0209332Y0293271D01*
X0209873Y0293869D02*
X0212050Y0293869D01*
X0211525Y0294468D02*
X0210121Y0294468D01*
X0210369Y0295066D02*
X0211159Y0295066D01*
X0210913Y0295665D02*
X0210616Y0295665D01*
X0210700Y0296263D02*
X0210763Y0296263D01*
X0210700Y0296862D02*
X0210700Y0296862D01*
X0210700Y0297460D02*
X0210700Y0297460D01*
X0210700Y0298059D02*
X0210700Y0298059D01*
X0210700Y0298657D02*
X0210700Y0298657D01*
X0210700Y0299256D02*
X0210700Y0299256D01*
X0208733Y0292672D02*
X0251306Y0292672D01*
X0251306Y0292074D02*
X0208001Y0292074D01*
X0206556Y0291475D02*
X0251306Y0291475D01*
X0251306Y0290877D02*
X0125402Y0290877D01*
X0126000Y0291475D02*
X0128602Y0291475D01*
X0127157Y0292074D02*
X0126599Y0292074D01*
X0124803Y0290278D02*
X0251306Y0290278D01*
X0251306Y0289679D02*
X0124205Y0289679D01*
X0123606Y0289081D02*
X0251306Y0289081D01*
X0251306Y0288482D02*
X0123008Y0288482D01*
X0122409Y0287884D02*
X0251306Y0287884D01*
X0251306Y0287285D02*
X0121811Y0287285D01*
X0121212Y0286687D02*
X0251306Y0286687D01*
X0251306Y0286088D02*
X0120614Y0286088D01*
X0120015Y0285490D02*
X0251306Y0285490D01*
X0251306Y0284891D02*
X0119417Y0284891D01*
X0118818Y0284293D02*
X0251306Y0284293D01*
X0251306Y0283694D02*
X0118220Y0283694D01*
X0117621Y0283096D02*
X0251306Y0283096D01*
X0251306Y0282497D02*
X0117023Y0282497D01*
X0116424Y0281899D02*
X0251306Y0281899D01*
X0251306Y0281300D02*
X0115826Y0281300D01*
X0115227Y0280702D02*
X0251306Y0280702D01*
X0251306Y0280103D02*
X0114629Y0280103D01*
X0114030Y0279505D02*
X0251306Y0279505D01*
X0251306Y0278906D02*
X0113432Y0278906D01*
X0112833Y0278308D02*
X0251306Y0278308D01*
X0251306Y0277709D02*
X0112235Y0277709D01*
X0111636Y0277111D02*
X0251306Y0277111D01*
X0251306Y0276512D02*
X0111038Y0276512D01*
X0110439Y0275914D02*
X0251306Y0275914D01*
X0251306Y0275315D02*
X0109841Y0275315D01*
X0109242Y0274717D02*
X0251306Y0274717D01*
X0251306Y0274118D02*
X0108644Y0274118D01*
X0108045Y0273520D02*
X0251306Y0273520D01*
X0251306Y0272921D02*
X0107447Y0272921D01*
X0106848Y0272323D02*
X0251306Y0272323D01*
X0251306Y0271724D02*
X0106250Y0271724D01*
X0105651Y0271126D02*
X0251306Y0271126D01*
X0251306Y0270527D02*
X0105053Y0270527D01*
X0104454Y0269929D02*
X0251306Y0269929D01*
X0251306Y0269330D02*
X0103856Y0269330D01*
X0099593Y0274118D02*
X0053872Y0274118D01*
X0054471Y0273520D02*
X0098994Y0273520D01*
X0100191Y0274717D02*
X0053274Y0274717D01*
X0051932Y0275315D02*
X0100790Y0275315D01*
X0101388Y0275914D02*
X0051177Y0275914D01*
X0050995Y0275855D02*
X0051631Y0276061D01*
X0052227Y0276365D01*
X0052769Y0276758D01*
X0053242Y0277231D01*
X0053635Y0277773D01*
X0053939Y0278369D01*
X0054145Y0279005D01*
X0054250Y0279666D01*
X0054250Y0279700D01*
X0050300Y0279700D01*
X0050300Y0280300D01*
X0054250Y0280300D01*
X0054250Y0280334D01*
X0054145Y0280995D01*
X0053939Y0281631D01*
X0053635Y0282227D01*
X0053242Y0282769D01*
X0052769Y0283242D01*
X0052227Y0283635D01*
X0051631Y0283939D01*
X0050995Y0284145D01*
X0050334Y0284250D01*
X0050300Y0284250D01*
X0050300Y0280300D01*
X0049700Y0280300D01*
X0049700Y0284250D01*
X0049666Y0284250D01*
X0049005Y0284145D01*
X0048369Y0283939D01*
X0047773Y0283635D01*
X0047231Y0283242D01*
X0046758Y0282769D01*
X0046365Y0282227D01*
X0046061Y0281631D01*
X0045855Y0280995D01*
X0045750Y0280334D01*
X0045750Y0280300D01*
X0049700Y0280300D01*
X0049700Y0279700D01*
X0050300Y0279700D01*
X0050300Y0275750D01*
X0050334Y0275750D01*
X0050995Y0275855D01*
X0050300Y0275914D02*
X0049700Y0275914D01*
X0049700Y0275750D02*
X0049700Y0279700D01*
X0045750Y0279700D01*
X0045750Y0279666D01*
X0045855Y0279005D01*
X0046061Y0278369D01*
X0046365Y0277773D01*
X0046758Y0277231D01*
X0047231Y0276758D01*
X0047773Y0276365D01*
X0048369Y0276061D01*
X0049005Y0275855D01*
X0049666Y0275750D01*
X0049700Y0275750D01*
X0049700Y0276512D02*
X0050300Y0276512D01*
X0050300Y0277111D02*
X0049700Y0277111D01*
X0049700Y0277709D02*
X0050300Y0277709D01*
X0050300Y0278308D02*
X0049700Y0278308D01*
X0049700Y0278906D02*
X0050300Y0278906D01*
X0050300Y0279505D02*
X0049700Y0279505D01*
X0049700Y0280103D02*
X0034272Y0280103D01*
X0034870Y0279505D02*
X0045775Y0279505D01*
X0045887Y0278906D02*
X0035469Y0278906D01*
X0036067Y0278308D02*
X0046092Y0278308D01*
X0046411Y0277709D02*
X0036666Y0277709D01*
X0037264Y0277111D02*
X0046879Y0277111D01*
X0047570Y0276512D02*
X0037863Y0276512D01*
X0038461Y0275914D02*
X0048823Y0275914D01*
X0048068Y0275315D02*
X0039060Y0275315D01*
X0039658Y0274717D02*
X0046726Y0274717D01*
X0046128Y0274118D02*
X0040257Y0274118D01*
X0040855Y0273520D02*
X0045529Y0273520D01*
X0045094Y0272921D02*
X0041454Y0272921D01*
X0042052Y0272323D02*
X0044847Y0272323D01*
X0044599Y0271724D02*
X0042651Y0271724D01*
X0043249Y0271126D02*
X0044351Y0271126D01*
X0044350Y0270527D02*
X0043848Y0270527D01*
X0045808Y0280702D02*
X0033673Y0280702D01*
X0033075Y0281300D02*
X0045954Y0281300D01*
X0046198Y0281899D02*
X0032476Y0281899D01*
X0031878Y0282497D02*
X0046561Y0282497D01*
X0047085Y0283096D02*
X0031279Y0283096D01*
X0030681Y0283694D02*
X0047889Y0283694D01*
X0047569Y0284891D02*
X0029484Y0284891D01*
X0030082Y0284293D02*
X0109767Y0284293D01*
X0109169Y0283694D02*
X0052111Y0283694D01*
X0052915Y0283096D02*
X0108570Y0283096D01*
X0107972Y0282497D02*
X0053439Y0282497D01*
X0053802Y0281899D02*
X0107373Y0281899D01*
X0106775Y0281300D02*
X0054046Y0281300D01*
X0054192Y0280702D02*
X0106176Y0280702D01*
X0105578Y0280103D02*
X0050300Y0280103D01*
X0050300Y0280702D02*
X0049700Y0280702D01*
X0049700Y0281300D02*
X0050300Y0281300D01*
X0050300Y0281899D02*
X0049700Y0281899D01*
X0049700Y0282497D02*
X0050300Y0282497D01*
X0050300Y0283096D02*
X0049700Y0283096D01*
X0049700Y0283694D02*
X0050300Y0283694D01*
X0052431Y0284891D02*
X0110366Y0284891D01*
X0110964Y0285490D02*
X0053480Y0285490D01*
X0054079Y0286088D02*
X0111563Y0286088D01*
X0112161Y0286687D02*
X0054677Y0286687D01*
X0054790Y0286800D02*
X0054790Y0286800D01*
X0054225Y0279505D02*
X0104979Y0279505D01*
X0104381Y0278906D02*
X0054113Y0278906D01*
X0053908Y0278308D02*
X0103782Y0278308D01*
X0103184Y0277709D02*
X0053589Y0277709D01*
X0053121Y0277111D02*
X0102585Y0277111D01*
X0101987Y0276512D02*
X0052430Y0276512D01*
X0046520Y0285490D02*
X0028885Y0285490D01*
X0028287Y0286088D02*
X0045921Y0286088D01*
X0045323Y0286687D02*
X0027688Y0286687D01*
X0027090Y0287285D02*
X0045009Y0287285D01*
X0044761Y0287884D02*
X0026491Y0287884D01*
X0025893Y0288482D02*
X0044513Y0288482D01*
X0044350Y0289081D02*
X0025650Y0289081D01*
X0025650Y0289679D02*
X0044350Y0289679D01*
X0044350Y0290278D02*
X0025650Y0290278D01*
X0025650Y0290877D02*
X0044350Y0290877D01*
X0044495Y0291475D02*
X0025505Y0291475D01*
X0025257Y0292074D02*
X0044743Y0292074D01*
X0044991Y0292672D02*
X0025009Y0292672D01*
X0024720Y0293271D02*
X0045280Y0293271D01*
X0045879Y0293869D02*
X0024121Y0293869D01*
X0023523Y0294468D02*
X0046477Y0294468D01*
X0047147Y0295066D02*
X0022853Y0295066D01*
X0023655Y0295665D02*
X0046345Y0295665D01*
X0045747Y0296263D02*
X0024253Y0296263D01*
X0024816Y0296862D02*
X0045184Y0296862D01*
X0071701Y0311824D02*
X0093650Y0311824D01*
X0094249Y0311226D02*
X0072300Y0311226D01*
X0072790Y0310627D02*
X0094847Y0310627D01*
X0095446Y0310029D02*
X0073037Y0310029D01*
X0073200Y0309430D02*
X0096044Y0309430D01*
X0096643Y0308832D02*
X0073200Y0308832D01*
X0073200Y0308233D02*
X0087898Y0308233D01*
X0086650Y0307635D02*
X0073350Y0307635D01*
X0073949Y0307036D02*
X0078706Y0307036D01*
X0079700Y0307036D02*
X0080300Y0307036D01*
X0080300Y0307237D02*
X0080300Y0300300D01*
X0084268Y0300300D01*
X0084268Y0303304D01*
X0084163Y0303968D01*
X0083956Y0304607D01*
X0083651Y0305206D01*
X0083256Y0305749D01*
X0082781Y0306224D01*
X0082237Y0306619D01*
X0081639Y0306924D01*
X0081000Y0307132D01*
X0080336Y0307237D01*
X0080300Y0307237D01*
X0080300Y0306438D02*
X0079700Y0306438D01*
X0079700Y0305839D02*
X0080300Y0305839D01*
X0080300Y0305241D02*
X0079700Y0305241D01*
X0079700Y0304642D02*
X0080300Y0304642D01*
X0080300Y0304044D02*
X0079700Y0304044D01*
X0079700Y0303445D02*
X0080300Y0303445D01*
X0080300Y0302847D02*
X0079700Y0302847D01*
X0079700Y0302248D02*
X0080300Y0302248D01*
X0080300Y0301650D02*
X0079700Y0301650D01*
X0079700Y0301051D02*
X0080300Y0301051D01*
X0080300Y0300453D02*
X0079700Y0300453D01*
X0079700Y0299854D02*
X0075668Y0299854D01*
X0075668Y0299256D02*
X0075731Y0299256D01*
X0075731Y0298657D02*
X0075668Y0298657D01*
X0075668Y0298059D02*
X0075731Y0298059D01*
X0075731Y0297460D02*
X0075668Y0297460D01*
X0075668Y0296862D02*
X0075731Y0296862D01*
X0075668Y0296263D02*
X0075800Y0296263D01*
X0075956Y0295665D02*
X0075569Y0295665D01*
X0075321Y0295066D02*
X0076211Y0295066D01*
X0076587Y0294468D02*
X0075074Y0294468D01*
X0074826Y0293869D02*
X0077126Y0293869D01*
X0077979Y0293271D02*
X0074255Y0293271D01*
X0075668Y0300453D02*
X0075731Y0300453D01*
X0075731Y0301051D02*
X0075668Y0301051D01*
X0075668Y0301650D02*
X0075731Y0301650D01*
X0075731Y0302248D02*
X0075668Y0302248D01*
X0075668Y0302847D02*
X0075731Y0302847D01*
X0075754Y0303445D02*
X0075668Y0303445D01*
X0075668Y0304044D02*
X0075861Y0304044D01*
X0076062Y0304642D02*
X0075442Y0304642D01*
X0075194Y0305241D02*
X0076375Y0305241D01*
X0076834Y0305839D02*
X0074946Y0305839D01*
X0074547Y0306438D02*
X0077513Y0306438D01*
X0081294Y0307036D02*
X0086051Y0307036D01*
X0085453Y0306438D02*
X0082487Y0306438D01*
X0083166Y0305839D02*
X0085054Y0305839D01*
X0084806Y0305241D02*
X0083625Y0305241D01*
X0083938Y0304642D02*
X0084558Y0304642D01*
X0084331Y0304044D02*
X0084139Y0304044D01*
X0084246Y0303445D02*
X0084331Y0303445D01*
X0084331Y0302847D02*
X0084268Y0302847D01*
X0084268Y0302248D02*
X0084331Y0302248D01*
X0084331Y0301650D02*
X0084268Y0301650D01*
X0084268Y0301051D02*
X0084331Y0301051D01*
X0084331Y0300453D02*
X0084268Y0300453D01*
X0084331Y0299854D02*
X0080300Y0299854D01*
X0084268Y0299256D02*
X0084331Y0299256D01*
X0086599Y0292074D02*
X0087157Y0292074D01*
X0086000Y0291475D02*
X0088602Y0291475D01*
X0091398Y0291475D02*
X0108602Y0291475D01*
X0107157Y0292074D02*
X0092843Y0292074D01*
X0093657Y0292672D02*
X0106343Y0292672D01*
X0105744Y0293271D02*
X0094256Y0293271D01*
X0094826Y0293869D02*
X0105174Y0293869D01*
X0104926Y0294468D02*
X0095074Y0294468D01*
X0095321Y0295066D02*
X0104679Y0295066D01*
X0104431Y0295665D02*
X0095569Y0295665D01*
X0095668Y0296263D02*
X0104331Y0296263D01*
X0104331Y0296862D02*
X0095668Y0296862D01*
X0095668Y0297460D02*
X0104331Y0297460D01*
X0104331Y0298059D02*
X0095668Y0298059D01*
X0095668Y0298657D02*
X0104331Y0298657D01*
X0104331Y0299256D02*
X0095668Y0299256D01*
X0095668Y0299854D02*
X0104331Y0299854D01*
X0104331Y0300453D02*
X0095668Y0300453D01*
X0095668Y0301051D02*
X0104331Y0301051D01*
X0103825Y0301650D02*
X0095668Y0301650D01*
X0095668Y0302248D02*
X0103226Y0302248D01*
X0102628Y0302847D02*
X0095668Y0302847D01*
X0095668Y0303445D02*
X0102029Y0303445D01*
X0101431Y0304044D02*
X0095668Y0304044D01*
X0095442Y0304642D02*
X0100832Y0304642D01*
X0100234Y0305241D02*
X0095194Y0305241D01*
X0094946Y0305839D02*
X0099635Y0305839D01*
X0099037Y0306438D02*
X0094547Y0306438D01*
X0093949Y0307036D02*
X0098438Y0307036D01*
X0097840Y0307635D02*
X0093350Y0307635D01*
X0092102Y0308233D02*
X0097241Y0308233D01*
X0101504Y0313021D02*
X0251306Y0313021D01*
X0251306Y0312423D02*
X0102103Y0312423D01*
X0102701Y0311824D02*
X0251306Y0311824D01*
X0251306Y0311226D02*
X0103300Y0311226D01*
X0103898Y0310627D02*
X0251306Y0310627D01*
X0251306Y0310029D02*
X0104497Y0310029D01*
X0105095Y0309430D02*
X0251306Y0309430D01*
X0251306Y0308832D02*
X0105694Y0308832D01*
X0106292Y0308233D02*
X0107898Y0308233D01*
X0112102Y0308233D02*
X0127898Y0308233D01*
X0126650Y0307635D02*
X0113350Y0307635D01*
X0113949Y0307036D02*
X0118706Y0307036D01*
X0119700Y0307036D02*
X0120300Y0307036D01*
X0120300Y0306438D02*
X0119700Y0306438D01*
X0119700Y0305839D02*
X0120300Y0305839D01*
X0120300Y0305241D02*
X0119700Y0305241D01*
X0119700Y0304642D02*
X0120300Y0304642D01*
X0120300Y0304044D02*
X0119700Y0304044D01*
X0119700Y0303445D02*
X0120300Y0303445D01*
X0120300Y0302847D02*
X0119700Y0302847D01*
X0119700Y0302248D02*
X0120300Y0302248D01*
X0120300Y0301650D02*
X0119700Y0301650D01*
X0119700Y0301051D02*
X0120300Y0301051D01*
X0120300Y0300453D02*
X0119700Y0300453D01*
X0119700Y0299854D02*
X0115668Y0299854D01*
X0115668Y0299256D02*
X0115731Y0299256D01*
X0115731Y0298657D02*
X0115668Y0298657D01*
X0115668Y0298059D02*
X0115731Y0298059D01*
X0115731Y0297460D02*
X0115668Y0297460D01*
X0115668Y0296862D02*
X0115731Y0296862D01*
X0115668Y0296263D02*
X0115800Y0296263D01*
X0115956Y0295665D02*
X0115569Y0295665D01*
X0115321Y0295066D02*
X0116211Y0295066D01*
X0116587Y0294468D02*
X0115074Y0294468D01*
X0114826Y0293869D02*
X0117126Y0293869D01*
X0117979Y0293271D02*
X0114256Y0293271D01*
X0113657Y0292672D02*
X0118147Y0292672D01*
X0117548Y0292074D02*
X0112843Y0292074D01*
X0111398Y0291475D02*
X0116950Y0291475D01*
X0116351Y0290877D02*
X0085402Y0290877D01*
X0084803Y0290278D02*
X0115753Y0290278D01*
X0115154Y0289679D02*
X0084205Y0289679D01*
X0083606Y0289081D02*
X0114555Y0289081D01*
X0113957Y0288482D02*
X0083008Y0288482D01*
X0082409Y0287884D02*
X0113358Y0287884D01*
X0112760Y0287285D02*
X0081808Y0287285D01*
X0081629Y0262746D02*
X0112878Y0262746D01*
X0113477Y0262148D02*
X0082227Y0262148D01*
X0082826Y0261549D02*
X0114075Y0261549D01*
X0114674Y0260951D02*
X0083424Y0260951D01*
X0084023Y0260352D02*
X0115272Y0260352D01*
X0115871Y0259754D02*
X0084621Y0259754D01*
X0085220Y0259155D02*
X0116469Y0259155D01*
X0117068Y0258557D02*
X0111321Y0258557D01*
X0112766Y0257958D02*
X0117666Y0257958D01*
X0118265Y0257360D02*
X0113625Y0257360D01*
X0114224Y0256761D02*
X0118042Y0256761D01*
X0117158Y0256163D02*
X0114812Y0256163D01*
X0115060Y0255564D02*
X0116610Y0255564D01*
X0116227Y0254966D02*
X0115308Y0254966D01*
X0115556Y0254367D02*
X0115966Y0254367D01*
X0115805Y0253769D02*
X0115668Y0253769D01*
X0115668Y0253170D02*
X0115731Y0253170D01*
X0115731Y0252572D02*
X0115668Y0252572D01*
X0115668Y0251973D02*
X0115731Y0251973D01*
X0115731Y0251375D02*
X0115668Y0251375D01*
X0115668Y0250776D02*
X0115731Y0250776D01*
X0115668Y0250178D02*
X0119700Y0250178D01*
X0119700Y0249700D02*
X0115731Y0249700D01*
X0115731Y0246696D01*
X0115837Y0246032D01*
X0116044Y0245393D01*
X0116349Y0244794D01*
X0116744Y0244251D01*
X0117219Y0243776D01*
X0117763Y0243381D01*
X0118361Y0243076D01*
X0119000Y0242868D01*
X0119664Y0242763D01*
X0119700Y0242763D01*
X0119700Y0249700D01*
X0119700Y0249579D02*
X0120300Y0249579D01*
X0120300Y0249700D02*
X0120300Y0242763D01*
X0120336Y0242763D01*
X0121000Y0242868D01*
X0121639Y0243076D01*
X0122237Y0243381D01*
X0122781Y0243776D01*
X0123256Y0244251D01*
X0123651Y0244794D01*
X0123956Y0245393D01*
X0124163Y0246032D01*
X0124268Y0246696D01*
X0124268Y0249700D01*
X0120300Y0249700D01*
X0120300Y0250178D02*
X0124331Y0250178D01*
X0124331Y0250776D02*
X0124268Y0250776D01*
X0124268Y0249579D02*
X0124331Y0249579D01*
X0124331Y0248981D02*
X0124268Y0248981D01*
X0124268Y0248382D02*
X0124331Y0248382D01*
X0124331Y0247784D02*
X0124268Y0247784D01*
X0124268Y0247185D02*
X0124331Y0247185D01*
X0124331Y0246587D02*
X0124251Y0246587D01*
X0124331Y0245988D02*
X0124149Y0245988D01*
X0123954Y0245390D02*
X0124545Y0245390D01*
X0124792Y0244791D02*
X0123648Y0244791D01*
X0123198Y0244193D02*
X0125040Y0244193D01*
X0125421Y0243594D02*
X0122531Y0243594D01*
X0121392Y0242996D02*
X0126019Y0242996D01*
X0126618Y0242397D02*
X0113382Y0242397D01*
X0113200Y0241799D02*
X0127821Y0241799D01*
X0132179Y0241799D02*
X0251306Y0241799D01*
X0251306Y0242397D02*
X0133382Y0242397D01*
X0133981Y0242996D02*
X0251306Y0242996D01*
X0251306Y0243594D02*
X0134579Y0243594D01*
X0134960Y0244193D02*
X0251306Y0244193D01*
X0251306Y0244791D02*
X0135208Y0244791D01*
X0135455Y0245390D02*
X0251306Y0245390D01*
X0251306Y0245988D02*
X0135668Y0245988D01*
X0135668Y0246587D02*
X0251306Y0246587D01*
X0251306Y0247185D02*
X0135668Y0247185D01*
X0135668Y0247784D02*
X0251306Y0247784D01*
X0251306Y0248382D02*
X0135668Y0248382D01*
X0135668Y0248981D02*
X0251306Y0248981D01*
X0251306Y0249579D02*
X0135668Y0249579D01*
X0135668Y0250178D02*
X0251306Y0250178D01*
X0251306Y0250776D02*
X0135668Y0250776D01*
X0135668Y0251375D02*
X0251306Y0251375D01*
X0251306Y0251973D02*
X0135668Y0251973D01*
X0135668Y0252572D02*
X0251306Y0252572D01*
X0251306Y0253170D02*
X0135668Y0253170D01*
X0135668Y0253769D02*
X0251306Y0253769D01*
X0251306Y0254367D02*
X0135556Y0254367D01*
X0135308Y0254966D02*
X0251306Y0254966D01*
X0251306Y0255564D02*
X0135060Y0255564D01*
X0134812Y0256163D02*
X0251306Y0256163D01*
X0251306Y0256761D02*
X0134224Y0256761D01*
X0133625Y0257360D02*
X0251306Y0257360D01*
X0251306Y0257958D02*
X0132766Y0257958D01*
X0131321Y0258557D02*
X0251306Y0258557D01*
X0251306Y0259155D02*
X0125220Y0259155D01*
X0125818Y0258557D02*
X0128679Y0258557D01*
X0127234Y0257958D02*
X0126417Y0257958D01*
X0124621Y0259754D02*
X0251306Y0259754D01*
X0251306Y0260352D02*
X0124023Y0260352D01*
X0123424Y0260951D02*
X0251306Y0260951D01*
X0251306Y0261549D02*
X0122826Y0261549D01*
X0122227Y0262148D02*
X0251306Y0262148D01*
X0251306Y0262746D02*
X0121629Y0262746D01*
X0121030Y0263345D02*
X0251306Y0263345D01*
X0251306Y0263943D02*
X0120432Y0263943D01*
X0119833Y0264542D02*
X0251306Y0264542D01*
X0251306Y0265141D02*
X0119235Y0265141D01*
X0118636Y0265739D02*
X0251306Y0265739D01*
X0251306Y0266338D02*
X0118038Y0266338D01*
X0117439Y0266936D02*
X0251306Y0266936D01*
X0251306Y0267535D02*
X0116841Y0267535D01*
X0116242Y0268133D02*
X0251306Y0268133D01*
X0251306Y0268732D02*
X0115490Y0268732D01*
X0108679Y0258557D02*
X0091321Y0258557D01*
X0092766Y0257958D02*
X0107234Y0257958D01*
X0106375Y0257360D02*
X0093625Y0257360D01*
X0094224Y0256761D02*
X0105776Y0256761D01*
X0105188Y0256163D02*
X0094812Y0256163D01*
X0095060Y0255564D02*
X0104940Y0255564D01*
X0104692Y0254966D02*
X0095308Y0254966D01*
X0095556Y0254367D02*
X0104444Y0254367D01*
X0104331Y0253769D02*
X0095668Y0253769D01*
X0095668Y0253170D02*
X0104331Y0253170D01*
X0104331Y0252572D02*
X0095668Y0252572D01*
X0095668Y0251973D02*
X0104331Y0251973D01*
X0104331Y0251375D02*
X0095668Y0251375D01*
X0095668Y0250776D02*
X0104331Y0250776D01*
X0104331Y0250178D02*
X0095668Y0250178D01*
X0095668Y0249579D02*
X0104331Y0249579D01*
X0104331Y0248981D02*
X0095668Y0248981D01*
X0095668Y0248382D02*
X0104331Y0248382D01*
X0104331Y0247784D02*
X0095668Y0247784D01*
X0095668Y0247185D02*
X0104331Y0247185D01*
X0104331Y0246587D02*
X0095668Y0246587D01*
X0095668Y0245988D02*
X0104331Y0245988D01*
X0104545Y0245390D02*
X0095455Y0245390D01*
X0095208Y0244791D02*
X0104792Y0244791D01*
X0105040Y0244193D02*
X0094960Y0244193D01*
X0094579Y0243594D02*
X0105421Y0243594D01*
X0106019Y0242996D02*
X0093981Y0242996D01*
X0093382Y0242397D02*
X0106618Y0242397D01*
X0106800Y0241799D02*
X0092179Y0241799D01*
X0087821Y0241799D02*
X0073200Y0241799D01*
X0073200Y0241200D02*
X0106675Y0241200D01*
X0106076Y0240602D02*
X0073200Y0240602D01*
X0073200Y0240003D02*
X0105478Y0240003D01*
X0104879Y0239405D02*
X0073200Y0239405D01*
X0072969Y0238806D02*
X0104281Y0238806D01*
X0103682Y0238208D02*
X0072721Y0238208D01*
X0072134Y0237609D02*
X0103084Y0237609D01*
X0102485Y0237010D02*
X0071536Y0237010D01*
X0070937Y0236412D02*
X0101886Y0236412D01*
X0101288Y0235813D02*
X0070339Y0235813D01*
X0069740Y0235215D02*
X0100689Y0235215D01*
X0100091Y0234616D02*
X0069142Y0234616D01*
X0068543Y0234018D02*
X0099492Y0234018D01*
X0098894Y0233419D02*
X0067945Y0233419D01*
X0063682Y0238208D02*
X0056441Y0238208D01*
X0055842Y0238806D02*
X0064281Y0238806D01*
X0064879Y0239405D02*
X0055594Y0239405D01*
X0055594Y0240003D02*
X0065478Y0240003D01*
X0066076Y0240602D02*
X0055594Y0240602D01*
X0055594Y0241200D02*
X0066675Y0241200D01*
X0066800Y0241799D02*
X0055594Y0241799D01*
X0055594Y0242397D02*
X0066618Y0242397D01*
X0066019Y0242996D02*
X0055594Y0242996D01*
X0055594Y0243594D02*
X0065421Y0243594D01*
X0065040Y0244193D02*
X0055594Y0244193D01*
X0055594Y0244791D02*
X0064792Y0244791D01*
X0064545Y0245390D02*
X0055594Y0245390D01*
X0055594Y0245988D02*
X0064331Y0245988D01*
X0064331Y0246587D02*
X0055594Y0246587D01*
X0055594Y0247185D02*
X0064331Y0247185D01*
X0064331Y0247784D02*
X0055594Y0247784D01*
X0055483Y0248382D02*
X0064331Y0248382D01*
X0064331Y0248981D02*
X0055650Y0248981D01*
X0055650Y0249579D02*
X0064331Y0249579D01*
X0064331Y0250178D02*
X0055650Y0250178D01*
X0055650Y0250776D02*
X0064331Y0250776D01*
X0064331Y0251375D02*
X0055546Y0251375D01*
X0055298Y0251973D02*
X0064331Y0251973D01*
X0064331Y0252572D02*
X0055050Y0252572D01*
X0054802Y0253170D02*
X0064331Y0253170D01*
X0064331Y0253769D02*
X0054221Y0253769D01*
X0053623Y0254367D02*
X0064444Y0254367D01*
X0064692Y0254966D02*
X0052776Y0254966D01*
X0053555Y0255564D02*
X0064940Y0255564D01*
X0065188Y0256163D02*
X0054153Y0256163D01*
X0054752Y0256761D02*
X0065776Y0256761D01*
X0066375Y0257360D02*
X0055022Y0257360D01*
X0055270Y0257958D02*
X0067234Y0257958D01*
X0068679Y0258557D02*
X0055518Y0258557D01*
X0055650Y0259155D02*
X0076469Y0259155D01*
X0075871Y0259754D02*
X0055650Y0259754D01*
X0055650Y0260352D02*
X0075272Y0260352D01*
X0077068Y0258557D02*
X0071321Y0258557D01*
X0072766Y0257958D02*
X0077666Y0257958D01*
X0078265Y0257360D02*
X0073625Y0257360D01*
X0074224Y0256761D02*
X0078042Y0256761D01*
X0077158Y0256163D02*
X0074812Y0256163D01*
X0075060Y0255564D02*
X0076610Y0255564D01*
X0076227Y0254966D02*
X0075308Y0254966D01*
X0075556Y0254367D02*
X0075966Y0254367D01*
X0075805Y0253769D02*
X0075668Y0253769D01*
X0075668Y0253170D02*
X0075731Y0253170D01*
X0075731Y0252572D02*
X0075668Y0252572D01*
X0075668Y0251973D02*
X0075731Y0251973D01*
X0075731Y0251375D02*
X0075668Y0251375D01*
X0075668Y0250776D02*
X0075731Y0250776D01*
X0075668Y0250178D02*
X0079700Y0250178D01*
X0079700Y0249700D02*
X0075731Y0249700D01*
X0075731Y0246696D01*
X0075837Y0246032D01*
X0076044Y0245393D01*
X0076349Y0244794D01*
X0076744Y0244251D01*
X0077219Y0243776D01*
X0077763Y0243381D01*
X0078361Y0243076D01*
X0079000Y0242868D01*
X0079664Y0242763D01*
X0079700Y0242763D01*
X0079700Y0249700D01*
X0079700Y0249579D02*
X0080300Y0249579D01*
X0080300Y0249700D02*
X0080300Y0242763D01*
X0080336Y0242763D01*
X0081000Y0242868D01*
X0081639Y0243076D01*
X0082237Y0243381D01*
X0082781Y0243776D01*
X0083256Y0244251D01*
X0083651Y0244794D01*
X0083956Y0245393D01*
X0084163Y0246032D01*
X0084268Y0246696D01*
X0084268Y0249700D01*
X0080300Y0249700D01*
X0080300Y0250178D02*
X0084331Y0250178D01*
X0084331Y0250776D02*
X0084268Y0250776D01*
X0084268Y0249579D02*
X0084331Y0249579D01*
X0084331Y0248981D02*
X0084268Y0248981D01*
X0084268Y0248382D02*
X0084331Y0248382D01*
X0084331Y0247784D02*
X0084268Y0247784D01*
X0084268Y0247185D02*
X0084331Y0247185D01*
X0084331Y0246587D02*
X0084251Y0246587D01*
X0084331Y0245988D02*
X0084149Y0245988D01*
X0083954Y0245390D02*
X0084545Y0245390D01*
X0084792Y0244791D02*
X0083648Y0244791D01*
X0083198Y0244193D02*
X0085040Y0244193D01*
X0085421Y0243594D02*
X0082531Y0243594D01*
X0081392Y0242996D02*
X0086019Y0242996D01*
X0086618Y0242397D02*
X0073382Y0242397D01*
X0073981Y0242996D02*
X0078608Y0242996D01*
X0079700Y0242996D02*
X0080300Y0242996D01*
X0080300Y0243594D02*
X0079700Y0243594D01*
X0079700Y0244193D02*
X0080300Y0244193D01*
X0080300Y0244791D02*
X0079700Y0244791D01*
X0079700Y0245390D02*
X0080300Y0245390D01*
X0080300Y0245988D02*
X0079700Y0245988D01*
X0079700Y0246587D02*
X0080300Y0246587D01*
X0080300Y0247185D02*
X0079700Y0247185D01*
X0079700Y0247784D02*
X0080300Y0247784D01*
X0080300Y0248382D02*
X0079700Y0248382D01*
X0079700Y0248981D02*
X0080300Y0248981D01*
X0075851Y0245988D02*
X0075668Y0245988D01*
X0075668Y0246587D02*
X0075749Y0246587D01*
X0075731Y0247185D02*
X0075668Y0247185D01*
X0075668Y0247784D02*
X0075731Y0247784D01*
X0075731Y0248382D02*
X0075668Y0248382D01*
X0075668Y0248981D02*
X0075731Y0248981D01*
X0075731Y0249579D02*
X0075668Y0249579D01*
X0075455Y0245390D02*
X0076046Y0245390D01*
X0076352Y0244791D02*
X0075208Y0244791D01*
X0074960Y0244193D02*
X0076802Y0244193D01*
X0077469Y0243594D02*
X0074579Y0243594D01*
X0063084Y0237609D02*
X0057039Y0237609D01*
X0057378Y0237010D02*
X0062485Y0237010D01*
X0061887Y0236412D02*
X0057378Y0236412D01*
X0057378Y0235813D02*
X0061288Y0235813D01*
X0060689Y0235215D02*
X0057378Y0235215D01*
X0057378Y0234616D02*
X0060091Y0234616D01*
X0059492Y0234018D02*
X0057378Y0234018D01*
X0057378Y0233419D02*
X0058894Y0233419D01*
X0059605Y0216406D02*
X0046300Y0216406D01*
X0048653Y0214054D01*
X0048653Y0209937D01*
X0048653Y0209937D01*
X0048653Y0211393D01*
X0052653Y0211393D01*
X0052653Y0211993D01*
X0052653Y0215993D01*
X0051172Y0215993D01*
X0048653Y0213474D01*
X0048653Y0211993D01*
X0052653Y0211993D01*
X0053253Y0211993D01*
X0057253Y0211993D01*
X0057253Y0213474D01*
X0054734Y0215993D01*
X0053253Y0215993D01*
X0053253Y0211993D01*
X0053253Y0211393D01*
X0057253Y0211393D01*
X0057253Y0210344D01*
X0057253Y0210344D01*
X0057253Y0214054D01*
X0059605Y0216406D01*
X0059261Y0216063D02*
X0046644Y0216063D01*
X0047243Y0215464D02*
X0050643Y0215464D01*
X0050044Y0214866D02*
X0047841Y0214866D01*
X0048440Y0214267D02*
X0049446Y0214267D01*
X0048847Y0213669D02*
X0048653Y0213669D01*
X0048653Y0213070D02*
X0048653Y0213070D01*
X0048653Y0212472D02*
X0048653Y0212472D01*
X0048653Y0211873D02*
X0052653Y0211873D01*
X0052653Y0212472D02*
X0053253Y0212472D01*
X0053253Y0213070D02*
X0052653Y0213070D01*
X0052653Y0213669D02*
X0053253Y0213669D01*
X0053253Y0214267D02*
X0052653Y0214267D01*
X0052653Y0214866D02*
X0053253Y0214866D01*
X0053253Y0215464D02*
X0052653Y0215464D01*
X0055263Y0215464D02*
X0058663Y0215464D01*
X0058064Y0214866D02*
X0055861Y0214866D01*
X0056460Y0214267D02*
X0057466Y0214267D01*
X0057253Y0213669D02*
X0057058Y0213669D01*
X0057253Y0213070D02*
X0057253Y0213070D01*
X0057253Y0212472D02*
X0057253Y0212472D01*
X0057253Y0211873D02*
X0053253Y0211873D01*
X0057253Y0211274D02*
X0057253Y0211274D01*
X0057253Y0210676D02*
X0057253Y0210676D01*
X0068653Y0199332D02*
X0067199Y0197878D01*
X0070687Y0197878D01*
X0068653Y0199912D01*
X0068653Y0201393D01*
X0072653Y0201393D01*
X0073253Y0201393D01*
X0073253Y0201993D01*
X0077253Y0201993D01*
X0077253Y0202656D01*
X0077253Y0199332D01*
X0078707Y0197878D01*
X0075219Y0197878D01*
X0077253Y0199912D01*
X0077253Y0201393D01*
X0073253Y0201393D01*
X0073253Y0197393D01*
X0074494Y0197393D01*
X0073000Y0195898D01*
X0071506Y0197393D01*
X0072653Y0197393D01*
X0072653Y0201393D01*
X0072653Y0201993D01*
X0068653Y0201993D01*
X0068653Y0202656D01*
X0068653Y0202656D01*
X0068653Y0199332D01*
X0068625Y0199304D02*
X0069260Y0199304D01*
X0068662Y0199903D02*
X0068653Y0199903D01*
X0068027Y0198706D02*
X0069859Y0198706D01*
X0070457Y0198107D02*
X0067428Y0198107D01*
X0068653Y0201698D02*
X0072653Y0201698D01*
X0072653Y0201100D02*
X0073253Y0201100D01*
X0073253Y0201698D02*
X0077253Y0201698D01*
X0077253Y0201100D02*
X0077253Y0201100D01*
X0077253Y0200501D02*
X0077253Y0200501D01*
X0077244Y0199903D02*
X0077253Y0199903D01*
X0077280Y0199304D02*
X0076645Y0199304D01*
X0076047Y0198706D02*
X0077879Y0198706D01*
X0078477Y0198107D02*
X0075448Y0198107D01*
X0074012Y0196910D02*
X0071988Y0196910D01*
X0072587Y0196312D02*
X0073413Y0196312D01*
X0073253Y0197509D02*
X0072653Y0197509D01*
X0072653Y0198107D02*
X0073253Y0198107D01*
X0073253Y0198706D02*
X0072653Y0198706D01*
X0072653Y0199304D02*
X0073253Y0199304D01*
X0073253Y0199903D02*
X0072653Y0199903D01*
X0072653Y0200501D02*
X0073253Y0200501D01*
X0077253Y0202297D02*
X0077253Y0202297D01*
X0077253Y0202656D02*
X0077253Y0202656D01*
X0068653Y0202297D02*
X0068653Y0202297D01*
X0088653Y0210344D02*
X0088653Y0214054D01*
X0086300Y0216406D01*
X0099605Y0216406D01*
X0097253Y0214054D01*
X0097253Y0210344D01*
X0097253Y0211393D01*
X0093253Y0211393D01*
X0093253Y0211993D01*
X0097253Y0211993D01*
X0097253Y0213474D01*
X0094734Y0215993D01*
X0093253Y0215993D01*
X0093253Y0211993D01*
X0092653Y0211993D01*
X0092653Y0215993D01*
X0091172Y0215993D01*
X0088653Y0213474D01*
X0088653Y0211993D01*
X0092653Y0211993D01*
X0092653Y0211393D01*
X0088653Y0211393D01*
X0088653Y0210344D01*
X0088653Y0210344D01*
X0088653Y0211873D02*
X0092653Y0211873D01*
X0092653Y0212472D02*
X0093253Y0212472D01*
X0093253Y0213070D02*
X0092653Y0213070D01*
X0092653Y0213669D02*
X0093253Y0213669D01*
X0093253Y0214267D02*
X0092653Y0214267D01*
X0092653Y0214866D02*
X0093253Y0214866D01*
X0093253Y0215464D02*
X0092653Y0215464D01*
X0090643Y0215464D02*
X0087243Y0215464D01*
X0087841Y0214866D02*
X0090044Y0214866D01*
X0089446Y0214267D02*
X0088440Y0214267D01*
X0088653Y0213669D02*
X0088847Y0213669D01*
X0088653Y0213070D02*
X0088653Y0213070D01*
X0088653Y0212472D02*
X0088653Y0212472D01*
X0086644Y0216063D02*
X0099261Y0216063D01*
X0098663Y0215464D02*
X0095263Y0215464D01*
X0095861Y0214866D02*
X0098064Y0214866D01*
X0097466Y0214267D02*
X0096460Y0214267D01*
X0097058Y0213669D02*
X0097253Y0213669D01*
X0097253Y0213070D02*
X0097253Y0213070D01*
X0097253Y0212472D02*
X0097253Y0212472D01*
X0097253Y0211873D02*
X0093253Y0211873D01*
X0097253Y0211274D02*
X0097253Y0211274D01*
X0097253Y0210676D02*
X0097253Y0210676D01*
X0097253Y0210344D02*
X0097253Y0210344D01*
X0107945Y0233419D02*
X0169300Y0233419D01*
X0169300Y0234018D02*
X0108543Y0234018D01*
X0109142Y0234616D02*
X0169500Y0234616D01*
X0169748Y0235215D02*
X0109740Y0235215D01*
X0110339Y0235813D02*
X0169996Y0235813D01*
X0170351Y0236412D02*
X0110937Y0236412D01*
X0111536Y0237010D02*
X0170949Y0237010D01*
X0171548Y0237609D02*
X0112134Y0237609D01*
X0112721Y0238208D02*
X0172677Y0238208D01*
X0177323Y0238208D02*
X0182677Y0238208D01*
X0181548Y0237609D02*
X0178452Y0237609D01*
X0179051Y0237010D02*
X0180949Y0237010D01*
X0180351Y0236412D02*
X0179649Y0236412D01*
X0187323Y0238208D02*
X0202677Y0238208D01*
X0201548Y0237609D02*
X0188452Y0237609D01*
X0189051Y0237010D02*
X0193428Y0237010D01*
X0192381Y0236412D02*
X0189649Y0236412D01*
X0190004Y0235813D02*
X0191732Y0235813D01*
X0191303Y0235215D02*
X0190252Y0235215D01*
X0190500Y0234616D02*
X0191004Y0234616D01*
X0190809Y0234018D02*
X0190700Y0234018D01*
X0190700Y0233419D02*
X0190713Y0233419D01*
X0190700Y0232821D02*
X0190700Y0232821D01*
X0190700Y0232222D02*
X0190700Y0232222D01*
X0190700Y0231624D02*
X0190700Y0231624D01*
X0190700Y0231025D02*
X0190700Y0231025D01*
X0190700Y0230427D02*
X0190700Y0230427D01*
X0190700Y0229828D02*
X0194700Y0229828D01*
X0194700Y0230427D02*
X0195300Y0230427D01*
X0195300Y0230300D02*
X0195300Y0237300D01*
X0195338Y0237300D01*
X0196007Y0237194D01*
X0196651Y0236985D01*
X0197254Y0236678D01*
X0197801Y0236280D01*
X0198280Y0235801D01*
X0198678Y0235254D01*
X0198985Y0234651D01*
X0199194Y0234007D01*
X0199300Y0233338D01*
X0199300Y0230300D01*
X0195300Y0230300D01*
X0195300Y0229828D02*
X0199300Y0229828D01*
X0199300Y0229230D02*
X0199300Y0229230D01*
X0199300Y0228675D02*
X0199300Y0228675D01*
X0199300Y0230427D02*
X0199300Y0230427D01*
X0199300Y0231025D02*
X0199300Y0231025D01*
X0199300Y0231624D02*
X0199300Y0231624D01*
X0199300Y0232222D02*
X0199300Y0232222D01*
X0199300Y0232821D02*
X0199300Y0232821D01*
X0199287Y0233419D02*
X0199300Y0233419D01*
X0199300Y0234018D02*
X0199191Y0234018D01*
X0198996Y0234616D02*
X0199500Y0234616D01*
X0199748Y0235215D02*
X0198697Y0235215D01*
X0198268Y0235813D02*
X0199996Y0235813D01*
X0200351Y0236412D02*
X0197619Y0236412D01*
X0196572Y0237010D02*
X0200949Y0237010D01*
X0195300Y0237010D02*
X0194700Y0237010D01*
X0194700Y0236412D02*
X0195300Y0236412D01*
X0195300Y0235813D02*
X0194700Y0235813D01*
X0194700Y0235215D02*
X0195300Y0235215D01*
X0195300Y0234616D02*
X0194700Y0234616D01*
X0194700Y0234018D02*
X0195300Y0234018D01*
X0195300Y0233419D02*
X0194700Y0233419D01*
X0194700Y0232821D02*
X0195300Y0232821D01*
X0195300Y0232222D02*
X0194700Y0232222D01*
X0194700Y0231624D02*
X0195300Y0231624D01*
X0195300Y0231025D02*
X0194700Y0231025D01*
X0190700Y0229230D02*
X0190700Y0229230D01*
X0190700Y0228631D02*
X0190700Y0228631D01*
X0190700Y0228033D02*
X0190700Y0228033D01*
X0190700Y0227434D02*
X0190700Y0227434D01*
X0190700Y0226836D02*
X0190700Y0226836D01*
X0190700Y0226237D02*
X0190767Y0226237D01*
X0190921Y0225639D02*
X0190606Y0225639D01*
X0190358Y0225040D02*
X0191173Y0225040D01*
X0191544Y0224442D02*
X0190110Y0224442D01*
X0189862Y0223843D02*
X0192076Y0223843D01*
X0192899Y0223245D02*
X0189306Y0223245D01*
X0189085Y0213906D02*
X0188653Y0213474D01*
X0188653Y0211993D01*
X0192653Y0211993D01*
X0192653Y0211393D01*
X0193253Y0211393D01*
X0193253Y0211993D01*
X0197253Y0211993D01*
X0197253Y0213474D01*
X0196820Y0213906D01*
X0197253Y0213906D01*
X0197253Y0209332D01*
X0199892Y0206693D01*
X0197953Y0204754D01*
X0195314Y0207393D01*
X0190592Y0207393D01*
X0187953Y0204754D01*
X0186014Y0206693D01*
X0188653Y0209332D01*
X0188653Y0213906D01*
X0189085Y0213906D01*
X0188847Y0213669D02*
X0188653Y0213669D01*
X0188653Y0213070D02*
X0188653Y0213070D01*
X0188653Y0212472D02*
X0188653Y0212472D01*
X0188653Y0211873D02*
X0192653Y0211873D01*
X0192653Y0211393D02*
X0188653Y0211393D01*
X0188653Y0209912D01*
X0191172Y0207393D01*
X0192653Y0207393D01*
X0192653Y0211393D01*
X0192653Y0211274D02*
X0193253Y0211274D01*
X0193253Y0211393D02*
X0193253Y0207393D01*
X0194734Y0207393D01*
X0197253Y0209912D01*
X0197253Y0211393D01*
X0193253Y0211393D01*
X0193253Y0211873D02*
X0197253Y0211873D01*
X0197253Y0211274D02*
X0197253Y0211274D01*
X0197253Y0210676D02*
X0197253Y0210676D01*
X0197253Y0210077D02*
X0197253Y0210077D01*
X0197253Y0209479D02*
X0196820Y0209479D01*
X0196221Y0208880D02*
X0197704Y0208880D01*
X0198303Y0208282D02*
X0195623Y0208282D01*
X0195024Y0207683D02*
X0198901Y0207683D01*
X0199500Y0207085D02*
X0195622Y0207085D01*
X0196220Y0206486D02*
X0199685Y0206486D01*
X0199087Y0205888D02*
X0196819Y0205888D01*
X0197417Y0205289D02*
X0198488Y0205289D01*
X0193253Y0207683D02*
X0192653Y0207683D01*
X0192653Y0208282D02*
X0193253Y0208282D01*
X0193253Y0208880D02*
X0192653Y0208880D01*
X0192653Y0209479D02*
X0193253Y0209479D01*
X0193253Y0210077D02*
X0192653Y0210077D01*
X0192653Y0210676D02*
X0193253Y0210676D01*
X0190283Y0208282D02*
X0187603Y0208282D01*
X0188201Y0208880D02*
X0189684Y0208880D01*
X0189086Y0209479D02*
X0188653Y0209479D01*
X0188653Y0210077D02*
X0188653Y0210077D01*
X0188653Y0210676D02*
X0188653Y0210676D01*
X0188653Y0211274D02*
X0188653Y0211274D01*
X0187004Y0207683D02*
X0190881Y0207683D01*
X0190284Y0207085D02*
X0186406Y0207085D01*
X0186220Y0206486D02*
X0189685Y0206486D01*
X0189087Y0205888D02*
X0186819Y0205888D01*
X0187417Y0205289D02*
X0188488Y0205289D01*
X0179892Y0206693D02*
X0177953Y0204754D01*
X0175314Y0207393D01*
X0170592Y0207393D01*
X0167953Y0204754D01*
X0166014Y0206693D01*
X0168653Y0209332D01*
X0168653Y0213906D01*
X0169085Y0213906D01*
X0168653Y0213474D01*
X0168653Y0211993D01*
X0172653Y0211993D01*
X0172653Y0211393D01*
X0173253Y0211393D01*
X0173253Y0211993D01*
X0177253Y0211993D01*
X0177253Y0213474D01*
X0176820Y0213906D01*
X0177253Y0213906D01*
X0177253Y0209332D01*
X0179892Y0206693D01*
X0179685Y0206486D02*
X0176220Y0206486D01*
X0176819Y0205888D02*
X0179087Y0205888D01*
X0178488Y0205289D02*
X0177417Y0205289D01*
X0175622Y0207085D02*
X0179500Y0207085D01*
X0178901Y0207683D02*
X0175024Y0207683D01*
X0174734Y0207393D02*
X0177253Y0209912D01*
X0177253Y0211393D01*
X0173253Y0211393D01*
X0173253Y0207393D01*
X0174734Y0207393D01*
X0175623Y0208282D02*
X0178303Y0208282D01*
X0177704Y0208880D02*
X0176221Y0208880D01*
X0176820Y0209479D02*
X0177253Y0209479D01*
X0177253Y0210077D02*
X0177253Y0210077D01*
X0177253Y0210676D02*
X0177253Y0210676D01*
X0177253Y0211274D02*
X0177253Y0211274D01*
X0177253Y0211873D02*
X0173253Y0211873D01*
X0173253Y0211274D02*
X0172653Y0211274D01*
X0172653Y0211393D02*
X0172653Y0207393D01*
X0171172Y0207393D01*
X0168653Y0209912D01*
X0168653Y0211393D01*
X0172653Y0211393D01*
X0172653Y0211873D02*
X0168653Y0211873D01*
X0168653Y0212472D02*
X0168653Y0212472D01*
X0168653Y0213070D02*
X0168653Y0213070D01*
X0168653Y0213669D02*
X0168847Y0213669D01*
X0168653Y0209479D02*
X0169086Y0209479D01*
X0169684Y0208880D02*
X0168201Y0208880D01*
X0167603Y0208282D02*
X0170283Y0208282D01*
X0170881Y0207683D02*
X0167004Y0207683D01*
X0166406Y0207085D02*
X0170284Y0207085D01*
X0169685Y0206486D02*
X0166220Y0206486D01*
X0166819Y0205888D02*
X0169087Y0205888D01*
X0168488Y0205289D02*
X0167417Y0205289D01*
X0172653Y0207683D02*
X0173253Y0207683D01*
X0173253Y0208282D02*
X0172653Y0208282D01*
X0172653Y0208880D02*
X0173253Y0208880D01*
X0173253Y0209479D02*
X0172653Y0209479D01*
X0172653Y0210077D02*
X0173253Y0210077D01*
X0173253Y0210676D02*
X0172653Y0210676D01*
X0177253Y0212472D02*
X0177253Y0212472D01*
X0177253Y0213070D02*
X0177253Y0213070D01*
X0177253Y0213669D02*
X0177058Y0213669D01*
X0159892Y0206693D02*
X0157253Y0204054D01*
X0157253Y0199332D01*
X0158707Y0197878D01*
X0156979Y0197878D01*
X0156000Y0196898D01*
X0155120Y0197779D01*
X0157253Y0199912D01*
X0157253Y0201393D01*
X0153253Y0201393D01*
X0153253Y0201993D01*
X0157253Y0201993D01*
X0157253Y0203474D01*
X0154734Y0205993D01*
X0153253Y0205993D01*
X0153253Y0201993D01*
X0152653Y0201993D01*
X0152653Y0205993D01*
X0151172Y0205993D01*
X0148653Y0203474D01*
X0148653Y0201993D01*
X0152653Y0201993D01*
X0152653Y0201393D01*
X0148653Y0201393D01*
X0148653Y0199912D01*
X0150833Y0197731D01*
X0150000Y0196898D01*
X0149020Y0197878D01*
X0147199Y0197878D01*
X0148653Y0199332D01*
X0148653Y0204054D01*
X0146014Y0206693D01*
X0147953Y0208632D01*
X0150592Y0205993D01*
X0155314Y0205993D01*
X0157953Y0208632D01*
X0159892Y0206693D01*
X0159685Y0206486D02*
X0155807Y0206486D01*
X0156406Y0207085D02*
X0159500Y0207085D01*
X0158901Y0207683D02*
X0157004Y0207683D01*
X0157603Y0208282D02*
X0158303Y0208282D01*
X0159087Y0205888D02*
X0154839Y0205888D01*
X0155437Y0205289D02*
X0158488Y0205289D01*
X0157890Y0204691D02*
X0156036Y0204691D01*
X0156634Y0204092D02*
X0157291Y0204092D01*
X0157253Y0203494D02*
X0157233Y0203494D01*
X0157253Y0202895D02*
X0157253Y0202895D01*
X0157253Y0202297D02*
X0157253Y0202297D01*
X0157253Y0201698D02*
X0153253Y0201698D01*
X0153253Y0202297D02*
X0152653Y0202297D01*
X0152653Y0202895D02*
X0153253Y0202895D01*
X0153253Y0203494D02*
X0152653Y0203494D01*
X0152653Y0204092D02*
X0153253Y0204092D01*
X0153253Y0204691D02*
X0152653Y0204691D01*
X0152653Y0205289D02*
X0153253Y0205289D01*
X0153253Y0205888D02*
X0152653Y0205888D01*
X0151067Y0205888D02*
X0146819Y0205888D01*
X0147417Y0205289D02*
X0150468Y0205289D01*
X0149870Y0204691D02*
X0148016Y0204691D01*
X0148614Y0204092D02*
X0149271Y0204092D01*
X0148673Y0203494D02*
X0148653Y0203494D01*
X0148653Y0202895D02*
X0148653Y0202895D01*
X0148653Y0202297D02*
X0148653Y0202297D01*
X0148653Y0201698D02*
X0152653Y0201698D01*
X0149859Y0198706D02*
X0148027Y0198706D01*
X0148625Y0199304D02*
X0149260Y0199304D01*
X0148662Y0199903D02*
X0148653Y0199903D01*
X0147428Y0198107D02*
X0150457Y0198107D01*
X0150610Y0197509D02*
X0149390Y0197509D01*
X0149988Y0196910D02*
X0150012Y0196910D01*
X0155390Y0197509D02*
X0156610Y0197509D01*
X0156012Y0196910D02*
X0155988Y0196910D01*
X0155448Y0198107D02*
X0158477Y0198107D01*
X0157879Y0198706D02*
X0156047Y0198706D01*
X0156645Y0199304D02*
X0157280Y0199304D01*
X0157253Y0199903D02*
X0157244Y0199903D01*
X0157253Y0200501D02*
X0157253Y0200501D01*
X0157253Y0201100D02*
X0157253Y0201100D01*
X0150098Y0206486D02*
X0146220Y0206486D01*
X0146406Y0207085D02*
X0149500Y0207085D01*
X0148901Y0207683D02*
X0147004Y0207683D01*
X0147603Y0208282D02*
X0148303Y0208282D01*
X0125531Y0216906D02*
X0125377Y0216752D01*
X0124966Y0215760D01*
X0124734Y0215993D01*
X0123253Y0215993D01*
X0123253Y0211993D01*
X0122653Y0211993D01*
X0122653Y0215993D01*
X0121172Y0215993D01*
X0121094Y0215915D01*
X0121094Y0216719D01*
X0121281Y0216906D01*
X0125531Y0216906D01*
X0125339Y0216661D02*
X0121094Y0216661D01*
X0121094Y0216063D02*
X0125092Y0216063D01*
X0123253Y0215464D02*
X0122653Y0215464D01*
X0122653Y0214866D02*
X0123253Y0214866D01*
X0123253Y0214267D02*
X0122653Y0214267D01*
X0122653Y0213669D02*
X0123253Y0213669D01*
X0123253Y0213070D02*
X0122653Y0213070D01*
X0122653Y0212472D02*
X0123253Y0212472D01*
X0112969Y0238806D02*
X0251306Y0238806D01*
X0251306Y0238208D02*
X0227323Y0238208D01*
X0228452Y0237609D02*
X0251306Y0237609D01*
X0251306Y0237010D02*
X0229051Y0237010D01*
X0229649Y0236412D02*
X0251306Y0236412D01*
X0251306Y0235813D02*
X0230004Y0235813D01*
X0230252Y0235215D02*
X0251306Y0235215D01*
X0251306Y0234616D02*
X0230500Y0234616D01*
X0230700Y0234018D02*
X0251306Y0234018D01*
X0251306Y0233419D02*
X0230700Y0233419D01*
X0230700Y0232821D02*
X0251306Y0232821D01*
X0251306Y0232222D02*
X0230700Y0232222D01*
X0230700Y0231624D02*
X0251306Y0231624D01*
X0251306Y0231025D02*
X0230700Y0231025D01*
X0230700Y0230427D02*
X0251306Y0230427D01*
X0251306Y0229828D02*
X0230700Y0229828D01*
X0230700Y0229230D02*
X0251306Y0229230D01*
X0251306Y0228631D02*
X0230700Y0228631D01*
X0230700Y0228033D02*
X0251306Y0228033D01*
X0251306Y0227434D02*
X0230700Y0227434D01*
X0230700Y0226836D02*
X0251306Y0226836D01*
X0251306Y0226237D02*
X0230700Y0226237D01*
X0230606Y0225639D02*
X0251306Y0225639D01*
X0251306Y0225040D02*
X0230358Y0225040D01*
X0230110Y0224442D02*
X0251306Y0224442D01*
X0251306Y0223843D02*
X0229862Y0223843D01*
X0229306Y0223245D02*
X0251306Y0223245D01*
X0251306Y0222646D02*
X0228707Y0222646D01*
X0227939Y0222048D02*
X0251306Y0222048D01*
X0251306Y0221449D02*
X0226494Y0221449D01*
X0223506Y0221449D02*
X0216494Y0221449D01*
X0215476Y0220851D02*
X0251306Y0220851D01*
X0251306Y0220252D02*
X0214877Y0220252D01*
X0214279Y0219654D02*
X0251306Y0219654D01*
X0251306Y0219055D02*
X0213680Y0219055D01*
X0213082Y0218457D02*
X0251306Y0218457D01*
X0251306Y0217858D02*
X0212483Y0217858D01*
X0215447Y0217260D02*
X0220458Y0217260D01*
X0219860Y0216661D02*
X0216046Y0216661D01*
X0216644Y0216063D02*
X0219261Y0216063D01*
X0218663Y0215464D02*
X0217243Y0215464D01*
X0217841Y0214866D02*
X0218064Y0214866D01*
X0218303Y0208282D02*
X0217603Y0208282D01*
X0217004Y0207683D02*
X0218901Y0207683D01*
X0219500Y0207085D02*
X0216406Y0207085D01*
X0216220Y0206486D02*
X0220098Y0206486D01*
X0221067Y0205888D02*
X0216819Y0205888D01*
X0217417Y0205289D02*
X0220468Y0205289D01*
X0219870Y0204691D02*
X0218016Y0204691D01*
X0218614Y0204092D02*
X0219271Y0204092D01*
X0218673Y0203494D02*
X0218653Y0203494D01*
X0218653Y0202895D02*
X0218653Y0202895D01*
X0218653Y0202297D02*
X0218653Y0202297D01*
X0218653Y0201698D02*
X0222653Y0201698D01*
X0222653Y0202297D02*
X0223253Y0202297D01*
X0223253Y0202895D02*
X0222653Y0202895D01*
X0222653Y0203494D02*
X0223253Y0203494D01*
X0223253Y0204092D02*
X0222653Y0204092D01*
X0222653Y0204691D02*
X0223253Y0204691D01*
X0223253Y0205289D02*
X0222653Y0205289D01*
X0222653Y0205888D02*
X0223253Y0205888D01*
X0224839Y0205888D02*
X0232511Y0205888D01*
X0232511Y0206486D02*
X0225807Y0206486D01*
X0226406Y0207085D02*
X0232511Y0207085D01*
X0232511Y0207683D02*
X0227004Y0207683D01*
X0227603Y0208282D02*
X0232511Y0208282D01*
X0232625Y0208880D02*
X0228201Y0208880D01*
X0228653Y0209479D02*
X0232873Y0209479D01*
X0233121Y0210077D02*
X0228653Y0210077D01*
X0228653Y0210676D02*
X0233369Y0210676D01*
X0233617Y0211274D02*
X0228653Y0211274D01*
X0228653Y0211873D02*
X0233865Y0211873D01*
X0234307Y0212472D02*
X0228653Y0212472D01*
X0228653Y0213070D02*
X0234905Y0213070D01*
X0235504Y0213669D02*
X0228653Y0213669D01*
X0228440Y0214267D02*
X0236103Y0214267D01*
X0236731Y0214866D02*
X0227841Y0214866D01*
X0227243Y0215464D02*
X0238176Y0215464D01*
X0239621Y0216063D02*
X0226644Y0216063D01*
X0226046Y0216661D02*
X0251306Y0216661D01*
X0251306Y0216063D02*
X0244631Y0216063D01*
X0246076Y0215464D02*
X0251306Y0215464D01*
X0251306Y0214866D02*
X0247521Y0214866D01*
X0248149Y0214267D02*
X0251306Y0214267D01*
X0251306Y0213669D02*
X0248748Y0213669D01*
X0249346Y0213070D02*
X0251306Y0213070D01*
X0251306Y0212472D02*
X0249945Y0212472D01*
X0250387Y0211873D02*
X0251306Y0211873D01*
X0251306Y0211274D02*
X0250635Y0211274D01*
X0250883Y0210676D02*
X0251306Y0210676D01*
X0251306Y0210077D02*
X0251131Y0210077D01*
X0251208Y0203494D02*
X0251306Y0203494D01*
X0251306Y0202895D02*
X0250960Y0202895D01*
X0250712Y0202297D02*
X0251306Y0202297D01*
X0251306Y0201698D02*
X0250464Y0201698D01*
X0250130Y0201100D02*
X0251306Y0201100D01*
X0251306Y0200501D02*
X0249532Y0200501D01*
X0248933Y0199903D02*
X0251306Y0199903D01*
X0251306Y0199304D02*
X0248335Y0199304D01*
X0247736Y0198706D02*
X0251306Y0198706D01*
X0251306Y0198107D02*
X0246523Y0198107D01*
X0245079Y0197509D02*
X0251306Y0197509D01*
X0251306Y0196910D02*
X0225988Y0196910D01*
X0226587Y0196312D02*
X0251306Y0196312D01*
X0251306Y0195713D02*
X0227185Y0195713D01*
X0227784Y0195115D02*
X0251306Y0195115D01*
X0251306Y0194516D02*
X0227878Y0194516D01*
X0227878Y0193918D02*
X0251306Y0193918D01*
X0251306Y0193319D02*
X0227878Y0193319D01*
X0227878Y0192721D02*
X0251306Y0192721D01*
X0251306Y0192122D02*
X0227878Y0192122D01*
X0227878Y0191524D02*
X0251306Y0191524D01*
X0251306Y0190925D02*
X0227824Y0190925D01*
X0227225Y0190327D02*
X0251306Y0190327D01*
X0251306Y0189728D02*
X0226627Y0189728D01*
X0226884Y0189130D02*
X0251306Y0189130D01*
X0251306Y0188531D02*
X0227483Y0188531D01*
X0228081Y0187933D02*
X0251306Y0187933D01*
X0251306Y0187334D02*
X0228653Y0187334D01*
X0228653Y0186736D02*
X0251306Y0186736D01*
X0251306Y0186137D02*
X0228653Y0186137D01*
X0228653Y0185539D02*
X0251306Y0185539D01*
X0251306Y0184940D02*
X0228653Y0184940D01*
X0228653Y0184341D02*
X0251306Y0184341D01*
X0251306Y0183743D02*
X0228653Y0183743D01*
X0228653Y0183144D02*
X0251306Y0183144D01*
X0251306Y0182546D02*
X0228560Y0182546D01*
X0227961Y0181947D02*
X0251306Y0181947D01*
X0251306Y0181349D02*
X0227363Y0181349D01*
X0226764Y0180750D02*
X0251306Y0180750D01*
X0251306Y0180152D02*
X0226166Y0180152D01*
X0225567Y0179553D02*
X0251306Y0179553D01*
X0251306Y0178955D02*
X0225079Y0178955D01*
X0225677Y0178356D02*
X0251306Y0178356D01*
X0251306Y0177758D02*
X0226276Y0177758D01*
X0226874Y0177159D02*
X0251306Y0177159D01*
X0251306Y0176561D02*
X0227253Y0176561D01*
X0227253Y0175962D02*
X0251306Y0175962D01*
X0251306Y0175364D02*
X0227253Y0175364D01*
X0227253Y0174700D02*
X0223253Y0174700D01*
X0223253Y0170700D01*
X0224734Y0170700D01*
X0227253Y0173219D01*
X0227253Y0174700D01*
X0227253Y0174167D02*
X0251306Y0174167D01*
X0251306Y0174765D02*
X0223253Y0174765D01*
X0223253Y0174167D02*
X0222653Y0174167D01*
X0222653Y0173568D02*
X0223253Y0173568D01*
X0223253Y0172970D02*
X0222653Y0172970D01*
X0222653Y0172371D02*
X0223253Y0172371D01*
X0223253Y0171773D02*
X0222653Y0171773D01*
X0222653Y0171174D02*
X0223253Y0171174D01*
X0221594Y0170576D02*
X0251306Y0170576D01*
X0251306Y0171174D02*
X0225208Y0171174D01*
X0225807Y0171773D02*
X0251306Y0171773D01*
X0251306Y0172371D02*
X0226405Y0172371D01*
X0227004Y0172970D02*
X0251306Y0172970D01*
X0251306Y0173568D02*
X0227253Y0173568D01*
X0221594Y0169977D02*
X0251306Y0169977D01*
X0251306Y0169379D02*
X0221594Y0169379D01*
X0221594Y0168780D02*
X0251306Y0168780D01*
X0251306Y0168182D02*
X0221594Y0168182D01*
X0221594Y0167583D02*
X0251306Y0167583D01*
X0251306Y0166985D02*
X0221594Y0166985D01*
X0221594Y0166386D02*
X0251306Y0166386D01*
X0251306Y0165788D02*
X0221594Y0165788D01*
X0221594Y0165189D02*
X0251306Y0165189D01*
X0251306Y0164591D02*
X0221594Y0164591D01*
X0221594Y0163992D02*
X0251306Y0163992D01*
X0251306Y0163394D02*
X0221594Y0163394D01*
X0221594Y0162795D02*
X0251306Y0162795D01*
X0251306Y0162197D02*
X0221594Y0162197D01*
X0221594Y0161598D02*
X0251306Y0161598D01*
X0251306Y0161000D02*
X0221594Y0161000D01*
X0221594Y0160401D02*
X0251306Y0160401D01*
X0251306Y0159803D02*
X0221594Y0159803D01*
X0221594Y0159204D02*
X0251306Y0159204D01*
X0251306Y0158605D02*
X0236204Y0158605D01*
X0237648Y0158007D02*
X0251306Y0158007D01*
X0251306Y0157408D02*
X0238576Y0157408D01*
X0239175Y0156810D02*
X0251306Y0156810D01*
X0251306Y0156211D02*
X0239773Y0156211D01*
X0240040Y0155613D02*
X0251306Y0155613D01*
X0251306Y0155014D02*
X0240288Y0155014D01*
X0240536Y0154416D02*
X0251306Y0154416D01*
X0251306Y0153817D02*
X0240668Y0153817D01*
X0240668Y0153219D02*
X0251306Y0153219D01*
X0251306Y0152620D02*
X0240668Y0152620D01*
X0240668Y0152022D02*
X0251306Y0152022D01*
X0251306Y0151423D02*
X0240668Y0151423D01*
X0240668Y0150825D02*
X0251306Y0150825D01*
X0251306Y0150226D02*
X0240668Y0150226D01*
X0240668Y0149628D02*
X0251306Y0149628D01*
X0251306Y0149029D02*
X0240668Y0149029D01*
X0240668Y0148431D02*
X0251306Y0148431D01*
X0251306Y0147832D02*
X0240668Y0147832D01*
X0240668Y0147234D02*
X0251306Y0147234D01*
X0251306Y0146635D02*
X0240668Y0146635D01*
X0240668Y0146037D02*
X0251306Y0146037D01*
X0251306Y0145438D02*
X0240476Y0145438D01*
X0240228Y0144840D02*
X0251306Y0144840D01*
X0251306Y0144241D02*
X0239980Y0144241D01*
X0239628Y0143643D02*
X0251306Y0143643D01*
X0251306Y0143044D02*
X0239029Y0143044D01*
X0238431Y0142446D02*
X0251306Y0142446D01*
X0251306Y0141847D02*
X0237296Y0141847D01*
X0234119Y0138256D02*
X0251306Y0138256D01*
X0251306Y0137658D02*
X0234718Y0137658D01*
X0235316Y0137059D02*
X0251306Y0137059D01*
X0251306Y0136461D02*
X0235915Y0136461D01*
X0236513Y0135862D02*
X0251306Y0135862D01*
X0251306Y0135264D02*
X0237112Y0135264D01*
X0237710Y0134665D02*
X0251306Y0134665D01*
X0251306Y0134067D02*
X0238309Y0134067D01*
X0238907Y0133468D02*
X0251306Y0133468D01*
X0251306Y0132870D02*
X0239506Y0132870D01*
X0240104Y0132271D02*
X0251306Y0132271D01*
X0251306Y0131672D02*
X0240703Y0131672D01*
X0241301Y0131074D02*
X0251306Y0131074D01*
X0251306Y0130475D02*
X0241900Y0130475D01*
X0242498Y0129877D02*
X0251306Y0129877D01*
X0251306Y0129278D02*
X0243097Y0129278D01*
X0243695Y0128680D02*
X0251306Y0128680D01*
X0251306Y0128081D02*
X0244194Y0128081D01*
X0244441Y0127483D02*
X0251306Y0127483D01*
X0251306Y0126884D02*
X0244594Y0126884D01*
X0244594Y0126286D02*
X0251306Y0126286D01*
X0251306Y0125687D02*
X0244594Y0125687D01*
X0244594Y0125089D02*
X0251306Y0125089D01*
X0251306Y0124490D02*
X0244594Y0124490D01*
X0244594Y0123892D02*
X0251306Y0123892D01*
X0251306Y0123293D02*
X0244594Y0123293D01*
X0244594Y0122695D02*
X0251306Y0122695D01*
X0251306Y0122096D02*
X0244594Y0122096D01*
X0244594Y0121498D02*
X0251306Y0121498D01*
X0251306Y0120899D02*
X0244594Y0120899D01*
X0244594Y0120301D02*
X0251306Y0120301D01*
X0251306Y0119702D02*
X0244594Y0119702D01*
X0244594Y0119104D02*
X0251306Y0119104D01*
X0251306Y0118505D02*
X0244594Y0118505D01*
X0244594Y0117907D02*
X0251306Y0117907D01*
X0251306Y0117308D02*
X0244594Y0117308D01*
X0244594Y0116710D02*
X0251306Y0116710D01*
X0251306Y0116111D02*
X0244594Y0116111D01*
X0244594Y0115513D02*
X0251306Y0115513D01*
X0251306Y0114914D02*
X0244594Y0114914D01*
X0244594Y0114316D02*
X0251306Y0114316D01*
X0251306Y0113717D02*
X0244594Y0113717D01*
X0244594Y0113119D02*
X0251306Y0113119D01*
X0251306Y0112520D02*
X0244594Y0112520D01*
X0244594Y0111922D02*
X0251306Y0111922D01*
X0251306Y0111323D02*
X0244594Y0111323D01*
X0244594Y0110725D02*
X0251306Y0110725D01*
X0251306Y0110126D02*
X0244594Y0110126D01*
X0244594Y0109528D02*
X0251306Y0109528D01*
X0251306Y0108929D02*
X0244594Y0108929D01*
X0244594Y0108331D02*
X0251306Y0108331D01*
X0251306Y0107732D02*
X0244594Y0107732D01*
X0244594Y0107134D02*
X0251306Y0107134D01*
X0251306Y0106535D02*
X0244594Y0106535D01*
X0244594Y0105937D02*
X0251306Y0105937D01*
X0251306Y0105338D02*
X0244594Y0105338D01*
X0244594Y0104739D02*
X0251306Y0104739D01*
X0251306Y0104141D02*
X0244594Y0104141D01*
X0244594Y0103542D02*
X0251306Y0103542D01*
X0251306Y0102944D02*
X0244594Y0102944D01*
X0244594Y0102345D02*
X0251306Y0102345D01*
X0251306Y0101747D02*
X0244594Y0101747D01*
X0244594Y0101148D02*
X0251306Y0101148D01*
X0251306Y0100550D02*
X0244594Y0100550D01*
X0244594Y0099951D02*
X0251306Y0099951D01*
X0251306Y0099353D02*
X0244594Y0099353D01*
X0244594Y0098754D02*
X0251306Y0098754D01*
X0251306Y0098156D02*
X0244594Y0098156D01*
X0244594Y0097557D02*
X0251306Y0097557D01*
X0251306Y0096959D02*
X0244594Y0096959D01*
X0244594Y0096360D02*
X0251306Y0096360D01*
X0251306Y0095762D02*
X0244594Y0095762D01*
X0244594Y0095163D02*
X0251306Y0095163D01*
X0251306Y0094565D02*
X0244594Y0094565D01*
X0244594Y0093966D02*
X0251306Y0093966D01*
X0251306Y0093368D02*
X0244594Y0093368D01*
X0244594Y0092769D02*
X0251306Y0092769D01*
X0251306Y0092171D02*
X0244594Y0092171D01*
X0244594Y0091572D02*
X0251306Y0091572D01*
X0251306Y0090974D02*
X0244594Y0090974D01*
X0244594Y0090375D02*
X0251306Y0090375D01*
X0251306Y0089777D02*
X0244594Y0089777D01*
X0244594Y0089178D02*
X0251306Y0089178D01*
X0251306Y0088580D02*
X0244594Y0088580D01*
X0244594Y0087981D02*
X0251306Y0087981D01*
X0251306Y0087383D02*
X0244594Y0087383D01*
X0244594Y0086784D02*
X0251306Y0086784D01*
X0251306Y0086186D02*
X0244594Y0086186D01*
X0244594Y0085587D02*
X0251306Y0085587D01*
X0251306Y0084989D02*
X0244594Y0084989D01*
X0244594Y0084390D02*
X0251306Y0084390D01*
X0251306Y0083792D02*
X0244594Y0083792D01*
X0244594Y0083193D02*
X0251306Y0083193D01*
X0251306Y0082595D02*
X0244594Y0082595D01*
X0244594Y0081996D02*
X0251306Y0081996D01*
X0251306Y0081398D02*
X0244594Y0081398D01*
X0244594Y0080799D02*
X0251306Y0080799D01*
X0251306Y0080201D02*
X0244594Y0080201D01*
X0244594Y0079602D02*
X0251306Y0079602D01*
X0251306Y0079003D02*
X0244594Y0079003D01*
X0244594Y0078405D02*
X0251306Y0078405D01*
X0251306Y0077806D02*
X0244594Y0077806D01*
X0244594Y0077208D02*
X0251306Y0077208D01*
X0251306Y0076609D02*
X0244594Y0076609D01*
X0244594Y0076011D02*
X0251306Y0076011D01*
X0251306Y0075412D02*
X0244594Y0075412D01*
X0244594Y0074814D02*
X0251306Y0074814D01*
X0251306Y0074215D02*
X0244594Y0074215D01*
X0244594Y0073617D02*
X0251306Y0073617D01*
X0251306Y0073018D02*
X0244594Y0073018D01*
X0244594Y0072420D02*
X0251306Y0072420D01*
X0251306Y0071821D02*
X0244594Y0071821D01*
X0244594Y0071223D02*
X0251306Y0071223D01*
X0251306Y0070624D02*
X0244594Y0070624D01*
X0244594Y0070026D02*
X0251306Y0070026D01*
X0251306Y0069427D02*
X0244594Y0069427D01*
X0244594Y0068829D02*
X0251306Y0068829D01*
X0251306Y0068230D02*
X0244594Y0068230D01*
X0244594Y0067632D02*
X0251306Y0067632D01*
X0251306Y0067033D02*
X0244594Y0067033D01*
X0244594Y0066435D02*
X0251306Y0066435D01*
X0251306Y0065836D02*
X0244594Y0065836D01*
X0244594Y0065238D02*
X0251306Y0065238D01*
X0251306Y0064639D02*
X0244594Y0064639D01*
X0244594Y0064041D02*
X0251306Y0064041D01*
X0251306Y0063442D02*
X0244594Y0063442D01*
X0244594Y0062844D02*
X0251306Y0062844D01*
X0251306Y0062245D02*
X0244594Y0062245D01*
X0244594Y0061647D02*
X0251306Y0061647D01*
X0251306Y0061048D02*
X0244594Y0061048D01*
X0244594Y0060450D02*
X0251306Y0060450D01*
X0251306Y0059851D02*
X0244594Y0059851D01*
X0244594Y0059253D02*
X0251306Y0059253D01*
X0251306Y0058654D02*
X0244594Y0058654D01*
X0244594Y0058056D02*
X0251306Y0058056D01*
X0251306Y0057457D02*
X0244594Y0057457D01*
X0244594Y0056859D02*
X0251306Y0056859D01*
X0251306Y0056260D02*
X0244594Y0056260D01*
X0244594Y0055662D02*
X0251306Y0055662D01*
X0251306Y0055063D02*
X0244594Y0055063D01*
X0244594Y0054465D02*
X0251306Y0054465D01*
X0251306Y0053866D02*
X0244594Y0053866D01*
X0244594Y0053268D02*
X0251306Y0053268D01*
X0251306Y0052669D02*
X0244594Y0052669D01*
X0244594Y0052070D02*
X0251306Y0052070D01*
X0251306Y0051472D02*
X0244594Y0051472D01*
X0244594Y0050873D02*
X0251306Y0050873D01*
X0251306Y0050275D02*
X0244594Y0050275D01*
X0244594Y0049676D02*
X0251306Y0049676D01*
X0251306Y0049078D02*
X0244594Y0049078D01*
X0244594Y0048479D02*
X0251306Y0048479D01*
X0251306Y0047881D02*
X0244594Y0047881D01*
X0244594Y0047282D02*
X0251306Y0047282D01*
X0251306Y0046684D02*
X0244594Y0046684D01*
X0244594Y0046085D02*
X0251306Y0046085D01*
X0251306Y0045487D02*
X0244594Y0045487D01*
X0244594Y0044888D02*
X0251306Y0044888D01*
X0251306Y0044290D02*
X0244594Y0044290D01*
X0244594Y0043691D02*
X0251306Y0043691D01*
X0251306Y0043093D02*
X0244594Y0043093D01*
X0244594Y0042494D02*
X0251306Y0042494D01*
X0251306Y0041896D02*
X0244594Y0041896D01*
X0244594Y0041297D02*
X0251306Y0041297D01*
X0251306Y0040699D02*
X0244645Y0040699D01*
X0244893Y0040100D02*
X0251306Y0040100D01*
X0251306Y0039502D02*
X0245094Y0039502D01*
X0245094Y0038903D02*
X0251306Y0038903D01*
X0251306Y0038305D02*
X0245061Y0038305D01*
X0244813Y0037706D02*
X0251306Y0037706D01*
X0251306Y0037108D02*
X0244483Y0037108D01*
X0243884Y0036509D02*
X0251306Y0036509D01*
X0251306Y0035911D02*
X0243286Y0035911D01*
X0242687Y0035312D02*
X0251306Y0035312D01*
X0251306Y0034714D02*
X0242089Y0034714D01*
X0241120Y0034115D02*
X0251306Y0034115D01*
X0251306Y0033517D02*
X0224935Y0033517D01*
X0224337Y0032918D02*
X0251306Y0032918D01*
X0251306Y0032320D02*
X0223738Y0032320D01*
X0223140Y0031721D02*
X0251306Y0031721D01*
X0251306Y0031123D02*
X0226866Y0031123D01*
X0228311Y0030524D02*
X0251306Y0030524D01*
X0251306Y0029926D02*
X0229022Y0029926D01*
X0229621Y0029327D02*
X0251306Y0029327D01*
X0251306Y0028729D02*
X0230219Y0028729D01*
X0230539Y0028130D02*
X0251306Y0028130D01*
X0251306Y0027532D02*
X0230787Y0027532D01*
X0231035Y0026933D02*
X0251306Y0026933D01*
X0251306Y0026334D02*
X0231283Y0026334D01*
X0231338Y0025736D02*
X0251306Y0025736D01*
X0251306Y0025137D02*
X0231338Y0025137D01*
X0231338Y0024539D02*
X0251306Y0024539D01*
X0251306Y0023940D02*
X0231338Y0023940D01*
X0231230Y0023342D02*
X0240087Y0023342D01*
X0238642Y0022743D02*
X0230983Y0022743D01*
X0230735Y0022145D02*
X0237197Y0022145D01*
X0236295Y0021546D02*
X0230487Y0021546D01*
X0230092Y0020948D02*
X0235697Y0020948D01*
X0235098Y0020349D02*
X0229494Y0020349D01*
X0228895Y0019751D02*
X0234500Y0019751D01*
X0233944Y0019152D02*
X0228006Y0019152D01*
X0226561Y0018554D02*
X0233696Y0018554D01*
X0233449Y0017955D02*
X0223010Y0017955D01*
X0223099Y0017866D02*
X0222626Y0018339D01*
X0222085Y0018732D01*
X0221489Y0019036D01*
X0220853Y0019243D01*
X0220193Y0019347D01*
X0220158Y0019347D01*
X0220158Y0015398D01*
X0224107Y0015398D01*
X0224107Y0015433D01*
X0224002Y0016093D01*
X0223796Y0016729D01*
X0223492Y0017325D01*
X0223099Y0017866D01*
X0223469Y0017357D02*
X0233201Y0017357D01*
X0232953Y0016758D02*
X0223781Y0016758D01*
X0223981Y0016160D02*
X0232705Y0016160D01*
X0232511Y0015561D02*
X0224087Y0015561D01*
X0224107Y0014798D02*
X0220158Y0014798D01*
X0220158Y0010850D01*
X0220193Y0010850D01*
X0220853Y0010954D01*
X0221489Y0011161D01*
X0222085Y0011465D01*
X0222626Y0011858D01*
X0223099Y0012330D01*
X0223492Y0012872D01*
X0223796Y0013467D01*
X0224002Y0014103D01*
X0224107Y0014764D01*
X0224107Y0014798D01*
X0224044Y0014364D02*
X0232511Y0014364D01*
X0232511Y0013766D02*
X0223893Y0013766D01*
X0223643Y0013167D02*
X0232511Y0013167D01*
X0232511Y0012569D02*
X0223272Y0012569D01*
X0222739Y0011970D02*
X0232511Y0011970D01*
X0232716Y0011372D02*
X0221903Y0011372D01*
X0220158Y0011372D02*
X0219558Y0011372D01*
X0219558Y0010850D02*
X0219558Y0014798D01*
X0220158Y0014798D01*
X0220158Y0015398D01*
X0219558Y0015398D01*
X0219558Y0014798D01*
X0215609Y0014798D01*
X0215609Y0014764D01*
X0215714Y0014103D01*
X0215921Y0013467D01*
X0216224Y0012872D01*
X0216617Y0012330D01*
X0217090Y0011858D01*
X0217631Y0011465D01*
X0218227Y0011161D01*
X0218863Y0010954D01*
X0219524Y0010850D01*
X0219558Y0010850D01*
X0219558Y0011970D02*
X0220158Y0011970D01*
X0220158Y0012569D02*
X0219558Y0012569D01*
X0219558Y0013167D02*
X0220158Y0013167D01*
X0220158Y0013766D02*
X0219558Y0013766D01*
X0219558Y0014364D02*
X0220158Y0014364D01*
X0220158Y0014963D02*
X0232511Y0014963D01*
X0232964Y0010773D02*
X0205805Y0010773D01*
X0206404Y0011372D02*
X0217813Y0011372D01*
X0216978Y0011970D02*
X0206960Y0011970D01*
X0207208Y0012569D02*
X0216444Y0012569D01*
X0216074Y0013167D02*
X0207456Y0013167D01*
X0207704Y0013766D02*
X0215824Y0013766D01*
X0215673Y0014364D02*
X0207791Y0014364D01*
X0207791Y0014963D02*
X0219558Y0014963D01*
X0219558Y0015398D02*
X0215609Y0015398D01*
X0215609Y0015433D01*
X0215714Y0016093D01*
X0215921Y0016729D01*
X0216224Y0017325D01*
X0216617Y0017866D01*
X0217090Y0018339D01*
X0217631Y0018732D01*
X0218227Y0019036D01*
X0218863Y0019243D01*
X0219524Y0019347D01*
X0219558Y0019347D01*
X0219558Y0015398D01*
X0219558Y0015561D02*
X0220158Y0015561D01*
X0220158Y0016160D02*
X0219558Y0016160D01*
X0219558Y0016758D02*
X0220158Y0016758D01*
X0220158Y0017357D02*
X0219558Y0017357D01*
X0219558Y0017955D02*
X0220158Y0017955D01*
X0220158Y0018554D02*
X0219558Y0018554D01*
X0219558Y0019152D02*
X0220158Y0019152D01*
X0220703Y0019751D02*
X0211169Y0019751D01*
X0210571Y0019152D02*
X0218586Y0019152D01*
X0217386Y0018554D02*
X0209972Y0018554D01*
X0209374Y0017955D02*
X0216706Y0017955D01*
X0216247Y0017357D02*
X0208775Y0017357D01*
X0208177Y0016758D02*
X0215935Y0016758D01*
X0215736Y0016160D02*
X0207791Y0016160D01*
X0207791Y0015561D02*
X0215630Y0015561D01*
X0211768Y0020349D02*
X0220104Y0020349D01*
X0219506Y0020948D02*
X0212366Y0020948D01*
X0212965Y0021546D02*
X0219112Y0021546D01*
X0218864Y0022145D02*
X0213563Y0022145D01*
X0214162Y0022743D02*
X0218616Y0022743D01*
X0218368Y0023342D02*
X0214760Y0023342D01*
X0215359Y0023940D02*
X0218261Y0023940D01*
X0218261Y0024539D02*
X0215957Y0024539D01*
X0216556Y0025137D02*
X0218261Y0025137D01*
X0218261Y0025736D02*
X0217154Y0025736D01*
X0217753Y0026334D02*
X0218315Y0026334D01*
X0218351Y0026933D02*
X0218563Y0026933D01*
X0222541Y0031123D02*
X0222732Y0031123D01*
X0221593Y0019152D02*
X0221131Y0019152D01*
X0222331Y0018554D02*
X0223038Y0018554D01*
X0233212Y0010175D02*
X0205016Y0010175D01*
X0203571Y0009576D02*
X0233460Y0009576D01*
X0233708Y0008978D02*
X0193576Y0008978D01*
X0193576Y0009576D02*
X0200713Y0009576D01*
X0199268Y0010175D02*
X0193576Y0010175D01*
X0193576Y0010773D02*
X0198478Y0010773D01*
X0197880Y0011372D02*
X0193576Y0011372D01*
X0193576Y0011970D02*
X0197323Y0011970D01*
X0197075Y0012569D02*
X0193576Y0012569D01*
X0193576Y0013167D02*
X0196827Y0013167D01*
X0196579Y0013766D02*
X0193576Y0013766D01*
X0193576Y0014364D02*
X0196493Y0014364D01*
X0196493Y0014963D02*
X0193576Y0014963D01*
X0193576Y0015561D02*
X0196493Y0015561D01*
X0196493Y0016160D02*
X0193576Y0016160D01*
X0193576Y0016758D02*
X0196715Y0016758D01*
X0196963Y0017357D02*
X0193576Y0017357D01*
X0193576Y0017955D02*
X0197211Y0017955D01*
X0195439Y0018554D02*
X0193576Y0018554D01*
X0193576Y0019152D02*
X0193994Y0019152D01*
X0193576Y0008379D02*
X0233956Y0008379D01*
X0234527Y0007781D02*
X0193576Y0007781D01*
X0193576Y0007182D02*
X0235126Y0007182D01*
X0235724Y0006584D02*
X0193576Y0006584D01*
X0193576Y0005985D02*
X0236323Y0005985D01*
X0237263Y0005387D02*
X0193576Y0005387D01*
X0193576Y0004788D02*
X0238708Y0004788D01*
X0251299Y0016758D02*
X0251306Y0016758D01*
X0251306Y0017357D02*
X0251051Y0017357D01*
X0250803Y0017955D02*
X0251306Y0017955D01*
X0251306Y0018554D02*
X0250556Y0018554D01*
X0250308Y0019152D02*
X0251306Y0019152D01*
X0251306Y0019751D02*
X0249752Y0019751D01*
X0249154Y0020349D02*
X0251306Y0020349D01*
X0251306Y0020948D02*
X0248555Y0020948D01*
X0247957Y0021546D02*
X0251306Y0021546D01*
X0251306Y0022145D02*
X0247055Y0022145D01*
X0245610Y0022743D02*
X0251306Y0022743D01*
X0251306Y0023342D02*
X0244165Y0023342D01*
X0175719Y0105094D02*
X0171892Y0105094D01*
X0172211Y0105226D01*
X0173806Y0106821D01*
X0174668Y0108904D01*
X0174668Y0117096D01*
X0173806Y0119179D01*
X0172211Y0120774D01*
X0171460Y0121085D01*
X0176123Y0125748D01*
X0176594Y0126885D01*
X0176594Y0145504D01*
X0176763Y0145381D01*
X0177361Y0145076D01*
X0178000Y0144868D01*
X0178664Y0144763D01*
X0178700Y0144763D01*
X0178700Y0151700D01*
X0179300Y0151700D01*
X0179300Y0144763D01*
X0179336Y0144763D01*
X0179869Y0144847D01*
X0179869Y0120153D01*
X0179336Y0120237D01*
X0179300Y0120237D01*
X0179300Y0113300D01*
X0178700Y0113300D01*
X0178700Y0120237D01*
X0178664Y0120237D01*
X0178000Y0120132D01*
X0177361Y0119924D01*
X0176763Y0119619D01*
X0176219Y0119224D01*
X0175744Y0118749D01*
X0175349Y0118206D01*
X0175044Y0117607D01*
X0174837Y0116968D01*
X0174731Y0116304D01*
X0174731Y0113300D01*
X0178700Y0113300D01*
X0178700Y0112700D01*
X0174731Y0112700D01*
X0174731Y0109696D01*
X0174837Y0109032D01*
X0175044Y0108393D01*
X0175349Y0107794D01*
X0175744Y0107251D01*
X0176219Y0106776D01*
X0176763Y0106381D01*
X0176924Y0106299D01*
X0175719Y0105094D01*
X0175963Y0105338D02*
X0172323Y0105338D01*
X0172921Y0105937D02*
X0176561Y0105937D01*
X0176550Y0106535D02*
X0173520Y0106535D01*
X0173935Y0107134D02*
X0175861Y0107134D01*
X0175394Y0107732D02*
X0174183Y0107732D01*
X0174431Y0108331D02*
X0175076Y0108331D01*
X0174870Y0108929D02*
X0174668Y0108929D01*
X0174668Y0109528D02*
X0174758Y0109528D01*
X0174731Y0110126D02*
X0174668Y0110126D01*
X0174668Y0110725D02*
X0174731Y0110725D01*
X0174731Y0111323D02*
X0174668Y0111323D01*
X0174668Y0111922D02*
X0174731Y0111922D01*
X0174731Y0112520D02*
X0174668Y0112520D01*
X0174668Y0113119D02*
X0178700Y0113119D01*
X0178700Y0113717D02*
X0179300Y0113717D01*
X0179300Y0114316D02*
X0178700Y0114316D01*
X0178700Y0114914D02*
X0179300Y0114914D01*
X0179300Y0115513D02*
X0178700Y0115513D01*
X0178700Y0116111D02*
X0179300Y0116111D01*
X0179300Y0116710D02*
X0178700Y0116710D01*
X0178700Y0117308D02*
X0179300Y0117308D01*
X0179300Y0117907D02*
X0178700Y0117907D01*
X0178700Y0118505D02*
X0179300Y0118505D01*
X0179300Y0119104D02*
X0178700Y0119104D01*
X0178700Y0119702D02*
X0179300Y0119702D01*
X0179869Y0120301D02*
X0172684Y0120301D01*
X0173283Y0119702D02*
X0176926Y0119702D01*
X0176099Y0119104D02*
X0173837Y0119104D01*
X0174085Y0118505D02*
X0175567Y0118505D01*
X0175197Y0117907D02*
X0174333Y0117907D01*
X0174581Y0117308D02*
X0174947Y0117308D01*
X0174796Y0116710D02*
X0174668Y0116710D01*
X0174668Y0116111D02*
X0174731Y0116111D01*
X0174731Y0115513D02*
X0174668Y0115513D01*
X0174668Y0114914D02*
X0174731Y0114914D01*
X0174731Y0114316D02*
X0174668Y0114316D01*
X0174668Y0113717D02*
X0174731Y0113717D01*
X0171909Y0120899D02*
X0179869Y0120899D01*
X0179869Y0121498D02*
X0171873Y0121498D01*
X0172471Y0122096D02*
X0179869Y0122096D01*
X0179869Y0122695D02*
X0173070Y0122695D01*
X0173668Y0123293D02*
X0179869Y0123293D01*
X0179869Y0123892D02*
X0174267Y0123892D01*
X0174865Y0124490D02*
X0179869Y0124490D01*
X0179869Y0125089D02*
X0175464Y0125089D01*
X0176063Y0125687D02*
X0179869Y0125687D01*
X0179869Y0126286D02*
X0176346Y0126286D01*
X0176594Y0126884D02*
X0179869Y0126884D01*
X0179869Y0127483D02*
X0176594Y0127483D01*
X0176594Y0128081D02*
X0179869Y0128081D01*
X0179869Y0128680D02*
X0176594Y0128680D01*
X0176594Y0129278D02*
X0179869Y0129278D01*
X0179869Y0129877D02*
X0176594Y0129877D01*
X0176594Y0130475D02*
X0179869Y0130475D01*
X0179869Y0131074D02*
X0176594Y0131074D01*
X0176594Y0131672D02*
X0179869Y0131672D01*
X0179869Y0132271D02*
X0176594Y0132271D01*
X0176594Y0132870D02*
X0179869Y0132870D01*
X0179869Y0133468D02*
X0176594Y0133468D01*
X0176594Y0134067D02*
X0179869Y0134067D01*
X0179869Y0134665D02*
X0176594Y0134665D01*
X0176594Y0135264D02*
X0179869Y0135264D01*
X0179869Y0135862D02*
X0176594Y0135862D01*
X0176594Y0136461D02*
X0179869Y0136461D01*
X0179869Y0137059D02*
X0176594Y0137059D01*
X0176594Y0137658D02*
X0179869Y0137658D01*
X0179869Y0138256D02*
X0176594Y0138256D01*
X0176594Y0138855D02*
X0179869Y0138855D01*
X0179869Y0139453D02*
X0176594Y0139453D01*
X0176594Y0140052D02*
X0179869Y0140052D01*
X0179869Y0140650D02*
X0176594Y0140650D01*
X0176594Y0141249D02*
X0179869Y0141249D01*
X0179869Y0141847D02*
X0176594Y0141847D01*
X0176594Y0142446D02*
X0179869Y0142446D01*
X0179869Y0143044D02*
X0176594Y0143044D01*
X0176594Y0143643D02*
X0179869Y0143643D01*
X0179869Y0144241D02*
X0176594Y0144241D01*
X0176594Y0144840D02*
X0178179Y0144840D01*
X0178700Y0144840D02*
X0179300Y0144840D01*
X0179820Y0144840D02*
X0179869Y0144840D01*
X0179300Y0145438D02*
X0178700Y0145438D01*
X0178700Y0146037D02*
X0179300Y0146037D01*
X0179300Y0146635D02*
X0178700Y0146635D01*
X0178700Y0147234D02*
X0179300Y0147234D01*
X0179300Y0147832D02*
X0178700Y0147832D01*
X0178700Y0148431D02*
X0179300Y0148431D01*
X0179300Y0149029D02*
X0178700Y0149029D01*
X0178700Y0149628D02*
X0179300Y0149628D01*
X0179300Y0150226D02*
X0178700Y0150226D01*
X0178700Y0150825D02*
X0179300Y0150825D01*
X0179300Y0151423D02*
X0178700Y0151423D01*
X0178700Y0152300D02*
X0178700Y0159237D01*
X0178664Y0159237D01*
X0178000Y0159132D01*
X0177361Y0158924D01*
X0176763Y0158619D01*
X0176594Y0158496D01*
X0176594Y0160219D01*
X0179859Y0163484D01*
X0179859Y0159154D01*
X0179336Y0159237D01*
X0179300Y0159237D01*
X0179300Y0152300D01*
X0178700Y0152300D01*
X0178700Y0152620D02*
X0179300Y0152620D01*
X0179300Y0153219D02*
X0178700Y0153219D01*
X0178700Y0153817D02*
X0179300Y0153817D01*
X0179300Y0154416D02*
X0178700Y0154416D01*
X0178700Y0155014D02*
X0179300Y0155014D01*
X0179300Y0155613D02*
X0178700Y0155613D01*
X0178700Y0156211D02*
X0179300Y0156211D01*
X0179300Y0156810D02*
X0178700Y0156810D01*
X0178700Y0157408D02*
X0179300Y0157408D01*
X0179300Y0158007D02*
X0178700Y0158007D01*
X0178700Y0158605D02*
X0179300Y0158605D01*
X0179300Y0159204D02*
X0178700Y0159204D01*
X0178456Y0159204D02*
X0176594Y0159204D01*
X0176594Y0158605D02*
X0176744Y0158605D01*
X0176594Y0159803D02*
X0179859Y0159803D01*
X0179859Y0160401D02*
X0176776Y0160401D01*
X0177375Y0161000D02*
X0179859Y0161000D01*
X0179859Y0161598D02*
X0177973Y0161598D01*
X0178572Y0162197D02*
X0179859Y0162197D01*
X0179859Y0162795D02*
X0179170Y0162795D01*
X0179769Y0163394D02*
X0179859Y0163394D01*
X0179859Y0159204D02*
X0179544Y0159204D01*
X0176684Y0145438D02*
X0176594Y0145438D01*
X0145800Y0125973D02*
X0145800Y0120779D01*
X0145789Y0120774D01*
X0144194Y0119179D01*
X0143331Y0117096D01*
X0143331Y0111044D01*
X0143094Y0111281D01*
X0143094Y0114615D01*
X0142623Y0115752D01*
X0141752Y0116623D01*
X0140300Y0118075D01*
X0140300Y0121195D01*
X0137195Y0124300D01*
X0132805Y0124300D01*
X0129700Y0121195D01*
X0129700Y0116805D01*
X0132805Y0113700D01*
X0133185Y0113700D01*
X0131100Y0111615D01*
X0131100Y0110300D01*
X0134700Y0110300D01*
X0134700Y0109700D01*
X0131100Y0109700D01*
X0131100Y0108385D01*
X0131607Y0107878D01*
X0128479Y0107878D01*
X0128000Y0107398D01*
X0127270Y0108128D01*
X0123229Y0108128D01*
X0123031Y0107929D01*
X0123031Y0155606D01*
X0125781Y0158357D01*
X0130122Y0158357D01*
X0130122Y0154729D01*
X0131178Y0153673D01*
X0129700Y0152195D01*
X0129700Y0147805D01*
X0132805Y0144700D01*
X0135925Y0144700D01*
X0136906Y0143719D01*
X0136906Y0143609D01*
X0136615Y0143900D01*
X0135300Y0143900D01*
X0135300Y0140300D01*
X0134700Y0140300D01*
X0134700Y0143900D01*
X0133385Y0143900D01*
X0131100Y0141615D01*
X0131100Y0140300D01*
X0134700Y0140300D01*
X0134700Y0139700D01*
X0135300Y0139700D01*
X0135300Y0136100D01*
X0136615Y0136100D01*
X0136978Y0136462D01*
X0137377Y0135498D01*
X0141627Y0131248D01*
X0142498Y0130377D01*
X0143635Y0129906D01*
X0144122Y0129906D01*
X0144122Y0127651D01*
X0145800Y0125973D01*
X0145800Y0125687D02*
X0123031Y0125687D01*
X0123031Y0125089D02*
X0145800Y0125089D01*
X0145800Y0124490D02*
X0123031Y0124490D01*
X0123031Y0123892D02*
X0132397Y0123892D01*
X0131798Y0123293D02*
X0123031Y0123293D01*
X0123031Y0122695D02*
X0131199Y0122695D01*
X0130601Y0122096D02*
X0123031Y0122096D01*
X0123031Y0121498D02*
X0130002Y0121498D01*
X0129700Y0120899D02*
X0123031Y0120899D01*
X0123031Y0120301D02*
X0129700Y0120301D01*
X0129700Y0119702D02*
X0123031Y0119702D01*
X0123031Y0119104D02*
X0129700Y0119104D01*
X0129700Y0118505D02*
X0123031Y0118505D01*
X0123031Y0117907D02*
X0129700Y0117907D01*
X0129700Y0117308D02*
X0123031Y0117308D01*
X0123031Y0116710D02*
X0129795Y0116710D01*
X0130393Y0116111D02*
X0123031Y0116111D01*
X0123031Y0115513D02*
X0130992Y0115513D01*
X0131590Y0114914D02*
X0123031Y0114914D01*
X0123031Y0114316D02*
X0132189Y0114316D01*
X0132788Y0113717D02*
X0123031Y0113717D01*
X0123031Y0113119D02*
X0132603Y0113119D01*
X0132005Y0112520D02*
X0123031Y0112520D01*
X0123031Y0111922D02*
X0131406Y0111922D01*
X0131100Y0111323D02*
X0123031Y0111323D01*
X0123031Y0110725D02*
X0131100Y0110725D01*
X0131100Y0109528D02*
X0123031Y0109528D01*
X0123031Y0110126D02*
X0134700Y0110126D01*
X0131100Y0108929D02*
X0123031Y0108929D01*
X0123031Y0108331D02*
X0131154Y0108331D01*
X0128334Y0107732D02*
X0127666Y0107732D01*
X0140468Y0117907D02*
X0143667Y0117907D01*
X0143915Y0118505D02*
X0140300Y0118505D01*
X0140300Y0119104D02*
X0144163Y0119104D01*
X0144717Y0119702D02*
X0140300Y0119702D01*
X0140300Y0120301D02*
X0145316Y0120301D01*
X0145800Y0120899D02*
X0140300Y0120899D01*
X0139998Y0121498D02*
X0145800Y0121498D01*
X0145800Y0122096D02*
X0139399Y0122096D01*
X0138800Y0122695D02*
X0145800Y0122695D01*
X0145800Y0123293D02*
X0138202Y0123293D01*
X0137603Y0123892D02*
X0145800Y0123892D01*
X0145487Y0126286D02*
X0123031Y0126286D01*
X0123031Y0126884D02*
X0144889Y0126884D01*
X0144290Y0127483D02*
X0123031Y0127483D01*
X0123031Y0128081D02*
X0144122Y0128081D01*
X0144122Y0128680D02*
X0123031Y0128680D01*
X0123031Y0129278D02*
X0144122Y0129278D01*
X0144122Y0129877D02*
X0123031Y0129877D01*
X0123031Y0130475D02*
X0142399Y0130475D01*
X0141801Y0131074D02*
X0123031Y0131074D01*
X0123031Y0131672D02*
X0141202Y0131672D01*
X0140604Y0132271D02*
X0123031Y0132271D01*
X0123031Y0132870D02*
X0140005Y0132870D01*
X0139407Y0133468D02*
X0123031Y0133468D01*
X0123031Y0134067D02*
X0138808Y0134067D01*
X0138210Y0134665D02*
X0123031Y0134665D01*
X0123031Y0135264D02*
X0137611Y0135264D01*
X0137226Y0135862D02*
X0123031Y0135862D01*
X0123031Y0136461D02*
X0133024Y0136461D01*
X0133385Y0136100D02*
X0134700Y0136100D01*
X0134700Y0139700D01*
X0131100Y0139700D01*
X0131100Y0138385D01*
X0133385Y0136100D01*
X0132425Y0137059D02*
X0123031Y0137059D01*
X0123031Y0137658D02*
X0131827Y0137658D01*
X0131228Y0138256D02*
X0123031Y0138256D01*
X0123031Y0138855D02*
X0131100Y0138855D01*
X0131100Y0139453D02*
X0123031Y0139453D01*
X0123031Y0140052D02*
X0134700Y0140052D01*
X0134700Y0140650D02*
X0135300Y0140650D01*
X0135300Y0141249D02*
X0134700Y0141249D01*
X0134700Y0141847D02*
X0135300Y0141847D01*
X0135300Y0142446D02*
X0134700Y0142446D01*
X0134700Y0143044D02*
X0135300Y0143044D01*
X0135300Y0143643D02*
X0134700Y0143643D01*
X0133127Y0143643D02*
X0123031Y0143643D01*
X0123031Y0144241D02*
X0136384Y0144241D01*
X0136873Y0143643D02*
X0136906Y0143643D01*
X0135300Y0139453D02*
X0134700Y0139453D01*
X0134700Y0138855D02*
X0135300Y0138855D01*
X0135300Y0138256D02*
X0134700Y0138256D01*
X0134700Y0137658D02*
X0135300Y0137658D01*
X0135300Y0137059D02*
X0134700Y0137059D01*
X0134700Y0136461D02*
X0135300Y0136461D01*
X0136976Y0136461D02*
X0136978Y0136461D01*
X0131100Y0140650D02*
X0123031Y0140650D01*
X0123031Y0141249D02*
X0131100Y0141249D01*
X0131332Y0141847D02*
X0123031Y0141847D01*
X0123031Y0142446D02*
X0131930Y0142446D01*
X0132529Y0143044D02*
X0123031Y0143044D01*
X0123031Y0144840D02*
X0132665Y0144840D01*
X0132066Y0145438D02*
X0123031Y0145438D01*
X0123031Y0146037D02*
X0131468Y0146037D01*
X0130869Y0146635D02*
X0123031Y0146635D01*
X0123031Y0147234D02*
X0130271Y0147234D01*
X0129700Y0147832D02*
X0123031Y0147832D01*
X0123031Y0148431D02*
X0129700Y0148431D01*
X0129700Y0149029D02*
X0123031Y0149029D01*
X0123031Y0149628D02*
X0129700Y0149628D01*
X0129700Y0150226D02*
X0123031Y0150226D01*
X0123031Y0150825D02*
X0129700Y0150825D01*
X0129700Y0151423D02*
X0123031Y0151423D01*
X0123031Y0152022D02*
X0129700Y0152022D01*
X0130125Y0152620D02*
X0123031Y0152620D01*
X0123031Y0153219D02*
X0130724Y0153219D01*
X0131034Y0153817D02*
X0123031Y0153817D01*
X0123031Y0154416D02*
X0130436Y0154416D01*
X0130122Y0155014D02*
X0123031Y0155014D01*
X0123038Y0155613D02*
X0130122Y0155613D01*
X0130122Y0156211D02*
X0123636Y0156211D01*
X0124235Y0156810D02*
X0130122Y0156810D01*
X0130122Y0157408D02*
X0124833Y0157408D01*
X0125432Y0158007D02*
X0130122Y0158007D01*
X0141067Y0117308D02*
X0143419Y0117308D01*
X0143331Y0116710D02*
X0141665Y0116710D01*
X0142264Y0116111D02*
X0143331Y0116111D01*
X0143331Y0115513D02*
X0142722Y0115513D01*
X0142970Y0114914D02*
X0143331Y0114914D01*
X0143331Y0114316D02*
X0143094Y0114316D01*
X0143094Y0113717D02*
X0143331Y0113717D01*
X0143331Y0113119D02*
X0143094Y0113119D01*
X0143094Y0112520D02*
X0143331Y0112520D01*
X0143331Y0111922D02*
X0143094Y0111922D01*
X0143094Y0111323D02*
X0143331Y0111323D01*
X0144981Y0076144D02*
X0152877Y0068248D01*
X0153748Y0067377D01*
X0154885Y0066906D01*
X0164682Y0066906D01*
X0164684Y0066901D01*
X0166223Y0065361D01*
X0167096Y0065000D01*
X0166223Y0064639D01*
X0164684Y0063099D01*
X0163851Y0061088D01*
X0163851Y0058912D01*
X0164684Y0056901D01*
X0166223Y0055361D01*
X0168234Y0054528D01*
X0170411Y0054528D01*
X0172156Y0055251D01*
X0172156Y0052925D01*
X0171975Y0053106D01*
X0171457Y0053482D01*
X0170886Y0053773D01*
X0170276Y0053971D01*
X0169643Y0054072D01*
X0169623Y0054072D01*
X0169623Y0050300D01*
X0169023Y0050300D01*
X0169023Y0054072D01*
X0169002Y0054072D01*
X0168369Y0053971D01*
X0167760Y0053773D01*
X0167189Y0053482D01*
X0166670Y0053106D01*
X0166217Y0052652D01*
X0165840Y0052134D01*
X0165549Y0051563D01*
X0165351Y0050953D01*
X0165251Y0050320D01*
X0165251Y0050300D01*
X0169023Y0050300D01*
X0169023Y0049700D01*
X0169623Y0049700D01*
X0169623Y0045928D01*
X0169643Y0045928D01*
X0170276Y0046029D01*
X0170886Y0046227D01*
X0171457Y0046518D01*
X0171975Y0046894D01*
X0172156Y0047075D01*
X0172156Y0042925D01*
X0171975Y0043106D01*
X0171457Y0043482D01*
X0170886Y0043773D01*
X0170276Y0043971D01*
X0169643Y0044072D01*
X0169623Y0044072D01*
X0169623Y0040300D01*
X0169023Y0040300D01*
X0169023Y0044072D01*
X0169002Y0044072D01*
X0168369Y0043971D01*
X0167760Y0043773D01*
X0167189Y0043482D01*
X0166670Y0043106D01*
X0166217Y0042652D01*
X0165840Y0042134D01*
X0165549Y0041563D01*
X0165351Y0040953D01*
X0165251Y0040320D01*
X0165251Y0040300D01*
X0169023Y0040300D01*
X0169023Y0039700D01*
X0169623Y0039700D01*
X0169623Y0035928D01*
X0169643Y0035928D01*
X0170276Y0036029D01*
X0170886Y0036227D01*
X0171457Y0036518D01*
X0171488Y0036540D01*
X0170417Y0035469D01*
X0170411Y0035472D01*
X0168234Y0035472D01*
X0166223Y0034639D01*
X0164684Y0033099D01*
X0163851Y0031088D01*
X0163851Y0028912D01*
X0164684Y0026901D01*
X0166223Y0025361D01*
X0167096Y0025000D01*
X0166223Y0024639D01*
X0164684Y0023099D01*
X0164682Y0023094D01*
X0153169Y0023094D01*
X0144981Y0031281D01*
X0144981Y0076144D01*
X0144981Y0076011D02*
X0145114Y0076011D01*
X0144981Y0075412D02*
X0145712Y0075412D01*
X0146311Y0074814D02*
X0144981Y0074814D01*
X0144981Y0074215D02*
X0146909Y0074215D01*
X0147508Y0073617D02*
X0144981Y0073617D01*
X0144981Y0073018D02*
X0148106Y0073018D01*
X0148705Y0072420D02*
X0144981Y0072420D01*
X0144981Y0071821D02*
X0149303Y0071821D01*
X0149902Y0071223D02*
X0144981Y0071223D01*
X0144981Y0070624D02*
X0150501Y0070624D01*
X0151099Y0070026D02*
X0144981Y0070026D01*
X0144981Y0069427D02*
X0151698Y0069427D01*
X0152296Y0068829D02*
X0144981Y0068829D01*
X0144981Y0068230D02*
X0152895Y0068230D01*
X0153493Y0067632D02*
X0144981Y0067632D01*
X0144981Y0067033D02*
X0154578Y0067033D01*
X0144981Y0066435D02*
X0165150Y0066435D01*
X0165748Y0065836D02*
X0144981Y0065836D01*
X0144981Y0065238D02*
X0166522Y0065238D01*
X0166225Y0064639D02*
X0144981Y0064639D01*
X0144981Y0064041D02*
X0165625Y0064041D01*
X0165027Y0063442D02*
X0144981Y0063442D01*
X0144981Y0062844D02*
X0164578Y0062844D01*
X0164330Y0062245D02*
X0144981Y0062245D01*
X0144981Y0061647D02*
X0164082Y0061647D01*
X0163851Y0061048D02*
X0144981Y0061048D01*
X0144981Y0060450D02*
X0163851Y0060450D01*
X0163851Y0059851D02*
X0144981Y0059851D01*
X0144981Y0059253D02*
X0163851Y0059253D01*
X0163958Y0058654D02*
X0144981Y0058654D01*
X0144981Y0058056D02*
X0164206Y0058056D01*
X0164454Y0057457D02*
X0144981Y0057457D01*
X0144981Y0056859D02*
X0164726Y0056859D01*
X0165325Y0056260D02*
X0144981Y0056260D01*
X0144981Y0055662D02*
X0165923Y0055662D01*
X0166944Y0055063D02*
X0144981Y0055063D01*
X0144981Y0054465D02*
X0172156Y0054465D01*
X0172156Y0055063D02*
X0171702Y0055063D01*
X0172156Y0053866D02*
X0170601Y0053866D01*
X0169623Y0053866D02*
X0169023Y0053866D01*
X0169023Y0053268D02*
X0169623Y0053268D01*
X0169623Y0052669D02*
X0169023Y0052669D01*
X0169023Y0052070D02*
X0169623Y0052070D01*
X0169623Y0051472D02*
X0169023Y0051472D01*
X0169023Y0050873D02*
X0169623Y0050873D01*
X0169023Y0050275D02*
X0144981Y0050275D01*
X0144981Y0050873D02*
X0165339Y0050873D01*
X0165520Y0051472D02*
X0144981Y0051472D01*
X0144981Y0052070D02*
X0165808Y0052070D01*
X0166234Y0052669D02*
X0144981Y0052669D01*
X0144981Y0053268D02*
X0166893Y0053268D01*
X0168045Y0053866D02*
X0144981Y0053866D01*
X0144981Y0049676D02*
X0165252Y0049676D01*
X0165251Y0049680D02*
X0165351Y0049047D01*
X0165549Y0048437D01*
X0165840Y0047866D01*
X0166217Y0047347D01*
X0166670Y0046894D01*
X0167189Y0046518D01*
X0167760Y0046227D01*
X0168369Y0046029D01*
X0169002Y0045928D01*
X0169023Y0045928D01*
X0169023Y0049700D01*
X0165251Y0049700D01*
X0165251Y0049680D01*
X0165346Y0049078D02*
X0144981Y0049078D01*
X0144981Y0048479D02*
X0165536Y0048479D01*
X0165833Y0047881D02*
X0144981Y0047881D01*
X0144981Y0047282D02*
X0166282Y0047282D01*
X0166960Y0046684D02*
X0144981Y0046684D01*
X0144981Y0046085D02*
X0168195Y0046085D01*
X0169023Y0046085D02*
X0169623Y0046085D01*
X0169623Y0046684D02*
X0169023Y0046684D01*
X0169023Y0047282D02*
X0169623Y0047282D01*
X0169623Y0047881D02*
X0169023Y0047881D01*
X0169023Y0048479D02*
X0169623Y0048479D01*
X0169623Y0049078D02*
X0169023Y0049078D01*
X0169023Y0049676D02*
X0169623Y0049676D01*
X0171686Y0046684D02*
X0172156Y0046684D01*
X0172156Y0046085D02*
X0170451Y0046085D01*
X0172156Y0045487D02*
X0144981Y0045487D01*
X0144981Y0044888D02*
X0172156Y0044888D01*
X0172156Y0044290D02*
X0144981Y0044290D01*
X0144981Y0043691D02*
X0167599Y0043691D01*
X0166657Y0043093D02*
X0144981Y0043093D01*
X0144981Y0042494D02*
X0166102Y0042494D01*
X0165719Y0041896D02*
X0144981Y0041896D01*
X0144981Y0041297D02*
X0165463Y0041297D01*
X0165311Y0040699D02*
X0144981Y0040699D01*
X0144981Y0040100D02*
X0169023Y0040100D01*
X0169023Y0039700D02*
X0165251Y0039700D01*
X0165251Y0039680D01*
X0165351Y0039047D01*
X0165549Y0038437D01*
X0165840Y0037866D01*
X0166217Y0037347D01*
X0166670Y0036894D01*
X0167189Y0036518D01*
X0167760Y0036227D01*
X0168369Y0036029D01*
X0169002Y0035928D01*
X0169023Y0035928D01*
X0169023Y0039700D01*
X0169023Y0039502D02*
X0169623Y0039502D01*
X0169623Y0038903D02*
X0169023Y0038903D01*
X0169023Y0038305D02*
X0169623Y0038305D01*
X0169623Y0037706D02*
X0169023Y0037706D01*
X0169023Y0037108D02*
X0169623Y0037108D01*
X0169623Y0036509D02*
X0169023Y0036509D01*
X0167849Y0035312D02*
X0144981Y0035312D01*
X0144981Y0034714D02*
X0166405Y0034714D01*
X0165700Y0034115D02*
X0144981Y0034115D01*
X0144981Y0033517D02*
X0165101Y0033517D01*
X0164609Y0032918D02*
X0144981Y0032918D01*
X0144981Y0032320D02*
X0164361Y0032320D01*
X0164113Y0031721D02*
X0144981Y0031721D01*
X0145140Y0031123D02*
X0163865Y0031123D01*
X0163851Y0030524D02*
X0145738Y0030524D01*
X0146337Y0029926D02*
X0163851Y0029926D01*
X0163851Y0029327D02*
X0146935Y0029327D01*
X0147534Y0028729D02*
X0163927Y0028729D01*
X0164175Y0028130D02*
X0148133Y0028130D01*
X0148731Y0027532D02*
X0164423Y0027532D01*
X0164671Y0026933D02*
X0149330Y0026933D01*
X0149928Y0026334D02*
X0165250Y0026334D01*
X0165849Y0025736D02*
X0150527Y0025736D01*
X0151125Y0025137D02*
X0166764Y0025137D01*
X0166124Y0024539D02*
X0151724Y0024539D01*
X0152322Y0023940D02*
X0165525Y0023940D01*
X0164927Y0023342D02*
X0152921Y0023342D01*
X0144981Y0035911D02*
X0170858Y0035911D01*
X0171440Y0036509D02*
X0171457Y0036509D01*
X0169623Y0040699D02*
X0169023Y0040699D01*
X0169023Y0041297D02*
X0169623Y0041297D01*
X0169623Y0041896D02*
X0169023Y0041896D01*
X0169023Y0042494D02*
X0169623Y0042494D01*
X0169623Y0043093D02*
X0169023Y0043093D01*
X0169023Y0043691D02*
X0169623Y0043691D01*
X0171047Y0043691D02*
X0172156Y0043691D01*
X0172156Y0043093D02*
X0171988Y0043093D01*
X0165279Y0039502D02*
X0144981Y0039502D01*
X0144981Y0038903D02*
X0165398Y0038903D01*
X0165617Y0038305D02*
X0144981Y0038305D01*
X0144981Y0037706D02*
X0165957Y0037706D01*
X0166457Y0037108D02*
X0144981Y0037108D01*
X0144981Y0036509D02*
X0167205Y0036509D01*
X0171753Y0053268D02*
X0172156Y0053268D01*
X0137294Y0053268D02*
X0137107Y0053268D01*
X0137294Y0053132D02*
X0136811Y0053482D01*
X0136240Y0053773D01*
X0135631Y0053971D01*
X0134998Y0054072D01*
X0134977Y0054072D01*
X0134977Y0050300D01*
X0134377Y0050300D01*
X0134377Y0054072D01*
X0134357Y0054072D01*
X0133724Y0053971D01*
X0133114Y0053773D01*
X0132543Y0053482D01*
X0132025Y0053106D01*
X0131844Y0052925D01*
X0131844Y0055251D01*
X0133589Y0054528D01*
X0135766Y0054528D01*
X0137294Y0055161D01*
X0137294Y0053132D01*
X0137294Y0053866D02*
X0135955Y0053866D01*
X0134977Y0053866D02*
X0134377Y0053866D01*
X0134377Y0053268D02*
X0134977Y0053268D01*
X0134977Y0052669D02*
X0134377Y0052669D01*
X0134377Y0052070D02*
X0134977Y0052070D01*
X0134977Y0051472D02*
X0134377Y0051472D01*
X0134377Y0050873D02*
X0134977Y0050873D01*
X0134977Y0049700D02*
X0134977Y0045928D01*
X0134998Y0045928D01*
X0135631Y0046029D01*
X0136240Y0046227D01*
X0136811Y0046518D01*
X0137294Y0046868D01*
X0137294Y0043132D01*
X0136811Y0043482D01*
X0136240Y0043773D01*
X0135631Y0043971D01*
X0134998Y0044072D01*
X0134977Y0044072D01*
X0134977Y0040300D01*
X0134377Y0040300D01*
X0134377Y0044072D01*
X0134357Y0044072D01*
X0133724Y0043971D01*
X0133114Y0043773D01*
X0132543Y0043482D01*
X0132025Y0043106D01*
X0131844Y0042925D01*
X0131844Y0047075D01*
X0132025Y0046894D01*
X0132543Y0046518D01*
X0133114Y0046227D01*
X0133724Y0046029D01*
X0134357Y0045928D01*
X0134377Y0045928D01*
X0134377Y0049700D01*
X0134977Y0049700D01*
X0134977Y0049676D02*
X0134377Y0049676D01*
X0134377Y0049078D02*
X0134977Y0049078D01*
X0134977Y0048479D02*
X0134377Y0048479D01*
X0134377Y0047881D02*
X0134977Y0047881D01*
X0134977Y0047282D02*
X0134377Y0047282D01*
X0134377Y0046684D02*
X0134977Y0046684D01*
X0134977Y0046085D02*
X0134377Y0046085D01*
X0133549Y0046085D02*
X0131844Y0046085D01*
X0131844Y0045487D02*
X0137294Y0045487D01*
X0137294Y0046085D02*
X0135805Y0046085D01*
X0137040Y0046684D02*
X0137294Y0046684D01*
X0137294Y0044888D02*
X0131844Y0044888D01*
X0131844Y0044290D02*
X0137294Y0044290D01*
X0137294Y0043691D02*
X0136401Y0043691D01*
X0134977Y0043691D02*
X0134377Y0043691D01*
X0134377Y0043093D02*
X0134977Y0043093D01*
X0134977Y0042494D02*
X0134377Y0042494D01*
X0134377Y0041896D02*
X0134977Y0041896D01*
X0134977Y0041297D02*
X0134377Y0041297D01*
X0134377Y0040699D02*
X0134977Y0040699D01*
X0134977Y0039700D02*
X0134977Y0035928D01*
X0134998Y0035928D01*
X0135631Y0036029D01*
X0136240Y0036227D01*
X0136811Y0036518D01*
X0137294Y0036868D01*
X0137294Y0034839D01*
X0135766Y0035472D01*
X0133589Y0035472D01*
X0133583Y0035469D01*
X0132512Y0036540D01*
X0132543Y0036518D01*
X0133114Y0036227D01*
X0133724Y0036029D01*
X0134357Y0035928D01*
X0134377Y0035928D01*
X0134377Y0039700D01*
X0134977Y0039700D01*
X0134977Y0039502D02*
X0134377Y0039502D01*
X0134377Y0038903D02*
X0134977Y0038903D01*
X0134977Y0038305D02*
X0134377Y0038305D01*
X0134377Y0037706D02*
X0134977Y0037706D01*
X0134977Y0037108D02*
X0134377Y0037108D01*
X0134377Y0036509D02*
X0134977Y0036509D01*
X0136151Y0035312D02*
X0137294Y0035312D01*
X0137294Y0035911D02*
X0133142Y0035911D01*
X0132560Y0036509D02*
X0132543Y0036509D01*
X0136795Y0036509D02*
X0137294Y0036509D01*
X0132953Y0043691D02*
X0131844Y0043691D01*
X0131844Y0043093D02*
X0132012Y0043093D01*
X0131844Y0046684D02*
X0132314Y0046684D01*
X0132247Y0053268D02*
X0131844Y0053268D01*
X0131844Y0053866D02*
X0133399Y0053866D01*
X0132298Y0055063D02*
X0131844Y0055063D01*
X0131844Y0054465D02*
X0137294Y0054465D01*
X0137294Y0055063D02*
X0137056Y0055063D01*
X0123794Y0055063D02*
X0123702Y0055063D01*
X0123794Y0055101D02*
X0123794Y0053238D01*
X0123457Y0053482D01*
X0122886Y0053773D01*
X0122276Y0053971D01*
X0121643Y0054072D01*
X0121623Y0054072D01*
X0121623Y0050300D01*
X0121023Y0050300D01*
X0121023Y0054072D01*
X0121002Y0054072D01*
X0120369Y0053971D01*
X0119760Y0053773D01*
X0119189Y0053482D01*
X0118670Y0053106D01*
X0118217Y0052652D01*
X0117840Y0052134D01*
X0117549Y0051563D01*
X0117351Y0050953D01*
X0117251Y0050320D01*
X0117251Y0050300D01*
X0121023Y0050300D01*
X0121023Y0049700D01*
X0121623Y0049700D01*
X0121623Y0045928D01*
X0121643Y0045928D01*
X0122276Y0046029D01*
X0122886Y0046227D01*
X0123457Y0046518D01*
X0123794Y0046762D01*
X0123794Y0043238D01*
X0123457Y0043482D01*
X0122886Y0043773D01*
X0122276Y0043971D01*
X0121643Y0044072D01*
X0121623Y0044072D01*
X0121623Y0040300D01*
X0121023Y0040300D01*
X0121023Y0044072D01*
X0121002Y0044072D01*
X0120369Y0043971D01*
X0119760Y0043773D01*
X0119189Y0043482D01*
X0118670Y0043106D01*
X0118217Y0042652D01*
X0117840Y0042134D01*
X0117549Y0041563D01*
X0117351Y0040953D01*
X0117251Y0040320D01*
X0117251Y0040300D01*
X0121023Y0040300D01*
X0121023Y0039700D01*
X0121623Y0039700D01*
X0121623Y0035928D01*
X0121643Y0035928D01*
X0122276Y0036029D01*
X0122886Y0036227D01*
X0123457Y0036518D01*
X0123488Y0036540D01*
X0122417Y0035469D01*
X0122411Y0035472D01*
X0120234Y0035472D01*
X0118223Y0034639D01*
X0116684Y0033099D01*
X0115851Y0031088D01*
X0115851Y0028912D01*
X0116684Y0026901D01*
X0118223Y0025361D01*
X0119096Y0025000D01*
X0118223Y0024639D01*
X0116684Y0023099D01*
X0116682Y0023094D01*
X0104169Y0023094D01*
X0098481Y0028781D01*
X0098481Y0073919D01*
X0104152Y0068248D01*
X0105022Y0067377D01*
X0106159Y0066906D01*
X0116682Y0066906D01*
X0116684Y0066901D01*
X0118223Y0065361D01*
X0119096Y0065000D01*
X0118223Y0064639D01*
X0116684Y0063099D01*
X0115851Y0061088D01*
X0115851Y0058912D01*
X0116684Y0056901D01*
X0118223Y0055361D01*
X0120234Y0054528D01*
X0122411Y0054528D01*
X0123794Y0055101D01*
X0123794Y0054465D02*
X0098481Y0054465D01*
X0098481Y0055063D02*
X0118944Y0055063D01*
X0117923Y0055662D02*
X0098481Y0055662D01*
X0098481Y0056260D02*
X0117325Y0056260D01*
X0116726Y0056859D02*
X0098481Y0056859D01*
X0098481Y0057457D02*
X0116454Y0057457D01*
X0116206Y0058056D02*
X0098481Y0058056D01*
X0098481Y0058654D02*
X0115958Y0058654D01*
X0115851Y0059253D02*
X0098481Y0059253D01*
X0098481Y0059851D02*
X0115851Y0059851D01*
X0115851Y0060450D02*
X0098481Y0060450D01*
X0098481Y0061048D02*
X0115851Y0061048D01*
X0116082Y0061647D02*
X0098481Y0061647D01*
X0098481Y0062245D02*
X0116330Y0062245D01*
X0116578Y0062844D02*
X0098481Y0062844D01*
X0098481Y0063442D02*
X0117027Y0063442D01*
X0117625Y0064041D02*
X0098481Y0064041D01*
X0098481Y0064639D02*
X0118225Y0064639D01*
X0118522Y0065238D02*
X0098481Y0065238D01*
X0098481Y0065836D02*
X0117748Y0065836D01*
X0117150Y0066435D02*
X0098481Y0066435D01*
X0098481Y0067033D02*
X0105853Y0067033D01*
X0104768Y0067632D02*
X0098481Y0067632D01*
X0098481Y0068230D02*
X0104169Y0068230D01*
X0103571Y0068829D02*
X0098481Y0068829D01*
X0098481Y0069427D02*
X0102972Y0069427D01*
X0102374Y0070026D02*
X0098481Y0070026D01*
X0098481Y0070624D02*
X0101775Y0070624D01*
X0101177Y0071223D02*
X0098481Y0071223D01*
X0098481Y0071821D02*
X0100578Y0071821D01*
X0099980Y0072420D02*
X0098481Y0072420D01*
X0098481Y0073018D02*
X0099381Y0073018D01*
X0098783Y0073617D02*
X0098481Y0073617D01*
X0090906Y0056491D02*
X0090906Y0033509D01*
X0089777Y0034639D01*
X0087766Y0035472D01*
X0085589Y0035472D01*
X0085583Y0035469D01*
X0084512Y0036540D01*
X0084543Y0036518D01*
X0085114Y0036227D01*
X0085724Y0036029D01*
X0086357Y0035928D01*
X0086377Y0035928D01*
X0086377Y0039700D01*
X0082606Y0039700D01*
X0082606Y0039680D01*
X0082706Y0039047D01*
X0082904Y0038437D01*
X0083195Y0037866D01*
X0083217Y0037835D01*
X0082231Y0038821D01*
X0082231Y0053190D01*
X0081760Y0054327D01*
X0080888Y0055199D01*
X0080888Y0061414D01*
X0080998Y0061304D01*
X0081208Y0061094D01*
X0081206Y0061088D01*
X0081206Y0058912D01*
X0082039Y0056901D01*
X0083578Y0055361D01*
X0085589Y0054528D01*
X0087766Y0054528D01*
X0089777Y0055361D01*
X0090906Y0056491D01*
X0090906Y0056260D02*
X0090675Y0056260D01*
X0090906Y0055662D02*
X0090077Y0055662D01*
X0090906Y0055063D02*
X0089056Y0055063D01*
X0088240Y0053773D02*
X0087631Y0053971D01*
X0086998Y0054072D01*
X0086977Y0054072D01*
X0086977Y0050300D01*
X0086377Y0050300D01*
X0086377Y0049700D01*
X0082606Y0049700D01*
X0082606Y0049680D01*
X0082706Y0049047D01*
X0082904Y0048437D01*
X0083195Y0047866D01*
X0083571Y0047347D01*
X0084025Y0046894D01*
X0084543Y0046518D01*
X0085114Y0046227D01*
X0085724Y0046029D01*
X0086357Y0045928D01*
X0086377Y0045928D01*
X0086377Y0049700D01*
X0086977Y0049700D01*
X0086977Y0045928D01*
X0086998Y0045928D01*
X0087631Y0046029D01*
X0088240Y0046227D01*
X0088811Y0046518D01*
X0089330Y0046894D01*
X0089783Y0047347D01*
X0090160Y0047866D01*
X0090451Y0048437D01*
X0090649Y0049047D01*
X0090749Y0049680D01*
X0090749Y0049700D01*
X0086977Y0049700D01*
X0086977Y0050300D01*
X0090749Y0050300D01*
X0090749Y0050320D01*
X0090649Y0050953D01*
X0090451Y0051563D01*
X0090160Y0052134D01*
X0089783Y0052652D01*
X0089330Y0053106D01*
X0088811Y0053482D01*
X0088240Y0053773D01*
X0087955Y0053866D02*
X0090906Y0053866D01*
X0090906Y0053268D02*
X0089107Y0053268D01*
X0089766Y0052669D02*
X0090906Y0052669D01*
X0090906Y0052070D02*
X0090192Y0052070D01*
X0090480Y0051472D02*
X0090906Y0051472D01*
X0090906Y0050873D02*
X0090661Y0050873D01*
X0090906Y0050275D02*
X0086977Y0050275D01*
X0086977Y0050873D02*
X0086377Y0050873D01*
X0086377Y0050300D02*
X0086377Y0054072D01*
X0086357Y0054072D01*
X0085724Y0053971D01*
X0085114Y0053773D01*
X0084543Y0053482D01*
X0084025Y0053106D01*
X0083571Y0052652D01*
X0083195Y0052134D01*
X0082904Y0051563D01*
X0082706Y0050953D01*
X0082606Y0050320D01*
X0082605Y0050300D01*
X0086377Y0050300D01*
X0086377Y0050275D02*
X0082231Y0050275D01*
X0082231Y0050873D02*
X0082693Y0050873D01*
X0082874Y0051472D02*
X0082231Y0051472D01*
X0082231Y0052070D02*
X0083162Y0052070D01*
X0083588Y0052669D02*
X0082231Y0052669D01*
X0082199Y0053268D02*
X0084247Y0053268D01*
X0085399Y0053866D02*
X0081951Y0053866D01*
X0081623Y0054465D02*
X0090906Y0054465D01*
X0086977Y0053866D02*
X0086377Y0053866D01*
X0086377Y0053268D02*
X0086977Y0053268D01*
X0086977Y0052669D02*
X0086377Y0052669D01*
X0086377Y0052070D02*
X0086977Y0052070D01*
X0086977Y0051472D02*
X0086377Y0051472D01*
X0086377Y0049676D02*
X0086977Y0049676D01*
X0086977Y0049078D02*
X0086377Y0049078D01*
X0086377Y0048479D02*
X0086977Y0048479D01*
X0086977Y0047881D02*
X0086377Y0047881D01*
X0086377Y0047282D02*
X0086977Y0047282D01*
X0086977Y0046684D02*
X0086377Y0046684D01*
X0086377Y0046085D02*
X0086977Y0046085D01*
X0087805Y0046085D02*
X0090906Y0046085D01*
X0090906Y0045487D02*
X0082231Y0045487D01*
X0082231Y0046085D02*
X0085549Y0046085D01*
X0084314Y0046684D02*
X0082231Y0046684D01*
X0082231Y0047282D02*
X0083637Y0047282D01*
X0083187Y0047881D02*
X0082231Y0047881D01*
X0082231Y0048479D02*
X0082890Y0048479D01*
X0082701Y0049078D02*
X0082231Y0049078D01*
X0082231Y0049676D02*
X0082606Y0049676D01*
X0081024Y0055063D02*
X0084298Y0055063D01*
X0083278Y0055662D02*
X0080888Y0055662D01*
X0080888Y0056260D02*
X0082679Y0056260D01*
X0082080Y0056859D02*
X0080888Y0056859D01*
X0080888Y0057457D02*
X0081808Y0057457D01*
X0081560Y0058056D02*
X0080888Y0058056D01*
X0080888Y0058654D02*
X0081312Y0058654D01*
X0081206Y0059253D02*
X0080888Y0059253D01*
X0080888Y0059851D02*
X0081206Y0059851D01*
X0081206Y0060450D02*
X0080888Y0060450D01*
X0080888Y0061048D02*
X0081206Y0061048D01*
X0073623Y0049700D02*
X0073623Y0045928D01*
X0073643Y0045928D01*
X0074276Y0046029D01*
X0074656Y0046152D01*
X0074656Y0043848D01*
X0074276Y0043971D01*
X0073643Y0044072D01*
X0073623Y0044072D01*
X0073623Y0040300D01*
X0073023Y0040300D01*
X0073023Y0044072D01*
X0073002Y0044072D01*
X0072369Y0043971D01*
X0071760Y0043773D01*
X0071189Y0043482D01*
X0070670Y0043106D01*
X0070217Y0042652D01*
X0069840Y0042134D01*
X0069549Y0041563D01*
X0069351Y0040953D01*
X0069251Y0040320D01*
X0069251Y0040300D01*
X0073023Y0040300D01*
X0073023Y0039700D01*
X0073623Y0039700D01*
X0073623Y0035928D01*
X0073643Y0035928D01*
X0074276Y0036029D01*
X0074656Y0036152D01*
X0074656Y0035370D01*
X0074411Y0035472D01*
X0072234Y0035472D01*
X0070223Y0034639D01*
X0068684Y0033099D01*
X0067851Y0031088D01*
X0067851Y0028912D01*
X0068684Y0026901D01*
X0070223Y0025361D01*
X0070331Y0025317D01*
X0070555Y0024776D01*
X0070223Y0024639D01*
X0068684Y0023099D01*
X0068682Y0023094D01*
X0056781Y0023094D01*
X0051094Y0028781D01*
X0051094Y0074031D01*
X0056877Y0068248D01*
X0057748Y0067377D01*
X0058885Y0066906D01*
X0068682Y0066906D01*
X0068684Y0066901D01*
X0070223Y0065361D01*
X0071096Y0065000D01*
X0070223Y0064639D01*
X0068684Y0063099D01*
X0067851Y0061088D01*
X0067851Y0058912D01*
X0068684Y0056901D01*
X0070223Y0055361D01*
X0070456Y0055265D01*
X0070700Y0054675D01*
X0071570Y0053804D01*
X0071655Y0053720D01*
X0071189Y0053482D01*
X0070670Y0053106D01*
X0070217Y0052652D01*
X0069840Y0052134D01*
X0069549Y0051563D01*
X0069351Y0050953D01*
X0069251Y0050320D01*
X0069251Y0050300D01*
X0073023Y0050300D01*
X0073023Y0049700D01*
X0073623Y0049700D01*
X0073623Y0049676D02*
X0073023Y0049676D01*
X0073023Y0049700D02*
X0073023Y0045928D01*
X0073002Y0045928D01*
X0072369Y0046029D01*
X0071760Y0046227D01*
X0071189Y0046518D01*
X0070670Y0046894D01*
X0070217Y0047347D01*
X0069840Y0047866D01*
X0069549Y0048437D01*
X0069351Y0049047D01*
X0069251Y0049680D01*
X0069251Y0049700D01*
X0073023Y0049700D01*
X0073023Y0050275D02*
X0051094Y0050275D01*
X0051094Y0050873D02*
X0069339Y0050873D01*
X0069520Y0051472D02*
X0051094Y0051472D01*
X0051094Y0052070D02*
X0069808Y0052070D01*
X0070234Y0052669D02*
X0051094Y0052669D01*
X0051094Y0053268D02*
X0070893Y0053268D01*
X0071509Y0053866D02*
X0051094Y0053866D01*
X0051094Y0054465D02*
X0070910Y0054465D01*
X0070539Y0055063D02*
X0051094Y0055063D01*
X0051094Y0055662D02*
X0069923Y0055662D01*
X0069325Y0056260D02*
X0051094Y0056260D01*
X0051094Y0056859D02*
X0068726Y0056859D01*
X0068454Y0057457D02*
X0051094Y0057457D01*
X0051094Y0058056D02*
X0068206Y0058056D01*
X0067958Y0058654D02*
X0051094Y0058654D01*
X0051094Y0059253D02*
X0067851Y0059253D01*
X0067851Y0059851D02*
X0051094Y0059851D01*
X0051094Y0060450D02*
X0067851Y0060450D01*
X0067851Y0061048D02*
X0051094Y0061048D01*
X0051094Y0061647D02*
X0068082Y0061647D01*
X0068330Y0062245D02*
X0051094Y0062245D01*
X0051094Y0062844D02*
X0068578Y0062844D01*
X0069027Y0063442D02*
X0051094Y0063442D01*
X0051094Y0064041D02*
X0069625Y0064041D01*
X0070225Y0064639D02*
X0051094Y0064639D01*
X0051094Y0065238D02*
X0070522Y0065238D01*
X0069748Y0065836D02*
X0051094Y0065836D01*
X0051094Y0066435D02*
X0069150Y0066435D01*
X0058578Y0067033D02*
X0051094Y0067033D01*
X0051094Y0067632D02*
X0057493Y0067632D01*
X0056895Y0068230D02*
X0051094Y0068230D01*
X0051094Y0068829D02*
X0056296Y0068829D01*
X0055698Y0069427D02*
X0051094Y0069427D01*
X0051094Y0070026D02*
X0055099Y0070026D01*
X0054501Y0070624D02*
X0051094Y0070624D01*
X0051094Y0071223D02*
X0053902Y0071223D01*
X0053303Y0071821D02*
X0051094Y0071821D01*
X0051094Y0072420D02*
X0052705Y0072420D01*
X0052106Y0073018D02*
X0051094Y0073018D01*
X0051094Y0073617D02*
X0051508Y0073617D01*
X0043406Y0057119D02*
X0043406Y0032881D01*
X0043316Y0033099D01*
X0041777Y0034639D01*
X0039766Y0035472D01*
X0037589Y0035472D01*
X0037583Y0035469D01*
X0036512Y0036540D01*
X0036543Y0036518D01*
X0037114Y0036227D01*
X0037724Y0036029D01*
X0038357Y0035928D01*
X0038377Y0035928D01*
X0038377Y0039700D01*
X0034606Y0039700D01*
X0034606Y0039680D01*
X0034706Y0039047D01*
X0034904Y0038437D01*
X0035195Y0037866D01*
X0035217Y0037835D01*
X0026300Y0046752D01*
X0025430Y0047623D01*
X0024311Y0048086D01*
X0024637Y0048872D01*
X0024637Y0051128D01*
X0023774Y0053211D01*
X0023680Y0053305D01*
X0027281Y0056906D01*
X0034036Y0056906D01*
X0034039Y0056901D01*
X0035578Y0055361D01*
X0037589Y0054528D01*
X0039766Y0054528D01*
X0041777Y0055361D01*
X0043316Y0056901D01*
X0043406Y0057119D01*
X0043406Y0056859D02*
X0043274Y0056859D01*
X0043406Y0056260D02*
X0042675Y0056260D01*
X0042077Y0055662D02*
X0043406Y0055662D01*
X0043406Y0055063D02*
X0041056Y0055063D01*
X0040240Y0053773D02*
X0039631Y0053971D01*
X0038998Y0054072D01*
X0038977Y0054072D01*
X0038977Y0050300D01*
X0038377Y0050300D01*
X0038377Y0049700D01*
X0034606Y0049700D01*
X0034606Y0049680D01*
X0034706Y0049047D01*
X0034904Y0048437D01*
X0035195Y0047866D01*
X0035571Y0047347D01*
X0036025Y0046894D01*
X0036543Y0046518D01*
X0037114Y0046227D01*
X0037724Y0046029D01*
X0038357Y0045928D01*
X0038377Y0045928D01*
X0038377Y0049700D01*
X0038977Y0049700D01*
X0038977Y0045928D01*
X0038998Y0045928D01*
X0039631Y0046029D01*
X0040240Y0046227D01*
X0040811Y0046518D01*
X0041330Y0046894D01*
X0041783Y0047347D01*
X0042160Y0047866D01*
X0042451Y0048437D01*
X0042649Y0049047D01*
X0042749Y0049680D01*
X0042749Y0049700D01*
X0038977Y0049700D01*
X0038977Y0050300D01*
X0042749Y0050300D01*
X0042749Y0050320D01*
X0042649Y0050953D01*
X0042451Y0051563D01*
X0042160Y0052134D01*
X0041783Y0052652D01*
X0041330Y0053106D01*
X0040811Y0053482D01*
X0040240Y0053773D01*
X0039955Y0053866D02*
X0043406Y0053866D01*
X0043406Y0053268D02*
X0041107Y0053268D01*
X0041766Y0052669D02*
X0043406Y0052669D01*
X0043406Y0052070D02*
X0042192Y0052070D01*
X0042480Y0051472D02*
X0043406Y0051472D01*
X0043406Y0050873D02*
X0042661Y0050873D01*
X0043406Y0050275D02*
X0038977Y0050275D01*
X0038977Y0050873D02*
X0038377Y0050873D01*
X0038377Y0050300D02*
X0038377Y0054072D01*
X0038357Y0054072D01*
X0037724Y0053971D01*
X0037114Y0053773D01*
X0036543Y0053482D01*
X0036025Y0053106D01*
X0035571Y0052652D01*
X0035195Y0052134D01*
X0034904Y0051563D01*
X0034706Y0050953D01*
X0034606Y0050320D01*
X0034605Y0050300D01*
X0038377Y0050300D01*
X0038377Y0050275D02*
X0024637Y0050275D01*
X0024637Y0050873D02*
X0034693Y0050873D01*
X0034874Y0051472D02*
X0024494Y0051472D01*
X0024246Y0052070D02*
X0035162Y0052070D01*
X0035588Y0052669D02*
X0023998Y0052669D01*
X0023717Y0053268D02*
X0036247Y0053268D01*
X0037399Y0053866D02*
X0024241Y0053866D01*
X0024840Y0054465D02*
X0043406Y0054465D01*
X0038977Y0053866D02*
X0038377Y0053866D01*
X0038377Y0053268D02*
X0038977Y0053268D01*
X0038977Y0052669D02*
X0038377Y0052669D01*
X0038377Y0052070D02*
X0038977Y0052070D01*
X0038977Y0051472D02*
X0038377Y0051472D01*
X0038377Y0049676D02*
X0038977Y0049676D01*
X0038977Y0049078D02*
X0038377Y0049078D01*
X0038377Y0048479D02*
X0038977Y0048479D01*
X0038977Y0047881D02*
X0038377Y0047881D01*
X0038377Y0047282D02*
X0038977Y0047282D01*
X0038977Y0046684D02*
X0038377Y0046684D01*
X0038377Y0046085D02*
X0038977Y0046085D01*
X0039805Y0046085D02*
X0043406Y0046085D01*
X0043406Y0045487D02*
X0027565Y0045487D01*
X0026967Y0046085D02*
X0037549Y0046085D01*
X0036314Y0046684D02*
X0026368Y0046684D01*
X0025770Y0047282D02*
X0035637Y0047282D01*
X0035187Y0047881D02*
X0024806Y0047881D01*
X0024474Y0048479D02*
X0034890Y0048479D01*
X0034701Y0049078D02*
X0024637Y0049078D01*
X0024637Y0049676D02*
X0034606Y0049676D01*
X0036298Y0055063D02*
X0025438Y0055063D01*
X0026037Y0055662D02*
X0035278Y0055662D01*
X0034679Y0056260D02*
X0026635Y0056260D01*
X0027234Y0056859D02*
X0034080Y0056859D01*
X0042748Y0049676D02*
X0043406Y0049676D01*
X0043406Y0049078D02*
X0042654Y0049078D01*
X0042464Y0048479D02*
X0043406Y0048479D01*
X0043406Y0047881D02*
X0042167Y0047881D01*
X0041718Y0047282D02*
X0043406Y0047282D01*
X0043406Y0046684D02*
X0041040Y0046684D01*
X0043406Y0044888D02*
X0028164Y0044888D01*
X0028762Y0044290D02*
X0043406Y0044290D01*
X0043406Y0043691D02*
X0040401Y0043691D01*
X0040240Y0043773D02*
X0039631Y0043971D01*
X0038998Y0044072D01*
X0038977Y0044072D01*
X0038977Y0040300D01*
X0038377Y0040300D01*
X0038377Y0039700D01*
X0038977Y0039700D01*
X0038977Y0035928D01*
X0038998Y0035928D01*
X0039631Y0036029D01*
X0040240Y0036227D01*
X0040811Y0036518D01*
X0041330Y0036894D01*
X0041783Y0037347D01*
X0042160Y0037866D01*
X0042451Y0038437D01*
X0042649Y0039047D01*
X0042749Y0039680D01*
X0042749Y0039700D01*
X0038977Y0039700D01*
X0038977Y0040300D01*
X0042749Y0040300D01*
X0042749Y0040320D01*
X0042649Y0040953D01*
X0042451Y0041563D01*
X0042160Y0042134D01*
X0041783Y0042652D01*
X0041330Y0043106D01*
X0040811Y0043482D01*
X0040240Y0043773D01*
X0038977Y0043691D02*
X0038377Y0043691D01*
X0038377Y0044072D02*
X0038357Y0044072D01*
X0037724Y0043971D01*
X0037114Y0043773D01*
X0036543Y0043482D01*
X0036025Y0043106D01*
X0035571Y0042652D01*
X0035195Y0042134D01*
X0034904Y0041563D01*
X0034706Y0040953D01*
X0034606Y0040320D01*
X0034605Y0040300D01*
X0038377Y0040300D01*
X0038377Y0044072D01*
X0038377Y0043093D02*
X0038977Y0043093D01*
X0038977Y0042494D02*
X0038377Y0042494D01*
X0038377Y0041896D02*
X0038977Y0041896D01*
X0038977Y0041297D02*
X0038377Y0041297D01*
X0038377Y0040699D02*
X0038977Y0040699D01*
X0038977Y0040100D02*
X0043406Y0040100D01*
X0043406Y0039502D02*
X0042721Y0039502D01*
X0042602Y0038903D02*
X0043406Y0038903D01*
X0043406Y0038305D02*
X0042383Y0038305D01*
X0042043Y0037706D02*
X0043406Y0037706D01*
X0043406Y0037108D02*
X0041543Y0037108D01*
X0040795Y0036509D02*
X0043406Y0036509D01*
X0043406Y0035911D02*
X0037142Y0035911D01*
X0036560Y0036509D02*
X0036543Y0036509D01*
X0038377Y0036509D02*
X0038977Y0036509D01*
X0038977Y0037108D02*
X0038377Y0037108D01*
X0038377Y0037706D02*
X0038977Y0037706D01*
X0038977Y0038305D02*
X0038377Y0038305D01*
X0038377Y0038903D02*
X0038977Y0038903D01*
X0038977Y0039502D02*
X0038377Y0039502D01*
X0038377Y0040100D02*
X0032952Y0040100D01*
X0033551Y0039502D02*
X0034634Y0039502D01*
X0034752Y0038903D02*
X0034149Y0038903D01*
X0034748Y0038305D02*
X0034971Y0038305D01*
X0034665Y0040699D02*
X0032354Y0040699D01*
X0031755Y0041297D02*
X0034817Y0041297D01*
X0035073Y0041896D02*
X0031157Y0041896D01*
X0030558Y0042494D02*
X0035457Y0042494D01*
X0036012Y0043093D02*
X0029959Y0043093D01*
X0029361Y0043691D02*
X0036953Y0043691D01*
X0041343Y0043093D02*
X0043406Y0043093D01*
X0043406Y0042494D02*
X0041898Y0042494D01*
X0042281Y0041896D02*
X0043406Y0041896D01*
X0043406Y0041297D02*
X0042537Y0041297D01*
X0042689Y0040699D02*
X0043406Y0040699D01*
X0043406Y0035312D02*
X0040151Y0035312D01*
X0041595Y0034714D02*
X0043406Y0034714D01*
X0043406Y0034115D02*
X0042300Y0034115D01*
X0042899Y0033517D02*
X0043406Y0033517D01*
X0043391Y0032918D02*
X0043406Y0032918D01*
X0051094Y0032918D02*
X0068609Y0032918D01*
X0068361Y0032320D02*
X0051094Y0032320D01*
X0051094Y0031721D02*
X0068113Y0031721D01*
X0067865Y0031123D02*
X0051094Y0031123D01*
X0051094Y0030524D02*
X0067851Y0030524D01*
X0067851Y0029926D02*
X0051094Y0029926D01*
X0051094Y0029327D02*
X0067851Y0029327D01*
X0067927Y0028729D02*
X0051147Y0028729D01*
X0051745Y0028130D02*
X0068175Y0028130D01*
X0068423Y0027532D02*
X0052344Y0027532D01*
X0052942Y0026933D02*
X0068671Y0026933D01*
X0069250Y0026334D02*
X0053541Y0026334D01*
X0054139Y0025736D02*
X0069849Y0025736D01*
X0070405Y0025137D02*
X0054738Y0025137D01*
X0055336Y0024539D02*
X0070124Y0024539D01*
X0069525Y0023940D02*
X0055935Y0023940D01*
X0056533Y0023342D02*
X0068927Y0023342D01*
X0069101Y0033517D02*
X0051094Y0033517D01*
X0051094Y0034115D02*
X0069700Y0034115D01*
X0070405Y0034714D02*
X0051094Y0034714D01*
X0051094Y0035312D02*
X0071849Y0035312D01*
X0072369Y0036029D02*
X0073002Y0035928D01*
X0073023Y0035928D01*
X0073023Y0039700D01*
X0069251Y0039700D01*
X0069251Y0039680D01*
X0069351Y0039047D01*
X0069549Y0038437D01*
X0069840Y0037866D01*
X0070217Y0037347D01*
X0070670Y0036894D01*
X0071189Y0036518D01*
X0071760Y0036227D01*
X0072369Y0036029D01*
X0073023Y0036509D02*
X0073623Y0036509D01*
X0073623Y0037108D02*
X0073023Y0037108D01*
X0073023Y0037706D02*
X0073623Y0037706D01*
X0073623Y0038305D02*
X0073023Y0038305D01*
X0073023Y0038903D02*
X0073623Y0038903D01*
X0073623Y0039502D02*
X0073023Y0039502D01*
X0073023Y0040100D02*
X0051094Y0040100D01*
X0051094Y0039502D02*
X0069279Y0039502D01*
X0069398Y0038903D02*
X0051094Y0038903D01*
X0051094Y0038305D02*
X0069617Y0038305D01*
X0069957Y0037706D02*
X0051094Y0037706D01*
X0051094Y0037108D02*
X0070457Y0037108D01*
X0071205Y0036509D02*
X0051094Y0036509D01*
X0051094Y0035911D02*
X0074656Y0035911D01*
X0073623Y0040699D02*
X0073023Y0040699D01*
X0073023Y0041297D02*
X0073623Y0041297D01*
X0073623Y0041896D02*
X0073023Y0041896D01*
X0073023Y0042494D02*
X0073623Y0042494D01*
X0073623Y0043093D02*
X0073023Y0043093D01*
X0073023Y0043691D02*
X0073623Y0043691D01*
X0074656Y0044290D02*
X0051094Y0044290D01*
X0051094Y0044888D02*
X0074656Y0044888D01*
X0074656Y0045487D02*
X0051094Y0045487D01*
X0051094Y0046085D02*
X0072195Y0046085D01*
X0073023Y0046085D02*
X0073623Y0046085D01*
X0073623Y0046684D02*
X0073023Y0046684D01*
X0073023Y0047282D02*
X0073623Y0047282D01*
X0073623Y0047881D02*
X0073023Y0047881D01*
X0073023Y0048479D02*
X0073623Y0048479D01*
X0073623Y0049078D02*
X0073023Y0049078D01*
X0070960Y0046684D02*
X0051094Y0046684D01*
X0051094Y0047282D02*
X0070282Y0047282D01*
X0069833Y0047881D02*
X0051094Y0047881D01*
X0051094Y0048479D02*
X0069536Y0048479D01*
X0069346Y0049078D02*
X0051094Y0049078D01*
X0051094Y0049676D02*
X0069252Y0049676D01*
X0074451Y0046085D02*
X0074656Y0046085D01*
X0071599Y0043691D02*
X0051094Y0043691D01*
X0051094Y0043093D02*
X0070657Y0043093D01*
X0070102Y0042494D02*
X0051094Y0042494D01*
X0051094Y0041896D02*
X0069719Y0041896D01*
X0069463Y0041297D02*
X0051094Y0041297D01*
X0051094Y0040699D02*
X0069311Y0040699D01*
X0082231Y0040699D02*
X0082665Y0040699D01*
X0082706Y0040953D02*
X0082606Y0040320D01*
X0082605Y0040300D01*
X0086377Y0040300D01*
X0086377Y0039700D01*
X0086977Y0039700D01*
X0086977Y0035928D01*
X0086998Y0035928D01*
X0087631Y0036029D01*
X0088240Y0036227D01*
X0088811Y0036518D01*
X0089330Y0036894D01*
X0089783Y0037347D01*
X0090160Y0037866D01*
X0090451Y0038437D01*
X0090649Y0039047D01*
X0090749Y0039680D01*
X0090749Y0039700D01*
X0086977Y0039700D01*
X0086977Y0040300D01*
X0086377Y0040300D01*
X0086377Y0044072D01*
X0086357Y0044072D01*
X0085724Y0043971D01*
X0085114Y0043773D01*
X0084543Y0043482D01*
X0084025Y0043106D01*
X0083571Y0042652D01*
X0083195Y0042134D01*
X0082904Y0041563D01*
X0082706Y0040953D01*
X0082817Y0041297D02*
X0082231Y0041297D01*
X0082231Y0041896D02*
X0083073Y0041896D01*
X0083457Y0042494D02*
X0082231Y0042494D01*
X0082231Y0043093D02*
X0084012Y0043093D01*
X0084953Y0043691D02*
X0082231Y0043691D01*
X0082231Y0044290D02*
X0090906Y0044290D01*
X0090906Y0044888D02*
X0082231Y0044888D01*
X0082231Y0040100D02*
X0086377Y0040100D01*
X0086377Y0039502D02*
X0086977Y0039502D01*
X0086977Y0040100D02*
X0090906Y0040100D01*
X0090749Y0040300D02*
X0090749Y0040320D01*
X0090649Y0040953D01*
X0090451Y0041563D01*
X0090160Y0042134D01*
X0089783Y0042652D01*
X0089330Y0043106D01*
X0088811Y0043482D01*
X0088240Y0043773D01*
X0087631Y0043971D01*
X0086998Y0044072D01*
X0086977Y0044072D01*
X0086977Y0040300D01*
X0090749Y0040300D01*
X0090689Y0040699D02*
X0090906Y0040699D01*
X0090906Y0041297D02*
X0090537Y0041297D01*
X0090281Y0041896D02*
X0090906Y0041896D01*
X0090906Y0042494D02*
X0089898Y0042494D01*
X0089343Y0043093D02*
X0090906Y0043093D01*
X0090906Y0043691D02*
X0088401Y0043691D01*
X0086977Y0043691D02*
X0086377Y0043691D01*
X0086377Y0043093D02*
X0086977Y0043093D01*
X0086977Y0042494D02*
X0086377Y0042494D01*
X0086377Y0041896D02*
X0086977Y0041896D01*
X0086977Y0041297D02*
X0086377Y0041297D01*
X0086377Y0040699D02*
X0086977Y0040699D01*
X0086977Y0038903D02*
X0086377Y0038903D01*
X0086377Y0038305D02*
X0086977Y0038305D01*
X0086977Y0037706D02*
X0086377Y0037706D01*
X0086377Y0037108D02*
X0086977Y0037108D01*
X0086977Y0036509D02*
X0086377Y0036509D01*
X0085142Y0035911D02*
X0090906Y0035911D01*
X0090906Y0036509D02*
X0088795Y0036509D01*
X0089543Y0037108D02*
X0090906Y0037108D01*
X0090906Y0037706D02*
X0090043Y0037706D01*
X0090383Y0038305D02*
X0090906Y0038305D01*
X0090906Y0038903D02*
X0090602Y0038903D01*
X0090721Y0039502D02*
X0090906Y0039502D01*
X0090906Y0035312D02*
X0088151Y0035312D01*
X0089595Y0034714D02*
X0090906Y0034714D01*
X0090906Y0034115D02*
X0090300Y0034115D01*
X0090899Y0033517D02*
X0090906Y0033517D01*
X0084560Y0036509D02*
X0084543Y0036509D01*
X0082971Y0038305D02*
X0082748Y0038305D01*
X0082752Y0038903D02*
X0082231Y0038903D01*
X0082231Y0039502D02*
X0082634Y0039502D01*
X0089040Y0046684D02*
X0090906Y0046684D01*
X0090906Y0047282D02*
X0089718Y0047282D01*
X0090167Y0047881D02*
X0090906Y0047881D01*
X0090906Y0048479D02*
X0090464Y0048479D01*
X0090654Y0049078D02*
X0090906Y0049078D01*
X0090906Y0049676D02*
X0090748Y0049676D01*
X0098481Y0049676D02*
X0117252Y0049676D01*
X0117251Y0049680D02*
X0117351Y0049047D01*
X0117549Y0048437D01*
X0117840Y0047866D01*
X0118217Y0047347D01*
X0118670Y0046894D01*
X0119189Y0046518D01*
X0119760Y0046227D01*
X0120369Y0046029D01*
X0121002Y0045928D01*
X0121023Y0045928D01*
X0121023Y0049700D01*
X0117251Y0049700D01*
X0117251Y0049680D01*
X0117346Y0049078D02*
X0098481Y0049078D01*
X0098481Y0048479D02*
X0117536Y0048479D01*
X0117833Y0047881D02*
X0098481Y0047881D01*
X0098481Y0047282D02*
X0118282Y0047282D01*
X0118960Y0046684D02*
X0098481Y0046684D01*
X0098481Y0046085D02*
X0120195Y0046085D01*
X0121023Y0046085D02*
X0121623Y0046085D01*
X0121623Y0046684D02*
X0121023Y0046684D01*
X0121023Y0047282D02*
X0121623Y0047282D01*
X0121623Y0047881D02*
X0121023Y0047881D01*
X0121023Y0048479D02*
X0121623Y0048479D01*
X0121623Y0049078D02*
X0121023Y0049078D01*
X0121023Y0049676D02*
X0121623Y0049676D01*
X0121023Y0050275D02*
X0098481Y0050275D01*
X0098481Y0050873D02*
X0117339Y0050873D01*
X0117520Y0051472D02*
X0098481Y0051472D01*
X0098481Y0052070D02*
X0117808Y0052070D01*
X0118234Y0052669D02*
X0098481Y0052669D01*
X0098481Y0053268D02*
X0118893Y0053268D01*
X0120045Y0053866D02*
X0098481Y0053866D01*
X0098481Y0045487D02*
X0123794Y0045487D01*
X0123794Y0046085D02*
X0122451Y0046085D01*
X0123686Y0046684D02*
X0123794Y0046684D01*
X0123794Y0044888D02*
X0098481Y0044888D01*
X0098481Y0044290D02*
X0123794Y0044290D01*
X0123794Y0043691D02*
X0123047Y0043691D01*
X0121623Y0043691D02*
X0121023Y0043691D01*
X0121023Y0043093D02*
X0121623Y0043093D01*
X0121623Y0042494D02*
X0121023Y0042494D01*
X0121023Y0041896D02*
X0121623Y0041896D01*
X0121623Y0041297D02*
X0121023Y0041297D01*
X0121023Y0040699D02*
X0121623Y0040699D01*
X0121023Y0040100D02*
X0098481Y0040100D01*
X0098481Y0039502D02*
X0117279Y0039502D01*
X0117251Y0039680D02*
X0117351Y0039047D01*
X0117549Y0038437D01*
X0117840Y0037866D01*
X0118217Y0037347D01*
X0118670Y0036894D01*
X0119189Y0036518D01*
X0119760Y0036227D01*
X0120369Y0036029D01*
X0121002Y0035928D01*
X0121023Y0035928D01*
X0121023Y0039700D01*
X0117251Y0039700D01*
X0117251Y0039680D01*
X0117398Y0038903D02*
X0098481Y0038903D01*
X0098481Y0038305D02*
X0117617Y0038305D01*
X0117957Y0037706D02*
X0098481Y0037706D01*
X0098481Y0037108D02*
X0118457Y0037108D01*
X0119205Y0036509D02*
X0098481Y0036509D01*
X0098481Y0035911D02*
X0122858Y0035911D01*
X0123440Y0036509D02*
X0123457Y0036509D01*
X0121623Y0036509D02*
X0121023Y0036509D01*
X0121023Y0037108D02*
X0121623Y0037108D01*
X0121623Y0037706D02*
X0121023Y0037706D01*
X0121023Y0038305D02*
X0121623Y0038305D01*
X0121623Y0038903D02*
X0121023Y0038903D01*
X0121023Y0039502D02*
X0121623Y0039502D01*
X0118102Y0042494D02*
X0098481Y0042494D01*
X0098481Y0041896D02*
X0117719Y0041896D01*
X0117463Y0041297D02*
X0098481Y0041297D01*
X0098481Y0040699D02*
X0117311Y0040699D01*
X0118657Y0043093D02*
X0098481Y0043093D01*
X0098481Y0043691D02*
X0119599Y0043691D01*
X0121023Y0050873D02*
X0121623Y0050873D01*
X0121623Y0051472D02*
X0121023Y0051472D01*
X0121023Y0052070D02*
X0121623Y0052070D01*
X0121623Y0052669D02*
X0121023Y0052669D01*
X0121023Y0053268D02*
X0121623Y0053268D01*
X0121623Y0053866D02*
X0121023Y0053866D01*
X0122601Y0053866D02*
X0123794Y0053866D01*
X0123794Y0053268D02*
X0123753Y0053268D01*
X0119849Y0035312D02*
X0098481Y0035312D01*
X0098481Y0034714D02*
X0118405Y0034714D01*
X0117700Y0034115D02*
X0098481Y0034115D01*
X0098481Y0033517D02*
X0117101Y0033517D01*
X0116609Y0032918D02*
X0098481Y0032918D01*
X0098481Y0032320D02*
X0116361Y0032320D01*
X0116113Y0031721D02*
X0098481Y0031721D01*
X0098481Y0031123D02*
X0115865Y0031123D01*
X0115851Y0030524D02*
X0098481Y0030524D01*
X0098481Y0029926D02*
X0115851Y0029926D01*
X0115851Y0029327D02*
X0098481Y0029327D01*
X0098534Y0028729D02*
X0115927Y0028729D01*
X0116175Y0028130D02*
X0099133Y0028130D01*
X0099731Y0027532D02*
X0116423Y0027532D01*
X0116671Y0026933D02*
X0100330Y0026933D01*
X0100928Y0026334D02*
X0117250Y0026334D01*
X0117849Y0025736D02*
X0101527Y0025736D01*
X0102125Y0025137D02*
X0118764Y0025137D01*
X0118124Y0024539D02*
X0102724Y0024539D01*
X0103322Y0023940D02*
X0117525Y0023940D01*
X0116927Y0023342D02*
X0103921Y0023342D01*
X0092411Y0107094D02*
X0071589Y0107094D01*
X0072300Y0107805D01*
X0072300Y0112195D01*
X0069195Y0115300D01*
X0068815Y0115300D01*
X0070900Y0117385D01*
X0070900Y0118700D01*
X0067300Y0118700D01*
X0067300Y0119300D01*
X0066700Y0119300D01*
X0066700Y0122900D01*
X0065385Y0122900D01*
X0063100Y0120615D01*
X0063100Y0119300D01*
X0066700Y0119300D01*
X0066700Y0118700D01*
X0063100Y0118700D01*
X0063100Y0117385D01*
X0065185Y0115300D01*
X0064805Y0115300D01*
X0062598Y0113094D01*
X0059957Y0113094D01*
X0059006Y0112700D01*
X0055300Y0112700D01*
X0055300Y0113300D01*
X0054700Y0113300D01*
X0054700Y0120237D01*
X0054664Y0120237D01*
X0054000Y0120132D01*
X0053361Y0119924D01*
X0052763Y0119619D01*
X0052219Y0119224D01*
X0051744Y0118749D01*
X0051349Y0118206D01*
X0051044Y0117607D01*
X0050837Y0116968D01*
X0050731Y0116304D01*
X0050731Y0113300D01*
X0054700Y0113300D01*
X0054700Y0112700D01*
X0050731Y0112700D01*
X0050731Y0111644D01*
X0050668Y0111707D01*
X0050668Y0117096D01*
X0049806Y0119179D01*
X0048211Y0120774D01*
X0046128Y0121637D01*
X0043872Y0121637D01*
X0043094Y0121314D01*
X0043094Y0143686D01*
X0043872Y0143363D01*
X0046128Y0143363D01*
X0048211Y0144226D01*
X0048305Y0144320D01*
X0055248Y0137377D01*
X0056385Y0136906D01*
X0062598Y0136906D01*
X0064805Y0134700D01*
X0069195Y0134700D01*
X0072300Y0137805D01*
X0072300Y0142195D01*
X0069195Y0145300D01*
X0064805Y0145300D01*
X0062598Y0143094D01*
X0058281Y0143094D01*
X0056383Y0144993D01*
X0056639Y0145076D01*
X0057237Y0145381D01*
X0057781Y0145776D01*
X0058256Y0146251D01*
X0058651Y0146794D01*
X0058956Y0147393D01*
X0059163Y0148032D01*
X0059268Y0148696D01*
X0059268Y0151700D01*
X0055300Y0151700D01*
X0055300Y0152300D01*
X0054700Y0152300D01*
X0054700Y0159237D01*
X0054664Y0159237D01*
X0054000Y0159132D01*
X0053361Y0158924D01*
X0052763Y0158619D01*
X0052219Y0158224D01*
X0051744Y0157749D01*
X0051349Y0157206D01*
X0051044Y0156607D01*
X0050837Y0155968D01*
X0050731Y0155304D01*
X0050731Y0152300D01*
X0054700Y0152300D01*
X0054700Y0151700D01*
X0050731Y0151700D01*
X0050731Y0150644D01*
X0050668Y0150707D01*
X0050668Y0156096D01*
X0049806Y0158179D01*
X0048211Y0159774D01*
X0046128Y0160637D01*
X0043872Y0160637D01*
X0043094Y0160314D01*
X0043094Y0160331D01*
X0048281Y0165519D01*
X0064228Y0165519D01*
X0065365Y0165990D01*
X0066235Y0166860D01*
X0069752Y0170377D01*
X0070623Y0171248D01*
X0070623Y0171249D01*
X0071172Y0170700D01*
X0072653Y0170700D01*
X0072653Y0174700D01*
X0073253Y0174700D01*
X0073253Y0170700D01*
X0074734Y0170700D01*
X0077055Y0173021D01*
X0076906Y0172663D01*
X0076906Y0126385D01*
X0077377Y0125248D01*
X0078248Y0124377D01*
X0091700Y0110925D01*
X0091700Y0107805D01*
X0092411Y0107094D01*
X0092371Y0107134D02*
X0071629Y0107134D01*
X0072227Y0107732D02*
X0091773Y0107732D01*
X0091700Y0108331D02*
X0072300Y0108331D01*
X0072300Y0108929D02*
X0091700Y0108929D01*
X0091700Y0109528D02*
X0072300Y0109528D01*
X0072300Y0110126D02*
X0091700Y0110126D01*
X0091700Y0110725D02*
X0072300Y0110725D01*
X0072300Y0111323D02*
X0091302Y0111323D01*
X0090703Y0111922D02*
X0072300Y0111922D01*
X0071975Y0112520D02*
X0090105Y0112520D01*
X0089506Y0113119D02*
X0071377Y0113119D01*
X0070778Y0113717D02*
X0088908Y0113717D01*
X0088309Y0114316D02*
X0070180Y0114316D01*
X0069581Y0114914D02*
X0087711Y0114914D01*
X0087112Y0115513D02*
X0069028Y0115513D01*
X0069627Y0116111D02*
X0086514Y0116111D01*
X0085915Y0116710D02*
X0070225Y0116710D01*
X0070824Y0117308D02*
X0085317Y0117308D01*
X0084718Y0117907D02*
X0070900Y0117907D01*
X0070900Y0118505D02*
X0084120Y0118505D01*
X0083521Y0119104D02*
X0067300Y0119104D01*
X0067300Y0119300D02*
X0070900Y0119300D01*
X0070900Y0120615D01*
X0068615Y0122900D01*
X0067300Y0122900D01*
X0067300Y0119300D01*
X0067300Y0119702D02*
X0066700Y0119702D01*
X0066700Y0119104D02*
X0057901Y0119104D01*
X0057781Y0119224D02*
X0057237Y0119619D01*
X0056639Y0119924D01*
X0056000Y0120132D01*
X0055336Y0120237D01*
X0055300Y0120237D01*
X0055300Y0113300D01*
X0059268Y0113300D01*
X0059268Y0116304D01*
X0059163Y0116968D01*
X0058956Y0117607D01*
X0058651Y0118206D01*
X0058256Y0118749D01*
X0057781Y0119224D01*
X0057074Y0119702D02*
X0063100Y0119702D01*
X0063100Y0120301D02*
X0048684Y0120301D01*
X0049283Y0119702D02*
X0052926Y0119702D01*
X0052099Y0119104D02*
X0049837Y0119104D01*
X0050085Y0118505D02*
X0051567Y0118505D01*
X0051197Y0117907D02*
X0050333Y0117907D01*
X0050581Y0117308D02*
X0050947Y0117308D01*
X0050796Y0116710D02*
X0050668Y0116710D01*
X0050668Y0116111D02*
X0050731Y0116111D01*
X0050731Y0115513D02*
X0050668Y0115513D01*
X0050668Y0114914D02*
X0050731Y0114914D01*
X0050731Y0114316D02*
X0050668Y0114316D01*
X0050668Y0113717D02*
X0050731Y0113717D01*
X0050668Y0113119D02*
X0054700Y0113119D01*
X0054700Y0113717D02*
X0055300Y0113717D01*
X0055300Y0113119D02*
X0062623Y0113119D01*
X0063222Y0113717D02*
X0059268Y0113717D01*
X0059268Y0114316D02*
X0063820Y0114316D01*
X0064419Y0114914D02*
X0059268Y0114914D01*
X0059268Y0115513D02*
X0064972Y0115513D01*
X0064373Y0116111D02*
X0059268Y0116111D01*
X0059204Y0116710D02*
X0063775Y0116710D01*
X0063176Y0117308D02*
X0059053Y0117308D01*
X0058803Y0117907D02*
X0063100Y0117907D01*
X0063100Y0118505D02*
X0058433Y0118505D01*
X0055300Y0118505D02*
X0054700Y0118505D01*
X0054700Y0117907D02*
X0055300Y0117907D01*
X0055300Y0117308D02*
X0054700Y0117308D01*
X0054700Y0116710D02*
X0055300Y0116710D01*
X0055300Y0116111D02*
X0054700Y0116111D01*
X0054700Y0115513D02*
X0055300Y0115513D01*
X0055300Y0114914D02*
X0054700Y0114914D01*
X0054700Y0114316D02*
X0055300Y0114316D01*
X0055300Y0119104D02*
X0054700Y0119104D01*
X0054700Y0119702D02*
X0055300Y0119702D01*
X0050731Y0112520D02*
X0050668Y0112520D01*
X0050668Y0111922D02*
X0050731Y0111922D01*
X0047909Y0120899D02*
X0063384Y0120899D01*
X0063982Y0121498D02*
X0046464Y0121498D01*
X0043536Y0121498D02*
X0043094Y0121498D01*
X0043094Y0122096D02*
X0064581Y0122096D01*
X0065179Y0122695D02*
X0043094Y0122695D01*
X0043094Y0123293D02*
X0079332Y0123293D01*
X0079930Y0122695D02*
X0068821Y0122695D01*
X0069419Y0122096D02*
X0080529Y0122096D01*
X0081127Y0121498D02*
X0070018Y0121498D01*
X0070616Y0120899D02*
X0081726Y0120899D01*
X0082324Y0120301D02*
X0070900Y0120301D01*
X0070900Y0119702D02*
X0082923Y0119702D01*
X0078733Y0123892D02*
X0043094Y0123892D01*
X0043094Y0124490D02*
X0078134Y0124490D01*
X0077536Y0125089D02*
X0043094Y0125089D01*
X0043094Y0125687D02*
X0077195Y0125687D01*
X0076947Y0126286D02*
X0043094Y0126286D01*
X0043094Y0126884D02*
X0076906Y0126884D01*
X0076906Y0127483D02*
X0043094Y0127483D01*
X0043094Y0128081D02*
X0076906Y0128081D01*
X0076906Y0128680D02*
X0043094Y0128680D01*
X0043094Y0129278D02*
X0076906Y0129278D01*
X0076906Y0129877D02*
X0043094Y0129877D01*
X0043094Y0130475D02*
X0076906Y0130475D01*
X0076906Y0131074D02*
X0043094Y0131074D01*
X0043094Y0131672D02*
X0076906Y0131672D01*
X0076906Y0132271D02*
X0043094Y0132271D01*
X0043094Y0132870D02*
X0076906Y0132870D01*
X0076906Y0133468D02*
X0043094Y0133468D01*
X0043094Y0134067D02*
X0076906Y0134067D01*
X0076906Y0134665D02*
X0043094Y0134665D01*
X0043094Y0135264D02*
X0064241Y0135264D01*
X0063643Y0135862D02*
X0043094Y0135862D01*
X0043094Y0136461D02*
X0063044Y0136461D01*
X0069759Y0135264D02*
X0076906Y0135264D01*
X0076906Y0135862D02*
X0070357Y0135862D01*
X0070956Y0136461D02*
X0076906Y0136461D01*
X0076906Y0137059D02*
X0071554Y0137059D01*
X0072153Y0137658D02*
X0076906Y0137658D01*
X0076906Y0138256D02*
X0072300Y0138256D01*
X0072300Y0138855D02*
X0076906Y0138855D01*
X0076906Y0139453D02*
X0072300Y0139453D01*
X0072300Y0140052D02*
X0076906Y0140052D01*
X0076906Y0140650D02*
X0072300Y0140650D01*
X0072300Y0141249D02*
X0076906Y0141249D01*
X0076906Y0141847D02*
X0072300Y0141847D01*
X0072050Y0142446D02*
X0076906Y0142446D01*
X0076906Y0143044D02*
X0071451Y0143044D01*
X0070853Y0143643D02*
X0076906Y0143643D01*
X0076906Y0144241D02*
X0070254Y0144241D01*
X0069656Y0144840D02*
X0076906Y0144840D01*
X0076906Y0145438D02*
X0057316Y0145438D01*
X0058042Y0146037D02*
X0076906Y0146037D01*
X0076906Y0146635D02*
X0069151Y0146635D01*
X0068615Y0146100D02*
X0070900Y0148385D01*
X0070900Y0149700D01*
X0067300Y0149700D01*
X0067300Y0150300D01*
X0070900Y0150300D01*
X0070900Y0151615D01*
X0068615Y0153900D01*
X0067300Y0153900D01*
X0067300Y0150300D01*
X0066700Y0150300D01*
X0066700Y0153900D01*
X0065385Y0153900D01*
X0063100Y0151615D01*
X0063100Y0150300D01*
X0066700Y0150300D01*
X0066700Y0149700D01*
X0067300Y0149700D01*
X0067300Y0146100D01*
X0068615Y0146100D01*
X0067300Y0146635D02*
X0066700Y0146635D01*
X0066700Y0146100D02*
X0066700Y0149700D01*
X0063100Y0149700D01*
X0063100Y0148385D01*
X0065385Y0146100D01*
X0066700Y0146100D01*
X0066700Y0147234D02*
X0067300Y0147234D01*
X0067300Y0147832D02*
X0066700Y0147832D01*
X0066700Y0148431D02*
X0067300Y0148431D01*
X0067300Y0149029D02*
X0066700Y0149029D01*
X0066700Y0149628D02*
X0067300Y0149628D01*
X0067300Y0150226D02*
X0076906Y0150226D01*
X0076906Y0149628D02*
X0070900Y0149628D01*
X0070900Y0149029D02*
X0076906Y0149029D01*
X0076906Y0148431D02*
X0070900Y0148431D01*
X0070348Y0147832D02*
X0076906Y0147832D01*
X0076906Y0147234D02*
X0069749Y0147234D01*
X0070900Y0150825D02*
X0076906Y0150825D01*
X0076906Y0151423D02*
X0070900Y0151423D01*
X0070494Y0152022D02*
X0076906Y0152022D01*
X0076906Y0152620D02*
X0069895Y0152620D01*
X0069297Y0153219D02*
X0076906Y0153219D01*
X0076906Y0153817D02*
X0068698Y0153817D01*
X0067300Y0153817D02*
X0066700Y0153817D01*
X0066700Y0153219D02*
X0067300Y0153219D01*
X0067300Y0152620D02*
X0066700Y0152620D01*
X0066700Y0152022D02*
X0067300Y0152022D01*
X0067300Y0151423D02*
X0066700Y0151423D01*
X0066700Y0150825D02*
X0067300Y0150825D01*
X0066700Y0150226D02*
X0059268Y0150226D01*
X0059268Y0149628D02*
X0063100Y0149628D01*
X0063100Y0149029D02*
X0059268Y0149029D01*
X0059227Y0148431D02*
X0063100Y0148431D01*
X0063652Y0147832D02*
X0059099Y0147832D01*
X0058875Y0147234D02*
X0064251Y0147234D01*
X0064849Y0146635D02*
X0058535Y0146635D01*
X0056535Y0144840D02*
X0064344Y0144840D01*
X0063746Y0144241D02*
X0057134Y0144241D01*
X0057732Y0143643D02*
X0063147Y0143643D01*
X0063100Y0150825D02*
X0059268Y0150825D01*
X0059268Y0151423D02*
X0063100Y0151423D01*
X0063506Y0152022D02*
X0055300Y0152022D01*
X0055300Y0152300D02*
X0059268Y0152300D01*
X0059268Y0155304D01*
X0059163Y0155968D01*
X0058956Y0156607D01*
X0058651Y0157206D01*
X0058256Y0157749D01*
X0057781Y0158224D01*
X0057237Y0158619D01*
X0056639Y0158924D01*
X0056000Y0159132D01*
X0055336Y0159237D01*
X0055300Y0159237D01*
X0055300Y0152300D01*
X0055300Y0152620D02*
X0054700Y0152620D01*
X0054700Y0152022D02*
X0050668Y0152022D01*
X0050668Y0152620D02*
X0050731Y0152620D01*
X0050731Y0153219D02*
X0050668Y0153219D01*
X0050668Y0153817D02*
X0050731Y0153817D01*
X0050731Y0154416D02*
X0050668Y0154416D01*
X0050668Y0155014D02*
X0050731Y0155014D01*
X0050780Y0155613D02*
X0050668Y0155613D01*
X0050621Y0156211D02*
X0050916Y0156211D01*
X0051148Y0156810D02*
X0050373Y0156810D01*
X0050125Y0157408D02*
X0051497Y0157408D01*
X0052002Y0158007D02*
X0049877Y0158007D01*
X0049379Y0158605D02*
X0052744Y0158605D01*
X0054456Y0159204D02*
X0048781Y0159204D01*
X0048142Y0159803D02*
X0076906Y0159803D01*
X0076906Y0160401D02*
X0046697Y0160401D01*
X0044959Y0162197D02*
X0076906Y0162197D01*
X0076906Y0162795D02*
X0045558Y0162795D01*
X0046156Y0163394D02*
X0076906Y0163394D01*
X0076906Y0163992D02*
X0046755Y0163992D01*
X0047353Y0164591D02*
X0076906Y0164591D01*
X0076906Y0165189D02*
X0047952Y0165189D01*
X0044361Y0161598D02*
X0076906Y0161598D01*
X0076906Y0161000D02*
X0043762Y0161000D01*
X0043303Y0160401D02*
X0043164Y0160401D01*
X0050668Y0151423D02*
X0050731Y0151423D01*
X0050731Y0150825D02*
X0050668Y0150825D01*
X0054700Y0153219D02*
X0055300Y0153219D01*
X0055300Y0153817D02*
X0054700Y0153817D01*
X0054700Y0154416D02*
X0055300Y0154416D01*
X0055300Y0155014D02*
X0054700Y0155014D01*
X0054700Y0155613D02*
X0055300Y0155613D01*
X0055300Y0156211D02*
X0054700Y0156211D01*
X0054700Y0156810D02*
X0055300Y0156810D01*
X0055300Y0157408D02*
X0054700Y0157408D01*
X0054700Y0158007D02*
X0055300Y0158007D01*
X0055300Y0158605D02*
X0054700Y0158605D01*
X0054700Y0159204D02*
X0055300Y0159204D01*
X0055544Y0159204D02*
X0076906Y0159204D01*
X0076906Y0158605D02*
X0057256Y0158605D01*
X0057998Y0158007D02*
X0076906Y0158007D01*
X0076906Y0157408D02*
X0058503Y0157408D01*
X0058852Y0156810D02*
X0076906Y0156810D01*
X0076906Y0156211D02*
X0059084Y0156211D01*
X0059220Y0155613D02*
X0076906Y0155613D01*
X0076906Y0155014D02*
X0059268Y0155014D01*
X0059268Y0154416D02*
X0076906Y0154416D01*
X0076906Y0165788D02*
X0064877Y0165788D01*
X0065761Y0166386D02*
X0076906Y0166386D01*
X0076906Y0166985D02*
X0066360Y0166985D01*
X0066958Y0167583D02*
X0076906Y0167583D01*
X0076906Y0168182D02*
X0067557Y0168182D01*
X0068155Y0168780D02*
X0076906Y0168780D01*
X0076906Y0169379D02*
X0068754Y0169379D01*
X0069352Y0169977D02*
X0076906Y0169977D01*
X0076906Y0170576D02*
X0069951Y0170576D01*
X0069752Y0170377D02*
X0069752Y0170377D01*
X0070549Y0171174D02*
X0070697Y0171174D01*
X0072653Y0171174D02*
X0073253Y0171174D01*
X0073253Y0171773D02*
X0072653Y0171773D01*
X0072653Y0172371D02*
X0073253Y0172371D01*
X0073253Y0172970D02*
X0072653Y0172970D01*
X0072653Y0173568D02*
X0073253Y0173568D01*
X0073253Y0174167D02*
X0072653Y0174167D01*
X0075208Y0171174D02*
X0076906Y0171174D01*
X0076906Y0171773D02*
X0075807Y0171773D01*
X0076405Y0172371D02*
X0076906Y0172371D01*
X0077004Y0172970D02*
X0077034Y0172970D01*
X0065302Y0153817D02*
X0059268Y0153817D01*
X0059268Y0153219D02*
X0064703Y0153219D01*
X0064105Y0152620D02*
X0059268Y0152620D01*
X0049581Y0143044D02*
X0043094Y0143044D01*
X0043094Y0142446D02*
X0050179Y0142446D01*
X0050778Y0141847D02*
X0043094Y0141847D01*
X0043094Y0141249D02*
X0051376Y0141249D01*
X0051975Y0140650D02*
X0043094Y0140650D01*
X0043094Y0140052D02*
X0052573Y0140052D01*
X0053172Y0139453D02*
X0043094Y0139453D01*
X0043094Y0138855D02*
X0053770Y0138855D01*
X0054369Y0138256D02*
X0043094Y0138256D01*
X0043094Y0137658D02*
X0054967Y0137658D01*
X0056016Y0137059D02*
X0043094Y0137059D01*
X0043094Y0143643D02*
X0043197Y0143643D01*
X0046803Y0143643D02*
X0048982Y0143643D01*
X0048384Y0144241D02*
X0048226Y0144241D01*
X0066700Y0122695D02*
X0067300Y0122695D01*
X0067300Y0122096D02*
X0066700Y0122096D01*
X0066700Y0121498D02*
X0067300Y0121498D01*
X0067300Y0120899D02*
X0066700Y0120899D01*
X0066700Y0120301D02*
X0067300Y0120301D01*
X0004774Y0210077D02*
X0004600Y0210077D01*
X0004600Y0210676D02*
X0005022Y0210676D01*
X0005270Y0211274D02*
X0004600Y0211274D01*
X0004600Y0211873D02*
X0005518Y0211873D01*
X0005961Y0212472D02*
X0004600Y0212472D01*
X0004600Y0213070D02*
X0006559Y0213070D01*
X0007158Y0213669D02*
X0004600Y0213669D01*
X0004600Y0214267D02*
X0007756Y0214267D01*
X0008385Y0214866D02*
X0004600Y0214866D01*
X0004600Y0215464D02*
X0009830Y0215464D01*
X0011275Y0216063D02*
X0004600Y0216063D01*
X0004600Y0216661D02*
X0015690Y0216661D01*
X0016284Y0216063D02*
X0016289Y0216063D01*
X0015092Y0217260D02*
X0004600Y0217260D01*
X0004600Y0217858D02*
X0014872Y0217858D01*
X0014872Y0218457D02*
X0004600Y0218457D01*
X0004600Y0219055D02*
X0014872Y0219055D01*
X0014872Y0219654D02*
X0004600Y0219654D01*
X0004600Y0220252D02*
X0014002Y0220252D01*
X0013404Y0220851D02*
X0004600Y0220851D01*
X0004600Y0221449D02*
X0012805Y0221449D01*
X0012207Y0222048D02*
X0004600Y0222048D01*
X0004600Y0222646D02*
X0011608Y0222646D01*
X0011200Y0223245D02*
X0004600Y0223245D01*
X0004600Y0223843D02*
X0011200Y0223843D01*
X0011200Y0224442D02*
X0004600Y0224442D01*
X0004600Y0225040D02*
X0011200Y0225040D01*
X0011200Y0225639D02*
X0004600Y0225639D01*
X0004600Y0226237D02*
X0010987Y0226237D01*
X0010389Y0226836D02*
X0004600Y0226836D01*
X0004600Y0227434D02*
X0009790Y0227434D01*
X0009192Y0228033D02*
X0004600Y0228033D01*
X0004600Y0228631D02*
X0008593Y0228631D01*
X0007995Y0229230D02*
X0004600Y0229230D01*
X0004600Y0229828D02*
X0007396Y0229828D01*
X0007084Y0230427D02*
X0004600Y0230427D01*
X0004600Y0231025D02*
X0006836Y0231025D01*
X0006800Y0231624D02*
X0004600Y0231624D01*
X0004600Y0232222D02*
X0006800Y0232222D01*
X0006800Y0232821D02*
X0004600Y0232821D01*
X0004600Y0233419D02*
X0006800Y0233419D01*
X0006800Y0234018D02*
X0004600Y0234018D01*
X0004600Y0234616D02*
X0006800Y0234616D01*
X0006800Y0235215D02*
X0004600Y0235215D01*
X0004600Y0235813D02*
X0006800Y0235813D01*
X0006800Y0236412D02*
X0004600Y0236412D01*
X0004600Y0237010D02*
X0006800Y0237010D01*
X0006800Y0237609D02*
X0004600Y0237609D01*
X0004600Y0238208D02*
X0006800Y0238208D01*
X0006800Y0238806D02*
X0004600Y0238806D01*
X0004600Y0239405D02*
X0006800Y0239405D01*
X0006800Y0240003D02*
X0004600Y0240003D01*
X0004600Y0240602D02*
X0006800Y0240602D01*
X0006800Y0241200D02*
X0004600Y0241200D01*
X0004600Y0241799D02*
X0006800Y0241799D01*
X0006800Y0242397D02*
X0004600Y0242397D01*
X0004600Y0242996D02*
X0006800Y0242996D01*
X0006800Y0243594D02*
X0004600Y0243594D01*
X0004600Y0244193D02*
X0006800Y0244193D01*
X0006800Y0244791D02*
X0004600Y0244791D01*
X0004600Y0245390D02*
X0006800Y0245390D01*
X0006800Y0245988D02*
X0004600Y0245988D01*
X0004600Y0246587D02*
X0006800Y0246587D01*
X0006800Y0247185D02*
X0004600Y0247185D01*
X0004600Y0247784D02*
X0006800Y0247784D01*
X0006800Y0248382D02*
X0004600Y0248382D01*
X0004600Y0248981D02*
X0006800Y0248981D01*
X0006800Y0249579D02*
X0004600Y0249579D01*
X0004600Y0250178D02*
X0006800Y0250178D01*
X0006800Y0250776D02*
X0004600Y0250776D01*
X0004600Y0251375D02*
X0006800Y0251375D01*
X0006800Y0251973D02*
X0004600Y0251973D01*
X0004600Y0252572D02*
X0006800Y0252572D01*
X0006800Y0253170D02*
X0004600Y0253170D01*
X0004600Y0253769D02*
X0006800Y0253769D01*
X0006800Y0254367D02*
X0004600Y0254367D01*
X0004600Y0254966D02*
X0006800Y0254966D01*
X0006800Y0255564D02*
X0004600Y0255564D01*
X0004600Y0256163D02*
X0006800Y0256163D01*
X0006800Y0256761D02*
X0004600Y0256761D01*
X0004600Y0257360D02*
X0006800Y0257360D01*
X0006800Y0257958D02*
X0004600Y0257958D01*
X0004600Y0258557D02*
X0006800Y0258557D01*
X0006800Y0259155D02*
X0004600Y0259155D01*
X0004600Y0259754D02*
X0006800Y0259754D01*
X0006800Y0260352D02*
X0004600Y0260352D01*
X0004600Y0260951D02*
X0006800Y0260951D01*
X0006800Y0261549D02*
X0004600Y0261549D01*
X0004600Y0262148D02*
X0006800Y0262148D01*
X0006800Y0262746D02*
X0004600Y0262746D01*
X0004600Y0263345D02*
X0006800Y0263345D01*
X0006800Y0263943D02*
X0004600Y0263943D01*
X0004600Y0264542D02*
X0006800Y0264542D01*
X0006800Y0265141D02*
X0004600Y0265141D01*
X0004600Y0265739D02*
X0006800Y0265739D01*
X0006800Y0266338D02*
X0004600Y0266338D01*
X0004600Y0266936D02*
X0006800Y0266936D01*
X0006800Y0267535D02*
X0004600Y0267535D01*
X0004600Y0268133D02*
X0006800Y0268133D01*
X0006800Y0268732D02*
X0004600Y0268732D01*
X0004600Y0269330D02*
X0006800Y0269330D01*
X0006800Y0269929D02*
X0004600Y0269929D01*
X0004600Y0270527D02*
X0006800Y0270527D01*
X0006800Y0271126D02*
X0004600Y0271126D01*
X0004600Y0271724D02*
X0006800Y0271724D01*
X0006800Y0272323D02*
X0004600Y0272323D01*
X0004600Y0272921D02*
X0006800Y0272921D01*
X0006800Y0273520D02*
X0004600Y0273520D01*
X0004600Y0274118D02*
X0006800Y0274118D01*
X0006800Y0274717D02*
X0004600Y0274717D01*
X0004600Y0275315D02*
X0006800Y0275315D01*
X0006800Y0275914D02*
X0004600Y0275914D01*
X0004600Y0276512D02*
X0006800Y0276512D01*
X0006800Y0277111D02*
X0004600Y0277111D01*
X0004600Y0277709D02*
X0006800Y0277709D01*
X0006800Y0278308D02*
X0004600Y0278308D01*
X0004600Y0278906D02*
X0006800Y0278906D01*
X0006800Y0279505D02*
X0004600Y0279505D01*
X0004600Y0280103D02*
X0006800Y0280103D01*
X0006800Y0280702D02*
X0004600Y0280702D01*
X0004600Y0281300D02*
X0006800Y0281300D01*
X0006800Y0281899D02*
X0004600Y0281899D01*
X0004600Y0282497D02*
X0006800Y0282497D01*
X0006800Y0283096D02*
X0004600Y0283096D01*
X0004600Y0283694D02*
X0006800Y0283694D01*
X0006800Y0284293D02*
X0004600Y0284293D01*
X0004600Y0284891D02*
X0006800Y0284891D01*
X0006800Y0285490D02*
X0004600Y0285490D01*
X0004600Y0286088D02*
X0006800Y0286088D01*
X0006800Y0286687D02*
X0004600Y0286687D01*
X0004600Y0287285D02*
X0006800Y0287285D01*
X0006800Y0287884D02*
X0004600Y0287884D01*
X0004600Y0288482D02*
X0006800Y0288482D01*
X0006800Y0289081D02*
X0004600Y0289081D01*
X0004600Y0289679D02*
X0006800Y0289679D01*
X0006800Y0290278D02*
X0004600Y0290278D01*
X0004600Y0290877D02*
X0006800Y0290877D01*
X0006800Y0291475D02*
X0004600Y0291475D01*
X0004600Y0292074D02*
X0006800Y0292074D01*
X0006800Y0292672D02*
X0004600Y0292672D01*
X0004600Y0293271D02*
X0006800Y0293271D01*
X0006800Y0293869D02*
X0004600Y0293869D01*
X0004600Y0294468D02*
X0006800Y0294468D01*
X0006800Y0295066D02*
X0004600Y0295066D01*
X0004600Y0295665D02*
X0006800Y0295665D01*
X0006800Y0296263D02*
X0004600Y0296263D01*
X0004600Y0296862D02*
X0006800Y0296862D01*
X0006800Y0297460D02*
X0004600Y0297460D01*
X0004600Y0298059D02*
X0006800Y0298059D01*
X0006800Y0298657D02*
X0004600Y0298657D01*
X0004600Y0299256D02*
X0006800Y0299256D01*
X0006800Y0299854D02*
X0004600Y0299854D01*
X0004600Y0300453D02*
X0006800Y0300453D01*
X0006800Y0301051D02*
X0004600Y0301051D01*
X0004600Y0301650D02*
X0006800Y0301650D01*
X0006800Y0302248D02*
X0004600Y0302248D01*
X0004600Y0302847D02*
X0006800Y0302847D01*
X0006800Y0303445D02*
X0004600Y0303445D01*
X0004600Y0304044D02*
X0006800Y0304044D01*
X0006800Y0304642D02*
X0004600Y0304642D01*
X0004600Y0305241D02*
X0006800Y0305241D01*
X0006800Y0305839D02*
X0004600Y0305839D01*
X0004600Y0306438D02*
X0006800Y0306438D01*
X0006800Y0307036D02*
X0004600Y0307036D01*
X0004600Y0307635D02*
X0006800Y0307635D01*
X0006800Y0308233D02*
X0004600Y0308233D01*
X0004600Y0308832D02*
X0006881Y0308832D01*
X0007129Y0309430D02*
X0004600Y0309430D01*
X0004600Y0310029D02*
X0007503Y0310029D01*
X0008102Y0310627D02*
X0004600Y0310627D01*
X0004600Y0311226D02*
X0008700Y0311226D01*
X0009299Y0311824D02*
X0004600Y0311824D01*
X0004600Y0312423D02*
X0009897Y0312423D01*
X0010496Y0313021D02*
X0004600Y0313021D01*
X0004600Y0313620D02*
X0011094Y0313620D01*
X0011693Y0314218D02*
X0004600Y0314218D01*
X0004600Y0314817D02*
X0012291Y0314817D01*
X0012890Y0315415D02*
X0004600Y0315415D01*
X0004600Y0316014D02*
X0013488Y0316014D01*
X0014087Y0316612D02*
X0004600Y0316612D01*
X0004600Y0317211D02*
X0014686Y0317211D01*
X0015284Y0317810D02*
X0004600Y0317810D01*
X0004600Y0318408D02*
X0016512Y0318408D01*
X0004600Y0319007D02*
X0251306Y0319007D01*
X0251306Y0319605D02*
X0004600Y0319605D01*
X0025402Y0251723D02*
X0040950Y0236175D01*
X0040950Y0233200D01*
X0028363Y0233200D01*
X0027187Y0232713D01*
X0022925Y0228450D01*
X0020795Y0228450D01*
X0018695Y0230550D01*
X0015725Y0230550D01*
X0014925Y0231350D01*
X0015950Y0231350D01*
X0015950Y0234950D01*
X0016550Y0234950D01*
X0016550Y0235550D01*
X0015950Y0235550D01*
X0015950Y0239150D01*
X0014635Y0239150D01*
X0013200Y0237715D01*
X0013200Y0239622D01*
X0016770Y0239622D01*
X0019628Y0242479D01*
X0019628Y0244350D01*
X0021124Y0244350D01*
X0023200Y0245210D01*
X0024790Y0246800D01*
X0025650Y0248876D01*
X0025650Y0251124D01*
X0025402Y0251723D01*
X0025546Y0251375D02*
X0025750Y0251375D01*
X0025650Y0250776D02*
X0026349Y0250776D01*
X0026947Y0250178D02*
X0025650Y0250178D01*
X0025650Y0249579D02*
X0027546Y0249579D01*
X0028144Y0248981D02*
X0025650Y0248981D01*
X0025445Y0248382D02*
X0028743Y0248382D01*
X0029341Y0247784D02*
X0025197Y0247784D01*
X0024950Y0247185D02*
X0029940Y0247185D01*
X0030538Y0246587D02*
X0024577Y0246587D01*
X0023978Y0245988D02*
X0031137Y0245988D01*
X0031735Y0245390D02*
X0023380Y0245390D01*
X0022189Y0244791D02*
X0032334Y0244791D01*
X0032932Y0244193D02*
X0019628Y0244193D01*
X0019628Y0243594D02*
X0033531Y0243594D01*
X0034129Y0242996D02*
X0019628Y0242996D01*
X0019546Y0242397D02*
X0034728Y0242397D01*
X0035326Y0241799D02*
X0018947Y0241799D01*
X0018349Y0241200D02*
X0035925Y0241200D01*
X0036523Y0240602D02*
X0017750Y0240602D01*
X0017151Y0240003D02*
X0037122Y0240003D01*
X0037720Y0239405D02*
X0013200Y0239405D01*
X0013200Y0238806D02*
X0014291Y0238806D01*
X0013692Y0238208D02*
X0013200Y0238208D01*
X0015950Y0238208D02*
X0016550Y0238208D01*
X0016550Y0238806D02*
X0015950Y0238806D01*
X0016550Y0239150D02*
X0016550Y0235550D01*
X0020150Y0235550D01*
X0020150Y0236865D01*
X0017865Y0239150D01*
X0016550Y0239150D01*
X0016550Y0237609D02*
X0015950Y0237609D01*
X0015950Y0237010D02*
X0016550Y0237010D01*
X0016550Y0236412D02*
X0015950Y0236412D01*
X0015950Y0235813D02*
X0016550Y0235813D01*
X0016550Y0235215D02*
X0040950Y0235215D01*
X0040950Y0235813D02*
X0020150Y0235813D01*
X0020150Y0236412D02*
X0040713Y0236412D01*
X0040114Y0237010D02*
X0020005Y0237010D01*
X0019406Y0237609D02*
X0039516Y0237609D01*
X0038917Y0238208D02*
X0018808Y0238208D01*
X0018209Y0238806D02*
X0038319Y0238806D01*
X0040950Y0234616D02*
X0020150Y0234616D01*
X0020150Y0234950D02*
X0016550Y0234950D01*
X0016550Y0231350D01*
X0017865Y0231350D01*
X0020150Y0233635D01*
X0020150Y0234950D01*
X0020150Y0234018D02*
X0040950Y0234018D01*
X0040950Y0233419D02*
X0019935Y0233419D01*
X0019336Y0232821D02*
X0027448Y0232821D01*
X0026697Y0232222D02*
X0018738Y0232222D01*
X0018139Y0231624D02*
X0026098Y0231624D01*
X0025500Y0231025D02*
X0015250Y0231025D01*
X0015950Y0231624D02*
X0016550Y0231624D01*
X0016550Y0232222D02*
X0015950Y0232222D01*
X0015950Y0232821D02*
X0016550Y0232821D01*
X0016550Y0233419D02*
X0015950Y0233419D01*
X0015950Y0234018D02*
X0016550Y0234018D01*
X0016550Y0234616D02*
X0015950Y0234616D01*
X0018818Y0230427D02*
X0024901Y0230427D01*
X0024303Y0229828D02*
X0019417Y0229828D01*
X0020015Y0229230D02*
X0023704Y0229230D01*
X0023106Y0228631D02*
X0020614Y0228631D01*
X0085818Y0258557D02*
X0088679Y0258557D01*
X0087234Y0257958D02*
X0086417Y0257958D01*
X0113981Y0242996D02*
X0118608Y0242996D01*
X0119700Y0242996D02*
X0120300Y0242996D01*
X0120300Y0243594D02*
X0119700Y0243594D01*
X0119700Y0244193D02*
X0120300Y0244193D01*
X0120300Y0244791D02*
X0119700Y0244791D01*
X0119700Y0245390D02*
X0120300Y0245390D01*
X0120300Y0245988D02*
X0119700Y0245988D01*
X0119700Y0246587D02*
X0120300Y0246587D01*
X0120300Y0247185D02*
X0119700Y0247185D01*
X0119700Y0247784D02*
X0120300Y0247784D01*
X0120300Y0248382D02*
X0119700Y0248382D01*
X0119700Y0248981D02*
X0120300Y0248981D01*
X0115731Y0248981D02*
X0115668Y0248981D01*
X0115668Y0249579D02*
X0115731Y0249579D01*
X0115731Y0248382D02*
X0115668Y0248382D01*
X0115668Y0247784D02*
X0115731Y0247784D01*
X0115731Y0247185D02*
X0115668Y0247185D01*
X0115668Y0246587D02*
X0115749Y0246587D01*
X0115668Y0245988D02*
X0115851Y0245988D01*
X0116046Y0245390D02*
X0115455Y0245390D01*
X0115208Y0244791D02*
X0116352Y0244791D01*
X0116802Y0244193D02*
X0114960Y0244193D01*
X0114579Y0243594D02*
X0117469Y0243594D01*
X0113200Y0241200D02*
X0251306Y0241200D01*
X0251306Y0240602D02*
X0113200Y0240602D01*
X0113200Y0240003D02*
X0251306Y0240003D01*
X0251306Y0239405D02*
X0113200Y0239405D01*
X0131398Y0291475D02*
X0183444Y0291475D01*
X0186556Y0291475D02*
X0193444Y0291475D01*
X0191999Y0292074D02*
X0188001Y0292074D01*
X0188733Y0292672D02*
X0191267Y0292672D01*
X0190668Y0293271D02*
X0189332Y0293271D01*
X0189873Y0293869D02*
X0190127Y0293869D01*
X0196556Y0291475D02*
X0203444Y0291475D01*
X0201999Y0292074D02*
X0198001Y0292074D01*
X0198733Y0292672D02*
X0201267Y0292672D01*
X0200668Y0293271D02*
X0199332Y0293271D01*
X0199873Y0293869D02*
X0200127Y0293869D01*
X0207323Y0238208D02*
X0212677Y0238208D01*
X0211548Y0237609D02*
X0208452Y0237609D01*
X0209051Y0237010D02*
X0210949Y0237010D01*
X0210351Y0236412D02*
X0209649Y0236412D01*
X0217323Y0238208D02*
X0222677Y0238208D01*
X0221548Y0237609D02*
X0218452Y0237609D01*
X0219051Y0237010D02*
X0220949Y0237010D01*
X0220351Y0236412D02*
X0219649Y0236412D01*
X0219862Y0223843D02*
X0220138Y0223843D01*
X0220694Y0223245D02*
X0219306Y0223245D01*
X0218707Y0222646D02*
X0221293Y0222646D01*
X0222061Y0222048D02*
X0217939Y0222048D01*
X0225447Y0217260D02*
X0251306Y0217260D01*
X0239173Y0197509D02*
X0225390Y0197509D01*
X0225448Y0198107D02*
X0237729Y0198107D01*
X0236516Y0198706D02*
X0226047Y0198706D01*
X0226645Y0199304D02*
X0235917Y0199304D01*
X0235319Y0199903D02*
X0227244Y0199903D01*
X0227253Y0200501D02*
X0234720Y0200501D01*
X0234121Y0201100D02*
X0227253Y0201100D01*
X0227253Y0202297D02*
X0233540Y0202297D01*
X0233292Y0202895D02*
X0227253Y0202895D01*
X0227233Y0203494D02*
X0233044Y0203494D01*
X0232796Y0204092D02*
X0226634Y0204092D01*
X0226036Y0204691D02*
X0232548Y0204691D01*
X0232511Y0205289D02*
X0225437Y0205289D01*
X0223253Y0201698D02*
X0233788Y0201698D01*
X0220457Y0198107D02*
X0217428Y0198107D01*
X0218027Y0198706D02*
X0219859Y0198706D01*
X0219260Y0199304D02*
X0218625Y0199304D01*
X0218653Y0199903D02*
X0218662Y0199903D01*
X0218653Y0200501D02*
X0218653Y0200501D01*
X0218653Y0201100D02*
X0218653Y0201100D01*
X0219390Y0197509D02*
X0220610Y0197509D01*
X0220012Y0196910D02*
X0219988Y0196910D01*
X0197253Y0212472D02*
X0197253Y0212472D01*
X0197253Y0213070D02*
X0197253Y0213070D01*
X0197253Y0213669D02*
X0197058Y0213669D01*
X0221594Y0158605D02*
X0223796Y0158605D01*
X0222352Y0158007D02*
X0221594Y0158007D01*
X0226204Y0158605D02*
X0233796Y0158605D01*
X0232352Y0158007D02*
X0227648Y0158007D01*
X0228576Y0157408D02*
X0231424Y0157408D01*
X0230825Y0156810D02*
X0229175Y0156810D01*
X0229773Y0156211D02*
X0230226Y0156211D01*
X0230020Y0144241D02*
X0229980Y0144241D01*
X0229628Y0143643D02*
X0230372Y0143643D01*
X0230971Y0143044D02*
X0229029Y0143044D01*
X0228431Y0142446D02*
X0231569Y0142446D01*
X0232704Y0141847D02*
X0227296Y0141847D01*
X0223725Y0140650D02*
X0251306Y0140650D01*
X0251306Y0140052D02*
X0231717Y0140052D01*
X0232922Y0139453D02*
X0251306Y0139453D01*
X0251306Y0138855D02*
X0233521Y0138855D01*
X0223126Y0141249D02*
X0251306Y0141249D01*
X0222704Y0141847D02*
X0222528Y0141847D01*
X0124331Y0299256D02*
X0124268Y0299256D01*
X0124331Y0299854D02*
X0120300Y0299854D01*
X0115731Y0300453D02*
X0115668Y0300453D01*
X0115668Y0301051D02*
X0115731Y0301051D01*
X0115731Y0301650D02*
X0115668Y0301650D01*
X0115668Y0302248D02*
X0115731Y0302248D01*
X0115731Y0302847D02*
X0115668Y0302847D01*
X0115668Y0303445D02*
X0115754Y0303445D01*
X0115668Y0304044D02*
X0115861Y0304044D01*
X0116062Y0304642D02*
X0115442Y0304642D01*
X0115194Y0305241D02*
X0116375Y0305241D01*
X0116834Y0305839D02*
X0114946Y0305839D01*
X0114547Y0306438D02*
X0117513Y0306438D01*
X0121294Y0307036D02*
X0126051Y0307036D01*
X0125453Y0306438D02*
X0122487Y0306438D01*
X0123166Y0305839D02*
X0125054Y0305839D01*
X0124806Y0305241D02*
X0123625Y0305241D01*
X0123938Y0304642D02*
X0124558Y0304642D01*
X0124331Y0304044D02*
X0124139Y0304044D01*
X0124246Y0303445D02*
X0124331Y0303445D01*
X0124331Y0302847D02*
X0124268Y0302847D01*
X0124268Y0302248D02*
X0124331Y0302248D01*
X0124331Y0301650D02*
X0124268Y0301650D01*
X0124268Y0301051D02*
X0124331Y0301051D01*
X0124331Y0300453D02*
X0124268Y0300453D01*
X0100906Y0313620D02*
X0251306Y0313620D01*
X0251306Y0314218D02*
X0100307Y0314218D01*
X0099709Y0314817D02*
X0251306Y0314817D01*
X0251306Y0315415D02*
X0099110Y0315415D01*
X0098511Y0316014D02*
X0251306Y0316014D01*
X0251306Y0316612D02*
X0097913Y0316612D01*
X0097314Y0317211D02*
X0251306Y0317211D01*
X0251306Y0317810D02*
X0096716Y0317810D01*
X0095488Y0318408D02*
X0251306Y0318408D01*
D21*
X0223000Y0193000D03*
X0217000Y0193000D03*
X0211000Y0193000D03*
X0205000Y0193000D03*
X0199000Y0193000D03*
X0193000Y0193000D03*
X0185000Y0193000D03*
X0179000Y0193000D03*
X0173000Y0193000D03*
X0165000Y0193000D03*
X0159000Y0193000D03*
X0153000Y0193000D03*
X0147000Y0193000D03*
X0141000Y0193000D03*
X0135000Y0193000D03*
X0129000Y0193000D03*
X0123000Y0193000D03*
X0117000Y0193000D03*
X0111000Y0193000D03*
X0105000Y0193000D03*
X0099000Y0193000D03*
X0093000Y0193000D03*
X0083000Y0193000D03*
X0077000Y0193000D03*
X0069000Y0193000D03*
X0063000Y0193000D03*
X0057000Y0193000D03*
X0051000Y0193000D03*
X0045000Y0193000D03*
X0025000Y0180722D03*
X0021000Y0190000D03*
X0019750Y0219500D03*
X0014750Y0244500D03*
X0052500Y0235250D03*
X0054000Y0294750D03*
X0057250Y0300000D03*
X0014750Y0304750D03*
X0107750Y0219500D03*
X0107000Y0166750D03*
X0135000Y0156750D03*
X0149000Y0136250D03*
X0149000Y0129672D03*
X0138811Y0106206D03*
X0139000Y0101250D03*
X0135000Y0093000D03*
X0130500Y0103000D03*
X0125250Y0103250D03*
X0117750Y0087750D03*
X0100250Y0087750D03*
X0089000Y0093000D03*
X0082750Y0093000D03*
X0077794Y0093000D03*
X0073250Y0087750D03*
X0032000Y0084000D03*
X0032000Y0074500D03*
X0032000Y0065500D03*
X0080250Y0029750D03*
X0080000Y0019500D03*
X0128000Y0020000D03*
X0146672Y0087750D03*
X0146672Y0093000D03*
X0210000Y0074500D03*
X0216250Y0074500D03*
X0025000Y0130000D03*
D22*
X0030000Y0026000D02*
X0030000Y0018677D01*
X0038677Y0010000D01*
X0043877Y0004800D01*
X0081477Y0004800D01*
X0086677Y0010000D01*
X0100000Y0010000D01*
X0105200Y0004800D01*
X0133000Y0004800D01*
X0134677Y0006477D01*
X0134677Y0010000D01*
X0121323Y0080000D02*
X0121323Y0084177D01*
X0117750Y0087750D01*
X0100250Y0087750D01*
X0073250Y0087750D02*
X0073250Y0080073D01*
X0073323Y0080000D01*
X0032000Y0074500D02*
X0026500Y0080000D01*
X0016000Y0080000D01*
X0016000Y0070000D02*
X0027500Y0070000D01*
X0032000Y0065500D01*
X0016000Y0040000D02*
X0030000Y0026000D01*
X0016000Y0040000D02*
X0012250Y0040000D01*
X0007000Y0045250D01*
X0007000Y0095000D01*
X0025000Y0113000D01*
X0025000Y0130000D01*
X0025000Y0152000D01*
X0038000Y0165000D01*
X0038000Y0180047D01*
X0042953Y0185000D01*
X0032953Y0185000D01*
X0026000Y0185000D01*
X0021000Y0190000D01*
X0025000Y0180722D02*
X0030722Y0175000D01*
X0032953Y0175000D01*
X0024250Y0225250D02*
X0016500Y0225250D01*
X0010000Y0231750D01*
X0010000Y0270000D01*
X0010000Y0308000D01*
X0017250Y0315250D01*
X0063750Y0315250D01*
X0070000Y0309000D01*
X0070000Y0300000D01*
X0080000Y0290000D02*
X0050000Y0290000D01*
X0050000Y0270000D02*
X0100000Y0270000D01*
X0130000Y0300000D01*
X0110000Y0300000D02*
X0094750Y0315250D01*
X0063750Y0315250D01*
X0080000Y0290000D02*
X0090000Y0300000D01*
X0070000Y0250000D02*
X0070000Y0240000D01*
X0060000Y0230000D01*
X0029000Y0230000D01*
X0024250Y0225250D01*
X0060000Y0230000D02*
X0100000Y0230000D01*
X0175000Y0230000D01*
X0117000Y0193000D02*
X0117000Y0186751D01*
X0117053Y0186698D01*
X0117053Y0179100D01*
X0112953Y0175000D01*
X0112953Y0172703D01*
X0107000Y0166750D01*
X0149000Y0152000D02*
X0149000Y0136250D01*
X0149000Y0129672D02*
X0149000Y0113000D01*
X0146672Y0087750D02*
X0154422Y0080000D01*
X0169323Y0080000D01*
X0100000Y0230000D02*
X0110000Y0240000D01*
X0110000Y0250000D01*
X0020000Y0280000D02*
X0010000Y0270000D01*
D23*
X0020000Y0270000D02*
X0034000Y0270000D01*
X0040000Y0264000D01*
X0076000Y0264000D01*
X0090000Y0250000D01*
X0114000Y0266000D02*
X0044000Y0266000D01*
X0020000Y0290000D01*
X0020000Y0300000D02*
X0050000Y0300000D01*
X0054000Y0296000D01*
X0054000Y0294750D01*
X0057250Y0300000D02*
X0057250Y0302750D01*
X0050000Y0310000D01*
X0020000Y0310000D02*
X0014750Y0304750D01*
X0020000Y0260000D02*
X0021500Y0260000D01*
X0046250Y0235250D01*
X0052500Y0235250D02*
X0052500Y0247500D01*
X0050000Y0250000D01*
X0050000Y0260000D02*
X0020000Y0260000D01*
X0020000Y0250000D02*
X0020000Y0249750D01*
X0014750Y0244500D01*
X0019750Y0219500D02*
X0107750Y0219500D01*
X0118000Y0218000D02*
X0118000Y0210000D01*
X0115250Y0207250D01*
X0050250Y0207250D01*
X0048000Y0205000D01*
X0048000Y0199000D01*
X0045000Y0196000D01*
X0045000Y0193000D01*
X0048000Y0190000D01*
X0048000Y0180047D01*
X0042953Y0175000D01*
X0046000Y0170000D02*
X0035000Y0159000D01*
X0035000Y0152000D01*
X0040000Y0161613D02*
X0040000Y0118000D01*
X0035000Y0113000D01*
X0045000Y0113000D02*
X0051931Y0106069D01*
X0056641Y0106069D01*
X0060572Y0110000D01*
X0067000Y0110000D01*
X0053000Y0099725D02*
X0049500Y0096225D01*
X0049500Y0080000D01*
X0059500Y0070000D01*
X0073323Y0070000D01*
X0073323Y0060000D02*
X0073323Y0056427D01*
X0077750Y0052000D01*
X0077750Y0032250D01*
X0080250Y0029750D01*
X0086677Y0030000D02*
X0079137Y0037540D01*
X0079137Y0052575D01*
X0077794Y0053918D01*
X0077794Y0093000D01*
X0082750Y0093000D02*
X0082750Y0063927D01*
X0086677Y0060000D01*
X0086677Y0070000D02*
X0089000Y0070000D01*
X0092500Y0073500D01*
X0092500Y0093338D01*
X0097500Y0098338D01*
X0108262Y0098338D01*
X0115775Y0105851D01*
X0115775Y0159851D01*
X0121537Y0165613D01*
X0133575Y0165613D01*
X0139887Y0171925D01*
X0139887Y0171935D01*
X0142953Y0175000D01*
X0147000Y0179047D01*
X0147000Y0193000D01*
X0142953Y0191047D02*
X0142953Y0185000D01*
X0138500Y0180547D01*
X0138500Y0172500D01*
X0133000Y0167000D01*
X0120962Y0167000D01*
X0114387Y0160425D01*
X0114387Y0106425D01*
X0107687Y0099725D01*
X0053000Y0099725D01*
X0052075Y0101113D02*
X0048000Y0097038D01*
X0048000Y0027500D01*
X0055500Y0020000D01*
X0073323Y0020000D01*
X0073323Y0026177D02*
X0073323Y0030000D01*
X0073323Y0026177D02*
X0080000Y0019500D01*
X0078073Y0014750D02*
X0073323Y0010000D01*
X0078073Y0014750D02*
X0104750Y0014750D01*
X0109500Y0010000D01*
X0121323Y0010000D01*
X0128000Y0016677D01*
X0128000Y0020000D01*
X0134235Y0013765D01*
X0136237Y0013765D01*
X0140002Y0010000D01*
X0169323Y0010000D01*
X0169323Y0020000D02*
X0151887Y0020000D01*
X0141887Y0030000D01*
X0141887Y0095038D01*
X0146075Y0099225D01*
X0178187Y0099225D01*
X0185887Y0106925D01*
X0185887Y0165973D01*
X0189915Y0170000D01*
X0195500Y0170000D01*
X0198000Y0172500D01*
X0198000Y0177500D01*
X0202953Y0182453D01*
X0202953Y0185000D01*
X0202953Y0189047D01*
X0199000Y0193000D01*
X0198000Y0188000D02*
X0198000Y0180000D01*
X0193047Y0175047D01*
X0193000Y0175047D01*
X0192953Y0175000D01*
X0184500Y0166547D01*
X0184500Y0107500D01*
X0177613Y0100613D01*
X0145500Y0100613D01*
X0140387Y0095500D01*
X0140387Y0025710D01*
X0134677Y0020000D01*
X0134677Y0030000D02*
X0128750Y0035927D01*
X0128750Y0096144D01*
X0138811Y0106206D01*
X0140000Y0110000D02*
X0145000Y0105000D01*
X0161000Y0105000D01*
X0169000Y0113000D01*
X0159000Y0113000D02*
X0173500Y0127500D01*
X0173500Y0161500D01*
X0178000Y0166000D01*
X0178000Y0176000D01*
X0183000Y0181000D01*
X0183000Y0184953D01*
X0182953Y0185000D01*
X0182953Y0189047D01*
X0179000Y0193000D01*
X0178000Y0188000D02*
X0178000Y0180047D01*
X0172953Y0175000D01*
X0159000Y0161047D01*
X0159000Y0152000D01*
X0149403Y0161450D02*
X0124500Y0161450D01*
X0119937Y0156887D01*
X0119937Y0104126D01*
X0109986Y0094176D01*
X0099500Y0094176D01*
X0096775Y0091450D01*
X0096775Y0080000D01*
X0106775Y0070000D01*
X0121323Y0070000D01*
X0125250Y0063927D02*
X0125250Y0103250D01*
X0126887Y0099387D02*
X0130500Y0103000D01*
X0126887Y0099387D02*
X0126887Y0091000D01*
X0126887Y0090000D01*
X0126887Y0035565D01*
X0121323Y0030000D01*
X0121323Y0020000D02*
X0102887Y0020000D01*
X0095387Y0027500D01*
X0095387Y0092301D01*
X0098649Y0095563D01*
X0109411Y0095563D01*
X0118550Y0104701D01*
X0118550Y0157887D01*
X0123500Y0162838D01*
X0148338Y0162838D01*
X0158000Y0172500D01*
X0158000Y0180047D01*
X0162953Y0185000D01*
X0162953Y0189047D01*
X0159000Y0193000D01*
X0153000Y0193000D02*
X0152953Y0192953D01*
X0152953Y0185000D01*
X0148500Y0180547D01*
X0148500Y0172000D01*
X0140725Y0164225D01*
X0122500Y0164225D01*
X0117162Y0158887D01*
X0117162Y0105276D01*
X0108837Y0096950D01*
X0098075Y0096950D01*
X0094000Y0092876D01*
X0094000Y0027323D01*
X0086677Y0020000D01*
X0121323Y0060000D02*
X0125250Y0063927D01*
X0130750Y0063927D02*
X0130750Y0094500D01*
X0137500Y0101250D01*
X0139000Y0101250D01*
X0139000Y0096500D02*
X0139000Y0072000D01*
X0137000Y0070000D01*
X0134677Y0070000D01*
X0130750Y0063927D02*
X0134677Y0060000D01*
X0134677Y0080000D02*
X0134677Y0092677D01*
X0135000Y0093000D01*
X0139000Y0096500D02*
X0144500Y0102000D01*
X0177000Y0102000D01*
X0182962Y0107962D01*
X0182962Y0156610D01*
X0182953Y0156619D01*
X0182953Y0175000D01*
X0185000Y0177047D01*
X0185047Y0177047D01*
X0188000Y0180000D01*
X0188000Y0190000D01*
X0185000Y0193000D01*
X0193000Y0193000D02*
X0198000Y0188000D01*
X0205000Y0193000D02*
X0208000Y0190000D01*
X0208000Y0180047D01*
X0202953Y0175000D01*
X0196565Y0168613D01*
X0191000Y0168613D01*
X0187275Y0164887D01*
X0187275Y0106351D01*
X0178762Y0097838D01*
X0147000Y0097838D01*
X0143500Y0094338D01*
X0143500Y0082000D01*
X0155500Y0070000D01*
X0169323Y0070000D01*
X0173250Y0063927D02*
X0173250Y0086500D01*
X0178000Y0091250D01*
X0204000Y0091250D01*
X0216250Y0079000D01*
X0216250Y0074500D01*
X0210000Y0074500D02*
X0210000Y0080000D01*
X0201000Y0089000D01*
X0178500Y0089000D01*
X0175250Y0085750D01*
X0175250Y0035927D01*
X0169323Y0030000D01*
X0169323Y0060000D02*
X0173250Y0063927D01*
X0185886Y0093000D02*
X0188662Y0095776D01*
X0188662Y0164313D01*
X0191575Y0167225D01*
X0203725Y0167225D01*
X0208500Y0172000D01*
X0208500Y0177500D01*
X0212953Y0181953D01*
X0212953Y0185000D01*
X0212953Y0191047D01*
X0211000Y0193000D01*
X0217000Y0193000D02*
X0217000Y0179047D01*
X0212953Y0175000D01*
X0218500Y0177500D02*
X0222953Y0181953D01*
X0222953Y0185000D01*
X0223000Y0185047D01*
X0223000Y0193000D01*
X0218500Y0177500D02*
X0218500Y0155750D01*
X0218500Y0141500D01*
X0223000Y0137000D01*
X0231000Y0137000D01*
X0241500Y0126500D01*
X0241500Y0038500D01*
X0242000Y0039000D01*
X0241500Y0038500D02*
X0240000Y0037000D01*
X0224043Y0037000D01*
X0202142Y0015098D01*
X0185886Y0093000D02*
X0146672Y0093000D01*
X0140000Y0110000D02*
X0140000Y0114000D01*
X0135000Y0119000D01*
X0144250Y0133000D02*
X0162500Y0133000D01*
X0169000Y0139500D01*
X0169000Y0152000D01*
X0149403Y0161450D02*
X0162953Y0175000D01*
X0164976Y0177024D01*
X0165024Y0177024D01*
X0168000Y0180000D01*
X0168000Y0190000D01*
X0165000Y0193000D01*
X0173000Y0193000D02*
X0178000Y0188000D01*
X0165000Y0177047D02*
X0164976Y0177024D01*
X0144250Y0156750D02*
X0135000Y0156750D01*
X0135000Y0150000D02*
X0140000Y0145000D01*
X0140000Y0137250D01*
X0144250Y0133000D01*
X0149000Y0152000D02*
X0144250Y0156750D01*
X0126453Y0168500D02*
X0132953Y0175000D01*
X0132953Y0178953D01*
X0138000Y0184000D01*
X0138000Y0190000D01*
X0135000Y0193000D01*
X0132953Y0189047D02*
X0132953Y0185000D01*
X0128500Y0180547D01*
X0128500Y0173000D01*
X0125500Y0170000D01*
X0119915Y0170000D01*
X0111500Y0161585D01*
X0111500Y0107500D01*
X0106500Y0102500D01*
X0051500Y0102500D01*
X0046500Y0097500D01*
X0046500Y0027500D01*
X0039000Y0020000D01*
X0038677Y0020000D01*
X0038677Y0030000D02*
X0023677Y0045000D01*
X0011000Y0045000D01*
X0009000Y0047000D01*
X0009000Y0055000D01*
X0014000Y0060000D01*
X0016000Y0060000D01*
X0016000Y0050000D02*
X0026000Y0060000D01*
X0038677Y0060000D01*
X0038677Y0070000D02*
X0039000Y0070000D01*
X0045000Y0076000D01*
X0045000Y0098000D01*
X0051000Y0104000D01*
X0106000Y0104000D01*
X0110000Y0108000D01*
X0110000Y0162047D01*
X0122953Y0175000D01*
X0122953Y0178953D01*
X0128000Y0184000D01*
X0128000Y0188000D01*
X0123000Y0193000D01*
X0129000Y0193000D02*
X0132953Y0189047D01*
X0141000Y0193000D02*
X0142953Y0191047D01*
X0128000Y0208500D02*
X0125250Y0205750D01*
X0057010Y0205750D01*
X0052953Y0201693D01*
X0051000Y0193000D02*
X0058000Y0186000D01*
X0058000Y0180000D01*
X0053000Y0175000D01*
X0052953Y0175000D01*
X0057953Y0170000D02*
X0046000Y0170000D01*
X0047000Y0168613D02*
X0040000Y0161613D01*
X0047000Y0168613D02*
X0063613Y0168613D01*
X0068000Y0173000D01*
X0068000Y0177000D01*
X0071000Y0180000D01*
X0080000Y0180000D01*
X0083000Y0183000D01*
X0083000Y0184953D01*
X0082953Y0185000D01*
X0082953Y0186047D01*
X0081000Y0188000D01*
X0079000Y0188000D01*
X0077000Y0190000D01*
X0077000Y0193000D01*
X0072953Y0189047D02*
X0072953Y0185000D01*
X0068000Y0188000D02*
X0068000Y0180047D01*
X0062953Y0175000D01*
X0057953Y0170000D01*
X0062953Y0185000D02*
X0062953Y0187047D01*
X0057000Y0193000D01*
X0063000Y0193000D02*
X0068000Y0188000D01*
X0072953Y0189047D02*
X0069000Y0193000D01*
X0083000Y0193000D02*
X0088000Y0188000D01*
X0088000Y0180000D01*
X0087953Y0180000D01*
X0082953Y0175000D01*
X0080000Y0172047D01*
X0080000Y0127000D01*
X0097000Y0110000D01*
X0105000Y0110000D01*
X0113000Y0107000D02*
X0107113Y0101113D01*
X0052075Y0101113D01*
X0038677Y0080000D02*
X0036000Y0080000D01*
X0032000Y0084000D01*
X0057000Y0140000D02*
X0045000Y0152000D01*
X0057000Y0140000D02*
X0067000Y0140000D01*
X0082000Y0134000D02*
X0097000Y0119000D01*
X0105000Y0119000D01*
X0113000Y0107000D02*
X0113000Y0161000D01*
X0120500Y0168500D01*
X0126453Y0168500D01*
X0112953Y0185000D02*
X0112953Y0191047D01*
X0111000Y0193000D01*
X0108000Y0190000D02*
X0108000Y0183000D01*
X0102953Y0177953D01*
X0102953Y0175000D01*
X0102953Y0172953D01*
X0094000Y0164000D01*
X0094000Y0153000D01*
X0097000Y0150000D01*
X0105000Y0150000D01*
X0105000Y0140000D02*
X0097000Y0140000D01*
X0090000Y0147000D01*
X0090000Y0164000D01*
X0098000Y0172000D01*
X0098000Y0177000D01*
X0102953Y0181953D01*
X0102953Y0185000D01*
X0102953Y0189047D01*
X0099000Y0193000D01*
X0098000Y0188000D02*
X0098000Y0180000D01*
X0093047Y0175047D01*
X0093000Y0175047D01*
X0092953Y0175000D01*
X0082000Y0164047D01*
X0082000Y0134000D01*
X0089000Y0093000D02*
X0086677Y0090677D01*
X0086677Y0080000D01*
X0082953Y0185000D02*
X0082953Y0185047D01*
X0093000Y0193000D02*
X0098000Y0188000D01*
X0105000Y0193000D02*
X0108000Y0190000D01*
X0128000Y0208500D02*
X0128000Y0215000D01*
X0130000Y0217000D01*
X0207250Y0217000D01*
X0215000Y0224750D01*
X0215000Y0230000D01*
X0205000Y0230000D02*
X0195000Y0220000D01*
X0120000Y0220000D01*
X0118000Y0218000D01*
X0130000Y0250000D02*
X0114000Y0266000D01*
X0218500Y0155750D02*
X0195500Y0132750D01*
M02*
