%
M48
M72
T28C0.02800
T32C0.03200
T35C0.03500
T39C0.03900
T40C0.04000
T51C0.05100
T106C0.10600
%
T28
X32000Y65500
X32000Y74500
X32000Y84000
X25000Y130000
X25000Y180722
X21000Y190000
X45000Y193000
X51000Y193000
X57000Y193000
X63000Y193000
X69000Y193000
X77000Y193000
X83000Y193000
X93000Y193000
X99000Y193000
X105000Y193000
X111000Y193000
X117000Y193000
X123000Y193000
X129000Y193000
X135000Y193000
X141000Y193000
X147000Y193000
X153000Y193000
X159000Y193000
X165000Y193000
X173000Y193000
X179000Y193000
X185000Y193000
X193000Y193000
X199000Y193000
X205000Y193000
X211000Y193000
X217000Y193000
X223000Y193000
X149000Y136250
X149000Y129672
X138811Y106206
X139000Y101250
X135000Y93000
X130500Y103000
X125250Y103250
X117750Y87750
X100250Y87750
X89000Y93000
X82750Y93000
X77794Y93000
X73250Y87750
X80250Y29750
X80000Y19500
X128000Y20000
X146672Y87750
X146672Y93000
X135000Y156750
X107000Y166750
X107750Y219500
X52500Y235250
X19750Y219500
X14750Y244500
X54000Y294750
X57250Y300000
X14750Y304750
X210000Y74500
X216250Y74500
T32
X195500Y132750
X195500Y162750
X135000Y150000
X135000Y140000
X135000Y119000
X135000Y110000
X105000Y110000
X97000Y110000
X97000Y119000
X105000Y119000
X105000Y140000
X97000Y140000
X97000Y150000
X105000Y150000
X67000Y150000
X67000Y140000
X67000Y119000
X67000Y110000
X46500Y225250
X46250Y235250
X16250Y235250
X16500Y225250
T35
X38677Y80000
X38677Y70000
X38677Y60000
X38677Y50000
X38677Y40000
X38677Y30000
X38677Y20000
X38677Y10000
X73323Y10000
X73323Y20000
X73323Y30000
X73323Y40000
X73323Y50000
X73323Y60000
X73323Y70000
X73323Y80000
X86677Y80000
X86677Y70000
X86677Y60000
X86677Y50000
X86677Y40000
X86677Y30000
X86677Y20000
X86677Y10000
X121323Y10000
X121323Y20000
X121323Y30000
X121323Y40000
X121323Y50000
X121323Y60000
X121323Y70000
X121323Y80000
X134677Y80000
X134677Y70000
X134677Y60000
X134677Y50000
X134677Y40000
X134677Y30000
X134677Y20000
X134677Y10000
X169323Y10000
X169323Y20000
X169323Y30000
X169323Y40000
X169323Y50000
X169323Y60000
X169323Y70000
X169323Y80000
T39
X169000Y113000
X159000Y113000
X149000Y113000
X149000Y152000
X159000Y152000
X169000Y152000
X179000Y152000
X179000Y113000
X225000Y118000
X235000Y118000
X235000Y87000
X225000Y87000
X225000Y57000
X235000Y57000
X219858Y15098
X202142Y15098
X225000Y150000
X235000Y150000
X130000Y250000
X120000Y250000
X110000Y250000
X90000Y250000
X80000Y250000
X70000Y250000
X50000Y250000
X50000Y260000
X50000Y270000
X50000Y280000
X50000Y290000
X50000Y300000
X50000Y310000
X70000Y300000
X80000Y300000
X90000Y300000
X110000Y300000
X120000Y300000
X130000Y300000
X20000Y300000
X20000Y290000
X20000Y280000
X20000Y270000
X20000Y260000
X20000Y250000
X20000Y310000
X25000Y152000
X35000Y152000
X45000Y152000
X55000Y152000
X55000Y113000
X45000Y113000
X35000Y113000
X25000Y113000
X16000Y80000
X16000Y70000
X16000Y60000
X16000Y50000
X16000Y40000
T40
X32953Y175000
X32953Y185000
X42953Y185000
X42953Y175000
X52953Y175000
X52953Y185000
X62953Y185000
X72953Y185000
X72953Y175000
X62953Y175000
X82953Y175000
X82953Y185000
X92953Y185000
X92953Y175000
X102953Y175000
X102953Y185000
X112953Y185000
X122953Y185000
X122953Y175000
X112953Y175000
X132953Y175000
X132953Y185000
X142953Y185000
X142953Y175000
X152953Y175000
X152953Y185000
X162953Y185000
X172953Y185000
X172953Y175000
X162953Y175000
X182953Y175000
X182953Y185000
X192953Y185000
X192953Y175000
X202953Y175000
X202953Y185000
X212953Y185000
X222953Y185000
X222953Y175000
X212953Y175000
X212953Y201693
X222953Y201693
X222953Y211693
X212953Y211693
X202953Y211693
X202953Y201693
X192953Y201693
X192953Y211693
X182953Y211693
X182953Y201693
X172953Y201693
X172953Y211693
X162953Y211693
X162953Y201693
X152953Y201693
X152953Y211693
X142953Y211693
X142953Y201693
X132953Y201693
X132953Y211693
X122953Y211693
X122953Y201693
X112953Y201693
X112953Y211693
X102953Y211693
X102953Y201693
X92953Y201693
X92953Y211693
X82953Y211693
X82953Y201693
X72953Y201693
X72953Y211693
X62953Y211693
X62953Y201693
X52953Y201693
X52953Y211693
X42953Y211693
X42953Y201693
X32953Y201693
X32953Y211693
X175000Y230000
X185000Y230000
X195000Y230000
X205000Y230000
X215000Y230000
X225000Y230000
X215000Y300000
X205000Y300000
X195000Y300000
X185000Y300000
T51
X197201Y24902
X224799Y24902
T106
X13780Y13780
X13780Y206693
X242126Y206693
X242126Y13780
M30
