G75*
%MOIN*%
%OFA0B0*%
%FSLAX25Y25*%
%IPPOS*%
%LPD*%
%AMOC8*
5,1,8,0,0,1.08239X$1,22.5*
%
%ADD10R,0.05543X0.05543*%
%ADD11C,0.05543*%
%ADD12OC8,0.05200*%
%ADD13OC8,0.06000*%
%ADD14C,0.05898*%
%ADD15C,0.07677*%
%ADD16C,0.05937*%
%ADD17R,0.05900X0.05900*%
%ADD18C,0.05900*%
%ADD19C,0.06000*%
D10*
X0038677Y0080000D03*
X0086677Y0080000D03*
X0134677Y0080000D03*
D11*
X0134677Y0070000D03*
X0134677Y0060000D03*
X0134677Y0050000D03*
X0134677Y0040000D03*
X0134677Y0030000D03*
X0134677Y0020000D03*
X0134677Y0010000D03*
X0121323Y0010000D03*
X0121323Y0020000D03*
X0121323Y0030000D03*
X0121323Y0040000D03*
X0121323Y0050000D03*
X0121323Y0060000D03*
X0121323Y0070000D03*
X0121323Y0080000D03*
X0086677Y0070000D03*
X0086677Y0060000D03*
X0086677Y0050000D03*
X0086677Y0040000D03*
X0086677Y0030000D03*
X0086677Y0020000D03*
X0086677Y0010000D03*
X0073323Y0010000D03*
X0073323Y0020000D03*
X0073323Y0030000D03*
X0073323Y0040000D03*
X0073323Y0050000D03*
X0073323Y0060000D03*
X0073323Y0070000D03*
X0073323Y0080000D03*
X0038677Y0070000D03*
X0038677Y0060000D03*
X0038677Y0050000D03*
X0038677Y0040000D03*
X0038677Y0030000D03*
X0038677Y0020000D03*
X0038677Y0010000D03*
X0169323Y0010000D03*
X0169323Y0020000D03*
X0169323Y0030000D03*
X0169323Y0040000D03*
X0169323Y0050000D03*
X0169323Y0060000D03*
X0169323Y0070000D03*
X0169323Y0080000D03*
D12*
X0135000Y0110000D03*
X0135000Y0119000D03*
X0135000Y0140000D03*
X0135000Y0150000D03*
X0105000Y0150000D03*
X0097000Y0150000D03*
X0097000Y0140000D03*
X0105000Y0140000D03*
X0105000Y0119000D03*
X0097000Y0119000D03*
X0097000Y0110000D03*
X0105000Y0110000D03*
X0067000Y0110000D03*
X0067000Y0119000D03*
X0067000Y0140000D03*
X0067000Y0150000D03*
X0046500Y0225250D03*
X0046250Y0235250D03*
X0016250Y0235250D03*
X0016500Y0225250D03*
X0195500Y0162750D03*
X0195500Y0132750D03*
D13*
X0192953Y0175000D03*
X0192953Y0185000D03*
X0202953Y0185000D03*
X0202953Y0175000D03*
X0212953Y0175000D03*
X0222953Y0175000D03*
X0222953Y0185000D03*
X0212953Y0185000D03*
X0212953Y0201693D03*
X0222953Y0201693D03*
X0222953Y0211693D03*
X0212953Y0211693D03*
X0202953Y0211693D03*
X0202953Y0201693D03*
X0192953Y0201693D03*
X0192953Y0211693D03*
X0182953Y0211693D03*
X0182953Y0201693D03*
X0172953Y0201693D03*
X0172953Y0211693D03*
X0162953Y0211693D03*
X0162953Y0201693D03*
X0152953Y0201693D03*
X0152953Y0211693D03*
X0142953Y0211693D03*
X0142953Y0201693D03*
X0132953Y0201693D03*
X0132953Y0211693D03*
X0122953Y0211693D03*
X0122953Y0201693D03*
X0112953Y0201693D03*
X0112953Y0211693D03*
X0102953Y0211693D03*
X0102953Y0201693D03*
X0092953Y0201693D03*
X0092953Y0211693D03*
X0082953Y0211693D03*
X0082953Y0201693D03*
X0072953Y0201693D03*
X0072953Y0211693D03*
X0062953Y0211693D03*
X0062953Y0201693D03*
X0052953Y0201693D03*
X0052953Y0211693D03*
X0042953Y0211693D03*
X0042953Y0201693D03*
X0032953Y0201693D03*
X0032953Y0211693D03*
X0032953Y0185000D03*
X0032953Y0175000D03*
X0042953Y0175000D03*
X0042953Y0185000D03*
X0052953Y0185000D03*
X0052953Y0175000D03*
X0062953Y0175000D03*
X0072953Y0175000D03*
X0072953Y0185000D03*
X0062953Y0185000D03*
X0082953Y0185000D03*
X0082953Y0175000D03*
X0092953Y0175000D03*
X0092953Y0185000D03*
X0102953Y0185000D03*
X0102953Y0175000D03*
X0112953Y0175000D03*
X0122953Y0175000D03*
X0122953Y0185000D03*
X0112953Y0185000D03*
X0132953Y0185000D03*
X0132953Y0175000D03*
X0142953Y0175000D03*
X0142953Y0185000D03*
X0152953Y0185000D03*
X0152953Y0175000D03*
X0162953Y0175000D03*
X0172953Y0175000D03*
X0172953Y0185000D03*
X0162953Y0185000D03*
X0182953Y0185000D03*
X0182953Y0175000D03*
D14*
X0202142Y0015098D03*
X0219858Y0015098D03*
D15*
X0224799Y0024902D03*
X0197201Y0024902D03*
D16*
X0018969Y0040000D02*
X0013031Y0040000D01*
X0013031Y0050000D02*
X0018969Y0050000D01*
X0018969Y0060000D02*
X0013031Y0060000D01*
X0013031Y0070000D02*
X0018969Y0070000D01*
X0018969Y0080000D02*
X0013031Y0080000D01*
X0025000Y0110031D02*
X0025000Y0115969D01*
X0035000Y0115969D02*
X0035000Y0110031D01*
X0045000Y0110031D02*
X0045000Y0115969D01*
X0055000Y0115969D02*
X0055000Y0110031D01*
X0055000Y0149031D02*
X0055000Y0154969D01*
X0045000Y0154969D02*
X0045000Y0149031D01*
X0035000Y0149031D02*
X0035000Y0154969D01*
X0025000Y0154969D02*
X0025000Y0149031D01*
X0070000Y0247031D02*
X0070000Y0252969D01*
X0080000Y0252969D02*
X0080000Y0247031D01*
X0090000Y0247031D02*
X0090000Y0252969D01*
X0110000Y0252969D02*
X0110000Y0247031D01*
X0120000Y0247031D02*
X0120000Y0252969D01*
X0130000Y0252969D02*
X0130000Y0247031D01*
X0130000Y0297031D02*
X0130000Y0302969D01*
X0120000Y0302969D02*
X0120000Y0297031D01*
X0110000Y0297031D02*
X0110000Y0302969D01*
X0090000Y0302969D02*
X0090000Y0297031D01*
X0080000Y0297031D02*
X0080000Y0302969D01*
X0070000Y0302969D02*
X0070000Y0297031D01*
X0149000Y0154969D02*
X0149000Y0149031D01*
X0159000Y0149031D02*
X0159000Y0154969D01*
X0169000Y0154969D02*
X0169000Y0149031D01*
X0179000Y0149031D02*
X0179000Y0154969D01*
X0179000Y0115969D02*
X0179000Y0110031D01*
X0169000Y0110031D02*
X0169000Y0115969D01*
X0159000Y0115969D02*
X0159000Y0110031D01*
X0149000Y0110031D02*
X0149000Y0115969D01*
X0225000Y0115031D02*
X0225000Y0120969D01*
X0235000Y0120969D02*
X0235000Y0115031D01*
X0235000Y0089969D02*
X0235000Y0084031D01*
X0225000Y0084031D02*
X0225000Y0089969D01*
X0225000Y0059969D02*
X0225000Y0054031D01*
X0235000Y0054031D02*
X0235000Y0059969D01*
X0235000Y0147031D02*
X0235000Y0152969D01*
X0225000Y0152969D02*
X0225000Y0147031D01*
D17*
X0020000Y0310000D03*
D18*
X0020000Y0300000D03*
X0020000Y0290000D03*
X0020000Y0280000D03*
X0020000Y0270000D03*
X0020000Y0260000D03*
X0020000Y0250000D03*
X0050000Y0250000D03*
X0050000Y0260000D03*
X0050000Y0270000D03*
X0050000Y0280000D03*
X0050000Y0290000D03*
X0050000Y0300000D03*
X0050000Y0310000D03*
D19*
X0175000Y0233000D02*
X0175000Y0227000D01*
X0185000Y0227000D02*
X0185000Y0233000D01*
X0195000Y0233000D02*
X0195000Y0227000D01*
X0205000Y0227000D02*
X0205000Y0233000D01*
X0215000Y0233000D02*
X0215000Y0227000D01*
X0225000Y0227000D02*
X0225000Y0233000D01*
X0215000Y0297000D02*
X0215000Y0303000D01*
X0205000Y0303000D02*
X0205000Y0297000D01*
X0195000Y0297000D02*
X0195000Y0303000D01*
X0185000Y0303000D02*
X0185000Y0297000D01*
M02*
